<svg width="56" height="71" viewBox="0 0 56 71" fill="none" xmlns="http://www.w3.org/2000/svg">
<path fill-rule="evenodd" clip-rule="evenodd" d="M28.003 0.143495C27.7958 0.21932 27.5954 0.312516 27.5576 0.350663C27.5197 0.38881 27.9294 0.53858 28.4676 0.683421C30.6453 1.26936 33.9974 2.64641 35.9084 3.74C37.9692 4.91938 39.9338 6.61933 40.8805 8.04251C41.1864 8.50239 41.6859 9.50595 41.9903 10.2726C42.2948 11.0393 42.5962 11.7459 42.6601 11.8428C42.8832 12.1808 42.7914 11.5388 42.4749 10.5465C41.6906 8.08758 40.7864 6.51616 39.7721 5.84888C39.4382 5.62915 38.445 4.75811 37.565 3.91324C36.685 3.06826 35.6327 2.17961 35.2268 1.9384C34.0224 1.22276 31.8112 0.226597 31.1528 0.103001C30.3307 -0.0514654 28.4704 -0.0275206 28.003 0.143495ZM35.0783 0.776031C35.8372 1.15527 38.9883 3.45853 40.3062 4.59719C40.8033 5.02678 41.4063 5.67082 41.6458 6.02823C42.0769 6.67133 42.4251 6.8704 42.4237 6.47285C42.4208 5.69089 39.6715 2.69054 38.1034 1.75823C37.3282 1.29729 35.5942 0.628372 34.8983 0.521795L34.4242 0.44914L35.0783 0.776031ZM25.6126 1.03062C25.4953 1.10421 25.5493 1.16396 25.8161 1.2561C26.4715 1.4824 29.6531 3.27425 31.1783 4.27617C32.0081 4.82126 32.9191 5.52903 33.2259 5.86707C33.5301 6.20206 33.8035 6.45172 33.8335 6.42202C33.9051 6.35125 33.2598 5.34734 32.7355 4.71374C32.5083 4.4392 32.0026 4.00304 31.6117 3.74446C31.2207 3.48588 30.9364 3.27437 30.9797 3.27437C31.1489 3.27437 32.9992 4.23908 33.4616 4.56831C33.7303 4.75964 34.0991 5.10132 34.2811 5.32773C34.9747 6.19021 35.2254 5.57364 34.5723 4.61127C34.3604 4.29917 33.9205 3.84258 33.5945 3.5968C32.7916 2.99126 29.449 1.32253 28.6005 1.10374C27.8654 0.914065 25.8759 0.865354 25.6126 1.03062ZM21.5054 1.26924C20.5327 1.52113 19.9343 1.93488 20.0629 2.26682C20.1404 2.46682 21.3595 3.28587 22.2095 3.70901C23.2087 4.20633 25.133 5.35508 25.9499 5.94184C26.6637 6.45454 26.6964 6.46675 26.3944 6.10816C26.0408 5.68855 26.0016 5.55932 26.1922 5.44265C26.4006 5.31506 26.871 5.7085 27.295 6.3651C27.517 6.70866 28.0862 7.30257 28.5599 7.68498C29.1786 8.18418 29.5418 8.59183 29.8487 9.13093C30.0837 9.54386 30.3293 9.86077 30.3945 9.83519C30.4597 9.8096 30.5138 9.36615 30.5149 8.8497C30.5158 8.33325 30.5377 7.85788 30.5633 7.79332C30.662 7.54484 30.3792 7.22757 28.7838 5.79665C27.877 4.98335 27.1351 4.26807 27.1351 4.20703C27.1351 3.98555 27.6933 4.10363 28.2082 4.43404C28.498 4.62008 29.0535 5.09545 29.4426 5.49042C30.2532 6.31345 30.6908 6.44609 30.6908 5.86883C30.6908 5.59582 30.5042 5.35508 29.7426 4.64555C29.2211 4.15973 28.7944 3.71441 28.7944 3.65607C28.7944 3.35031 28.1847 3.01649 27.4149 2.90088C26.2473 2.72552 26.0771 2.64254 26.1046 2.26259C26.1231 2.00859 26.0237 1.87067 25.6143 1.58216C25.1058 1.22382 25.0853 1.22006 23.4809 1.1987C22.59 1.18684 21.701 1.21854 21.5054 1.26924ZM15.7659 2.45919C14.6366 2.75205 13.1596 3.46135 12.1921 4.17558C10.5189 5.41083 8.3389 7.69602 6.33968 10.3103C5.46619 11.4526 5.17723 11.9576 4.95892 12.7231C4.87619 13.0134 5.00905 12.9103 5.7152 12.1362C9.33365 8.16986 12.0106 5.60533 13.6809 4.50505C14.7835 3.77873 16.43 2.92224 16.7237 2.92224C16.9867 2.92224 17.1426 2.45884 16.9254 2.32245C16.7264 2.19757 16.8145 2.18724 15.7659 2.45919ZM17.4513 3.72791C16.9163 3.83859 16.4398 3.96759 16.3924 4.01454C16.1944 4.21067 16.6252 4.35586 17.6692 4.44472C19.5023 4.60083 21.2579 5.28736 22.0188 6.14561C22.2214 6.37402 22.4154 6.56088 22.4499 6.56088C22.6221 6.56088 22.4735 5.93363 22.1488 5.29017C21.3305 3.66828 19.9529 3.21016 17.4513 3.72791ZM36.6626 5.39522C37.3722 6.13316 38.1663 7.01559 38.4274 7.35633C38.6883 7.69696 38.9295 7.94826 38.9632 7.91492C38.9968 7.88159 38.8293 7.46326 38.5908 6.98543C38.0612 5.92412 37.152 4.98981 36.1209 4.4473L35.3724 4.05339L36.6626 5.39522ZM16.0534 4.87173C15.5308 4.99732 14.9275 5.31435 14.9275 5.46365C14.9275 5.55063 14.9691 5.62188 15.0199 5.62188C15.3309 5.62188 18.1515 6.0044 18.5972 6.10699C19.6003 6.33798 20.3189 6.59539 20.7329 6.87204C21.2544 7.22041 21.5647 7.23062 21.5647 6.89951C21.5647 6.44468 20.9648 6.08915 19.1942 5.49441C17.5525 4.94298 16.5689 4.7479 16.0534 4.87173ZM31.3256 5.98539C31.3476 6.18528 31.4367 6.39233 31.5236 6.4455C31.6105 6.49867 31.6939 6.62544 31.709 6.72744C31.724 6.82932 31.9855 7.25832 32.2899 7.68076C32.6945 8.2424 32.8976 8.43161 33.0457 8.38513C33.1947 8.33829 33.3471 8.48431 33.6226 8.93773C33.8286 9.2766 34.0576 9.71241 34.1317 9.90608C34.3231 10.4073 34.7205 12.8109 34.7205 13.4678C34.7205 14.2751 35.2873 15.3401 36.8941 17.5523C39.0704 20.5485 39.65 21.5889 40.5464 24.1085C40.9604 25.2723 41.0089 26.6553 40.6668 27.5468C40.1944 28.7781 38.6393 30.7629 37.3841 31.7364C36.6808 32.2821 36.4983 32.4874 36.4983 32.7336C36.4983 33.1069 36.2204 33.3254 34.8494 34.0299C34.301 34.3117 33.92 34.5645 34.0026 34.5918C34.0853 34.6191 34.6104 35.0049 35.1695 35.4492C36.0251 36.1289 36.4526 36.3773 36.5094 36.2275C36.5156 36.2114 36.5822 35.6436 36.6576 34.9657L36.7946 33.7333L38.5132 33.648C39.5475 33.5967 40.3969 33.6081 40.6465 33.6767C41.3624 33.8734 41.5253 33.8132 42.5966 32.955C43.4988 32.2322 43.6109 32.1702 43.418 32.5009C43.2952 32.7114 42.7815 33.2974 42.2762 33.8028C41.771 34.3082 41.3577 34.7797 41.3577 34.8504C41.3577 35.0896 40.3147 35.4377 39.0867 35.6084C37.7282 35.7972 37.565 35.9046 37.565 36.6109C37.565 37.3928 38.5977 39.9623 38.9686 40.1033C39.1876 40.1865 39.3995 39.8028 39.3581 39.3979C39.34 39.2212 39.4087 38.7919 39.5109 38.4442C39.6955 37.8151 39.9189 37.5601 41.0007 36.7428C41.2024 36.5904 41.5223 36.162 41.7116 35.7908C42.0221 35.1815 42.1201 35.0898 42.7179 34.8494C43.5772 34.5041 44.0426 33.9572 44.6607 32.5671C45.1268 31.5187 45.1502 31.4102 45.1486 30.3107C45.1456 28.4264 44.8723 28.3769 44.3131 30.1593C44.1116 30.8016 43.9174 31.3271 43.8813 31.3271C43.8454 31.3271 43.8514 31.018 43.8945 30.6403C43.9376 30.2627 43.9169 29.3653 43.8484 28.6462C43.7447 27.557 43.753 27.2697 43.8984 26.925C43.9944 26.6976 44.1554 26.4801 44.2561 26.4418C44.4981 26.3498 44.4883 25.9243 44.2074 24.3433C43.9253 22.7552 43.8514 22.5474 42.7407 20.2236C41.6266 17.8927 40.4146 14.2821 40 12.0586C39.6588 10.2289 39.5535 9.9035 39.1718 9.49527C39.0208 9.33387 38.8329 9.00241 38.7544 8.75874C38.5501 8.12597 38.1092 7.65787 37.1072 7.00996C35.6316 6.05605 35.5614 6.23528 36.7394 7.9506C37.1977 8.61812 37.7642 9.54081 37.9982 10.0008C38.5093 11.0059 40.5221 16.171 40.8172 17.2347C41.0183 17.9599 41.0182 17.9964 40.814 18.1443C40.697 18.2291 40.4567 18.2984 40.2801 18.2984C40.0048 18.2984 39.8118 18.0937 38.9249 16.8606C37.3891 14.7249 36.3274 13.463 35.7911 13.1355C35.2483 12.8041 35.2023 12.5644 35.4519 11.3673L35.5908 10.7015L34.7231 8.96438C34.2459 8.00882 33.674 7.02815 33.4521 6.78483C32.9225 6.20441 31.9949 5.62188 31.6 5.62188C31.3186 5.62188 31.2897 5.66026 31.3256 5.98539ZM23.7208 5.95158C23.2902 6.01544 23.4724 6.23199 24.3588 6.71042C26.4205 7.8229 27.8271 8.97612 28.4382 10.0549C28.5943 10.3305 28.7783 10.536 28.8472 10.5117C29.0262 10.4482 28.9528 9.66804 28.7263 9.22565C28.4948 8.77352 26.3268 6.76828 25.6353 6.36674C25.1357 6.07659 24.2189 5.87776 23.7208 5.95158ZM43.7281 6.66253C43.7281 6.80702 45.9577 10.3302 46.2181 10.5973C46.5315 10.9187 46.8589 10.765 46.7558 10.3452C46.446 9.08351 46.1709 8.61272 45.1444 7.58791C44.2345 6.67943 43.7281 6.34866 43.7281 6.66253ZM15.8164 7.03355C14.4191 7.18426 13.0275 7.75881 12.9374 8.22221C12.9052 8.38783 13.2152 8.40731 15.7811 8.40086C18.2809 8.39475 18.8094 8.42609 19.7868 8.63901C21.2749 8.96308 21.8813 9.23904 22.6807 9.95585C23.0461 10.2836 23.4244 10.5516 23.5216 10.5516C23.7683 10.5516 23.742 10.1581 23.4583 9.60748L23.2186 9.14208L23.811 9.36498C24.6208 9.66969 25.8206 10.5394 26.4582 11.2838C27.5964 12.613 28.1186 13.8941 28.3823 16.0041C28.4795 16.7818 28.636 18.0255 28.7301 18.7679C28.8242 19.5103 28.9287 20.7031 28.9624 21.4185C29.0245 22.738 29.0938 23.1108 29.2771 23.1108C29.5225 23.1108 29.6568 22.4989 29.738 21.0103C29.7859 20.1321 29.8332 19.5516 29.8431 19.7204C29.853 19.8892 29.9678 20.1616 30.0982 20.3259C30.549 20.8935 30.3273 22.0401 29.3834 24.0218C29.0553 24.7105 28.8019 25.3444 28.8203 25.4302C28.8401 25.5224 29.2005 25.2724 29.7015 24.8189L30.5493 24.0516L30.3761 24.7083C30.1351 25.6222 29.7304 26.4933 28.9017 27.8818C28.1163 29.1979 27.8957 29.9186 28.2785 29.9186C28.5611 29.9186 28.9439 29.6685 29.6077 29.0502L30.1247 28.5688L29.9264 28.9582C29.8174 29.1723 29.7447 29.4611 29.765 29.5997C29.8117 29.9195 30.4386 30.3397 31.2055 30.5652C31.9848 30.7944 34.1132 30.804 34.4229 30.5796C34.6369 30.4246 34.6354 30.414 34.3802 30.2788C34.2348 30.2017 33.5552 30.0713 32.8701 29.9889C31.4296 29.8155 31.2379 29.6926 31.0104 28.7967C30.8829 28.2946 30.8263 28.2206 30.5889 28.2465C30.3216 28.2755 30.3241 28.2644 30.683 27.8156C32.0208 26.1429 32.0442 23.5713 30.7579 19.5896C30.539 18.9117 30.3229 18.1329 30.2779 17.8589C30.2329 17.5849 30.1489 17.3318 30.0913 17.2965C29.9948 17.2375 29.9431 17.3759 29.827 18.005C29.8032 18.1341 29.7437 17.7115 29.6948 17.066C29.5774 15.5135 29.3174 13.8656 29.0189 12.7818C28.6577 11.4701 27.8381 9.87145 27.1728 9.18105C26.0336 7.99861 24.9363 7.61726 22.6734 7.61726C21.8765 7.61726 21.0799 7.5628 20.9032 7.49624C20.1763 7.22252 16.8603 6.92087 15.8164 7.03355ZM35.3131 8.00037C35.3131 8.08664 35.3584 8.20742 35.4136 8.26869C35.469 8.32996 36.0124 9.55736 36.6213 10.9961C37.4507 12.956 37.7748 13.6034 37.9133 13.5774C38.1546 13.5322 38.2207 12.6864 38.0392 11.9655C37.8791 11.3294 36.9725 9.50994 36.4957 8.86789C36.1 8.33501 35.3131 7.75776 35.3131 8.00037ZM43.1895 9.34855C43.2333 9.52602 43.5611 10.3461 43.9178 11.1708C45.7297 15.3598 46.8361 18.4295 47.2752 20.4863C47.4111 21.1228 47.5497 21.7624 47.5831 21.9077C47.6164 22.053 47.704 22.1718 47.7776 22.1718C47.957 22.1718 47.8364 20.3932 47.5825 19.2961C47.1626 17.4814 46.5709 16.0635 43.6765 9.93542C43.236 9.00288 43.0483 8.77669 43.1895 9.34855ZM14.0059 9.43294C13.3498 9.63576 12.8839 9.94117 12.9844 10.1022C13.0387 10.1892 13.4808 10.204 14.3823 10.149C16.3736 10.0276 17.6185 10.2096 18.766 10.79C19.2803 11.05 19.7281 11.2358 19.7612 11.2031C19.9293 11.0365 19.1571 10.1988 18.576 9.91723C17.3323 9.31462 15.1398 9.08234 14.0059 9.43294ZM29.0552 10.8099C28.7743 11.0881 28.9258 11.4115 29.7232 12.2368C30.5055 13.0463 31.1649 14.0332 31.1649 14.3945C31.1649 14.7942 31.7347 15.5115 32.9487 16.6397C34.3584 17.9497 35.6514 19.5621 36.6794 21.2921C37.2967 22.3306 37.6249 22.983 39.2036 26.3093C39.5329 27.0033 39.859 27.5711 39.9282 27.5711C40.1042 27.5711 40.0959 27.5133 39.7076 26.0238C39.0503 23.5021 38.6698 22.6613 36.7957 19.5896C34.8485 16.3981 33.5892 14.4979 33.1642 14.1101C32.7809 13.7602 32.2554 13.5796 31.8669 13.6641C31.5809 13.7263 31.5284 13.6893 31.4139 13.3459C31.3426 13.1321 30.9985 12.6326 30.6492 12.2359C30.2998 11.8393 29.8953 11.3243 29.7501 11.0918C29.4734 10.6485 29.2924 10.575 29.0552 10.8099ZM12.9126 11.0066C11.1296 11.5743 11.3704 11.7692 13.7264 11.6649C17.9085 11.4798 20.7328 12.1802 22.7499 13.9025C23.1736 14.2643 23.667 14.6369 23.8462 14.7304C24.1481 14.8881 24.1721 14.884 24.1721 14.6757C24.1721 14.552 23.8912 14.0623 23.548 13.5877C22.9701 12.7884 22.8581 12.6966 22.0368 12.348C20.8896 11.8611 18.6064 11.2146 17.1882 10.975C15.6922 10.7224 13.7603 10.7366 12.9126 11.0066ZM44.9133 11.0959C44.9133 11.137 45.2024 11.7577 45.5556 12.4751C46.725 14.85 47.9048 18.3126 48.2947 20.5146C48.3913 21.0597 48.4686 22.2111 48.4681 23.0969C48.4677 23.976 48.5194 25.0915 48.5831 25.5757C48.6467 26.0599 48.7543 27.1063 48.8222 27.9009C48.9491 29.3837 49.1804 30.2119 49.4436 30.1251C49.5253 30.0981 49.6786 29.7922 49.784 29.4453C49.988 28.7754 50.1659 28.6019 50.2984 28.9438C50.343 29.0586 50.4386 29.9131 50.5112 30.8427L50.6428 32.5328L49.9707 33.1523C49.377 33.6996 49.2989 33.8245 49.3012 34.222C49.305 34.8835 49.6128 35.4538 50.8149 37.0275C52.1771 38.8107 52.2916 38.9167 52.6705 38.7458C52.8763 38.653 52.982 38.4863 53.0359 38.1696C53.1588 37.4493 53.211 37.3283 53.4232 37.2698C53.534 37.2394 53.7525 37.1779 53.9087 37.1331C54.1819 37.0549 54.1903 37.07 54.1282 37.529C54.0926 37.7914 53.8702 38.3214 53.6338 38.7067C52.7302 40.1798 52.0589 42.3604 52.5091 42.3604C52.7712 42.3604 53.9931 40.9882 54.3189 40.3277C55.493 37.9477 55.6015 37.5279 55.3368 36.3906C55.1982 35.7958 55.3095 35.587 55.7963 35.5282C56.099 35.4917 56.0898 35.4775 55.5955 35.2182C54.9987 34.9052 53.1119 33.1955 52.8667 32.7456C52.6453 32.3395 52.5186 32.27 51.9949 32.2679C51.5005 32.2659 51.4603 32.1645 51.6695 31.4437C51.7733 31.0857 51.7435 30.9503 51.4344 30.3754C51.2397 30.0134 51.0476 29.5117 51.0075 29.2604C50.9674 29.0091 50.7518 28.3546 50.5284 27.8058C50.0227 26.5638 49.9394 26.0676 50.1259 25.4082C50.2607 24.9308 50.2433 24.8027 49.906 23.7948C49.7045 23.1926 49.4875 22.3303 49.4237 21.8784C49.36 21.4265 49.1956 20.7134 49.0583 20.2938C48.9212 19.8742 48.5458 18.6329 48.2243 17.5355C47.9028 16.438 47.3392 14.78 46.972 13.8511C46.4106 12.4307 46.216 12.0713 45.7491 11.5916C45.2546 11.0836 44.9133 10.8811 44.9133 11.0959ZM13.3078 11.9247C12.8892 11.9792 12.2756 12.4738 12.3505 12.6964C12.3854 12.8003 12.894 12.8469 14.1737 12.8635C17.5765 12.9077 19.1973 13.5311 20.5553 15.3181C21.2442 16.2244 21.6591 16.4613 21.5099 15.8629C21.3058 15.0448 20.3269 13.9268 19.2854 13.3223C17.9491 12.5467 14.5803 11.7591 13.3078 11.9247ZM41.1206 12.2092C41.1206 12.516 42.511 17.048 43.1485 18.8195C43.7174 20.4003 44.5498 22.0895 45.028 22.6339C45.223 22.8559 45.4027 23.0143 45.4274 22.986C45.4522 22.9579 44.8674 21.2974 44.1279 19.2961C43.3884 17.2949 42.5133 14.8938 42.1832 13.9606C41.853 13.0272 41.5257 12.1954 41.4558 12.1119C41.2663 11.8857 41.1206 11.9281 41.1206 12.2092ZM43.7647 14.3825C43.7237 14.4883 43.7788 14.8449 43.8873 15.1748C43.9957 15.5049 44.4058 17.1481 44.7987 18.8266C45.4033 21.4095 45.8992 23.3898 46.1748 24.3215C46.2329 24.5178 46.1982 24.5146 45.7364 24.2813L45.2351 24.028L45.3146 24.5378C45.4469 25.3861 45.7489 26.1575 46.0011 26.2911C46.1927 26.3928 46.2918 26.3687 46.5067 26.1687C46.7441 25.9479 46.791 25.9402 46.9248 26.1C47.4393 26.7139 47.3975 26.0365 46.679 22.1217C46.0413 18.6459 45.5878 16.7025 45.1439 15.5415C44.7426 14.4921 43.9728 13.8452 43.7647 14.3825ZM5.44936 14.5557C4.92158 14.7642 4.35719 15.2699 4.17798 15.6948C4.04417 16.0119 4.02059 16.3533 4.07973 17.1173L4.15771 18.1224L3.66466 18.9265C3.39349 19.3688 3.04895 20.0879 2.89902 20.5246C2.74897 20.9612 2.38073 21.7795 2.08051 22.3433C1.61674 23.2138 1.53461 23.4687 1.53461 24.0362C1.53461 24.7535 1.85758 25.8284 2.16419 26.1322C2.31424 26.2807 2.3876 26.2896 2.52615 26.1756C2.73759 26.0019 2.79022 26.1349 2.99727 27.3651C3.13618 28.1907 3.15147 28.2177 3.49945 28.2517C3.72819 28.274 3.97436 28.1965 4.17798 28.0378C4.46362 27.8153 4.49763 27.7115 4.49763 27.063C4.49763 26.6638 4.44371 26.1526 4.37769 25.927C4.09964 24.976 4.01596 24.0346 4.1448 23.3077C4.31855 22.3276 4.78244 20.8268 5.34091 19.4385C5.59502 18.8067 5.90803 17.9144 6.03639 17.4556C6.1651 16.9957 6.48381 16.2962 6.74669 15.8966C7.2734 15.096 7.34048 14.73 6.9944 14.5465C6.70983 14.3957 5.84095 14.4009 5.44936 14.5557ZM24.9565 14.595C24.9928 14.6884 25.2049 14.9028 25.428 15.0713C25.8565 15.395 26.3055 16.138 26.3055 16.5235C26.3055 16.8598 26.433 17.133 26.555 17.0584C26.7616 16.9319 26.6721 15.6768 26.4282 15.2807C26.09 14.7315 24.7714 14.1169 24.9565 14.595ZM13.3867 14.6343C13.3867 14.6849 13.7733 14.7968 14.246 14.8829C15.3526 15.0847 16.9698 15.6081 17.857 16.0515C19.3713 16.8086 20.3525 17.8799 20.6139 19.0614C20.8365 20.0679 20.864 20.1288 20.9922 19.902C21.0613 19.7796 21.056 19.4545 20.978 19.0319C20.5761 16.8541 18.8311 15.2419 16.3196 14.7282C15.3807 14.5361 13.3867 14.4723 13.3867 14.6343ZM22.1573 15.2319C22.1573 15.2792 22.3426 15.496 22.5692 15.7135C23.2686 16.3847 23.5199 17.3348 23.5224 19.3178C23.5236 20.2335 23.5628 21.0206 23.6096 21.067C23.7697 21.2255 24.3196 19.7999 24.4218 18.9608C24.4781 18.4996 24.5732 17.9216 24.6333 17.6765C24.8978 16.5952 24.1171 15.7103 22.4832 15.2396C22.304 15.188 22.1573 15.1845 22.1573 15.2319ZM26.204 19.8213C26.6599 20.4613 26.7203 20.6206 26.7203 21.1826C26.7203 21.5326 26.7323 21.8191 26.7469 21.8193C26.7616 21.8196 26.8548 21.6638 26.9543 21.4734C27.1599 21.0798 27.193 20.2681 27.0169 19.9422C26.8748 19.6791 26.3521 19.3008 25.967 19.1823C25.7168 19.1053 25.7413 19.1715 26.204 19.8213ZM33.8054 19.8282C35.5768 22.8264 36.4968 25.0094 36.725 26.7566C36.8175 27.464 36.8248 27.4778 36.8388 26.9702C36.8875 25.2125 36.0752 22.7872 34.8432 21.0123C34.3183 20.2561 33.5203 19.3455 33.8054 19.8282ZM23.8897 21.082C23.8385 21.1327 23.6166 21.5597 23.3966 22.031C23.1768 22.5023 22.8079 23.1959 22.5771 23.5722C22.0922 24.3627 22.0725 24.5764 22.3912 25.5927C22.8505 27.0574 23.6286 27.7409 24.9982 27.8827C25.9707 27.9833 25.928 27.8292 24.7615 27.0287C23.7932 26.3642 23.4663 25.993 23.671 25.7903C23.8625 25.6006 24.7089 26.0487 25.5957 26.8093C26.2944 27.4084 26.6611 27.5955 26.6611 27.3528C26.6611 27.1675 26.0481 26.3463 25.4219 25.6923C24.5803 24.8135 24.3709 24.1664 24.359 22.4083C24.3514 21.2892 24.3187 21.0542 24.1663 21.0251C24.0653 21.0057 23.9409 21.0314 23.8897 21.082ZM27.9055 21.6959C27.3657 21.9148 27.248 22.2059 27.138 23.595C26.8003 27.8561 26.8854 30.7747 27.3861 32.0997C27.6619 32.83 27.996 33.1053 28.5733 33.0782C28.7927 33.0679 29.199 33.099 29.4759 33.1472C29.7529 33.1956 29.9797 33.1992 29.9797 33.1553C29.9797 33.1114 29.603 32.6814 29.1427 32.1997C27.8053 30.8004 27.8355 30.9386 27.9602 26.8003C28.0423 24.0727 28.111 23.1372 28.2674 22.6176C28.457 21.9872 28.4441 21.5755 28.2351 21.5923C28.1843 21.5964 28.0359 21.643 27.9055 21.6959ZM1.18165 27.0135C1.18556 27.2347 1.59647 28.0879 1.94066 28.5896C2.32597 29.151 2.32644 29.4972 1.94267 29.8773C1.65704 30.1602 1.62682 30.1661 1.42011 29.9809C1.29946 29.8727 1.1103 29.4316 0.999721 29.0005C0.731863 27.9558 0.595328 27.6071 0.38685 27.4357C0.248417 27.322 0.190814 27.3272 0.105124 27.4612C-0.0488352 27.7022 -0.0309391 28.2476 0.140798 28.5472C0.308031 28.8389 0.342047 29.5412 0.380922 33.4985L0.408657 36.3156L0.750591 37.0488C1.12891 37.8599 1.81491 38.5618 2.61919 38.9608C2.90269 39.1015 3.31266 39.3826 3.53026 39.5854C4.21425 40.2231 4.39831 40.7306 4.51351 42.2972C4.66273 44.3252 4.87465 45.2405 5.92759 48.4052C7.08258 51.8766 7.51091 52.6489 9.90847 55.5824C10.5343 56.3481 11.0087 57.0685 11.2369 57.5996C11.6529 58.5677 12.3108 59.6303 12.8362 60.1824C13.3148 60.6854 13.7889 60.9227 15.1053 61.3183C16.8633 61.8466 17.2659 62.1211 17.7712 63.1358C17.9159 63.4263 18.2125 63.8489 18.4306 64.0748C18.98 64.6441 19.3054 65.4395 19.4658 66.6044C19.5916 67.5186 19.6234 67.5961 19.8724 67.5961C20.1386 67.5961 20.1424 67.6163 20.1441 69.034C20.1457 70.4955 20.2085 71 20.389 71C20.6973 71 20.7755 70.3997 20.7485 68.2417C20.7331 67.0151 20.6838 65.6946 20.6389 65.3073C20.5694 64.7082 20.5218 64.603 20.3202 64.603C20.1005 64.603 20.0862 64.6674 20.1253 65.4834C20.1485 65.9675 20.1399 66.3373 20.1061 66.305C20.0042 66.2073 19.1152 63.9433 18.9111 63.2613L18.7202 62.624L19.7698 63.641C21.3837 65.2051 22.8114 65.7551 24.5602 65.4863C26.738 65.1516 28.375 64.0535 31.1401 61.072C33.8802 58.1175 36.1627 56.5216 39.1058 55.5027C39.725 55.2884 40.3696 55.0192 40.5381 54.9047C40.89 54.6654 41.2083 54.0807 41.7118 52.7481C42.1213 51.6645 42.4989 51.0054 42.6555 51.1012C42.7153 51.1378 42.8469 51.4491 42.9479 51.7928C43.1514 52.4864 43.5323 53.0416 43.8047 53.0416C43.9026 53.0416 44.3856 53.1756 44.8782 53.3393C45.6626 53.6 45.7977 53.6161 45.9659 53.4683C46.2185 53.2463 46.9791 53.046 47.277 53.1231C48.3182 53.3929 47.0578 55.0159 42.2397 59.6099C40.3817 61.3814 39.4334 62.6663 39.984 62.6663C40.5963 62.6663 45.8217 57.815 47.6959 55.5064C48.5071 54.5073 49.5877 53.5111 49.8601 53.5111C49.9161 53.5111 51.0196 53.8808 52.3125 54.3327C54.6342 55.1442 55.5747 55.3305 55.7701 55.0174C55.899 54.8109 55.3711 54.4509 53.6424 53.5667C51.6528 52.549 49.7727 51.3984 49.7727 51.1984C49.7727 51.1131 50.0561 50.9191 50.4025 50.7674C51.7689 50.1689 52.3062 48.8872 52.5585 45.6239C52.6244 44.771 52.6844 44.553 52.9235 44.2973C53.0809 44.1291 53.2098 43.9393 53.2098 43.8756C53.2098 43.6392 52.7445 42.8743 52.3237 42.4191C52.085 42.1609 51.9238 42.0166 51.9655 42.0984C52.0749 42.3136 51.6198 42.9842 50.9946 43.5292C49.7382 44.6246 48.1989 45.0012 45.3375 44.9138C43.4137 44.855 43.0195 44.793 43.0139 44.5486C43.0122 44.4748 42.8008 44.3186 42.5441 44.2014C41.9782 43.9431 40.9249 43.0263 40.8208 42.7015C40.7767 42.5638 40.8282 42.341 40.9453 42.164C41.3347 41.5756 40.8118 41.0693 39.8148 41.0693C39.1086 41.0693 38.7817 41.2731 38.5582 41.8529C38.296 42.5327 38.3935 43.9772 38.8141 45.6469C39.333 47.7063 39.1309 49.1383 38.1981 50.0116C37.6918 50.4857 37.2783 50.6041 35.8245 50.6918C33.8676 50.8098 33.3635 51.0843 31.553 53.0181C27.5083 57.3383 26.6225 57.9586 22.6477 59.2539C20.5065 59.9517 19.5512 60.3586 18.8755 60.8606L18.4975 61.1415L18.4607 60.7014L18.4239 60.2611L17.2578 60.2354C14.6015 60.1769 13.3476 59.5064 11.8775 57.3584C10.8086 55.7969 7.64069 50.5101 7.22113 49.5878C6.77466 48.6065 5.90353 45.9239 5.3274 43.7563C4.95785 42.366 4.81645 41.5573 4.71405 40.2476C4.55191 38.174 4.53449 36.1209 4.66593 34.5549C4.78706 33.111 4.64247 32.6513 3.96749 32.3342C3.28362 32.0128 2.87271 31.0324 2.76675 29.4687C2.68864 28.3162 2.66447 28.2314 2.2801 27.7667C2.05764 27.4977 1.79938 27.1852 1.70622 27.0722C1.51066 26.835 1.17786 26.7978 1.18165 27.0135ZM46.059 27.0625C45.9217 27.1985 45.9734 28.9367 46.1502 30.1248C46.2438 30.7537 46.335 31.5256 46.3527 31.8399L46.385 32.4114L45.8566 32.4545C45.1756 32.5101 44.806 32.9119 43.9479 34.5297C43.1971 35.9452 42.5641 36.6508 41.8833 36.8309C40.9778 37.0706 40.745 37.539 40.4912 39.6314L40.3309 40.9519H40.6073C40.7593 40.9519 40.9235 40.9529 40.9725 40.9543C41.1522 40.9592 41.9681 39.4614 42.2036 38.6945C42.4792 37.7966 42.8094 37.3132 43.147 37.3132C43.8319 37.3132 43.6151 38.9336 42.6174 41.2711C42.2526 42.1258 42.2388 42.243 42.5019 42.243C42.8378 42.243 44.1558 41.4459 44.544 41.0082C44.9121 40.5928 44.9137 40.586 44.8379 39.6105C44.7665 38.6896 44.7772 38.622 45.0154 38.4957C45.2331 38.3803 45.2689 38.2572 45.2689 37.6234C45.2689 37.0319 45.3375 36.759 45.6147 36.2484C46.0733 35.4034 46.7152 33.5413 47.047 32.0931C47.2654 31.14 47.3028 30.7146 47.248 29.8043C47.1346 27.9165 46.5523 26.5739 46.059 27.0625ZM37.6615 27.6619C37.5667 27.7733 37.3077 28.155 37.0858 28.5101C36.8639 28.8651 36.3946 29.4575 36.0428 29.8266C35.6364 30.2528 35.4283 30.5624 35.4722 30.6754C35.5715 30.9319 35.9025 30.7801 36.8817 30.0287C37.7948 29.3281 38.0391 28.9231 38.0391 28.11C38.0391 27.515 37.9133 27.3657 37.6615 27.6619ZM36.6356 27.8058C36.6356 27.9672 36.6625 28.0333 36.6953 27.9526C36.7282 27.8719 36.7282 27.7399 36.6953 27.6591C36.6625 27.5785 36.6356 27.6444 36.6356 27.8058ZM47.8923 29.0139C47.6912 29.5114 47.4022 31.912 47.4022 33.0847C47.4022 34.0338 47.4294 34.1581 47.7091 34.4872C48.0049 34.8353 48.2767 34.9441 48.3913 34.7603C48.4993 34.5871 48.8245 32.4905 48.8245 31.9676C48.8245 31.2732 48.5067 29.7518 48.2371 29.1557L48.0248 28.6861L47.8923 29.0139ZM17.2295 30.0074C16.023 30.4354 14.6152 31.7628 14.3147 32.7558C14.2005 33.1336 14.2062 33.2454 14.3468 33.3847C14.4961 33.5323 14.628 33.4723 15.374 32.9164C16.3806 32.1665 17.4827 31.621 18.376 31.4306C19.2405 31.2463 22.3948 31.3789 23.1416 31.6309C23.4656 31.7403 23.9396 32.0519 24.3008 32.3931C24.637 32.7106 24.9798 32.9704 25.0627 32.9704C25.5925 32.9704 25.2203 31.5499 24.5283 30.9308C24.2668 30.6969 24.0337 30.5055 24.0103 30.5055C23.9869 30.5055 23.307 30.3677 22.4996 30.1994C20.5162 29.7858 18.1021 29.6979 17.2295 30.0074ZM4.41147 30.4123C3.70485 30.5943 3.71883 30.8574 4.4744 31.5975L5.1495 32.2591L5.68284 32.0674C6.45607 31.7894 7.42676 31.82 8.1015 32.1434C8.70786 32.4342 9.35296 33.1904 9.87339 34.2206L10.1788 34.8254L10.6864 34.7027C11.2625 34.5635 11.6098 34.3127 11.607 34.0379C11.6047 33.8301 11.261 33.2444 10.72 32.5266C10.5244 32.2672 10.2755 31.8946 10.167 31.6986C10.0232 31.4392 9.8299 31.3056 9.45584 31.2068C9.17329 31.1323 8.43549 30.9225 7.81622 30.7408C6.62473 30.3913 5.07388 30.2416 4.41147 30.4123ZM18.9892 32.5072C17.8667 32.7266 17.101 33.1989 16.4544 34.0707C15.8864 34.8364 16.3417 34.991 17.1923 34.3213C17.4785 34.096 17.7599 33.9111 17.8176 33.9105C17.8753 33.9098 18.0496 34.0452 18.2048 34.211C18.5559 34.586 18.8158 34.5444 19.1453 34.0602L19.4009 33.6845L19.7134 34.0317C20.0737 34.4321 20.1745 34.4445 21.0442 34.194C21.5392 34.0515 21.7277 33.9297 21.8674 33.6624C22.077 33.2609 22.0123 33.0904 21.6466 33.0812C21.2853 33.072 20.3172 32.6701 20.4544 32.5862C20.5161 32.5484 20.9281 32.5619 21.3699 32.6161C22.1804 32.7156 22.3668 32.8077 23.5479 33.6907C23.9312 33.9772 24.2039 34.0785 24.7035 34.1195C25.4971 34.1846 25.5427 34.0504 24.919 33.4848C24.1132 32.7538 22.5929 32.3808 20.498 32.3999C19.9439 32.4051 19.2649 32.4533 18.9892 32.5072ZM6.21619 33.2825C5.74838 33.5262 5.20876 34.031 5.20876 34.2247C5.20876 34.4257 5.34577 34.4198 5.63057 34.2066C5.99088 33.9366 6.222 33.9939 6.56369 34.4375C6.83878 34.7946 6.94663 34.8484 7.38907 34.8484C7.74404 34.8484 7.96164 34.7788 8.10826 34.6183C8.40788 34.2904 8.26091 33.8049 7.81089 33.6367C7.61829 33.5646 7.46066 33.461 7.46066 33.4062C7.46066 33.281 7.80615 33.3821 8.67799 33.7625C9.32594 34.0453 9.66882 34.0538 9.39279 33.7805C9.14401 33.5341 7.67601 33.0878 7.12939 33.0924C6.82266 33.095 6.41175 33.1806 6.21619 33.2825ZM52.8198 34.4576C53.4083 35.0545 54.1576 36.3079 54.1578 36.6957C54.1579 36.7758 53.8247 36.616 53.4172 36.3408C52.9015 35.9923 52.5594 35.6466 52.2912 35.2028C51.9122 34.5756 51.7699 33.792 52.0349 33.792C52.1056 33.792 52.4589 34.0915 52.8198 34.4576ZM48.4027 35.8412C48.2762 35.9354 47.7637 36.1772 47.264 36.3786C46.1351 36.8336 45.9245 37.0425 46.0306 37.602C46.1172 38.06 46.1326 38.0705 46.4592 37.8974C46.6357 37.8039 46.7386 37.8298 46.9254 38.0148C47.1289 38.2163 47.1658 38.4078 47.1688 39.2793C47.1729 40.4461 47.2507 40.4026 47.6405 39.0152C47.9314 37.9792 48.3209 37.0785 48.4778 37.0785C48.6926 37.0785 48.8386 37.6012 49.0548 39.1442C49.293 40.8446 49.4156 41.1587 49.6626 40.7015C50.0588 39.9685 49.8491 36.6895 49.3588 35.9483C49.1491 35.6315 48.7453 35.5862 48.4027 35.8412ZM18.5709 35.9551C18.0158 36.1513 17.7714 36.3472 17.774 36.594C17.7764 36.8044 18.79 37.4387 20.0642 38.0272C20.7896 38.3622 20.9523 38.3944 21.6128 38.3334C22.9053 38.2139 24.6338 37.372 24.7433 36.8089C24.7999 36.5174 24.4349 36.5522 23.1458 36.9611C22.5355 37.1548 21.9432 37.3129 21.8299 37.3125C21.2925 37.3109 20.6978 37.0192 20.0321 36.4308C19.6315 36.0769 19.2392 35.7897 19.1601 35.7925C19.0811 35.7953 18.8159 35.8685 18.5709 35.9551ZM10.6096 36.2809C10.3221 36.6874 10.0988 37.4766 9.77431 39.2333C9.60897 40.1279 9.43652 40.9202 9.39101 40.9939C9.3455 41.0676 9.02952 41.3809 8.68889 41.6899C8.0202 42.2967 7.7956 42.749 7.52976 44.0248C7.31689 45.0464 7.27968 45.0965 6.79979 45.0074C6.26893 44.9087 5.87876 45.2621 5.99467 45.7367C6.13239 46.3012 6.47847 46.6709 6.95137 46.7587C7.19434 46.8039 7.5403 46.9161 7.7201 47.0082C8.21635 47.2623 9.72619 47.7852 9.7877 47.7243C9.81757 47.6949 9.73875 47.4398 9.61265 47.1576C9.11865 46.0528 8.84783 44.4534 9.01068 43.6032C9.07302 43.2777 9.26976 42.8063 9.4479 42.5555C10.6028 40.9297 10.7964 40.4218 11.1285 38.148C11.3627 36.5442 11.323 36.0221 10.9666 36.0221C10.871 36.0221 10.7103 36.1385 10.6096 36.2809ZM7.98239 36.2565C7.05532 36.3911 6.59356 36.5774 6.11817 37.0087C5.60474 37.4744 5.56812 37.7938 5.99052 38.1228L6.2982 38.3625L6.93691 37.9578C7.73942 37.4494 8.9443 36.8437 9.15314 36.8437C9.24037 36.8437 9.41317 36.7703 9.53726 36.6804C9.72891 36.5416 9.73911 36.4887 9.6047 36.3282C9.43534 36.1261 9.00985 36.1073 7.98239 36.2565ZM16.4683 40.4658C16.4683 40.8879 16.627 41.0164 17.2679 41.1133C18.2528 41.262 19.0411 41.7201 20.1793 42.805C20.7783 43.3759 21.5884 44.0585 21.9795 44.3218C22.8928 44.9368 23.2714 45.3413 23.56 46.0106C23.6881 46.3076 23.954 46.6773 24.151 46.8323C24.4133 47.0386 24.5581 47.3018 24.6918 47.8149L24.8745 48.5159L24.4517 49.5169C24.2193 50.0675 23.9271 50.7714 23.8026 51.0813L23.5761 51.6444L24.2418 51.9463C24.9042 52.2467 24.9086 52.247 25.1411 52.0166C25.3556 51.8043 25.365 51.7137 25.2556 50.9168C25.19 50.4392 25.1569 49.9164 25.1822 49.755C25.2073 49.5937 25.2812 49.1183 25.3464 48.6987C25.4116 48.279 25.4967 47.7365 25.5355 47.4931C25.5752 47.2444 25.7635 46.8729 25.9651 46.6454C26.1626 46.4226 26.3067 46.152 26.2852 46.0439C26.2638 45.9358 25.8996 45.6699 25.4759 45.4531C25.0521 45.2363 24.3588 44.7938 23.9351 44.4699C23.5114 44.1458 22.8714 43.6914 22.5128 43.4602C22.1543 43.229 21.4588 42.636 20.9672 42.1425C19.8952 41.0663 18.9845 40.5509 17.8307 40.3674C17.3747 40.2948 16.8817 40.2108 16.7349 40.1806C16.507 40.1338 16.4683 40.1752 16.4683 40.4658ZM13.7925 41.5706C13.1461 42.2108 12.9092 42.7294 13.1153 43.0535C13.4255 43.5413 13.9938 43.1821 14.5514 42.1461C15.2654 40.8195 14.8609 40.5127 13.7925 41.5706ZM17.9289 43.0565C17.1949 43.6353 16.8539 43.7689 16.1103 43.7689C15.4668 43.7689 14.1839 44.1866 13.59 44.5897C13.3778 44.7337 12.9968 45.1349 12.7433 45.4814C12.1928 46.2337 11.5482 46.5405 10.7469 46.4317C9.91677 46.319 9.8549 46.4855 10.5215 47.0383C10.8448 47.3062 11.1445 47.6648 11.1877 47.835C11.2659 48.1435 11.2689 48.1443 12.1783 48.0777C12.68 48.041 13.3336 47.9264 13.6309 47.8232C14.0808 47.6669 14.197 47.5622 14.3255 47.1987C14.5464 46.5731 15.1388 45.6809 15.5036 45.4242C15.6757 45.3031 16.1897 45.0925 16.646 44.956C18.1802 44.4973 18.8566 43.9387 18.8835 43.1085C18.9034 42.492 18.6617 42.4787 17.9289 43.0565ZM23.3425 47.9567C23.2447 47.9904 22.8447 48.1409 22.4536 48.291C20.7837 48.9322 17.201 49.2326 12.7526 49.1041L9.92601 49.0225L10.0604 49.2713C10.1491 49.4354 10.1531 49.5203 10.0723 49.5203C9.82883 49.5203 9.95766 49.8806 10.358 50.3194C11.1854 51.2263 13.3695 51.9395 15.7058 52.0655C16.9042 52.13 17.0985 52.1101 17.9577 51.8334C18.4748 51.6668 19.2179 51.4684 19.6091 51.3922C20.7125 51.1774 21.7173 50.5641 21.51 50.2319C21.3949 50.0474 20.2004 50.0804 19.0024 50.3011C18.2949 50.4315 17.2503 50.4987 15.8164 50.5065C13.691 50.518 13.681 50.5168 13.1497 50.1966C12.8563 50.0198 12.6697 49.8748 12.7348 49.8742C12.8 49.8737 13.4475 49.9283 14.1737 49.9957C15.3467 50.1046 15.664 50.0897 17.0182 49.8628C17.9172 49.7121 19.1179 49.6015 19.9454 49.5932C21.3247 49.5792 21.3527 49.5841 21.6047 49.888C22.107 50.4938 22.6711 50.4096 23.4135 49.6183C23.9658 49.0297 24.1721 48.68 24.1721 48.3329C24.1721 47.936 23.8401 47.7855 23.3425 47.9567ZM10.9353 53.5835C10.7705 54.0087 11.0643 54.3844 11.9063 54.8248C14.4363 56.1486 17.3243 56.4805 19.109 55.6528C20.2101 55.1422 21.6477 53.9063 21.4121 53.6729C21.3773 53.6384 20.664 53.7844 19.827 53.9972C18.396 54.3612 18.1854 54.3842 16.2905 54.3828C14.1257 54.3813 13.4326 54.264 12.1827 53.6878C11.4487 53.3494 11.0393 53.3152 10.9353 53.5835ZM24.7966 68.0662C24.5207 68.1065 24.2629 68.1714 24.2237 68.2102C24.1239 68.3091 24.8959 69.463 25.3343 69.8703C25.7762 70.2808 26.1524 70.232 26.4548 69.725C26.6822 69.3438 26.7317 68.7699 26.5372 68.7699C26.4691 68.7699 26.2763 68.6342 26.1089 68.4684C25.7074 68.0709 25.403 67.9775 24.7966 68.0662Z" fill="#0B649D"/>
</svg>
