<svg width="238" height="162" viewBox="0 0 238 162" fill="none" xmlns="http://www.w3.org/2000/svg">
<path fill-rule="evenodd" clip-rule="evenodd" d="M152.994 152.793C141.968 158.434 129.475 161.617 116.24 161.617C104.174 161.617 92.7267 158.972 82.4446 154.232C74.4039 158.927 65.0496 161.617 55.0671 161.617C25.0362 161.617 0.691406 137.272 0.691406 107.241C0.691406 82.5803 17.1079 61.7539 39.6087 55.0941C50.3496 23.0717 80.6003 0 116.24 0C151.37 0 181.265 22.4176 192.399 53.7279C217.801 58.3022 237.074 80.5209 237.074 107.241C237.074 137.272 212.73 161.617 182.699 161.617C171.737 161.617 161.533 158.373 152.994 152.793Z" fill="#E6FAFF"/>
</svg>
