<svg width="337" height="337" viewBox="0 0 337 337" fill="none" xmlns="http://www.w3.org/2000/svg">
<path d="M168.5 337C261.56 337 337 261.56 337 168.5C337 75.44 261.56 0 168.5 0C75.44 0 0 75.44 0 168.5C0 261.56 75.44 337 168.5 337Z" fill="#FADA52"/>
<path d="M167.87 301.423C241.238 301.423 300.714 241.946 300.714 168.579C300.714 95.2114 241.238 35.7353 167.87 35.7353C94.5026 35.7353 35.0265 95.2114 35.0265 168.579C35.0265 241.946 94.5026 301.423 167.87 301.423Z" fill="#F68A1F"/>
<path d="M172.446 300.397C241.936 300.397 298.269 245.088 298.269 176.862C298.269 108.635 241.936 53.3268 172.446 53.3268C102.956 53.3268 46.6235 108.635 46.6235 176.862C46.6235 245.088 102.956 300.397 172.446 300.397Z" fill="#FCAF17"/>
<path d="M172.759 91.6653C172.759 91.6653 146.884 82.7512 125.033 125.507C86.2211 138.445 68.3929 158.324 100.184 195.085C101.209 206.996 175.756 300.476 175.756 300.476C175.756 300.476 279.176 300.476 299.055 186.092C262.294 148.305 226.48 115.489 226.48 115.489C226.48 115.489 215.515 119.433 204.629 117.461C193.585 115.568 169.761 93.6374 172.759 91.6653Z" fill="#F68A1F"/>
<path d="M222.694 186.17L190.114 194.769C187.827 191.061 184.592 187.827 180.727 185.539C183.646 182.068 185.46 177.572 185.46 172.681C185.46 168.579 184.198 164.792 182.068 161.637V151.224H187.748L193.822 141.837V152.013C191.455 152.486 189.641 154.537 189.641 157.062C189.641 159.901 191.929 162.189 194.769 162.189C197.608 162.189 199.896 159.901 199.896 157.062C199.896 154.458 197.924 152.328 195.479 152.013V139.312H146.333L138.286 151.224H148.699V162.505C146.885 165.502 145.859 168.973 145.859 172.681C145.859 177.572 147.674 182.068 150.593 185.539C146.806 187.827 143.572 190.982 141.284 194.769L108.704 186.17L127.637 229.4L119.117 196.11L163.135 206.917L165.66 227.27L168.263 206.839L212.281 196.031L203.762 229.321L222.694 186.17ZM167.474 185.934C159.191 185.934 152.407 179.228 152.407 170.867C152.407 168.579 152.88 166.449 153.827 164.556C159.98 166.922 171.892 168.263 179.228 163.846H180.806C181.91 165.976 182.541 168.342 182.541 170.867C182.541 179.15 175.836 185.934 167.474 185.934Z" fill="#FEDE00"/>
<path d="M242.812 126.138C234.371 117.224 222.459 111.623 209.206 111.308C206.366 111.229 203.605 111.466 200.844 111.86C198.083 105.549 193.824 100.106 188.459 95.9251C181.596 90.482 172.919 87.1688 163.453 86.9322C151.935 86.6955 141.286 91.1131 133.555 98.5284C127.244 104.524 122.826 112.57 121.249 121.563C120.618 121.563 120.065 121.484 119.434 121.484C107.917 121.247 97.2675 125.665 89.5367 133.08C81.8058 140.496 76.836 150.909 76.5994 162.426C76.4416 170.157 78.3349 177.414 81.8058 183.725C85.2768 190.036 90.3255 195.321 96.4786 199.108C99.4762 200.922 103.421 200.054 105.235 197.057C107.049 194.059 106.182 190.115 103.184 188.3C98.9241 185.697 95.3742 181.99 93.0076 177.572C90.5622 173.233 89.2211 168.185 89.3789 162.82C89.5367 154.774 93.0076 147.595 98.3719 142.389C103.815 137.261 111.072 134.106 119.198 134.343C121.407 134.421 123.458 134.658 125.509 135.21C127.402 135.684 129.453 135.21 130.952 134.027C132.529 132.844 133.397 130.95 133.397 128.978C133.397 128.584 133.397 128.347 133.397 128.268C133.555 120.222 137.026 113.043 142.39 107.837C147.833 102.63 155.091 99.5539 163.216 99.7905C169.842 99.9483 175.759 102.236 180.571 106.023C185.383 109.809 188.933 115.094 190.589 121.09C191.063 122.746 192.167 124.087 193.587 124.955C195.086 125.823 196.821 125.981 198.478 125.507C201.791 124.561 205.262 124.087 208.891 124.166C218.673 124.403 227.35 128.505 233.582 135.053C239.814 141.6 243.522 150.435 243.364 160.217C243.206 166.133 241.628 171.655 238.946 176.546C236.264 181.358 232.478 185.539 227.902 188.616C224.984 190.588 224.195 194.532 226.246 197.451C228.218 200.37 232.162 201.159 235.081 199.108C241.313 194.927 246.44 189.247 250.069 182.699C253.777 176.073 255.907 168.5 256.065 160.454C256.459 147.122 251.331 134.974 242.812 126.138Z" fill="#FEDE00"/>
</svg>
