<svg width="440" height="371" viewBox="0 0 440 371" fill="none" xmlns="http://www.w3.org/2000/svg">
<path d="M424.318 369.927H439.09" stroke="#2B2C2B" stroke-width="0.75" stroke-miterlimit="10"/>
<path d="M228.33 369.927H415.085" stroke="#2B2C2B" stroke-width="0.75" stroke-miterlimit="10"/>
<path d="M16.8877 369.927H173.703" stroke="#2B2C2B" stroke-width="0.75" stroke-miterlimit="10"/>
<path d="M0.573242 369.927H9.07094" stroke="#2B2C2B" stroke-width="0.75" stroke-miterlimit="10"/>
<path fill-rule="evenodd" clip-rule="evenodd" d="M88.9413 153.605C79.5681 147.122 48.1342 123.227 49.3363 95.1215C51.2748 49.1033 114.393 45.247 117.047 93.8847C118.638 122.977 100.663 143.947 92.9782 153.528C93.805 154.425 94.75 155.495 94.6319 156.377C94.3331 158.774 88.7745 159.643 87.9755 157.343C87.6003 156.308 88.2325 154.946 88.9413 153.605Z" fill="#64AA92"/>
<path opacity="0.17" fill-rule="evenodd" clip-rule="evenodd" d="M63.8574 156.078C68.6239 152 74.3215 152.979 78.8934 148.755C97.8274 131.252 118.38 98.6649 109.097 66.5223C108.819 65.5774 99.8424 47.6301 101.329 48.4569C106.714 51.4238 111.675 64.0557 114.114 69.4962C124.161 91.932 127.719 118.016 117.588 141.153C109.945 158.524 89.1004 169.975 71.2087 161.303" fill="white"/>
<path opacity="0.17" fill-rule="evenodd" clip-rule="evenodd" d="M44.2013 82.7674C43.4509 86.179 44.3681 89.9796 45.2783 93.2662C46.668 98.2967 48.9053 103.689 53.4425 106.697C64.4138 113.882 76.997 102.667 79.0676 91.9599C80.8533 82.7326 78.88 72.2199 72.0429 65.369C65.2059 58.518 54.179 58.5666 47.1057 65.2717C43.8609 68.3359 42.1377 72.3936 40.9287 76.6043" fill="white"/>
<path fill-rule="evenodd" clip-rule="evenodd" d="M291.759 116.202C281.413 111.429 246.339 93.2732 242.677 65.3969C236.674 19.7331 298.193 5.09313 309.165 52.5427C315.731 80.9332 301.633 104.654 295.706 115.438C296.672 116.182 297.79 117.071 297.825 117.96C297.936 120.378 292.614 122.185 291.433 120.045C290.87 119.1 291.266 117.648 291.759 116.202Z" fill="#6688BD"/>
<path opacity="0.17" fill-rule="evenodd" clip-rule="evenodd" d="M267.44 122.956C271.436 118.092 277.217 118.092 280.996 113.159C296.644 92.6685 311.291 57.024 296.616 27.0007C296.185 26.1113 284.255 9.97748 285.86 10.5264C291.683 12.5205 298.735 24.1171 302.07 29.0573C315.828 49.4296 323.811 74.5127 317.787 99.0539C313.264 117.495 294.65 132.343 275.563 126.847" fill="white"/>
<path opacity="0.17" fill-rule="evenodd" clip-rule="evenodd" d="M235.479 54.1058C235.326 57.5799 236.869 61.1791 238.342 64.271C240.572 68.982 243.713 73.943 248.694 76.0831C260.736 81.2803 271.207 68.0648 271.408 57.163C271.582 47.769 267.83 37.7566 259.916 32.1493C252.002 26.5421 241.156 28.5154 235.333 36.3183C232.665 39.9036 231.664 44.1976 231.164 48.5472" fill="white"/>
<path fill-rule="evenodd" clip-rule="evenodd" d="M125.266 110.491C119.012 100.979 98.7652 67.0643 110.369 41.4392C129.358 -0.521211 189.342 19.4897 173.639 65.5913C164.238 93.1758 139.732 105.891 129.025 111.922C129.456 113.062 129.928 114.403 129.497 115.188C128.316 117.272 122.841 116.022 122.959 113.59C123.015 112.499 124.112 111.471 125.266 110.491Z" fill="#DD4D5B"/>
<path opacity="0.17" fill-rule="evenodd" clip-rule="evenodd" d="M101.079 103.418C107.02 101.417 111.939 104.453 117.755 102.244C141.858 93.0859 173.098 70.5389 176.495 37.2568C176.593 36.2702 174.974 16.2731 176.044 17.5863C179.935 22.3528 179.81 35.9297 180.039 41.9052C180.977 66.4742 174.529 91.995 156.47 109.671C142.901 122.949 119.256 125.75 105.922 111.061" fill="white"/>
<path opacity="0.17" fill-rule="evenodd" clip-rule="evenodd" d="M110.237 28.0712C108.263 30.9547 107.701 34.8179 107.311 38.2086C106.721 43.392 106.77 49.2633 109.868 53.7171C117.366 64.4799 133.228 58.7824 139.148 49.6246C144.248 41.7314 146.347 31.2465 142.567 22.3319C138.787 13.4173 128.538 9.34565 119.443 12.9448C115.274 14.5777 112.168 17.6974 109.479 21.1507" fill="white"/>
<path fill-rule="evenodd" clip-rule="evenodd" d="M329.003 137.075C322.02 128.077 299.223 95.8303 308.811 69.3853C324.5 26.0769 385.853 41.3909 373.757 88.5694C366.516 116.8 343.073 131.384 332.859 138.215C333.373 139.319 333.95 140.619 333.554 141.432C332.54 143.627 326.981 142.773 326.912 140.348C326.912 139.25 327.926 138.138 329.003 137.075Z" fill="#E9A94C"/>
<path opacity="0.17" fill-rule="evenodd" clip-rule="evenodd" d="M304.337 131.891C310.111 129.439 315.246 132.086 320.881 129.432C344.199 118.44 373.604 93.5441 374.382 60.1023C374.382 59.1087 371.248 39.2992 372.416 40.5291C376.661 44.976 377.592 58.5181 378.28 64.438C381.115 88.8541 376.661 114.799 360.02 133.816C347.513 148.109 324.153 152.722 309.729 139.083" fill="white"/>
<path opacity="0.17" fill-rule="evenodd" clip-rule="evenodd" d="M307.644 56.0584C305.9 59.0878 305.636 63.0066 305.511 66.3974C305.324 71.6155 305.831 77.459 309.263 81.6835C317.566 91.8349 332.936 84.9283 338.133 75.3398C342.615 67.0714 343.893 56.4614 339.44 47.8664C334.986 39.2715 324.445 36.0058 315.684 40.2651C311.667 42.2175 308.798 45.5666 306.38 49.2214" fill="white"/>
<path fill-rule="evenodd" clip-rule="evenodd" d="M70.8061 201.006C70.8025 200.434 70.7631 199.863 70.688 199.296C70.5528 198.012 69.9698 196.817 69.0412 195.92C68.7953 195.693 68.4758 195.562 68.1414 195.552C67.8069 195.542 67.4801 195.653 67.2208 195.864C67.0305 196.013 66.8873 196.213 66.8084 196.441C66.7295 196.669 66.7183 196.915 66.7761 197.149C66.8826 197.675 67.0852 198.177 67.3736 198.629C67.7539 199.238 68.2545 199.763 68.8447 200.172C69.4349 200.58 70.1023 200.864 70.8061 201.006V201.006ZM64.2052 212.859C64.1889 212.532 64.147 212.207 64.0802 211.887C63.8399 210.786 63.3476 209.756 62.6419 208.878C62.4018 208.524 62.0831 208.23 61.7107 208.019C61.3383 207.808 60.9222 207.686 60.4949 207.662C59.9043 207.662 59.4248 207.78 59.1955 208.169C58.8829 208.711 59.0079 209.489 59.3345 210.448C59.6953 211.39 60.3977 212.161 61.3017 212.608C62.2057 213.055 63.245 213.145 64.2122 212.859H64.2052ZM70.3753 204.82C69.0871 204.613 67.8577 204.134 66.7688 203.415C65.6798 202.697 64.7562 201.754 64.0593 200.651C62.5932 198.24 62.0999 194.891 64.8792 192.779C69.1593 189.534 73.8424 193.627 74.5373 198.789C74.5859 199.178 74.6207 199.567 74.6485 199.97C75.226 199.415 75.6703 198.735 75.9478 197.983C76.4502 196.526 76.7449 195.006 76.8232 193.467C76.8657 192.956 77.1089 192.483 77.4996 192.151C77.8903 191.818 78.3966 191.655 78.9077 191.695C79.4179 191.739 79.8902 191.983 80.2219 192.373C80.5536 192.764 80.718 193.269 80.6795 193.78C80.5694 195.676 80.1904 197.548 79.5539 199.338C79.0164 200.796 78.1117 202.091 76.9275 203.097C76.1713 203.736 75.2982 204.222 74.3566 204.528C73.9963 206.706 73.2629 208.805 72.1888 210.733C71.1529 212.633 69.6575 214.243 67.8392 215.416C67.5735 216.736 67.1047 218.006 66.4495 219.182C65.7979 220.478 64.8727 221.617 63.7379 222.52C62.603 223.424 61.2855 224.07 59.8765 224.414C59.6274 224.466 59.3704 224.468 59.1205 224.42C58.8706 224.372 58.6326 224.276 58.4201 224.136C58.2077 223.995 58.0251 223.815 57.8827 223.604C57.7403 223.393 57.641 223.156 57.5905 222.907C57.4879 222.402 57.5898 221.877 57.8738 221.447C58.1578 221.017 58.6006 220.717 59.1052 220.614C59.9612 220.383 60.7569 219.969 61.4371 219.4C62.1173 218.831 62.6659 218.122 63.0449 217.32C63.1283 217.167 63.2116 217.007 63.2881 216.848C61.6315 216.908 59.9986 216.44 58.6249 215.512C57.2512 214.585 56.2078 213.244 55.645 211.685C54.8668 209.392 55.0752 207.516 55.8187 206.224C56.2922 205.444 56.966 204.805 57.77 204.374C58.5741 203.942 59.479 203.734 60.3907 203.771C61.2122 203.764 62.0272 203.918 62.789 204.226C63.5508 204.533 64.2446 204.988 64.8306 205.564C66.1996 206.903 67.1896 208.581 67.7002 210.428C68.1263 209.924 68.501 209.379 68.8189 208.802C69.5283 207.556 70.0548 206.216 70.3822 204.82H70.3753Z" fill="#E9A94C"/>
<path fill-rule="evenodd" clip-rule="evenodd" d="M180.734 78.1745C180.18 78.0309 179.619 77.9218 179.052 77.8479C177.779 77.6356 176.472 77.8818 175.363 78.5428C175.081 78.7221 174.873 78.9972 174.777 79.3176C174.681 79.6379 174.704 79.982 174.842 80.2868C174.936 80.5084 175.092 80.698 175.292 80.8324C175.492 80.9669 175.726 81.0404 175.967 81.0441C176.503 81.0774 177.04 81.0114 177.551 80.8496C178.235 80.6418 178.87 80.2977 179.416 79.8379C179.963 79.3781 180.411 78.8123 180.734 78.1745V78.1745ZM190.461 87.6102C190.144 87.5368 189.821 87.4903 189.495 87.4712C188.369 87.4204 187.246 87.6321 186.216 88.0896C185.811 88.2304 185.444 88.463 185.144 88.7692C184.844 89.0753 184.618 89.4468 184.486 89.8545C184.387 90.0796 184.35 90.3268 184.378 90.5709C184.406 90.815 184.498 91.0473 184.646 91.2441C185.09 91.6819 185.868 91.7653 186.883 91.7027C187.888 91.5997 188.817 91.1209 189.485 90.3621C190.152 89.6032 190.508 88.6204 190.482 87.6102H190.461ZM184.284 79.5711C183.753 80.7637 182.973 81.829 181.996 82.6954C181.02 83.5618 179.869 84.2094 178.621 84.5947C175.912 85.3937 172.549 85.0116 171.235 81.7806C169.2 76.8057 174.355 73.3385 179.525 73.9986C179.907 74.0472 180.303 74.1098 180.692 74.1931C180.307 73.4909 179.764 72.887 179.108 72.4283C177.831 71.5658 176.439 70.8875 174.974 70.4133C174.733 70.3278 174.513 70.1957 174.323 70.0247C174.134 69.8536 173.981 69.647 173.872 69.4166C173.763 69.1862 173.7 68.9365 173.688 68.6819C173.675 68.4273 173.713 68.1727 173.799 67.9328C173.884 67.6929 174.015 67.4721 174.186 67.2832C174.356 67.0942 174.562 66.9408 174.792 66.8317C175.022 66.7225 175.271 66.6599 175.525 66.6474C175.779 66.6348 176.033 66.6726 176.273 66.7585C178.084 67.3538 179.801 68.203 181.373 69.2807C182.638 70.1672 183.655 71.3634 184.326 72.7549C184.739 73.6507 184.975 74.6181 185.021 75.6036C187.029 76.5143 188.867 77.7622 190.454 79.2932C192.022 80.7862 193.192 82.6465 193.859 84.7058C195.064 85.2934 196.173 86.0619 197.145 86.9849C198.232 87.9469 199.096 89.1338 199.678 90.4632C200.26 91.7926 200.545 93.2327 200.515 94.6835C200.5 94.9408 200.434 95.1924 200.321 95.4238C200.208 95.6553 200.049 95.8617 199.855 96.0312C199.661 96.2007 199.435 96.3299 199.191 96.411C198.946 96.4922 198.688 96.5238 198.431 96.504C197.918 96.4735 197.438 96.2405 197.096 95.8561C196.755 95.4717 196.58 94.9674 196.61 94.4542C196.606 93.5661 196.409 92.6895 196.034 91.8847C195.659 91.0799 195.113 90.3659 194.436 89.792L194.046 89.4445C193.683 91.0647 192.814 92.5274 191.565 93.6215C190.316 94.7155 188.752 95.3843 187.098 95.5312C184.68 95.691 182.929 95.0101 181.873 93.9539C181.241 93.2971 180.796 92.4825 180.586 91.5952C180.376 90.7078 180.407 89.7803 180.678 88.9095C180.882 88.1124 181.241 87.3633 181.734 86.7052C182.228 86.047 182.846 85.4928 183.555 85.0741C185.205 84.0965 187.084 83.5716 189.002 83.5524C188.62 83.0164 188.19 82.5164 187.717 82.0586C186.701 81.074 185.553 80.2367 184.305 79.5711H184.284Z" fill="#6688BD"/>
<path fill-rule="evenodd" clip-rule="evenodd" d="M225.057 48.9852C225.075 49.2185 225.108 49.4506 225.154 49.68C225.358 50.5859 225.738 51.4429 226.273 52.2022C226.641 52.7094 227.065 53.2445 227.725 53.1402C227.906 53.1382 228.083 53.0826 228.232 52.9804C228.302 52.9109 228.232 52.8067 228.232 52.7025C228.184 52.3824 228.083 52.0726 227.933 51.7853C227.303 50.5649 226.294 49.5822 225.057 48.9852V48.9852ZM221.645 44.7329C222.024 43.2795 222.738 41.935 223.73 40.8071C224.968 39.5655 226.527 38.6923 228.232 38.2849C229.733 37.8333 231.359 37.6387 232.269 35.8878C232.506 35.4318 232.914 35.0887 233.404 34.9336C233.894 34.7786 234.426 34.8244 234.882 35.0609C235.338 35.2979 235.681 35.7062 235.836 36.1961C235.991 36.6859 235.945 37.2173 235.708 37.6735C234.423 40.147 232.464 41.0503 230.351 41.6965C229.038 42.1064 227.614 42.3079 226.585 43.4335C226.166 43.9073 225.84 44.4568 225.627 45.0525C228.837 46.1086 231.414 49.1033 231.991 51.6047C232.301 52.7505 232.144 53.9725 231.553 55.0024C231.201 55.5534 230.727 56.0169 230.168 56.3576C229.61 56.6983 228.981 56.9073 228.329 56.9687C227.5 57.0879 226.654 56.9971 225.868 56.7045C225.083 56.412 224.383 55.9271 223.834 55.2942C222.618 53.9063 221.775 52.2329 221.381 50.4304C221.285 49.9725 221.222 49.508 221.194 49.0408C220.427 49.7703 219.912 50.7238 219.721 51.7645C218.581 56.0515 219.602 62.298 220.381 64.7577C220.458 64.9999 220.487 65.2551 220.466 65.5086C220.445 65.7621 220.374 66.009 220.257 66.2349C220.14 66.4609 219.98 66.6616 219.785 66.8254C219.591 66.9892 219.366 67.113 219.123 67.1896C218.632 67.3445 218.099 67.2984 217.642 67.0613C217.185 66.8243 216.841 66.4156 216.684 65.925C215.774 63.0623 214.641 55.7667 215.989 50.7639C216.629 48.3459 217.852 46.4282 219.679 45.4138C220.285 45.0808 220.943 44.8507 221.624 44.7329H221.645Z" fill="#DD4D5B"/>
<path fill-rule="evenodd" clip-rule="evenodd" d="M360.839 205.459C360.91 205.232 360.966 205 361.006 204.765C361.154 203.84 361.118 202.896 360.902 201.985C360.756 201.374 360.554 200.721 359.908 200.596C359.736 200.534 359.551 200.522 359.373 200.561C359.283 200.596 359.296 200.714 359.269 200.818C359.194 201.132 359.173 201.456 359.206 201.777C359.337 203.149 359.91 204.441 360.839 205.459V205.459ZM362.423 210.684C361.535 211.887 360.382 212.869 359.053 213.554C357.444 214.257 355.671 214.497 353.932 214.249C352.369 214.11 350.792 213.693 349.291 214.978C348.901 215.311 348.396 215.477 347.884 215.439C347.373 215.402 346.897 215.164 346.56 214.777C346.394 214.584 346.266 214.36 346.186 214.118C346.106 213.876 346.074 213.621 346.093 213.366C346.112 213.112 346.181 212.864 346.295 212.636C346.41 212.409 346.569 212.206 346.762 212.039C348.846 210.219 351.028 210.115 353.231 210.295C354.62 210.406 356.01 210.747 357.4 210.087C357.964 209.8 358.47 209.411 358.893 208.94C356.309 206.759 355.03 203.021 355.419 200.491C355.559 199.313 356.159 198.236 357.087 197.497C357.621 197.116 358.234 196.862 358.88 196.753C359.527 196.645 360.19 196.685 360.818 196.871C361.633 197.07 362.385 197.47 363.005 198.035C363.625 198.599 364.094 199.31 364.369 200.102C364.975 201.834 365.14 203.69 364.848 205.501C364.767 205.973 364.648 206.437 364.494 206.891C365.477 206.503 366.312 205.811 366.877 204.917C369.531 201.36 370.907 195.19 371.095 192.605C371.114 192.351 371.183 192.103 371.298 191.876C371.414 191.648 371.573 191.446 371.766 191.28C371.96 191.114 372.184 190.988 372.427 190.909C372.669 190.83 372.925 190.799 373.179 190.819C373.434 190.838 373.683 190.907 373.911 191.021C374.139 191.136 374.342 191.295 374.509 191.489C374.675 191.683 374.802 191.907 374.882 192.15C374.961 192.393 374.992 192.649 374.972 192.904C374.749 195.899 373.089 203.097 369.997 207.245C368.496 209.246 366.648 210.573 364.577 210.837C363.856 210.907 363.128 210.856 362.423 210.684V210.684Z" fill="#64AA92"/>
<path fill-rule="evenodd" clip-rule="evenodd" d="M77.0591 32.2397C77.5077 32.2397 77.9519 32.3282 78.3663 32.5001C78.7807 32.672 79.1571 32.9239 79.474 33.2414C79.7909 33.559 80.042 33.9359 80.213 34.3506C80.3841 34.7653 80.4716 35.2097 80.4707 35.6583C80.4707 36.5631 80.1113 37.4308 79.4715 38.0706C78.8317 38.7104 77.964 39.0699 77.0591 39.0699C76.1537 39.0699 75.2852 38.7107 74.6443 38.0711C74.0034 37.4315 73.6425 36.5637 73.6406 35.6583C73.6406 34.7516 74.0008 33.8821 74.6419 33.241C75.283 32.5999 76.1525 32.2397 77.0591 32.2397Z" fill="#6688BD"/>
<path fill-rule="evenodd" clip-rule="evenodd" d="M56.5348 164.229C57.4396 164.229 58.3073 164.588 58.9471 165.228C59.5869 165.868 59.9463 166.735 59.9463 167.64C59.9473 168.089 59.8597 168.533 59.6887 168.948C59.5176 169.362 59.2665 169.739 58.9496 170.057C58.6327 170.374 58.2563 170.626 57.8419 170.798C57.4276 170.97 56.9834 171.059 56.5348 171.059C55.6281 171.059 54.7586 170.698 54.1175 170.057C53.4764 169.416 53.1162 168.547 53.1162 167.64C53.1181 166.735 53.479 165.867 54.1199 165.227C54.7608 164.588 55.6293 164.229 56.5348 164.229Z" fill="#E9A94C"/>
<path fill-rule="evenodd" clip-rule="evenodd" d="M290.224 0C290.673 -9.30388e-07 291.117 0.088475 291.531 0.260358C291.946 0.43224 292.322 0.684162 292.639 1.00169C292.956 1.31922 293.207 1.69614 293.378 2.11085C293.549 2.52556 293.637 2.96993 293.636 3.41853C293.636 4.32334 293.276 5.1911 292.637 5.8309C291.997 6.47069 291.129 6.83012 290.224 6.83012C289.319 6.83012 288.45 6.47091 287.809 5.83131C287.168 5.19171 286.808 4.32398 286.806 3.41853C286.806 2.9696 286.894 2.52508 287.066 2.11032C287.238 1.69556 287.489 1.31871 287.807 1.00127C288.124 0.683829 288.501 0.432017 288.916 0.26022C289.331 0.0884223 289.775 0 290.224 0V0Z" fill="#DD4D5B"/>
<path fill-rule="evenodd" clip-rule="evenodd" d="M365.988 157.468C366.893 157.47 367.761 157.831 368.401 158.472C369.04 159.112 369.399 159.981 369.399 160.886C369.399 161.334 369.311 161.778 369.14 162.192C368.968 162.606 368.717 162.982 368.4 163.299C368.083 163.615 367.707 163.867 367.293 164.038C366.88 164.21 366.436 164.298 365.988 164.298C365.082 164.298 364.214 163.939 363.573 163.299C362.932 162.659 362.571 161.792 362.569 160.886C362.571 159.98 362.932 159.112 363.573 158.471C364.213 157.83 365.082 157.47 365.988 157.468V157.468Z" fill="#E9A94C"/>
<path fill-rule="evenodd" clip-rule="evenodd" d="M194.283 36.2627C195.883 36.2627 197.417 36.8981 198.548 38.0292C199.679 39.1602 200.314 40.6942 200.314 42.2938C200.314 43.8933 199.679 45.4273 198.548 46.5584C197.417 47.6894 195.883 48.3248 194.283 48.3248C192.683 48.3248 191.149 47.6894 190.018 46.5584C188.887 45.4273 188.252 43.8933 188.252 42.2938C188.252 40.6942 188.887 39.1602 190.018 38.0292C191.149 36.8981 192.683 36.2627 194.283 36.2627V36.2627Z" fill="#64AA92"/>
<path fill-rule="evenodd" clip-rule="evenodd" d="M238.537 89C240.137 89 241.672 89.6352 242.804 90.766C243.936 91.8969 244.573 93.4309 244.575 95.0311C244.573 96.6313 243.936 98.1653 242.804 99.2961C241.672 100.427 240.137 101.062 238.537 101.062C236.937 101.062 235.403 100.427 234.272 99.2957C233.141 98.1646 232.506 96.6306 232.506 95.0311C232.506 93.4315 233.141 91.8975 234.272 90.7665C235.403 89.6354 236.937 89 238.537 89Z" fill="#E9A94C"/>
<path d="M151.801 368.841H264.988L255.434 304H159.624L151.801 368.841Z" fill="#334D6E"/>
<path d="M162.884 248.49C165.524 254.004 168.802 259.188 172.653 263.936L205.783 316.805H250.21C254.072 316.806 257.801 315.393 260.693 312.833C263.584 310.273 265.439 306.742 265.906 302.908L271.186 259.642L280.302 184.955C282.825 166.111 266.809 147.435 249.077 144.051L192.435 149.352C176.123 159.299 164.075 174.936 158.618 193.245C153.16 211.554 154.68 231.236 162.884 248.49V248.49Z" fill="#2782C0"/>
<path d="M249.077 144.023L252.447 173.977L212.641 163.103L214.204 140.618L249.077 144.023Z" fill="#393434"/>
<path d="M197.528 133.906L249.077 144.023L242.261 163.103L237.87 173.873L201.656 158.114L197.528 133.906Z" fill="#1E699C"/>
<path d="M197.528 96.1426V142.564L222.07 151.916L237.87 173.873V96.1426H197.528Z" fill="#ECACBD"/>
<path d="M197.528 143.238H200.926V104.814H197.528V143.238Z" fill="#F5CBD6"/>
<path d="M206.763 96.3996V114.013C206.76 116.053 206.965 118.088 207.374 120.086C207.875 122.489 208.666 124.822 209.73 127.034C212.187 132.122 216.029 136.414 220.815 139.418C225.6 142.422 231.136 144.015 236.786 144.016C237.154 144.016 237.481 144.016 237.87 144.016V91.0078H207.256C206.956 92.6123 206.794 94.2395 206.77 95.8716C206.763 96.0522 206.763 96.219 206.763 96.3996Z" fill="#DF7590"/>
<path d="M246.36 91.6751C294.129 91.6751 277.925 32.1634 231.004 50.215L246.36 91.6751Z" fill="#2B2C2B"/>
<path d="M235.479 49.8951C273.521 37.2007 293.56 65.2646 266.052 83.5941" stroke="#2B2C2B" stroke-miterlimit="10"/>
<path d="M198.82 88.6806V106.287C198.82 108.33 199.027 110.367 199.439 112.367C199.933 114.772 200.725 117.106 201.794 119.315C205.237 126.444 211.343 131.934 218.797 134.602C222.022 135.747 225.421 136.33 228.844 136.325C253.079 136.325 258.867 129.328 258.867 106.301V88.6806C258.868 85.0046 258.197 81.3594 256.887 77.9247C256.28 76.3562 255.543 74.8408 254.684 73.3945C253.405 71.2261 251.857 69.2278 250.077 67.4468C247.291 64.656 243.981 62.443 240.337 60.9347C236.693 59.4263 232.787 58.6524 228.844 58.6572C222.259 58.656 215.856 60.8195 210.622 64.8146C205.388 68.8097 201.612 74.4147 199.876 80.7666C199.224 83.1782 198.874 85.6615 198.834 88.1595C198.82 88.3401 198.82 88.5138 198.82 88.6806Z" fill="#ECACBD"/>
<path d="M216.803 106.218V123.832C216.803 125.872 217.01 127.906 217.421 129.904C217.756 131.503 218.22 133.072 218.811 134.594C222.036 135.74 225.435 136.323 228.858 136.318C253.093 136.318 258.881 129.321 258.881 106.294V88.6805C258.882 85.0045 258.211 81.3593 256.901 77.9246C253.673 76.7674 250.269 76.1796 246.84 76.1876C240.255 76.1863 233.853 78.3498 228.618 82.3449C223.384 86.34 219.608 91.945 217.873 98.2969C217.221 100.711 216.871 103.197 216.831 105.697C216.803 105.87 216.803 106.051 216.803 106.218Z" fill="#F5CBD6"/>
<path d="M209.395 91.2164V84.6295L217.483 76.4167L206.679 61.478C206.679 61.478 170.388 46.8033 186.744 97.1989L194.714 100.749C196.303 101.461 198.044 101.763 199.78 101.628C201.515 101.494 203.189 100.926 204.649 99.9784C206.109 99.0305 207.308 97.732 208.137 96.2014C208.966 94.6709 209.399 92.9571 209.395 91.2164V91.2164Z" fill="#2B2C2B"/>
<path d="M197.535 95.8648V119.704C199.124 119.048 200.571 118.09 201.794 116.883C203.059 115.644 204.063 114.166 204.748 112.533C205.433 110.901 205.785 109.148 205.783 107.378C205.786 105.052 205.18 102.765 204.025 100.745C202.871 98.7257 201.209 97.0431 199.203 95.8648C199.078 95.7814 198.946 95.7189 198.821 95.6494V95.8648H197.535Z" fill="#DF7590"/>
<path d="M179.094 102.486C179.094 106.025 180.499 109.418 183.001 111.92C185.503 114.422 188.896 115.827 192.434 115.827C193.004 115.829 193.572 115.791 194.137 115.716C197.349 115.303 200.302 113.736 202.444 111.307C204.587 108.878 205.773 105.753 205.782 102.514C205.782 99.2687 204.599 96.1343 202.456 93.697C200.313 91.2597 197.356 89.6863 194.137 89.2709C193.572 89.1954 193.004 89.1582 192.434 89.1597C188.899 89.1615 185.509 90.5657 183.008 93.0642C180.507 95.5626 179.099 98.9513 179.094 102.486V102.486Z" fill="#F5CBD6"/>
<path d="M182.513 102.487C182.52 105.723 183.702 108.846 185.841 111.275C187.979 113.703 190.928 115.272 194.137 115.688C197.349 115.275 200.302 113.708 202.445 111.279C204.587 108.85 205.773 105.725 205.782 102.487C205.782 99.2409 204.6 96.1066 202.457 93.6693C200.313 91.232 197.356 89.6586 194.137 89.2432C190.921 89.6618 187.968 91.2368 185.829 93.674C183.69 96.1111 182.511 99.2437 182.513 102.487V102.487Z" fill="#ECACBD"/>
<path d="M186.452 102.479C186.452 104.066 187.082 105.588 188.204 106.71C189.326 107.832 190.848 108.462 192.435 108.462C194.02 108.46 195.54 107.829 196.66 106.707C197.781 105.586 198.41 104.065 198.41 102.479C198.41 100.894 197.781 99.3735 196.66 98.2517C195.54 97.13 194.02 96.4989 192.435 96.4971C190.848 96.4971 189.326 97.1274 188.204 98.2493C187.082 99.3712 186.452 100.893 186.452 102.479Z" fill="#DF7590"/>
<path d="M244.123 100.284C244.123 107.441 248.619 113.243 254.17 113.243C259.722 113.243 264.21 107.441 264.21 100.284C264.21 93.1274 259.715 87.3325 254.17 87.3325C248.625 87.3325 244.123 93.1274 244.123 100.284Z" stroke="#2B2C2B" stroke-miterlimit="10"/>
<path d="M251.759 104.182C251.759 106.746 252.836 108.823 254.163 108.823C255.49 108.823 256.574 106.739 256.574 104.182C256.574 101.625 255.497 99.5474 254.163 99.5474C252.829 99.5474 251.759 101.625 251.759 104.182Z" fill="#2B2C2B"/>
<path d="M242.261 93.4609C250.967 100.409 251.384 111.45 251.384 111.45L242.65 112.013" fill="#DF325F"/>
<path d="M215.371 100.284C215.371 107.441 219.874 113.243 225.418 113.243C230.963 113.243 235.479 107.441 235.479 100.284C235.479 93.1274 230.984 87.3325 225.432 87.3325C219.881 87.3325 215.371 93.1274 215.371 100.284Z" stroke="#2B2C2B" stroke-miterlimit="10"/>
<path d="M245.228 93.9053H234.389" stroke="#2B2C2B" stroke-miterlimit="10"/>
<path d="M199.994 62.2075L219.644 74.3739C240.211 61.6933 255.441 72.5951 255.441 72.5951C262.25 37.2077 205.393 14.3758 199.994 62.2075Z" fill="#2B2C2B"/>
<path d="M246.256 116.515L233.325 115.82C233.325 115.82 234.896 146.101 246.256 116.515Z" fill="white"/>
<path d="M197.528 133.906L222.069 151.916L212.64 182.315L192.435 149.324L197.528 133.906Z" fill="#84BBDF"/>
<path d="M223.014 104.814C223.014 107.378 224.091 109.456 225.418 109.456C226.745 109.456 227.822 107.371 227.822 104.814C227.822 102.257 226.745 100.18 225.418 100.18C224.091 100.18 223.014 102.25 223.014 104.814Z" fill="#2B2C2B"/>
<path d="M231.005 80.579C228.67 75.7638 221.242 72.1091 213.926 83.5945L231.005 80.579Z" fill="#2B2C2B"/>
<path d="M261.737 81.8363C260.563 76.6182 254.163 71.3653 244.429 80.8844L261.737 81.8363Z" fill="#2B2C2B"/>
<path d="M162.884 248.49C165.523 254.004 168.802 259.188 172.653 263.936L205.782 316.805H250.209C254.072 316.806 257.801 315.393 260.692 312.833C263.584 310.273 265.438 306.743 265.905 302.909L271.186 259.642L188.502 240.465L162.884 248.49Z" fill="#1E699C"/>
<path d="M284.617 215.007L295.825 208.01" stroke="#2B2C2B" stroke-width="0.75" stroke-miterlimit="10"/>
<path d="M278.447 210.094L285.583 202.277" stroke="#2B2C2B" stroke-width="0.75" stroke-miterlimit="10"/>
<path d="M260.639 206.925L260.819 196.343" stroke="#2B2C2B" stroke-width="0.75" stroke-miterlimit="10"/>
<path d="M237.459 209.934L230.031 199.011" stroke="#2B2C2B" stroke-width="0.75" stroke-miterlimit="10"/>
<path d="M232.79 216.292L224.695 209.461" stroke="#2B2C2B" stroke-width="0.75" stroke-miterlimit="10"/>
<path d="M240.482 210.685H265.44C266.518 210.728 267.534 211.197 268.266 211.989C268.998 212.781 269.386 213.831 269.345 214.909V282.731C269.386 283.809 268.998 284.859 268.266 285.651C267.534 286.443 266.518 286.912 265.44 286.955H240.482C239.404 286.912 238.387 286.443 237.653 285.651C236.92 284.859 236.531 283.809 236.57 282.731V214.909C236.531 213.831 236.92 212.781 237.653 211.989C238.387 211.197 239.404 210.728 240.482 210.685V210.685Z" fill="white"/>
<path d="M242.198 210.685H267.156C268.234 210.728 269.251 211.197 269.985 211.989C270.718 212.781 271.107 213.831 271.068 214.909V282.731C271.107 283.809 270.718 284.859 269.985 285.651C269.251 286.443 268.234 286.912 267.156 286.955H242.198C241.12 286.912 240.104 286.443 239.372 285.651C238.64 284.859 238.252 283.809 238.293 282.731V214.909C238.252 213.831 238.64 212.781 239.372 211.989C240.104 211.197 241.12 210.728 242.198 210.685V210.685Z" fill="#EB2228"/>
<path d="M241.684 211.518V286.121C242.51 286.661 243.476 286.951 244.463 286.955H269.817C270.716 286.957 271.599 286.717 272.374 286.26C273.265 285.726 274 284.966 274.505 284.057C275.01 283.149 275.267 282.123 275.251 281.084V216.528C275.267 215.49 275.01 214.465 274.505 213.558C274 212.65 273.265 211.892 272.374 211.358C271.599 210.902 270.716 210.662 269.817 210.664H244.463C243.473 210.674 242.508 210.971 241.684 211.518Z" fill="#EB2228"/>
<path d="M241.226 214.534L241.163 282.384C242.121 283.096 243.283 283.481 244.477 283.481H268.574C269.675 283.482 270.751 283.155 271.666 282.543C272.558 281.931 273.286 281.107 273.784 280.146C274.282 279.185 274.536 278.116 274.522 277.033V219.627C274.543 218.531 274.299 217.446 273.808 216.466C273.318 215.486 272.597 214.639 271.708 213.999C270.765 213.427 269.676 213.142 268.574 213.179H244.512C243.284 213.196 242.109 213.68 241.226 214.534V214.534Z" fill="#EB2228"/>
<g style="mix-blend-mode:multiply" opacity="0.3">
<path d="M275.257 216.528C275.273 215.489 275.016 214.464 274.511 213.555C274.006 212.647 273.272 211.887 272.381 211.352V214.534L272.416 282.717C273.293 282.091 274.004 281.261 274.488 280.299C274.972 279.336 275.215 278.27 275.195 277.193V222.497C275.188 221.937 275.151 221.378 275.084 220.822C275.175 221.513 275.221 222.209 275.223 222.906L275.257 216.528Z" fill="#4C6F91"/>
</g>
<g style="mix-blend-mode:multiply" opacity="0.3">
<path d="M238.293 215.889V273.872C238.293 276.102 239.356 278.479 241.01 279.299L240.934 210.914C238.849 211.852 238.175 213.492 238.293 215.889Z" fill="#4C6F91"/>
</g>
<path d="M317.238 55.5305L310.158 30.7114L344.503 32.7195C348.214 50.3958 334.144 59.498 334.144 59.498L317.238 55.5305Z" fill="#ECACBD"/>
<path d="M321.888 8.83798L332.824 5.54452C333.36 4.68006 334.174 4.02267 335.131 3.67947C336.089 3.33628 337.135 3.32752 338.098 3.6546L341.065 4.66209C342.043 4.99574 342.876 5.65571 343.425 6.53122C343.975 7.40672 344.206 8.44448 344.08 9.47028L343.962 10.5056L348.207 14.6745C348.807 15.2645 349.19 16.0395 349.295 16.8742C349.4 17.7089 349.22 18.5545 348.784 19.2742V19.2742L350.021 21.1989C350.672 22.2139 351.054 23.3776 351.132 24.5808C351.21 25.7841 350.98 26.9873 350.466 28.0777L348.103 33.0943C347.526 34.3198 346.547 35.3111 345.328 35.9038C344.11 36.4965 342.726 36.655 341.405 36.353L315.613 30.4192L321.888 8.83798Z" fill="#ECACBD"/>
<path d="M353.981 9.6026L339.89 38.4934L338.771 37.9306L353.363 9.29688L353.981 9.6026Z" fill="#DF7590"/>
<path d="M347.393 3.74509L333.844 37.3329L333.198 37.0827L345.997 3.20312L347.393 3.74509Z" fill="#DF7590"/>
<path d="M328.78 30.0305L332.546 9.17188L319.323 15.0362L328.78 30.0305Z" fill="#DF7590"/>
<path d="M310.158 30.711L310.853 15.8904C310.952 13.9155 311.735 12.0367 313.069 10.5771C314.404 9.11753 316.204 8.16842 318.163 7.89301L331.482 5.9753C331.907 5.92076 332.338 5.96498 332.743 6.10453C333.147 6.24408 333.514 6.47518 333.815 6.77981C334.115 7.08445 334.342 7.4544 334.476 7.86081C334.61 8.26722 334.648 8.69913 334.588 9.12285V9.12285C334.309 10.8589 333.517 12.4718 332.313 13.7535C331.11 15.0352 329.55 15.9271 327.835 16.3143L325.055 16.9396C325.055 16.9396 340.015 27.4593 333.817 45.4274L310.158 30.711Z" fill="#ECACBD"/>
<path d="M335.173 5.44043L334.672 8.58104C334.367 10.4746 333.502 12.2334 332.188 13.6304C330.874 15.0274 329.172 15.9986 327.3 16.4186L325.042 16.9259C325.042 16.9259 339.8 26.9383 333.804 45.4136C343.281 30.2526 331.198 18.0098 331.198 18.0098C332.453 17.3414 333.499 16.3383 334.219 15.1118C334.939 13.8853 335.305 12.4834 335.277 11.0616L335.173 5.44043Z" fill="#DF7590"/>
<path d="M317.232 55.5302L311.097 81.3638L330.496 94.1624L337.431 52.6328L317.232 55.5302Z" fill="#ECACBD"/>
<path d="M316.155 60.0674L335.854 62.0546L334.992 67.2171L316.155 60.0674Z" fill="#DF7590"/>
<path d="M308.338 80.8429L313.007 58.8726L341.738 69.7813L334.283 95.2257L308.338 80.8429Z" fill="#E788A0"/>
<path d="M341.738 69.7813L313.007 58.8726L308.338 80.8429" stroke="white" stroke-width="0.5" stroke-miterlimit="10"/>
<path d="M261.312 149.331L310.332 70.4341L338.869 89.7432C338.869 89.7432 308.338 185.143 275.16 210.684L261.312 149.331Z" fill="#2782C0"/>
<path d="M137.308 324.726L141.991 326.984L166.643 338.886C166.643 338.886 191.942 189.36 192.588 187.005C193.095 185.143 192.706 162.686 192.518 153.341C192.47 150.874 192.435 149.332 192.435 149.332C116.935 166.688 137.308 324.726 137.308 324.726Z" fill="#2782C0"/>
<path d="M166.636 338.88L138.718 313.15L137.308 324.726L166.636 338.88Z" fill="#84BBDF"/>
<path d="M137.308 324.726L141.991 326.984C130.985 186.838 175.168 158.899 192.518 153.341C192.47 150.874 192.435 149.332 192.435 149.332C116.935 166.688 137.308 324.726 137.308 324.726Z" fill="#84BBDF"/>
<path d="M230.358 287.157L228.148 261.879L229.163 254.479C229.392 252.318 234.499 244.953 236.57 245.606C236.57 245.606 236.57 251.436 236.57 252.916L236.611 258.836L238.828 266.923L230.358 287.157Z" fill="#F5CBD6"/>
<path d="M225.897 286.247L233.485 266.896L261.313 283.12C254.246 299.747 241.309 296.982 241.309 296.982L225.897 286.247Z" fill="#F5CBD6"/>
<path d="M233.485 266.903L242.692 274.692L243.06 274.087L249.313 263.852V263.818L253.684 253.694L265.176 243.772C265.555 243.443 265.829 243.011 265.965 242.528C266.1 242.045 266.092 241.533 265.941 241.055C265.822 240.681 265.619 240.34 265.347 240.057C265.076 239.774 264.743 239.557 264.375 239.423C264.006 239.289 263.612 239.241 263.222 239.283C262.832 239.325 262.457 239.456 262.126 239.666L247.694 248.879L236.577 262.991L233.485 266.903Z" fill="#F5CBD6"/>
<path d="M241.072 271.759L243.059 274.087L248.931 280.987L251.481 277.853L256.928 271.127L257.234 270.759L258.297 269.446L265.447 258.864L273.382 247.121C273.682 246.682 273.842 246.162 273.842 245.631C273.842 245.099 273.682 244.579 273.382 244.14L273.291 244.015C273.071 243.696 272.783 243.429 272.448 243.234C272.113 243.039 271.739 242.92 271.353 242.886C270.966 242.852 270.577 242.904 270.213 243.038C269.849 243.172 269.52 243.385 269.247 243.661L258.658 254.403L250.32 262.866L249.334 263.818L244.671 268.327L241.072 271.759Z" fill="#F5CBD6"/>
<path d="M248.841 274.636L250.23 277.888L251.384 295.078L274.362 280.181L279.948 271.002C280.315 270.386 280.447 269.657 280.32 268.951C280.192 268.245 279.813 267.609 279.253 267.16C278.876 266.858 278.43 266.653 277.955 266.563C277.481 266.474 276.991 266.502 276.53 266.646C275.934 266.826 275.41 267.191 275.036 267.688L270.137 274.219L264.183 277.582L271.131 270.106L277.607 257.919C277.85 257.453 277.95 256.926 277.893 256.404C277.836 255.882 277.625 255.388 277.287 254.987C277.021 254.666 276.683 254.414 276.299 254.25C275.916 254.087 275.5 254.018 275.084 254.049C274.737 254.074 274.397 254.168 274.087 254.327C273.777 254.486 273.502 254.705 273.278 254.973L265.774 263.776L255.442 270.405L248.841 274.636Z" fill="#F5CBD6"/>
<path d="M273.257 254.973L265.773 263.776L271.131 270.12L277.592 257.939C277.84 257.476 277.943 256.949 277.888 256.427C277.834 255.904 277.624 255.41 277.287 255.007V255.007C277.041 254.712 276.735 254.475 276.388 254.31C276.042 254.146 275.663 254.059 275.28 254.056C274.896 254.052 274.516 254.133 274.167 254.291C273.818 254.449 273.507 254.682 273.257 254.973V254.973Z" fill="#ECACBD"/>
<path d="M273.278 244.015C273.057 243.696 272.77 243.429 272.435 243.234C272.099 243.039 271.725 242.92 271.339 242.886C270.953 242.852 270.564 242.904 270.2 243.038C269.836 243.172 269.506 243.385 269.234 243.661L258.645 254.403L259.068 254.458L265.447 258.864L273.382 247.121C273.682 246.682 273.843 246.162 273.843 245.631C273.843 245.099 273.682 244.579 273.382 244.14L273.278 244.015Z" fill="#ECACBD"/>
<path d="M247.687 248.886L253.676 253.694L265.168 243.772C265.547 243.443 265.821 243.011 265.957 242.528C266.092 242.045 266.084 241.533 265.933 241.055V241.055C265.814 240.681 265.611 240.34 265.339 240.057C265.068 239.774 264.735 239.557 264.367 239.423C263.998 239.289 263.604 239.241 263.214 239.283C262.824 239.325 262.449 239.456 262.118 239.666L247.687 248.886Z" fill="#ECACBD"/>
<path d="M270.15 274.199L274.319 280.16L279.947 271.002C280.315 270.386 280.447 269.657 280.319 268.951C280.191 268.245 279.813 267.609 279.253 267.16C278.875 266.858 278.43 266.653 277.955 266.563C277.48 266.474 276.99 266.502 276.529 266.646C275.933 266.826 275.41 267.191 275.035 267.688L270.15 274.199Z" fill="#ECACBD"/>
<path d="M229.232 280.98L209.735 291.263L223.548 309.398L242.323 297.017L229.232 280.98Z" fill="#F5CBD6"/>
<path d="M234.436 303.041L221.207 285.218L209.735 291.263L227.842 308.46L234.436 303.041Z" fill="#DF7590"/>
<path d="M235.57 306.202L215.684 283.954L201.412 288.31L218.491 320.14L235.57 306.202Z" fill="#E788A0"/>
<path d="M198.139 288.088L174.349 293.362L189.253 205.543L198.139 288.088Z" fill="#1E699C"/>
<path d="M222.472 323.726L203.378 279.375L156.957 289.2L166.636 338.88L222.472 323.726Z" fill="#2782C0"/>
<path d="M203.378 279.375L156.957 289.2L157.763 293.362L206.554 286.747L203.378 279.375Z" fill="#1E699C"/>
<path d="M235.57 306.202L215.684 283.954L206.554 286.747" stroke="white" stroke-width="0.5" stroke-miterlimit="10"/>
<path d="M271.555 168.043C271.555 168.043 278.635 187.915 277.37 209.038C284.034 203.021 282.45 178.403 271.555 168.043Z" fill="#1E699C"/>
<path d="M261.507 149.019L256.039 158.441C255.987 156.518 256.471 154.618 257.437 152.954C258.402 151.291 259.812 149.928 261.507 149.019V149.019Z" fill="#1E699C"/>
<g style="mix-blend-mode:multiply" opacity="0.3">
<path d="M237.008 249.289H236.869C236.695 249.273 236.534 249.193 236.417 249.064C236.3 248.936 236.236 248.768 236.236 248.594V225.498C236.236 225.324 236.3 225.156 236.417 225.028C236.534 224.899 236.695 224.819 236.869 224.803H237.028C237.203 224.817 237.366 224.897 237.484 225.025C237.603 225.154 237.668 225.323 237.668 225.498V248.608C237.664 248.784 237.594 248.952 237.472 249.078C237.349 249.205 237.183 249.28 237.008 249.289Z" fill="#A82123"/>
</g>
<path d="M236.479 249.289C236.229 249.289 236.021 248.9 236.021 248.414V225.693C236.021 225.207 236.229 224.811 236.479 224.811C236.729 224.811 236.931 225.207 236.931 225.693V248.414C236.931 248.9 236.729 249.289 236.479 249.289Z" fill="white"/>
<g style="mix-blend-mode:multiply" opacity="0.3">
<path d="M236.987 259.454H236.827C236.659 259.454 236.499 259.387 236.38 259.269C236.261 259.15 236.195 258.99 236.195 258.822V255.549C236.195 255.38 236.262 255.217 236.382 255.097C236.502 254.977 236.664 254.91 236.834 254.91H236.987C237.07 254.91 237.152 254.926 237.229 254.958C237.306 254.99 237.375 255.036 237.434 255.095C237.493 255.154 237.539 255.224 237.571 255.3C237.603 255.377 237.619 255.459 237.619 255.542V258.815C237.619 258.898 237.603 258.98 237.571 259.057C237.539 259.134 237.493 259.203 237.434 259.262C237.375 259.321 237.306 259.367 237.229 259.399C237.152 259.431 237.07 259.447 236.987 259.447V259.454Z" fill="#A82123"/>
</g>
<path d="M236.479 259.454C236.229 259.454 236.021 259.093 236.021 258.641V255.73C236.021 255.278 236.229 254.917 236.479 254.917C236.729 254.917 236.931 255.278 236.931 255.73V258.641C236.931 259.093 236.729 259.454 236.479 259.454Z" fill="white"/>
<g style="mix-blend-mode:multiply">
<path d="M260.055 220.377C260.06 220.792 259.983 221.203 259.828 221.587C259.674 221.972 259.446 222.322 259.156 222.618C258.866 222.914 258.521 223.15 258.14 223.313C257.759 223.476 257.35 223.562 256.935 223.567C256.1 223.556 255.303 223.214 254.719 222.616C254.136 222.018 253.813 221.213 253.823 220.377C253.817 219.963 253.893 219.552 254.047 219.167C254.2 218.782 254.428 218.431 254.717 218.134C255.006 217.838 255.351 217.601 255.731 217.437C256.112 217.274 256.521 217.187 256.935 217.181C257.773 217.192 258.571 217.535 259.156 218.134C259.741 218.733 260.064 219.54 260.055 220.377V220.377Z" fill="#8D0405"/>
</g>
<g style="mix-blend-mode:multiply">
<path d="M259.103 220.377C259.107 220.662 259.055 220.944 258.949 221.208C258.843 221.472 258.687 221.712 258.488 221.916C258.289 222.119 258.052 222.281 257.79 222.393C257.529 222.504 257.248 222.563 256.963 222.566C256.68 222.562 256.399 222.503 256.139 222.391C255.878 222.279 255.642 222.117 255.443 221.913C255.245 221.71 255.089 221.47 254.984 221.206C254.879 220.943 254.827 220.661 254.83 220.377C254.827 220.093 254.879 219.812 254.984 219.548C255.089 219.284 255.245 219.044 255.443 218.841C255.642 218.638 255.878 218.475 256.139 218.364C256.399 218.252 256.68 218.192 256.963 218.188C257.248 218.191 257.529 218.25 257.79 218.362C258.052 218.473 258.289 218.635 258.488 218.839C258.687 219.042 258.843 219.282 258.949 219.546C259.055 219.811 259.107 220.093 259.103 220.377V220.377Z" fill="#8D0405"/>
</g>
</svg>
