<svg width="139" height="139" viewBox="0 0 139 139" fill="none" xmlns="http://www.w3.org/2000/svg">
<mask id="path-1-inside-1_2868_8418" fill="white">
<path d="M69.0647 138.129C107.208 138.129 138.129 107.208 138.129 69.0647C138.129 30.9213 107.208 0 69.0647 0C30.9213 0 0 30.9213 0 69.0647C0 107.208 30.9213 138.129 69.0647 138.129Z"/>
</mask>
<path d="M60.9834 53.77C60.9834 51.837 59.4164 50.27 57.4834 50.27C55.5504 50.27 53.9834 51.837 53.9834 53.77H60.9834ZM34.9834 53.77C34.9834 51.837 33.4164 50.27 31.4834 50.27C29.5504 50.27 27.9834 51.837 27.9834 53.77H34.9834ZM110.983 54.77C110.983 52.837 109.416 51.27 107.483 51.27C105.55 51.27 103.983 52.837 103.983 54.77H110.983ZM86.9834 54.77C86.9834 52.837 85.4164 51.27 83.4834 51.27C81.5504 51.27 79.9834 52.837 79.9834 54.77H86.9834ZM49.9834 106.77C49.9834 108.703 51.5504 110.27 53.4834 110.27C55.4164 110.27 56.9834 108.703 56.9834 106.77H49.9834ZM69.4834 90.77V87.27V90.77ZM81.9834 106.77C81.9834 108.703 83.5504 110.27 85.4834 110.27C87.4164 110.27 88.9834 108.703 88.9834 106.77H81.9834ZM53.9834 53.77C53.9834 59.0167 49.7301 63.27 44.4834 63.27V70.27C53.5961 70.27 60.9834 62.8827 60.9834 53.77H53.9834ZM44.4834 63.27C39.2367 63.27 34.9834 59.0167 34.9834 53.77H27.9834C27.9834 62.8827 35.3707 70.27 44.4834 70.27V63.27ZM103.983 54.77C103.983 59.4644 100.178 63.27 95.4834 63.27V70.27C104.044 70.27 110.983 63.3304 110.983 54.77H103.983ZM95.4834 63.27C90.789 63.27 86.9834 59.4644 86.9834 54.77H79.9834C79.9834 63.3304 86.923 70.27 95.4834 70.27V63.27ZM56.9834 106.77C56.9834 99.8665 62.5798 94.27 69.4834 94.27V87.27C58.7138 87.27 49.9834 96.0005 49.9834 106.77H56.9834ZM69.4834 94.27C76.387 94.27 81.9834 99.8665 81.9834 106.77H88.9834C88.9834 96.0005 80.253 87.27 69.4834 87.27V94.27ZM131.129 69.0647C131.129 103.342 103.342 131.129 69.0647 131.129V145.129C111.074 145.129 145.129 111.074 145.129 69.0647H131.129ZM69.0647 131.129C34.7873 131.129 7 103.342 7 69.0647H-7C-7 111.074 27.0553 145.129 69.0647 145.129V131.129ZM7 69.0647C7 34.7873 34.7873 7 69.0647 7V-7C27.0553 -7 -7 27.0553 -7 69.0647H7ZM69.0647 7C103.342 7 131.129 34.7873 131.129 69.0647H145.129C145.129 27.0553 111.074 -7 69.0647 -7V7Z" fill="#EF3D56" mask="url(#path-1-inside-1_2868_8418)"/>
</svg>
