<svg width="492" height="884" viewBox="0 0 492 884" fill="none" xmlns="http://www.w3.org/2000/svg">
<path d="M0 6.99999C0 3.13399 3.13401 0 7 0H485C488.866 0 492 3.13401 492 7V877C492 880.866 488.866 884 485 884H6.99999C3.134 884 0 880.866 0 877V6.99999Z" fill="white"/>
<path d="M0 6.99999C0 3.13399 3.13401 0 7 0H485C488.866 0 492 3.13401 492 7V877C492 880.866 488.866 884 485 884H6.99999C3.134 884 0 880.866 0 877V6.99999Z" fill="url(#paint0_linear_2872_8893)"/>
<path d="M261.318 49.5692L251.88 52.034C251.21 50.9581 250.28 50.0469 249.174 49.382C250.027 48.3879 250.543 47.099 250.543 45.6896C250.543 44.5137 250.184 43.4207 249.569 42.5126V39.526H251.202L252.965 36.8321V39.767C252.28 39.8972 251.761 40.4954 251.761 41.2141C251.761 42.0274 252.426 42.688 253.244 42.688C254.064 42.688 254.728 42.0285 254.728 41.2141C254.728 40.4653 254.166 39.8488 253.438 39.7541V36.1091H239.208L236.886 39.5271H239.896V42.7676C239.381 43.6218 239.083 44.6213 239.083 45.6907C239.083 47.1001 239.6 48.3879 240.453 49.3831C239.345 50.048 238.416 50.9592 237.746 52.0351L228.309 49.5703L233.787 62.0008L231.322 52.4278L244.06 55.5402L244.814 61.4112L245.567 55.5402L258.305 52.4278L255.839 62.0008L261.318 49.5692ZM245.331 49.5068C242.923 49.5068 240.972 47.567 240.972 45.1754C240.972 44.5266 241.116 43.9112 241.374 43.3593C243.152 44.036 246.607 44.4277 248.723 43.1592H249.188C249.508 43.7617 249.69 44.447 249.69 45.1765C249.69 47.5681 247.738 49.5068 245.331 49.5068Z" fill="#EE313A"/>
<path d="M267.148 32.2936C264.696 29.7406 261.244 28.1128 257.413 28.0267C256.593 28.0085 255.788 28.0644 255.002 28.1817C254.196 26.3742 252.959 24.7981 251.415 23.5867C249.423 22.0213 246.907 21.0605 244.174 21.0003C240.827 20.9239 237.752 22.2096 235.511 24.3398C233.685 26.0708 232.398 28.3786 231.941 30.9692C231.766 30.9574 231.591 30.9466 231.414 30.9423C228.068 30.8659 224.991 32.1516 222.75 34.2818C220.509 36.4109 219.078 39.4061 219.003 42.7316C218.952 44.9447 219.509 47.0458 220.52 48.8543C221.532 50.665 222.996 52.1884 224.768 53.2761C225.638 53.8098 226.777 53.5419 227.313 52.679C227.85 51.8151 227.58 50.6833 226.711 50.1508C225.479 49.3944 224.456 48.3304 223.753 47.0716C223.05 45.8118 222.665 44.3659 222.699 42.8166C222.754 40.4949 223.742 38.4314 225.307 36.9413C226.874 35.4556 228.994 34.5669 231.332 34.6196C231.963 34.6336 232.575 34.7186 233.17 34.8638C233.721 34.9994 234.307 34.8735 234.754 34.5249C235.201 34.1764 235.463 33.6406 235.462 33.0768C235.461 32.9596 235.46 32.8929 235.461 32.8735C235.515 30.5518 236.503 28.4872 238.068 26.9982C239.635 25.5125 241.755 24.6238 244.092 24.6754C246.003 24.7195 247.734 25.3823 249.124 26.4721C250.513 27.562 251.548 29.0768 252.033 30.8057C252.165 31.278 252.478 31.6739 252.909 31.9138C253.34 32.1548 253.842 32.214 254.317 32.0806C255.272 31.8116 256.282 31.6782 257.329 31.7019C260.153 31.7664 262.665 32.9542 264.475 34.8337C266.282 36.7154 267.362 39.263 267.3 42.0689C267.261 43.7774 266.803 45.3664 266.023 46.7586C265.245 48.1497 264.144 49.3417 262.825 50.2314C261.98 50.8017 261.761 51.9442 262.334 52.7834C262.908 53.6226 264.058 53.841 264.903 53.2708C266.697 52.0583 268.192 50.4412 269.254 48.5434C270.316 46.6467 270.943 44.4659 270.996 42.1517C271.085 38.3432 269.603 34.8434 267.148 32.2936Z" fill="#2C90CA"/>
<path d="M174.825 73.5497C174.208 72.833 173.475 72.2747 172.625 71.8747C171.792 71.4747 170.942 71.2747 170.075 71.2747C168.992 71.2747 168 71.533 167.1 72.0497C166.2 72.5664 165.492 73.283 164.975 74.1997C164.458 75.0997 164.2 76.0913 164.2 77.1747C164.2 78.258 164.458 79.258 164.975 80.1747C165.492 81.0747 166.2 81.7914 167.1 82.3247C168 82.8414 168.992 83.0997 170.075 83.0997C170.908 83.0997 171.742 82.9164 172.575 82.5497C173.425 82.183 174.175 81.6747 174.825 81.0247L176.8 83.2247C175.883 84.158 174.817 84.8997 173.6 85.4497C172.383 85.983 171.15 86.2497 169.9 86.2497C168.217 86.2497 166.675 85.8497 165.275 85.0497C163.875 84.2497 162.775 83.1664 161.975 81.7997C161.175 80.4164 160.775 78.8913 160.775 77.2247C160.775 75.558 161.183 74.0414 162 72.6747C162.817 71.308 163.925 70.233 165.325 69.4497C166.742 68.6664 168.308 68.2747 170.025 68.2747C171.275 68.2747 172.5 68.5247 173.7 69.0247C174.9 69.5247 175.925 70.2164 176.775 71.0997L174.825 73.5497Z" fill="#2C90CA"/>
<path d="M187.308 85.9997V84.3747C186.841 84.958 186.241 85.3997 185.508 85.6997C184.774 85.9997 183.933 86.1497 182.983 86.1497C182.049 86.1497 181.224 85.9747 180.508 85.6247C179.808 85.258 179.266 84.758 178.883 84.1247C178.499 83.4913 178.308 82.783 178.308 81.9997C178.308 80.7497 178.749 79.7747 179.633 79.0747C180.516 78.358 181.766 77.9914 183.383 77.9747H187.283V77.6247C187.283 76.8413 187.024 76.233 186.508 75.7997C185.991 75.3663 185.241 75.1497 184.258 75.1497C182.991 75.1497 181.666 75.5664 180.283 76.3997L179.108 74.1497C180.158 73.5664 181.108 73.1497 181.958 72.8997C182.824 72.633 183.833 72.4997 184.983 72.4997C186.716 72.4997 188.058 72.9163 189.008 73.7497C189.974 74.583 190.466 75.7497 190.483 77.2497L190.508 85.9997H187.308ZM183.758 83.6497C184.691 83.6497 185.491 83.433 186.158 82.9997C186.824 82.5497 187.199 81.9997 187.283 81.3497V80.1497H183.908C183.041 80.1497 182.399 80.283 181.983 80.5497C181.583 80.7997 181.383 81.2163 181.383 81.7997C181.383 82.3663 181.591 82.8164 182.008 83.1497C182.441 83.483 183.024 83.6497 183.758 83.6497Z" fill="#2C90CA"/>
<path d="M197.404 75.1997C197.854 74.333 198.462 73.6747 199.229 73.2247C200.012 72.758 200.92 72.5163 201.954 72.4997V75.6497C200.57 75.5664 199.462 75.8913 198.629 76.6247C197.812 77.3413 197.404 78.3164 197.404 79.5497V85.9997H194.154V72.6247H197.404V75.1997Z" fill="#2C90CA"/>
<path d="M209.812 72.5247C211.945 72.5247 213.545 73.133 214.612 74.3497C215.695 75.5664 216.237 77.2747 216.237 79.4747C216.237 79.908 216.228 80.233 216.212 80.4497H206.337C206.553 81.3997 206.995 82.1497 207.662 82.6997C208.345 83.233 209.178 83.4997 210.162 83.4997C210.845 83.4997 211.495 83.3747 212.112 83.1247C212.745 82.858 213.295 82.483 213.762 81.9997L215.512 83.8247C214.845 84.558 214.028 85.1247 213.062 85.5247C212.112 85.9247 211.053 86.1247 209.887 86.1247C208.52 86.1247 207.312 85.8413 206.262 85.2747C205.228 84.708 204.428 83.9164 203.862 82.8997C203.295 81.8664 203.012 80.683 203.012 79.3497C203.012 78.0163 203.295 76.833 203.862 75.7997C204.445 74.7663 205.253 73.9664 206.287 73.3997C207.32 72.8164 208.495 72.5247 209.812 72.5247ZM213.262 78.2747C213.228 77.2914 212.903 76.508 212.287 75.9247C211.67 75.3413 210.853 75.0497 209.837 75.0497C208.887 75.0497 208.087 75.3413 207.437 75.9247C206.803 76.4913 206.412 77.2747 206.262 78.2747H213.262Z" fill="#2C90CA"/>
<path d="M224.607 72.5247C226.74 72.5247 228.34 73.133 229.407 74.3497C230.49 75.5664 231.032 77.2747 231.032 79.4747C231.032 79.908 231.023 80.233 231.007 80.4497H221.132C221.348 81.3997 221.79 82.1497 222.457 82.6997C223.14 83.233 223.973 83.4997 224.957 83.4997C225.64 83.4997 226.29 83.3747 226.907 83.1247C227.54 82.858 228.09 82.483 228.557 81.9997L230.307 83.8247C229.64 84.558 228.823 85.1247 227.857 85.5247C226.907 85.9247 225.848 86.1247 224.682 86.1247C223.315 86.1247 222.107 85.8413 221.057 85.2747C220.023 84.708 219.223 83.9164 218.657 82.8997C218.09 81.8664 217.807 80.683 217.807 79.3497C217.807 78.0163 218.09 76.833 218.657 75.7997C219.24 74.7663 220.048 73.9664 221.082 73.3997C222.115 72.8164 223.29 72.5247 224.607 72.5247ZM228.057 78.2747C228.023 77.2914 227.698 76.508 227.082 75.9247C226.465 75.3413 225.648 75.0497 224.632 75.0497C223.682 75.0497 222.882 75.3413 222.232 75.9247C221.598 76.4913 221.207 77.2747 221.057 78.2747H228.057Z" fill="#2C90CA"/>
<path d="M237.077 75.1997C237.527 74.333 238.135 73.6747 238.902 73.2247C239.685 72.758 240.593 72.5163 241.627 72.4997V75.6497C240.243 75.5664 239.135 75.8913 238.302 76.6247C237.485 77.3413 237.077 78.3164 237.077 79.5497V85.9997H233.827V72.6247H237.077V75.1997Z" fill="#2C90CA"/>
<path d="M251.835 76.2497C251.185 75.8663 250.51 75.5664 249.81 75.3497C249.126 75.133 248.493 75.0247 247.91 75.0247C247.36 75.0247 246.918 75.1247 246.585 75.3247C246.268 75.508 246.11 75.7997 246.11 76.1997C246.11 76.6163 246.31 76.9414 246.71 77.1747C247.126 77.3913 247.776 77.6247 248.66 77.8747C249.593 78.158 250.36 78.4414 250.96 78.7247C251.56 78.9914 252.076 79.3997 252.51 79.9497C252.96 80.483 253.185 81.1914 253.185 82.0747C253.185 83.3747 252.685 84.3747 251.685 85.0747C250.685 85.7747 249.426 86.1247 247.91 86.1247C246.876 86.1247 245.868 85.9663 244.885 85.6497C243.901 85.3163 243.068 84.8497 242.385 84.2497L243.51 81.9747C244.11 82.4914 244.826 82.8997 245.66 83.1997C246.493 83.483 247.285 83.6247 248.035 83.6247C248.635 83.6247 249.11 83.5247 249.46 83.3247C249.826 83.108 250.01 82.7913 250.01 82.3747C250.01 81.908 249.801 81.558 249.385 81.3247C248.968 81.0914 248.293 80.833 247.36 80.5497C246.46 80.283 245.726 80.0247 245.16 79.7747C244.593 79.508 244.101 79.1164 243.685 78.5997C243.268 78.0664 243.06 77.3747 243.06 76.5247C243.06 75.208 243.535 74.208 244.485 73.5247C245.451 72.8247 246.66 72.4747 248.11 72.4747C248.993 72.4747 249.86 72.5997 250.71 72.8497C251.576 73.0997 252.343 73.4497 253.01 73.8997L251.835 76.2497Z" fill="#2C90CA"/>
<path d="M268.77 73.5497C268.154 72.833 267.42 72.2747 266.57 71.8747C265.737 71.4747 264.887 71.2747 264.02 71.2747C262.937 71.2747 261.945 71.533 261.045 72.0497C260.145 72.5664 259.437 73.283 258.92 74.1997C258.404 75.0997 258.145 76.0913 258.145 77.1747C258.145 78.258 258.404 79.258 258.92 80.1747C259.437 81.0747 260.145 81.7914 261.045 82.3247C261.945 82.8414 262.937 83.0997 264.02 83.0997C264.854 83.0997 265.687 82.9164 266.52 82.5497C267.37 82.183 268.12 81.6747 268.77 81.0247L270.745 83.2247C269.829 84.158 268.762 84.8997 267.545 85.4497C266.329 85.983 265.095 86.2497 263.845 86.2497C262.162 86.2497 260.62 85.8497 259.22 85.0497C257.82 84.2497 256.72 83.1664 255.92 81.7997C255.12 80.4164 254.72 78.8913 254.72 77.2247C254.72 75.558 255.129 74.0414 255.945 72.6747C256.762 71.308 257.87 70.233 259.27 69.4497C260.687 68.6664 262.254 68.2747 263.97 68.2747C265.22 68.2747 266.445 68.5247 267.645 69.0247C268.845 69.5247 269.87 70.2164 270.72 71.0997L268.77 73.5497Z" fill="#2C90CA"/>
<path d="M273.502 67.4497H276.752V85.9997H273.502V67.4497Z" fill="#2C90CA"/>
<path d="M286.771 72.5247C288.155 72.5247 289.371 72.808 290.421 73.3747C291.488 73.9413 292.313 74.7414 292.896 75.7747C293.496 76.7914 293.796 77.9663 293.796 79.2997C293.796 80.6497 293.496 81.8413 292.896 82.8747C292.313 83.908 291.488 84.708 290.421 85.2747C289.371 85.8413 288.155 86.1247 286.771 86.1247C285.371 86.1247 284.138 85.8413 283.071 85.2747C282.005 84.708 281.171 83.908 280.571 82.8747C279.988 81.8413 279.696 80.6497 279.696 79.2997C279.696 77.9663 279.988 76.7914 280.571 75.7747C281.171 74.7414 282.005 73.9413 283.071 73.3747C284.138 72.808 285.371 72.5247 286.771 72.5247ZM286.771 75.2997C285.638 75.2997 284.721 75.6747 284.021 76.4247C283.321 77.1747 282.971 78.1497 282.971 79.3497C282.971 80.5497 283.321 81.5247 284.021 82.2747C284.721 83.0247 285.638 83.3997 286.771 83.3997C287.871 83.3997 288.771 83.0247 289.471 82.2747C290.171 81.5247 290.521 80.5497 290.521 79.3497C290.521 78.1497 290.171 77.1747 289.471 76.4247C288.771 75.6747 287.871 75.2997 286.771 75.2997Z" fill="#2C90CA"/>
<path d="M308.97 72.6247V85.9997H305.695V83.5247C304.795 85.258 303.245 86.1247 301.045 86.1247C299.545 86.1247 298.361 85.6663 297.495 84.7497C296.628 83.833 296.195 82.583 296.195 80.9997V72.6247H299.47V80.0497C299.47 80.983 299.72 81.7163 300.22 82.2497C300.736 82.783 301.445 83.0497 302.345 83.0497C303.378 83.033 304.195 82.6664 304.795 81.9497C305.395 81.233 305.695 80.3247 305.695 79.2247V72.6247H308.97Z" fill="#2C90CA"/>
<path d="M325.926 67.4497V85.9997H322.676V83.8497C322.193 84.5997 321.568 85.1747 320.801 85.5747C320.051 85.958 319.176 86.1497 318.176 86.1497C316.909 86.1497 315.793 85.8663 314.826 85.2997C313.876 84.7163 313.134 83.908 312.601 82.8747C312.068 81.8247 311.801 80.6247 311.801 79.2747C311.801 77.9414 312.059 76.7663 312.576 75.7497C313.109 74.7163 313.851 73.9164 314.801 73.3497C315.768 72.783 316.868 72.4997 318.101 72.4997C319.118 72.4997 320.009 72.6997 320.776 73.0997C321.543 73.4997 322.176 74.0747 322.676 74.8247V67.4497H325.926ZM318.876 83.4247C319.993 83.4247 320.901 83.0497 321.601 82.2997C322.318 81.533 322.676 80.5497 322.676 79.3497C322.676 78.1497 322.318 77.1747 321.601 76.4247C320.901 75.658 319.993 75.2747 318.876 75.2747C317.759 75.2747 316.851 75.658 316.151 76.4247C315.451 77.1747 315.093 78.1497 315.076 79.3497C315.093 80.5497 315.451 81.533 316.151 82.2997C316.851 83.0497 317.759 83.4247 318.876 83.4247Z" fill="#2C90CA"/>
<path d="M184.516 94.7997H185.32V98.2737H187.132V98.9997H184.516V94.7997Z" fill="#2C90CA"/>
<path d="M193.792 94.7997H196.87V95.5017H194.596V96.5397H196.636V97.2417H194.596V98.2977H196.942V98.9997H193.792V94.7997Z" fill="#2C90CA"/>
<path d="M206.897 98.9997L206.525 98.1117H204.473L204.101 98.9997H203.267L205.109 94.7997H205.943L207.761 98.9997H206.897ZM204.761 97.4217H206.237L205.505 95.6577L204.761 97.4217Z" fill="#2C90CA"/>
<path d="M216.929 98.9997L216.203 97.7577C216.171 97.7617 216.121 97.7637 216.053 97.7637H215.105V98.9997H214.301V94.7997H216.053C216.597 94.7997 217.017 94.9257 217.313 95.1777C217.609 95.4297 217.757 95.7857 217.757 96.2457C217.757 96.5737 217.685 96.8537 217.541 97.0857C217.401 97.3177 217.195 97.4917 216.923 97.6077L217.847 98.9997H216.929ZM215.105 97.0557H216.053C216.357 97.0557 216.589 96.9897 216.749 96.8577C216.909 96.7257 216.989 96.5297 216.989 96.2697C216.989 96.0137 216.909 95.8217 216.749 95.6937C216.589 95.5657 216.357 95.5017 216.053 95.5017H215.105V97.0557Z" fill="#2C90CA"/>
<path d="M227.595 94.7997H228.375V98.9997H227.613L225.453 96.1077V98.9997H224.667V94.7997H225.429L227.595 97.6977V94.7997Z" fill="#2C90CA"/>
<path d="M242.47 94.7997H245.896V95.5137H244.588V98.9997H243.778V95.5137H242.47V94.7997Z" fill="#2C90CA"/>
<path d="M254.163 94.7457C254.579 94.7457 254.957 94.8397 255.297 95.0277C255.641 95.2157 255.911 95.4737 256.107 95.8017C256.303 96.1297 256.401 96.4937 256.401 96.8937C256.401 97.2937 256.303 97.6597 256.107 97.9917C255.911 98.3197 255.641 98.5797 255.297 98.7717C254.957 98.9637 254.579 99.0597 254.163 99.0597C253.747 99.0597 253.367 98.9637 253.023 98.7717C252.683 98.5797 252.415 98.3197 252.219 97.9917C252.023 97.6597 251.925 97.2937 251.925 96.8937C251.925 96.4937 252.023 96.1297 252.219 95.8017C252.415 95.4737 252.683 95.2157 253.023 95.0277C253.367 94.8397 253.747 94.7457 254.163 94.7457ZM254.175 95.4657C253.919 95.4657 253.681 95.5297 253.461 95.6577C253.241 95.7817 253.067 95.9537 252.939 96.1737C252.811 96.3897 252.747 96.6297 252.747 96.8937C252.747 97.1577 252.811 97.3997 252.939 97.6197C253.071 97.8397 253.245 98.0137 253.461 98.1417C253.681 98.2697 253.919 98.3337 254.175 98.3337C254.427 98.3337 254.661 98.2697 254.877 98.1417C255.093 98.0137 255.263 97.8397 255.387 97.6197C255.515 97.3997 255.579 97.1577 255.579 96.8937C255.579 96.6297 255.515 96.3897 255.387 96.1737C255.263 95.9537 255.093 95.7817 254.877 95.6577C254.661 95.5297 254.427 95.4657 254.175 95.4657Z" fill="#2C90CA"/>
<path d="M270.637 94.7997H271.441V98.2737H273.253V98.9997H270.637V94.7997Z" fill="#2C90CA"/>
<path d="M279.914 94.7997H282.992V95.5017H280.718V96.5397H282.758V97.2417H280.718V98.2977H283.064V98.9997H279.914V94.7997Z" fill="#2C90CA"/>
<path d="M293.018 98.9997L292.646 98.1117H290.594L290.222 98.9997H289.388L291.23 94.7997H292.064L293.882 98.9997H293.018ZM290.882 97.4217H292.358L291.626 95.6577L290.882 97.4217Z" fill="#2C90CA"/>
<path d="M302.169 94.7997C302.589 94.7997 302.965 94.8897 303.297 95.0697C303.629 95.2457 303.889 95.4937 304.077 95.8137C304.265 96.1337 304.359 96.4957 304.359 96.8997C304.359 97.3037 304.263 97.6657 304.071 97.9857C303.883 98.3017 303.621 98.5497 303.285 98.7297C302.949 98.9097 302.567 98.9997 302.139 98.9997H300.423V94.7997H302.169ZM302.187 98.2917C302.443 98.2917 302.673 98.2337 302.877 98.1177C303.085 97.9977 303.247 97.8337 303.363 97.6257C303.479 97.4137 303.537 97.1737 303.537 96.9057C303.537 96.6377 303.477 96.3977 303.357 96.1857C303.237 95.9697 303.071 95.8037 302.859 95.6877C302.651 95.5677 302.417 95.5077 302.157 95.5077H301.227V98.2917H302.187Z" fill="#2C90CA"/>
<path d="M447.769 63.7692C445.689 63.7692 443.813 64.6579 442.494 66.0673C441.479 58.137 434.727 52 426.524 52C418.59 52 412.011 57.7426 410.676 65.2995C409.452 64.3424 407.912 63.7639 406.231 63.7639C402.237 63.7639 399 67.0033 399 71H455C455 67.0086 451.763 63.7692 447.769 63.7692Z" fill="#B9E4FF"/>
<path d="M80.7694 98.7692C78.6886 98.7692 76.8126 99.6579 75.4937 101.067C74.4795 93.137 67.7271 87 59.5244 87C51.5898 87 45.0108 92.7426 43.6761 100.299C42.4517 99.3424 40.9121 98.7639 39.2306 98.7639C35.2369 98.7639 32 102.003 32 106H88C88 102.009 84.7631 98.7692 80.7694 98.7692Z" fill="#B9E4FF"/>
<defs>
<linearGradient id="paint0_linear_2872_8893" x1="246" y1="-875" x2="246" y2="884" gradientUnits="userSpaceOnUse">
<stop offset="0.355995" stop-color="#109CF1"/>
<stop offset="0.635366" stop-color="white" stop-opacity="0"/>
</linearGradient>
</defs>
</svg>
