<svg id="Layer_1" data-name="Layer 1" xmlns="http://www.w3.org/2000/svg" viewBox="0 0 1284.47 229.13"><defs><style>.cls-1{fill:#2c90ca;}.cls-2{fill:#ee313a;}</style></defs><path class="cls-1" d="M449,202.5c-18.91,0-33.67,14.61-33.67,33.24s14.76,33.38,33.67,33.38c9.6,0,19.77-4.44,27.22-11.75L487.54,270c-10.31,10.46-25.07,17.19-39.54,17.19-29.52,0-52.3-22.21-52.3-51.15,0-28.65,23.07-50.58,53-50.58a55.72,55.72,0,0,1,38.68,16.05l-11.18,14c-7.16-8-17.33-13-27.22-13" transform="translate(-57.55 -147.91)"/><path class="cls-1" d="M547.72,286.31V277c-5.3,6.73-13.9,10.17-24.79,10.17-16.48,0-26.79-10.17-26.79-23.78,0-14.19,10.46-22.93,29.08-23.07h22.35v-2c0-8.88-5.87-14.18-17.33-14.18-7.17,0-14.9,2.44-22.78,7.16l-6.74-12.89c11-6.16,19.63-9.46,33.67-9.46,20.06,0,31.38,10.17,31.52,27.23l.15,50.14Zm-.15-26.65v-6.87H528.23c-9.89,0-14.47,2.72-14.47,9.45,0,6.45,5.16,10.6,13.61,10.6,10.75,0,19.2-5.73,20.2-13.18" transform="translate(-57.55 -147.91)"/><path class="cls-1" d="M631.67,208.94V227c-16.19-1-26.07,8.46-26.07,22.36v37H587V209.66H605.6v14.76c5.15-10,14.18-15.33,26.07-15.48" transform="translate(-57.55 -147.91)"/><path class="cls-1" d="M713.34,254.51H656.75c2.43,10.88,10.74,17.47,21.92,17.47a28.44,28.44,0,0,0,20.63-8.59l10,10.46c-7.59,8.31-18.77,13.18-32.24,13.18-23.78,0-39.4-15.76-39.4-38.83,0-23.35,16-39.11,39-39.11,26.94,0,38.54,17.62,36.68,45.42M696.43,242c-.43-11.32-8-18.48-19.63-18.48-11,0-18.76,7.16-20.48,18.48Z" transform="translate(-57.55 -147.91)"/><path class="cls-1" d="M798.16,254.51h-56.6C744,265.39,752.31,272,763.48,272a28.48,28.48,0,0,0,20.64-8.59l10,10.46c-7.6,8.31-18.77,13.18-32.24,13.18-23.79,0-39.4-15.76-39.4-38.83,0-23.35,16-39.11,39-39.11,26.93,0,38.54,17.62,36.68,45.42M781.25,242c-.43-11.32-8-18.48-19.63-18.48-11,0-18.77,7.16-20.49,18.48Z" transform="translate(-57.55 -147.91)"/><path class="cls-1" d="M859.05,208.94V227c-16.19-1-26.08,8.46-26.08,22.36v37H814.34V209.66H833v14.76c5.16-10,14.18-15.33,26.08-15.48" transform="translate(-57.55 -147.91)"/><path class="cls-1" d="M895,223.41c-6,0-10.32,2-10.32,6.74,0,12.89,40.55,6.16,40.55,33.67,0,15.62-13.9,23.21-30.23,23.21-11.61,0-23.64-3.73-31.67-10.75l6.45-13c7,6,17.62,9.46,25.93,9.46,6.45,0,11.32-2.15,11.32-7.16,0-14.19-40-6.45-39.83-33.67,0-15.77,13.47-23.07,28.94-23.07,10,0,20.49,3,28.09,8.17l-6.74,13.46c-7.45-4.44-15.9-7-22.49-7" transform="translate(-57.55 -147.91)"/><path class="cls-2" d="M987.28,202.5c-18.92,0-33.67,14.61-33.67,33.24s14.75,33.38,33.67,33.38c9.6,0,19.77-4.44,27.22-11.75L1025.82,270c-10.32,10.46-25.08,17.19-39.55,17.19C956.76,287.17,934,265,934,236c0-28.65,23.07-50.58,53-50.58a55.7,55.7,0,0,1,38.68,16.05l-11.17,14c-7.17-8-17.34-13-27.22-13" transform="translate(-57.55 -147.91)"/><rect class="cls-2" x="984.03" y="32.09" width="18.63" height="106.31"/><path class="cls-2" d="M1157.91,247.91c0,23.36-16.33,39.12-40.26,39.12-24.21,0-40.55-15.76-40.55-39.12s16.34-38.82,40.55-38.82c23.93,0,40.26,15.61,40.26,38.82m-62,.29c0,13.76,8.89,23.21,21.78,23.21,12.61,0,21.49-9.45,21.49-23.21S1130.26,225,1117.65,225c-12.89,0-21.78,9.46-21.78,23.21" transform="translate(-57.55 -147.91)"/><path class="cls-2" d="M1244.88,209.66v76.65h-18.77V272.13c-5.3,10.17-14.47,14.9-26.65,14.9-17.2,0-27.8-11.32-27.8-29.37v-48h18.77v42.55c0,10.75,6.16,17.2,16.48,17.2,12-.15,19.2-9.6,19.2-21.93V209.66Z" transform="translate(-57.55 -147.91)"/><path class="cls-2" d="M1342,180V286.31h-18.63V274c-5.45,8.45-14.33,13.18-25.79,13.18-21.92,0-36.54-16-36.54-39.4s14.62-38.83,36.11-38.83c11.75,0,20.63,4.73,26.22,13.33V180Zm-18.63,68.2c0-13.75-8.89-23.35-21.78-23.35s-21.63,9.74-21.78,23.35c.15,13.76,8.89,23.35,21.78,23.35s21.78-9.59,21.78-23.35" transform="translate(-57.55 -147.91)"/><path class="cls-1" d="M584.27,324.55A2.19,2.19,0,0,1,588,323a2.08,2.08,0,0,1,.64,1.55v26.53H604a2.19,2.19,0,0,1,2.19,2.19,2.08,2.08,0,0,1-.64,1.55,2.11,2.11,0,0,1-1.55.64H586.47a2.12,2.12,0,0,1-1.57-.63,2.14,2.14,0,0,1-.46-.69,2.21,2.21,0,0,1-.17-.87Z" transform="translate(-57.55 -147.91)"/><path class="cls-1" d="M651.65,351.08a2.08,2.08,0,0,1,1.55.64,2.17,2.17,0,0,1,0,3.1,2.08,2.08,0,0,1-1.55.64H632.51a2.21,2.21,0,0,1-.87-.16,2.24,2.24,0,0,1-1.16-1.16,2.21,2.21,0,0,1-.16-.87V324.55a2.23,2.23,0,0,1,.16-.86,2,2,0,0,1,.47-.7,2.17,2.17,0,0,1,.69-.47,2.21,2.21,0,0,1,.87-.17h19.14a2.22,2.22,0,0,1,2.2,2.2,2.12,2.12,0,0,1-.65,1.55,2.08,2.08,0,0,1-1.55.64H634.7v10h12.17a2.2,2.2,0,1,1,0,4.39H634.7v10Z" transform="translate(-57.55 -147.91)"/><path class="cls-1" d="M678.24,352.28l11-28.44a2.2,2.2,0,0,1,2.09-1.49,2.14,2.14,0,0,1,2.09,1.49l11.1,28.54a2.38,2.38,0,0,1,.16.89,2.08,2.08,0,0,1-.64,1.55,2.11,2.11,0,0,1-1.55.64,2,2,0,0,1-1.53-.64,2.32,2.32,0,0,1-.5-.7l-3.83-9.83H686.09l-3.85,9.83a2.32,2.32,0,0,1-.5.7,2.1,2.1,0,0,1-1.55.64,2.06,2.06,0,0,1-1.54-.64,2.11,2.11,0,0,1-.63-1.55,2.37,2.37,0,0,1,.22-1M695,339.9l-3.6-9.29-3.6,9.29Z" transform="translate(-57.55 -147.91)"/><path class="cls-1" d="M729,353.27V324.55a2.24,2.24,0,0,1,.17-.86,2.08,2.08,0,0,1,.46-.7,2.19,2.19,0,0,1,1.57-.64h8a9.75,9.75,0,0,1,3.94.81,10.34,10.34,0,0,1,3.23,2.2,10.63,10.63,0,0,1,2.18,3.23,9.75,9.75,0,0,1,.81,3.94,10.22,10.22,0,0,1-.35,2.66,9.38,9.38,0,0,1-1,2.45,10.49,10.49,0,0,1-1.68,2.13A11.4,11.4,0,0,1,744,341.5l6.6,10.57a2.34,2.34,0,0,1,.35,1.2,2.21,2.21,0,0,1-.17.87,2.13,2.13,0,0,1-1.17,1.16,2.24,2.24,0,0,1-2.74-.91l-7.3-11.69h-6.17v10.57a2.08,2.08,0,0,1-.64,1.55,2.2,2.2,0,0,1-3.75-1.55m4.39-26.53v11.57h5.8a5.71,5.71,0,0,0,4.08-1.71,5.94,5.94,0,0,0,1.23-1.84,5.43,5.43,0,0,0,.46-2.23,5.52,5.52,0,0,0-.46-2.25,5.69,5.69,0,0,0-1.24-1.84,5.88,5.88,0,0,0-1.84-1.25,5.62,5.62,0,0,0-2.23-.45Z" transform="translate(-57.55 -147.91)"/><path class="cls-1" d="M775,353.27V324.55a2.23,2.23,0,0,1,.16-.86,2.25,2.25,0,0,1,.47-.71,2.31,2.31,0,0,1,.69-.46,2.22,2.22,0,0,1,2.57.64l18.46,23.74V324.55A2.08,2.08,0,0,1,798,323a2.17,2.17,0,0,1,3.1,0,2.08,2.08,0,0,1,.64,1.55v28.72a2.21,2.21,0,0,1-.16.87,2.17,2.17,0,0,1-.47.69,2.1,2.1,0,0,1-.7.47,2.23,2.23,0,0,1-.86.16,2.2,2.2,0,0,1-1.68-.76L779.42,331v22.31a2.2,2.2,0,1,1-4.39,0" transform="translate(-57.55 -147.91)"/><path class="cls-1" d="M882.55,326.74h-8.17v26.53a2.2,2.2,0,1,1-4.39,0V326.74h-8.17a2.12,2.12,0,0,1-1.56-.64,2.15,2.15,0,0,1-.64-1.55,2.2,2.2,0,0,1,2.2-2.2h20.73a2.22,2.22,0,0,1,2.2,2.2,2.12,2.12,0,0,1-.65,1.55,2.08,2.08,0,0,1-1.55.64" transform="translate(-57.55 -147.91)"/><path class="cls-1" d="M937.8,338.91a16.61,16.61,0,1,1-4.86-11.69,15.79,15.79,0,0,1,4.86,11.69m-16.55-12.17a12.1,12.1,0,0,0-4.69.89,13,13,0,0,0-6.6,6.6,12,12,0,0,0-.88,4.68,12.16,12.16,0,1,0,12.17-12.17" transform="translate(-57.55 -147.91)"/><path class="cls-1" d="M995.81,324.55a2.08,2.08,0,0,1,.64-1.55,2.2,2.2,0,0,1,3.75,1.55v26.53h15.35a2.19,2.19,0,1,1,0,4.38H998a2.21,2.21,0,0,1-.87-.16,2.24,2.24,0,0,1-1.16-1.16,2.21,2.21,0,0,1-.16-.87Z" transform="translate(-57.55 -147.91)"/><path class="cls-1" d="M1063.19,351.08a2.19,2.19,0,0,1,2.19,2.19,2.08,2.08,0,0,1-.64,1.55,2.11,2.11,0,0,1-1.55.64H1044a2.2,2.2,0,0,1-.86-.16,2.1,2.1,0,0,1-.7-.47,2.14,2.14,0,0,1-.46-.69,2.21,2.21,0,0,1-.17-.87V324.55a2.24,2.24,0,0,1,.17-.86,2,2,0,0,1,.46-.7,2.1,2.1,0,0,1,.7-.47,2.2,2.2,0,0,1,.86-.17h19.15a2.12,2.12,0,0,1,1.55.65,2.08,2.08,0,0,1,.64,1.55,2.19,2.19,0,0,1-2.19,2.19h-17v10h12.17a2.12,2.12,0,0,1,1.55.65,2.2,2.2,0,0,1,0,3.1,2.11,2.11,0,0,1-1.55.64h-12.17v10Z" transform="translate(-57.55 -147.91)"/><path class="cls-1" d="M1089.78,352.28l11-28.44a2.2,2.2,0,0,1,2.09-1.49,2.15,2.15,0,0,1,2.09,1.49l11.09,28.54a2.39,2.39,0,0,1,.17.89,2.2,2.2,0,0,1-2.2,2.19,2,2,0,0,1-1.53-.64,2.32,2.32,0,0,1-.5-.7l-3.82-9.83h-10.6l-3.85,9.83a2.29,2.29,0,0,1-.49.7,2.12,2.12,0,0,1-1.56.64,2.08,2.08,0,0,1-1.54-.64,2.11,2.11,0,0,1-.63-1.55,2.38,2.38,0,0,1,.23-1m16.74-12.38-3.6-9.29-3.6,9.29Z" transform="translate(-57.55 -147.91)"/><path class="cls-1" d="M1149.11,322.35a15.91,15.91,0,0,1,11.69,4.87,15.79,15.79,0,0,1,4.86,11.69,16.56,16.56,0,0,1-16.55,16.55h-6.38a2.27,2.27,0,0,1-.86-.17,2.39,2.39,0,0,1-.7-.47,2.14,2.14,0,0,1-.48-.69,2.27,2.27,0,0,1-.17-.86V324.55a2.24,2.24,0,0,1,.17-.86,2.14,2.14,0,0,1,.48-.69,2.39,2.39,0,0,1,.7-.47,2.11,2.11,0,0,1,.86-.18Zm0,28.73a11.73,11.73,0,0,0,8.59-3.56,12.35,12.35,0,0,0,2.68-3.92,11.92,11.92,0,0,0,.89-4.69,12.21,12.21,0,0,0-12.16-12.17h-4.18v24.34Z" transform="translate(-57.55 -147.91)"/><path class="cls-2" d="M292.55,307.57l-52.41,13.77a45,45,0,0,0-15-14.82,31.81,31.81,0,0,0,2.19-38.38v-16.7h9.08l9.78-15.05v16.4a8.26,8.26,0,1,0,2.63-.07V232.35h-79l-12.89,19.09h16.71v18.11a31.82,31.82,0,0,0,3.09,37,45,45,0,0,0-15,14.82l-52.41-13.77L139.66,377,126,323.54l70.74,17.39,4.18,32.81,4.19-32.81,70.74-17.39L262.12,377Zm-88.78-.35a24.19,24.19,0,0,1-22-34.36c9.87,3.78,29.06,6,40.81-1.12h2.58a24.2,24.2,0,0,1-21.42,35.48" transform="translate(-57.55 -147.91)"/><path class="cls-1" d="M324.93,211a77,77,0,0,0-54.06-23.84,77.94,77.94,0,0,0-13.39.87,67.43,67.43,0,0,0-128.06,15.58c-1-.07-1.94-.13-2.93-.15a67.42,67.42,0,0,0-36.9,124.8,10.27,10.27,0,1,0,10.79-17.47A47.16,47.16,0,0,1,84,293.61,46.89,46.89,0,0,1,126,224a47.21,47.21,0,0,1,10.21,1.36,10.26,10.26,0,0,0,12.72-10c0-.65,0-1,0-1.13a46.89,46.89,0,0,1,92-11.55,10.27,10.27,0,0,0,12.69,7.12,56.67,56.67,0,0,1,47.24,101.44,10.27,10.27,0,1,0,11.54,17A77.2,77.2,0,0,0,324.93,211" transform="translate(-57.55 -147.91)"/></svg>