<svg width="21" height="21" viewBox="0 0 21 21" fill="none" xmlns="http://www.w3.org/2000/svg">
<path d="M20.9997 10.7361C20.9997 9.87124 20.9267 9.24224 20.7735 8.5918H10.7148V12.4873H16.6159C16.4991 13.4594 15.8573 14.9104 14.4276 15.8968L14.4057 16.0254L17.586 18.4414L17.8048 18.4628C19.8326 16.6258 20.9997 13.9311 20.9997 10.7361Z" fill="#557EBF"/>
<path d="M10.715 21.0001C13.6108 21.0001 16.0398 20.0709 17.8123 18.4555L14.4351 15.8895C13.5306 16.5113 12.3125 16.9402 10.7223 16.9402C7.89218 16.9402 5.4851 15.1104 4.62438 12.5801L4.50038 12.5872L1.19611 15.0961L1.15234 15.2176C2.90295 18.6413 6.52087 21.0001 10.715 21.0001Z" fill="#36A852"/>
<path d="M4.61723 12.5799C4.39111 11.9295 4.25981 11.229 4.25981 10.5C4.25981 9.77803 4.39111 9.07755 4.60264 8.42711L4.59535 8.28416L1.2546 5.73242L1.14519 5.7896C0.415769 7.212 0 8.80594 0 10.5C0 12.194 0.415769 13.7879 1.14519 15.2174L4.61723 12.5799Z" fill="#F9BC15"/>
<path d="M10.7155 4.0599C12.7287 4.0599 14.0854 4.91048 14.8586 5.62526L17.8784 2.73043C16.0257 1.03642 13.6113 0 10.7155 0C6.52133 0 2.90341 2.35875 1.14551 5.78965L4.61025 8.42716C5.47826 5.88972 7.88535 4.0599 10.7155 4.0599Z" fill="#EB4535"/>
</svg>
