<svg width="472" height="374" viewBox="0 0 472 374" fill="none" xmlns="http://www.w3.org/2000/svg">
<g clip-path="url(#clip0_2557_20881)">
<path fill-rule="evenodd" clip-rule="evenodd" d="M110.871 119.711L135.825 280.119C135.85 280.336 135.789 280.554 135.657 280.728C135.524 280.902 135.329 281.017 135.113 281.051C134.897 281.084 134.676 281.032 134.497 280.906C134.318 280.78 134.195 280.59 134.154 280.375L109.2 119.968C109.183 119.859 109.188 119.747 109.215 119.64C109.241 119.533 109.288 119.432 109.353 119.342C109.485 119.163 109.683 119.042 109.904 119.008C110.013 118.992 110.125 118.996 110.232 119.023C110.339 119.049 110.44 119.096 110.53 119.161C110.71 119.293 110.83 119.491 110.864 119.711H110.871Z" fill="#FAFBFB"/>
<path fill-rule="evenodd" clip-rule="evenodd" d="M78.438 57.2788C77.1707 57.2774 75.9314 57.6518 74.8771 58.3546C73.8228 59.0574 73.0008 60.0569 72.5152 61.2267C72.0295 62.3966 71.9021 63.6841 72.149 64.9263C72.3959 66.1685 73.0061 67.3096 73.9022 68.2051C74.7984 69.1007 75.9402 69.7104 77.1832 69.9572C78.4263 70.2039 79.7147 70.0766 80.8853 69.5913C82.0559 69.106 83.0561 68.2845 83.7594 67.2309C84.4626 66.1773 84.8373 64.9389 84.8359 63.6724C84.8341 61.9773 84.1594 60.3521 82.96 59.1535C81.7605 57.9548 80.1343 57.2806 78.438 57.2788V57.2788Z" fill="#E9A94C"/>
<path d="M121.954 64.8569V114.094L97.6173 128.813L79.1446 147.302V64.8569H121.954Z" fill="#ECACBD"/>
<path d="M121.954 114.807H118.35V74.0559H121.954V114.807Z" fill="#F5CBD6"/>
<path d="M112.167 65.1274V83.8302C112.172 88.0162 111.351 92.1621 109.751 96.0305C108.151 99.8989 105.802 103.414 102.84 106.374C99.8783 109.334 96.3611 111.68 92.4901 113.28C88.6192 114.879 84.4704 115.7 80.2817 115.694C79.8866 115.694 79.5054 115.694 79.1241 115.694V59.4058H111.619C111.938 61.1081 112.11 62.8346 112.132 64.5663C112.167 64.7603 112.167 64.9335 112.167 65.1274Z" fill="#DF7590"/>
<path d="M70.1344 60.1189C19.4368 60.1189 36.6271 -3.00638 86.4375 16.1397L70.1344 60.1189Z" fill="#2B2C2B"/>
<path d="M81.7031 15.8003C41.3196 2.33434 20.0534 32.0995 49.2493 51.5434" stroke="#2B2C2B" stroke-miterlimit="10"/>
<path d="M120.589 56.9465V75.6493C120.589 84.1001 117.229 92.2048 111.25 98.1805C105.27 104.156 97.1601 107.513 88.7035 107.513C62.9804 107.513 56.8182 100.088 56.8182 75.6493V56.9465C57.0833 48.725 60.5198 40.9245 66.4085 35.1771C72.2973 29.4297 80.182 26.1808 88.413 26.1101C96.6439 26.0394 104.583 29.1524 110.57 34.7978C116.557 40.4432 120.127 48.1835 120.533 56.3993C120.589 56.5724 120.589 56.7664 120.589 56.9465Z" fill="#ECACBD"/>
<path d="M101.527 75.5384V94.2411C101.516 96.4088 101.284 98.5696 100.834 100.69C100.488 102.384 99.9986 104.045 99.3716 105.657C95.9502 106.877 92.3436 107.498 88.7108 107.492C62.9877 107.492 56.8255 100.067 56.8255 75.6284V56.9256C56.8167 53.0278 57.5214 49.1613 58.9049 45.5169C62.3322 44.2905 65.9462 43.6671 69.5866 43.6744C76.5736 43.6769 83.3664 45.9728 88.9206 50.2091C94.4747 54.4455 98.4827 60.3877 100.328 67.1221C101.019 69.6827 101.392 72.3187 101.437 74.9704C101.527 75.1712 101.527 75.3652 101.527 75.5384Z" fill="#F5CBD6"/>
<path d="M109.367 59.6273V52.6449L100.786 43.9308L112.251 28.1166C112.251 28.1166 150.742 12.524 133.413 65.9723L124.949 69.7406C123.263 70.4873 121.416 70.8017 119.577 70.6552C117.738 70.5088 115.964 69.9062 114.417 68.902C112.87 67.8977 111.598 66.5237 110.716 64.9042C109.834 63.2847 109.371 61.4709 109.367 59.6273V59.6273Z" fill="#2B2C2B"/>
<path d="M121.962 64.5592V89.8495C119.373 88.7765 117.16 86.9623 115.601 84.6352C114.042 82.308 113.207 79.5719 113.2 76.7714C113.198 74.3037 113.842 71.8785 115.068 69.7362C116.294 67.594 118.058 65.8093 120.187 64.5592C120.317 64.4752 120.451 64.3989 120.589 64.3306V64.5592H121.962Z" fill="#DF7590"/>
<path d="M141.529 71.5829C141.529 75.335 140.038 78.9335 137.384 81.5873C134.73 84.241 131.13 85.7328 127.375 85.7347C126.77 85.7355 126.165 85.6938 125.566 85.61C122.145 85.1795 118.999 83.5162 116.719 80.9322C114.438 78.3483 113.18 75.0214 113.18 71.576C113.18 68.1306 114.438 64.8037 116.719 62.2197C118.999 59.6358 122.145 57.9724 125.566 57.542C126.165 57.4547 126.77 57.413 127.375 57.4173C131.131 57.421 134.733 58.9153 137.387 61.5716C140.041 64.228 141.531 67.829 141.529 71.5829Z" fill="#F5CBD6"/>
<path d="M137.904 71.583C137.601 73.9644 136.617 76.2078 135.069 78.0438C133.522 79.8797 131.476 81.2301 129.179 81.9329C126.882 82.6356 124.431 82.6607 122.12 82.0052C119.809 81.3498 117.737 80.0416 116.152 78.2378C114.567 76.4339 113.536 74.2112 113.185 71.8365C112.833 69.4618 113.175 67.0361 114.169 64.8507C115.163 62.6653 116.767 60.8131 118.789 59.5167C120.811 58.2202 123.164 57.5345 125.566 57.5421C128.979 57.9833 132.115 59.6523 134.386 62.2366C136.657 64.821 137.907 68.1436 137.904 71.583V71.583Z" fill="#ECACBD"/>
<path d="M133.717 71.576C133.717 72.8313 133.344 74.0583 132.646 75.1019C131.948 76.1455 130.956 76.9587 129.796 77.4388C128.635 77.9188 127.358 78.0441 126.126 77.7987C124.894 77.5533 123.763 76.9483 122.875 76.0602C121.988 75.1722 121.384 74.0409 121.139 72.8097C120.895 71.5784 121.022 70.3024 121.504 69.1431C121.985 67.9838 122.8 66.9933 123.845 66.2969C124.89 65.6006 126.118 65.2296 127.374 65.231C129.057 65.2328 130.67 65.9021 131.86 67.0918C133.049 68.2816 133.717 69.8944 133.717 71.576Z" fill="#DF7590"/>
<path d="M72.5117 69.2489C72.5117 76.8686 67.7358 82.992 61.844 82.992C55.9521 82.992 51.1832 76.8409 51.1832 69.2489C51.1832 61.657 55.9591 55.5059 61.844 55.5059C67.7289 55.5059 72.5117 61.657 72.5117 69.2489Z" stroke="#2B2C2B" stroke-miterlimit="10"/>
<path d="M67.3545 66.2839C67.3545 68.9992 66.2108 71.202 64.8037 71.202C63.3966 71.202 62.2458 68.9992 62.2458 66.2839C62.2458 63.5685 63.4035 61.3657 64.7898 61.3657C66.1761 61.3657 67.3545 63.5685 67.3545 66.2839Z" fill="#2B2C2B"/>
<path d="M74.4941 62.0029C65.2613 69.4078 64.7899 81.0867 64.7899 81.0867L74.0644 81.6824" fill="#DF325F"/>
<path d="M103.024 69.2489C103.024 76.8686 98.2485 82.992 92.3636 82.992C86.4787 82.992 81.7028 76.8409 81.7028 69.2489C81.7028 61.657 86.4718 55.5059 92.3636 55.5059C98.2555 55.5059 103.024 61.657 103.024 69.2489Z" stroke="#2B2C2B" stroke-miterlimit="10"/>
<path d="M285.138 142.986C285.138 142.986 287.571 114.683 285.138 115.638C282.705 116.594 283.752 138.712 283.322 141.926C282.893 145.14 285.138 142.986 285.138 142.986Z" fill="#EDEDEE"/>
<path d="M71.3334 62.481H82.8398" stroke="#2B2C2B" stroke-miterlimit="10"/>
<path d="M119.348 28.8575L98.4905 41.7693C76.656 28.3102 60.4916 39.8782 60.4916 39.8782C53.2688 2.34109 113.615 -21.8755 119.348 28.8575Z" fill="#2B2C2B"/>
<path d="M70.2374 86.2128L87.5664 85.7349C87.5664 85.7349 85.4453 106.744 70.2374 86.2128Z" fill="white"/>
<path d="M98.3242 67.4059C98.3242 70.1213 97.1805 72.3241 95.7664 72.3241C94.3524 72.3241 93.2157 70.1213 93.2157 67.4059C93.2157 64.6906 94.3593 62.4878 95.7664 62.4878C97.1735 62.4878 98.3242 64.6906 98.3242 67.4059Z" fill="#2B2C2B"/>
<path d="M86.4374 48.3431C88.912 43.238 96.7933 39.3381 104.557 51.5434L86.4374 48.3431Z" fill="#2B2C2B"/>
<path d="M53.8099 49.68C55.0645 44.1384 61.8505 38.5969 72.1855 48.6686L53.8099 49.68Z" fill="#2B2C2B"/>
<path d="M26.9157 154.928L19.3256 156.314C19.3256 156.314 -1.46921 229.829 6.3635 247.285C14.1962 264.741 26.7424 247.458 30.6727 245.9C34.6029 244.341 69.3232 163.421 69.3232 163.421L26.9157 154.928Z" fill="#E59375"/>
<path d="M0.741888 238.066L14.3972 152.677C22.5349 130.213 52.521 138.511 52.521 138.511C75.0348 145.376 71.4581 159.943 71.4581 159.943L40.6471 247.701C40.6471 247.701 34.8107 261.021 13.4198 259.248C13.4198 259.227 -2.15552 256.166 0.741888 238.066Z" fill="#0059A5"/>
<path fill-rule="evenodd" clip-rule="evenodd" d="M323.961 235.731C324.121 228.112 322.083 220.346 324.96 212.872C325.653 211.092 324.675 210.157 323.303 209.374C321.404 208.287 320.801 206.603 320.863 204.484C321.369 187.921 311.852 172.419 297.108 166.074C293.144 164.37 290.503 162.61 292.887 157.851C293.027 157.567 293.099 157.254 293.099 156.937C293.099 156.62 293.027 156.307 292.887 156.023C289.276 151.749 286.649 147.066 286.261 141.351C286.236 141.189 286.18 141.034 286.094 140.894C286.009 140.753 285.896 140.632 285.764 140.536C285.631 140.44 285.48 140.371 285.32 140.334C285.16 140.297 284.994 140.292 284.833 140.319C284.424 140.36 284.045 140.549 283.766 140.85C283.488 141.151 283.33 141.544 283.322 141.954C283.079 147.17 280.868 151.548 277.776 155.573C277.552 155.81 277.43 156.126 277.437 156.452C279.572 163.677 273.971 164.765 269.396 167.078C260.468 171.636 253.793 178.618 250.431 188.101C248.518 193.505 244.484 198.658 246.896 205.031C246.955 205.183 246.982 205.346 246.976 205.509C246.97 205.672 246.931 205.832 246.861 205.98C241.205 213.863 246.965 222.508 245.226 230.668C244.81 232.6 245.482 234.748 243.971 237.511C241.843 231.97 238.821 228.215 234.384 225.569C232.381 224.378 232.776 221.857 232.367 219.841C232.166 218.871 231.868 217.763 230.773 217.666C229.207 217.486 228.86 218.871 228.902 219.938C229.061 224.17 226.51 226.227 223.162 227.994C219.932 229.705 219.371 233.404 217.575 236.195C215.641 239.188 215.108 241.564 216.667 244.965C217.908 247.68 217.36 251.005 216.952 254.039C216.522 257.447 213.895 257.801 211.177 257.807C202.153 257.835 193.128 257.849 184.103 257.849C171.855 257.849 159.593 257.42 147.365 257.953C131.727 258.767 116.075 256.653 101.215 251.719C99.4056 251.116 96.3625 249.46 95.6278 251.802C94.7059 254.753 98.352 254.739 100.265 255.328C105.81 257.032 111.453 258.375 117.033 259.976C119.05 260.55 121.517 261.361 120.741 264.083C119.965 266.806 117.511 265.621 115.743 265.254C110.198 264.111 104.743 262.76 99.2322 261.576C97.8944 261.285 95.9813 260.578 95.4823 262.469C94.9832 264.36 96.9795 264.734 98.3034 265.067C103.932 266.487 109.553 267.928 115.237 269.084C119.576 269.964 121.559 272.209 121.476 276.704C121.296 285.079 121.323 293.454 121.476 301.828C121.545 306.4 119.472 308.326 115.022 308.062C109.394 307.737 103.772 307.411 98.144 307.21C96.5982 307.155 94.2068 306.913 94.0543 308.79C93.8464 311.353 96.4873 310.806 98.0747 310.93C103.856 311.367 109.644 311.782 115.404 311.928C119.334 312.032 121.476 313.507 121.406 317.656C121.323 322.651 121.406 327.645 121.309 332.632C121.254 335.008 120.616 337.426 117.649 337.37C114.683 337.315 114.808 334.759 114.717 332.688C114.593 330.111 114.551 327.52 116.443 325.366C117.213 324.493 117.927 323.329 116.644 322.457C114.787 321.182 112.624 321.515 110.572 321.965C110.287 321.995 110.012 322.092 109.771 322.248C109.53 322.405 109.329 322.616 109.185 322.864C109.041 323.113 108.958 323.392 108.943 323.678C108.927 323.965 108.98 324.251 109.096 324.514C109.38 325.435 109.942 326.26 110.219 327.181C112.742 335.493 110.496 339.144 102.033 340.626C99.9531 340.986 97.9152 341.381 95.8843 341.887C94.796 342.15 93.4859 342.635 93.8048 344.069C94.1236 345.503 95.51 345.454 96.6191 345.267C100.924 344.623 105.242 344.055 109.498 343.189C117.557 341.582 125.762 340.818 133.98 340.91C233.093 340.984 332.215 340.963 431.346 340.848C442.104 340.848 452.494 342.683 462.975 344.374C465.054 344.706 467.134 345.066 469.213 345.288C470.336 345.42 471.708 345.489 472.027 344.09C472.346 342.69 471.043 342.178 469.948 341.901C468.076 341.43 466.17 341.062 464.271 340.73C455.066 339.144 452.66 335.237 456.029 326.336C457.263 323.08 456.722 321.764 453.354 321.695C451.773 321.695 449.888 321.3 448.876 322.81C447.76 324.431 449.631 325.359 450.22 326.571C451.489 329.169 451.26 331.905 450.914 334.627C450.72 336.172 449.957 337.398 448.141 337.454C447.399 337.522 446.659 337.31 446.067 336.858C445.475 336.406 445.075 335.748 444.946 335.015C443.936 328.328 443.917 321.529 444.89 314.837C445.285 312.066 448.099 312.129 450.38 311.997C456.327 311.658 462.281 311.353 468.215 310.923C469.691 310.819 472.013 311.131 471.799 308.845C471.639 307.141 469.56 307.224 468.159 307.28C462.372 307.488 456.584 307.792 450.83 308.125C446.387 308.374 444.301 306.462 444.377 301.891C444.509 293.363 444.495 284.823 444.377 276.261C444.322 272.174 446.179 270.027 450.103 269.223C455.648 268.066 461.117 266.757 466.572 265.337C468.284 264.887 471.424 264.921 470.89 262.566C470.232 259.865 467.348 261.43 465.477 261.811C460.105 262.906 454.795 264.249 449.43 265.365C447.781 265.711 445.59 266.404 445.001 263.931C444.474 261.756 446.269 260.744 448.023 260.232C452.813 258.846 457.644 257.551 462.462 256.221C464.167 255.743 465.927 255.328 467.556 254.718C468.866 254.24 470.828 253.824 470.433 252.037C469.996 250.063 468.097 250.867 466.752 251.109C465.004 251.404 463.282 251.837 461.602 252.404C448.501 257.004 435.04 258.278 421.184 257.946C401.048 257.482 380.898 257.828 360.754 257.828C350.814 257.828 348.673 255.057 350.849 245.173C351.279 243.212 353.663 241.432 352.104 239.34C349.262 235.516 348.839 229.989 344.049 227.564C340.888 225.978 338.968 223.761 338.913 220.083C338.913 219.003 338.684 217.603 337.187 217.617C335.69 217.631 335.406 219.003 335.392 220.076C335.336 223.72 333.451 225.95 330.408 227.696C327.365 229.442 325.895 232.697 323.961 235.731Z" fill="#D85F32"/>
<path d="M144.101 267.2C144.101 267.2 155.151 301.948 158 353C158 353 82.5 353 41.687 353V267.2H144.101Z" fill="#00264E"/>
<path fill-rule="evenodd" clip-rule="evenodd" d="M110.65 295.947C111.204 298.025 109.956 301.6 112.694 301.613C115.592 301.613 114.49 298.053 114.503 296.072C114.517 294.091 115.571 290.468 112.771 290.419C109.97 290.371 111.232 293.945 110.65 295.947Z" fill="#222222"/>
<path fill-rule="evenodd" clip-rule="evenodd" d="M111.162 274.716C111.224 275.707 111.432 276.794 112.548 276.884C114.108 277.044 114.267 275.769 114.261 274.626C114.261 273.615 113.865 272.638 112.68 272.673C111.495 272.707 111.231 273.677 111.162 274.716Z" fill="#222222"/>
<path fill-rule="evenodd" clip-rule="evenodd" d="M374.708 308.159C394.518 308.159 414.329 308.041 434.133 308.242C438.68 308.291 440.627 306.954 440.51 302.271C440.309 294.063 440.357 285.854 440.51 277.646C440.579 273.143 438.652 271.079 434.139 271.322C431.894 271.439 429.634 271.322 427.381 271.322C425.128 271.322 423.222 271.924 422.869 274.612C422.73 275.568 422.418 276.641 421.295 276.822C420.172 277.002 419.659 276.004 419.341 275.083C417.33 269.334 412.409 271.8 408.59 271.335C405.463 270.954 402.732 271.536 402.427 275.554C402.416 275.757 402.363 275.954 402.271 276.136C402.18 276.317 402.052 276.477 401.896 276.607C401.74 276.737 401.559 276.833 401.365 276.891C401.17 276.948 400.965 276.964 400.764 276.939C400.356 276.897 399.977 276.707 399.7 276.404C399.423 276.101 399.266 275.708 399.26 275.298C399.01 271.869 396.792 270.92 393.909 271.322C389.951 271.876 384.897 269.112 382.52 274.827C382.153 275.713 381.889 276.787 380.704 276.794C379.519 276.801 379.089 275.79 378.964 274.82C378.555 271.55 376.247 271.245 373.668 271.273C371.734 271.273 369.8 271.273 367.873 271.273C365.454 271.273 363.312 271.606 362.931 274.633C362.813 275.596 362.453 276.635 361.323 276.794C360.193 276.953 359.854 275.866 359.361 275.034C356.124 269.534 346.067 269.576 342.726 275.104C342.227 275.942 341.928 276.967 340.715 276.787C340.312 276.702 339.95 276.482 339.689 276.163C339.429 275.844 339.284 275.446 339.281 275.034C338.92 271.495 336.453 271.197 333.687 271.259C331.434 271.308 329.174 271.259 326.929 271.349C325.605 271.391 324.156 271.613 323.726 273.046C322.423 277.591 321.279 278.685 318.909 273.462C317.522 270.414 314.216 271.218 311.54 271.536C308.865 271.855 308.137 273.801 308.123 276.074C308.077 285.088 308.077 294.093 308.123 303.089C308.123 307.626 311.312 308.041 314.798 308.041C334.766 308.041 354.736 308.041 374.708 308.041V308.159Z" fill="#FFEBDB"/>
<path fill-rule="evenodd" clip-rule="evenodd" d="M190.695 308.132C210.187 308.132 229.678 308.132 249.17 308.132C255.921 308.132 256.719 307.307 256.795 300.644C256.843 292.92 256.795 285.19 256.795 277.466C256.795 274.799 256.58 272.077 253.163 271.585C250.168 271.156 247.257 271.197 246.148 274.924C245.878 275.845 245.531 276.864 244.332 276.877C243.921 276.872 243.527 276.71 243.232 276.424C242.937 276.138 242.762 275.75 242.744 275.34C242.301 271.183 239.279 271.183 236.326 271.37C232.368 271.668 227.481 269.528 225.894 276.053C225.374 278.194 223.814 276.448 222.996 275.09C219.801 269.549 209.75 269.666 206.402 275.222C205.896 276.06 205.577 277.064 204.364 276.857C203.456 276.697 203.096 275.88 202.978 275.076C202.001 269.535 197.606 271.564 194.459 271.44C191.513 271.315 187.631 270.117 186.834 275.014C186.675 275.977 186.238 276.961 185.004 276.87C184.089 276.808 183.715 276.012 183.438 275.243C181.192 269.057 175.868 272.001 171.793 271.398C168.826 270.962 166.795 272.16 166.532 275.499C166.517 275.91 166.342 276.299 166.044 276.582C165.746 276.866 165.349 277.022 164.937 277.016C164.526 277.016 164.13 276.857 163.834 276.571C163.538 276.285 163.364 275.896 163.35 275.485C163.094 272.132 161.035 270.962 158.082 271.398C154.006 272.001 148.683 269.057 146.444 275.25C146.167 276.025 145.751 276.815 144.87 276.87C143.644 276.947 143.179 275.963 143.061 275C142.555 271.073 139.595 271.391 136.864 271.343C125.337 271.121 125.33 271.114 125.337 282.627C125.337 289.228 125.469 295.83 125.337 302.424C125.226 306.774 126.925 308.305 131.361 308.256C151.171 308.069 170.982 308.173 190.799 308.173L190.695 308.132Z" fill="#FFEBDB"/>
<path fill-rule="evenodd" clip-rule="evenodd" d="M374.459 312.004C354.962 312.004 335.464 312.004 315.963 312.004C309.031 312.004 308.123 312.918 308.054 319.762C308.012 323.787 308.054 327.818 308.096 331.843C308.096 335.486 309.967 337.031 313.551 336.983C317.301 336.927 318.694 334.904 318.639 331.441C318.729 329.667 318.444 327.894 317.8 326.239C317.155 324.853 315.831 323.142 318.07 322.152C320.15 321.238 322.631 321.023 324.537 322.471C326.277 323.787 324.406 324.964 323.782 326.142C320.274 332.722 322.888 336.615 330.367 337.128C338.948 337.71 340.903 333.609 337.298 325.608C336.751 324.389 335.676 323.149 337.298 322.36C338.439 321.743 339.716 321.419 341.014 321.419C342.311 321.419 343.588 321.743 344.729 322.36C346.33 323.274 345.09 324.521 344.424 325.629C342.386 329.044 341.79 332.639 344.48 335.909C345.866 337.634 355.993 337.661 357.518 335.957C360.235 332.923 359.597 329.439 357.989 326.086C357.393 324.86 355.626 323.579 357.476 322.436C358.586 321.752 359.864 321.389 361.167 321.389C362.471 321.389 363.749 321.752 364.858 322.436C366.723 323.551 365.025 324.86 364.38 326.08C360.859 332.729 363.389 336.969 370.854 337.024C379.865 337.086 381.91 333.609 377.647 325.297C377.113 324.251 376.261 323.115 377.592 322.387C378.741 321.792 380.015 321.476 381.309 321.464C382.604 321.452 383.883 321.745 385.043 322.318C386.36 322.9 386.159 324.147 385.32 325.165C384.284 326.408 383.653 327.938 383.511 329.55C382.936 335.133 384.412 336.851 390.069 337.01C390.873 337.01 391.677 337.01 392.481 337.01C399.544 336.927 402.019 332.542 398.615 326.142C397.985 324.957 396.113 323.787 397.839 322.464C399.745 321.002 402.213 321.231 404.306 322.138C406.545 323.108 405.096 324.75 404.625 326.225C403.571 329.488 402.386 333.387 405.318 335.694C408.611 338.271 413.352 337.904 416.859 336.179C420.817 334.288 419.271 330.132 418.537 326.668C418.218 325.207 416.367 323.648 418.294 322.387C420.221 321.127 422.689 321.258 424.796 322.221C426.487 322.99 425.822 324.341 424.914 325.408C422.938 327.735 423.042 330.457 423.41 333.207C423.673 335.168 424.796 336.608 426.827 336.719C430.197 336.921 433.576 336.933 436.947 336.754C439.241 336.622 440.281 334.87 440.316 332.729C440.399 327.416 440.441 322.103 440.316 316.797C440.226 312.641 437.245 312.018 433.904 312.011H390.401L374.459 312.004Z" fill="#FFEBDB"/>
<path fill-rule="evenodd" clip-rule="evenodd" d="M190.758 311.997C171.756 311.997 152.752 311.997 133.745 311.997C125.982 311.997 125.309 312.738 125.268 320.649C125.268 324.355 125.316 328.054 125.31 331.732C125.303 335.41 127.119 337.038 130.688 336.989C132.137 336.989 133.586 337.038 135.034 336.989C142.153 336.872 144.739 332.48 141.398 326.17C140.774 324.992 138.882 323.842 140.545 322.484C142.431 320.967 144.905 321.238 147.005 322.097C149.272 323.011 147.907 324.666 147.401 326.156C146.291 329.404 145.141 333.284 148.031 335.639C151.303 338.292 156.037 337.848 159.565 336.207C163.558 334.343 162.158 330.062 161.257 326.71C160.065 322.29 161.007 321.03 165.603 321.639C168.452 322.02 169.512 323.129 167.405 325.685C166.431 326.982 165.914 328.565 165.936 330.187C165.638 335.362 166.941 336.796 172.174 336.983C172.819 336.983 173.463 336.983 174.108 336.983C182.287 336.983 184.575 333.062 180.686 325.608C180.069 324.431 178.988 323.177 180.575 322.339C181.716 321.719 182.993 321.391 184.292 321.383C185.591 321.376 186.872 321.69 188.02 322.297C189.614 323.142 188.505 324.431 187.812 325.553C185.691 328.947 185.157 332.528 187.756 335.833C189.143 337.571 199.173 337.682 200.781 335.985C203.623 333 202.909 329.508 201.377 326.142C200.829 324.923 198.93 323.69 200.746 322.471C201.84 321.767 203.109 321.381 204.411 321.356C205.712 321.332 206.994 321.67 208.114 322.332C210.027 323.371 208.44 324.715 207.775 325.955C204.191 332.667 206.645 336.913 214.082 336.983C223.094 337.052 225.298 333.415 221.014 325.352C220.369 324.126 219.503 322.9 221.201 322.152C222.312 321.66 223.515 321.411 224.73 321.423C225.945 321.435 227.143 321.707 228.244 322.221C229.914 322.983 229.332 324.299 228.41 325.415C226.691 327.444 226.74 329.848 226.816 332.279C226.913 335.181 228.382 336.747 231.301 336.879C232.742 336.941 234.198 336.983 235.647 336.969C242.745 336.913 245.351 332.563 242.01 326.232C241.317 324.943 239.237 323.607 241.4 322.242C242.385 321.667 243.506 321.364 244.647 321.364C245.789 321.364 246.909 321.667 247.895 322.242C249.683 323.219 248.588 324.75 247.971 326.031C246.959 328.151 246.973 330.395 247.139 332.66C247.347 335.639 249.094 336.872 251.991 336.816C254.618 336.816 256.504 335.68 256.573 332.93C256.733 327.306 256.767 321.667 256.573 316.049C256.455 312.336 253.572 311.893 250.66 311.893C240.517 311.893 230.372 311.893 220.224 311.893L190.758 311.997Z" fill="#FFEBDB"/>
<path fill-rule="evenodd" clip-rule="evenodd" d="M282.761 261.693C233.45 261.693 184.136 261.693 134.82 261.693C132.741 261.693 130.661 261.756 128.582 261.963C127.195 262.102 126.072 262.802 126.017 264.374C125.962 265.946 127.029 266.771 128.374 267.006C130.117 267.296 131.882 267.437 133.649 267.429C172.812 267.429 211.976 267.886 251.132 267.235C267.713 266.958 284.328 266.106 300.887 266.701C344.224 268.267 387.574 266.951 430.903 267.394C433.154 267.408 435.403 267.241 437.627 266.895C438.233 266.816 438.787 266.515 439.183 266.05C439.58 265.586 439.79 264.991 439.772 264.381C439.755 263.771 439.512 263.188 439.09 262.747C438.668 262.306 438.097 262.036 437.488 261.991C435.416 261.773 433.334 261.664 431.25 261.666C381.74 261.675 332.243 261.684 282.761 261.693Z" fill="#FFEBDB"/>
<path fill-rule="evenodd" clip-rule="evenodd" d="M269.334 312.399C269.334 318.668 269.403 324.943 269.334 331.219C269.278 335.292 271.178 337.093 275.198 337.024C280.348 336.941 285.498 336.982 290.655 336.989C294.371 336.989 296.374 335.292 296.367 331.448C296.367 318.737 296.547 306.026 296.242 293.35C296.062 285.959 290.302 281.234 282.615 281.317C274.553 281.401 269.556 286.166 269.382 294.077C269.23 300.166 269.334 306.282 269.334 312.399Z" fill="white"/>
<path fill-rule="evenodd" clip-rule="evenodd" d="M319.568 214.451C317.585 214.964 317.752 215.913 317.488 216.62C317.19 217.548 316.975 218.614 315.811 218.698C314.646 218.781 314.355 217.7 313.946 216.82C310.73 209.949 303.382 209.339 298.891 215.622C297.4 217.7 296.118 217.375 295.626 215.199C294.739 211.002 291.834 210.468 288.376 210.51C285.471 210.545 282.574 210.51 279.669 210.545C277.098 210.579 274.866 211.12 274.124 214.084C273.812 215.262 273.715 216.904 271.989 216.855C270.603 216.855 270.471 215.387 270.069 214.375C268.738 210.988 265.778 211.39 263.096 211.521C260.102 211.674 256.858 211.424 255.166 214.895C254.529 216.28 254.993 218.621 252.823 218.628C250.508 218.628 251.673 215.56 249.441 214.264C248.775 222.309 248.775 230.395 249.441 238.439C249.579 240.012 250.827 240.995 252.518 240.919C253.26 240.93 253.977 240.657 254.524 240.156C255.07 239.655 255.404 238.964 255.457 238.225C255.742 235.669 255.721 233.085 255.825 230.515C255.908 228.437 255.825 226.31 256.102 224.281C256.594 220.817 258.237 217.873 262.132 217.929C266.028 217.984 267.678 220.914 268.045 224.398C268.378 227.758 268.246 231.152 268.364 234.533C268.454 237.186 268.551 239.977 272.239 240.012C275.926 240.046 277.964 238.239 277.985 234.422C277.985 231.041 277.985 227.654 278.082 224.281C278.059 222.511 278.24 220.744 278.623 219.016C279.427 215.996 281.222 213.676 284.674 213.8C288.369 213.932 290.164 216.419 290.358 219.827C290.642 224.641 290.601 229.476 290.642 234.304C290.642 237.705 292.091 239.804 295.668 240.164C299.009 240.504 300.998 239.229 301.109 235.717C301.22 232.018 301.15 228.305 301.338 224.634C301.511 221.171 302.675 217.88 306.73 217.887C310.785 217.894 312.463 221.074 312.692 224.779C312.92 228.485 312.782 232.184 312.899 235.863C312.976 238.142 313.045 240.795 316.116 240.899C319.186 241.002 319.512 238.405 319.54 236.091C319.609 228.943 319.568 221.808 319.568 214.451Z" fill="#FFEBDB"/>
<path fill-rule="evenodd" clip-rule="evenodd" d="M284.486 257.8C294.946 257.8 305.406 257.766 315.865 257.8C319.719 257.8 322.506 256.983 322.499 252.259C322.499 247.237 321.244 245.727 316.122 245.249C294.939 243.267 273.756 242.769 252.566 245.165C247.263 245.761 246.21 247.001 246.147 252.092C246.085 257.184 249.114 257.807 253.079 257.779C263.567 257.752 274.026 257.8 284.486 257.8Z" fill="#FFEBDB"/>
<path fill-rule="evenodd" clip-rule="evenodd" d="M304.151 304.44C304.151 295.739 304.193 287.039 304.151 278.346C304.103 272.375 303.229 271.419 297.525 271.419C287.37 271.336 277.215 271.488 267.026 271.357C262.534 271.294 260.593 273.116 260.621 277.66C260.725 295.379 260.621 313.091 260.697 330.811C260.734 332.092 260.927 333.365 261.272 334.6C261.367 335.041 261.616 335.434 261.976 335.707C262.336 335.98 262.781 336.115 263.232 336.088C263.683 336.06 264.109 335.871 264.432 335.556C264.756 335.241 264.955 334.821 264.995 334.371C265.251 332.786 265.383 331.183 265.39 329.578C265.431 318.141 265.39 306.719 265.445 295.261C265.522 284.871 272.46 277.702 282.407 277.459C292.354 277.217 299.826 284.151 300.131 294.555C300.436 305.181 300.131 315.821 300.346 326.419C300.422 329.557 298.849 335.424 302.051 335.251C305.829 335.091 303.93 329.418 304.054 326.183C304.352 318.945 304.158 311.685 304.151 304.44Z" fill="#FFEAD0"/>
<path fill-rule="evenodd" clip-rule="evenodd" d="M256.476 208.3C274.886 206.429 293.438 206.41 311.852 208.245C314.015 208.453 316.164 208.3 317.058 205.821C317.647 204.179 317.418 202.544 315.935 201.47C314.07 200.085 312.06 199.891 310.203 201.561C308.941 202.697 307.985 202.724 306.446 201.657C300.401 197.501 293.803 197.183 287.093 199.815C285.769 200.334 284.923 200.584 283.585 199.877C276.883 196.303 270.235 197.91 263.823 200.695C262.181 201.387 261.002 201.907 259.415 200.986C258.728 200.566 257.956 200.305 257.155 200.224C254.147 200.043 251.471 200.729 251.263 204.324C251.055 207.919 253.606 208.446 256.476 208.3Z" fill="#FFEBDB"/>
<path fill-rule="evenodd" clip-rule="evenodd" d="M286.781 180.794V184.153C286.781 193.491 289.699 196.012 298.953 194.862C301.649 194.53 303.313 193.186 302.848 190.484C301.538 182.733 298.641 175.723 292.201 170.694C291.092 169.821 289.803 168.678 288.306 169.309C286.517 170.105 286.919 172.01 286.829 173.562C286.746 175.959 286.829 178.362 286.829 180.766L286.781 180.794Z" fill="#FFEBDB"/>
<path fill-rule="evenodd" clip-rule="evenodd" d="M283.599 181.022C283.599 177.974 283.758 174.926 283.557 171.892C283.384 169.281 281.914 168.726 279.544 169.89C274.373 172.419 267.178 185.053 267.677 191.01C267.739 191.772 267.857 192.811 268.37 193.227C272.175 196.407 276.348 193.83 280.348 193.726C282.899 193.663 283.633 191.447 283.689 189.196C283.758 186.473 283.689 183.744 283.689 181.022H283.599Z" fill="#FFEBDB"/>
<path fill-rule="evenodd" clip-rule="evenodd" d="M238.273 243.753C237.927 243.906 237.593 244.087 237.275 244.293C235.799 245.817 237.275 249.357 234.849 249.564C232.007 249.807 233.102 246.378 232.111 244.716C231.805 244.179 231.311 243.775 230.725 243.579C229.789 243.392 229.387 244.203 229.02 244.965C228.243 246.572 229.151 249.564 226.58 249.578C224.32 249.578 225.131 246.807 224.452 245.277C224.112 244.515 223.759 243.732 222.795 243.843C222.389 243.896 222.018 244.099 221.754 244.411C221.489 244.724 221.352 245.124 221.367 245.533C221.242 249.419 219.586 253.658 223.156 256.838C224.958 258.452 236.097 258.175 237.712 256.685C238.425 256.049 238.899 255.189 239.057 254.247C239.327 250.846 239.985 247.341 238.273 243.753Z" fill="#FFEBDB"/>
<path fill-rule="evenodd" clip-rule="evenodd" d="M328.945 242.894C328.495 248.435 326.866 252.868 330.131 256.747C331.572 258.451 343.093 258.445 344.687 256.747C348.153 252.917 346.621 248.497 346.073 244.127C345.228 244.244 344.819 244.175 344.645 244.341C343.155 245.831 344.5 249.37 342.053 249.55C339.17 249.765 340.424 246.295 339.357 244.701C338.885 244.009 338.365 243.385 337.471 243.441C336.341 243.51 335.919 244.397 335.517 245.311C334.823 246.814 335.641 249.627 333.361 249.599C330.782 249.599 331.767 246.551 330.921 244.972C330.315 244.23 329.655 243.536 328.945 242.894V242.894Z" fill="#FFEBDB"/>
<path fill-rule="evenodd" clip-rule="evenodd" d="M272.252 170.528C263.303 173.299 253.176 185.442 252.552 193.096C252.379 195.257 253.343 195.922 255.325 196.074C260.295 196.455 262.832 194.689 263.761 189.729C264.974 182.989 267.746 176.928 272.252 170.528Z" fill="#FFEBDB"/>
<path fill-rule="evenodd" clip-rule="evenodd" d="M300.915 173.028C304.011 179.349 306.251 186.053 307.576 192.964C308.269 196.275 311.735 196.76 314.313 195.998C317.329 195.098 315.52 192.438 314.882 190.685C312.213 183.349 308.311 176.894 300.915 173.028Z" fill="#FFEBDB"/>
<path fill-rule="evenodd" clip-rule="evenodd" d="M337.389 238.509C338.345 238.564 339.303 238.564 340.259 238.509C342.186 238.274 344.945 239.202 345.457 236.431C345.95 233.785 343.933 231.928 341.721 230.889C340.153 230.074 338.393 229.701 336.629 229.808C334.865 229.915 333.163 230.5 331.705 231.499C330.049 232.586 328.836 234.27 329.286 236.348C329.771 238.585 331.844 238.426 333.563 238.509C334.838 238.592 336.114 238.509 337.389 238.509V238.509Z" fill="#FFEBDB"/>
<path fill-rule="evenodd" clip-rule="evenodd" d="M230.51 238.495C231.473 238.495 232.444 238.564 233.4 238.495C235.403 238.322 238.065 238.813 238.495 236.077C238.925 233.341 236.935 231.603 234.572 230.674C231.473 229.469 228.271 229.344 225.332 231.208C223.661 232.268 222.22 233.757 222.559 235.911C222.996 238.391 225.207 238.342 227.12 238.467C228.236 238.543 229.366 238.467 230.482 238.467L230.51 238.495Z" fill="#FFEBDB"/>
<path fill-rule="evenodd" clip-rule="evenodd" d="M281.749 228.25C281.929 231.139 282.033 233.861 282.296 236.562C282.307 237.054 282.495 237.525 282.826 237.888C283.158 238.251 283.61 238.481 284.099 238.537C285.485 238.682 286.178 237.691 286.344 236.535C286.934 231.121 286.947 225.659 286.386 220.243C286.386 219.752 286.204 219.279 285.877 218.913C285.55 218.548 285.099 218.316 284.611 218.261C283.225 218.137 282.49 219.148 282.359 220.291C282.054 222.986 281.943 225.701 281.749 228.25Z" fill="#FFEBDB"/>
<path fill-rule="evenodd" clip-rule="evenodd" d="M259.567 230.972C259.685 233.05 259.733 235.128 259.962 237.206C260.087 238.356 260.655 239.478 262.042 239.499C263.428 239.52 264.01 238.433 264.121 237.276C264.605 233.134 264.617 228.951 264.156 224.807C264.024 223.498 263.518 222.161 261.834 222.293C260.447 222.397 260.059 223.616 259.941 224.738C259.754 226.795 259.706 228.887 259.567 230.972Z" fill="#FFEBDB"/>
<path fill-rule="evenodd" clip-rule="evenodd" d="M309.059 230.55C308.948 228.672 308.885 226.601 308.67 224.544C308.573 223.588 308.185 222.57 307.021 222.466C305.856 222.362 305.357 223.463 305.343 224.392C305.246 228.548 305.246 232.692 305.343 236.825C305.343 237.92 305.766 239.215 307.249 239.084C308.365 238.994 308.705 237.906 308.781 236.936C308.906 234.9 308.955 232.822 309.059 230.55Z" fill="#FFEBDB"/>
<path fill-rule="evenodd" clip-rule="evenodd" d="M282.691 160.601C282.857 162.187 283.904 162.755 285.297 162.762C286.51 162.762 287.605 162.319 287.585 160.927C287.585 159.382 286.42 158.759 285.02 158.738C284.744 158.703 284.464 158.724 284.196 158.8C283.928 158.875 283.678 159.004 283.461 159.178C283.244 159.351 283.064 159.567 282.932 159.811C282.799 160.056 282.717 160.324 282.691 160.601Z" fill="#FFEAD0"/>
<path fill-rule="evenodd" clip-rule="evenodd" d="M147.436 295.047C147.027 293.287 147.914 290.322 145.446 290.315C142.979 290.309 143.63 293.246 143.644 294.991C143.658 296.737 142.875 299.688 145.412 299.722C147.949 299.757 146.999 296.778 147.436 295.047Z" fill="#212121"/>
<path fill-rule="evenodd" clip-rule="evenodd" d="M451.004 295.94C451.697 297.956 450.11 301.558 452.938 301.627C455.766 301.697 454.865 298.115 454.893 296.086C454.92 294.056 455.759 290.454 453.042 290.427C450.054 290.392 451.725 294.008 451.004 295.94Z" fill="#D85F32"/>
<path fill-rule="evenodd" clip-rule="evenodd" d="M451.42 274.903C451.524 275.901 451.787 276.905 453 276.857C454.213 276.808 454.546 275.845 454.539 274.841C454.539 273.677 454.241 272.451 452.723 272.659C451.572 272.811 451.441 273.906 451.42 274.903Z" fill="#D85F32"/>
<path fill-rule="evenodd" clip-rule="evenodd" d="M418.301 294.964C418.689 296.744 417.829 299.702 420.248 299.75C422.785 299.799 422.092 296.848 422.092 295.109C422.092 293.371 422.855 290.406 420.38 290.33C417.906 290.253 418.717 293.232 418.301 294.964Z" fill="#D85F32"/>
<path fill-rule="evenodd" clip-rule="evenodd" d="M363.174 295.282C362.702 293.287 363.59 290.322 361.094 290.315C358.599 290.309 359.278 293.246 359.292 294.991C359.306 296.737 358.516 299.681 361.06 299.722C363.604 299.764 362.508 296.702 363.174 295.282Z" fill="#D85F32"/>
<path fill-rule="evenodd" clip-rule="evenodd" d="M322.646 295.165C322.126 293.246 323.179 290.26 320.566 290.316C318.175 290.364 318.736 293.294 318.736 295.088C318.736 296.882 318.251 299.806 320.698 299.743C323.339 299.653 321.952 296.626 322.646 295.165Z" fill="#D85F32"/>
<path fill-rule="evenodd" clip-rule="evenodd" d="M398.893 294.839C399.427 296.515 398.165 299.604 401.076 299.639C403.1 299.639 402.761 296.868 402.705 295.24C402.636 293.342 403.399 290.329 400.584 290.301C398.484 290.274 399.219 293.072 398.893 294.839Z" fill="#D85F32"/>
<path fill-rule="evenodd" clip-rule="evenodd" d="M378.603 295.268C379.054 296.882 378.097 299.854 380.745 299.639C383.012 299.459 382.444 296.564 382.402 294.79C382.36 293.017 383.095 290.163 380.433 290.357C378.097 290.516 378.95 293.419 378.603 295.268Z" fill="#D85F32"/>
<path fill-rule="evenodd" clip-rule="evenodd" d="M338.913 294.894C339.281 296.882 338.588 299.653 340.667 299.653C343.578 299.598 342.663 296.543 342.705 294.659C342.705 293.052 343.204 290.295 340.868 290.42C338.255 290.558 339.544 293.509 338.913 294.894Z" fill="#D85F32"/>
<path fill-rule="evenodd" clip-rule="evenodd" d="M243.132 295.13C243.576 296.813 242.529 299.792 245.094 299.75C247.499 299.75 246.952 296.785 246.938 294.998C246.924 293.211 247.52 290.281 245.011 290.336C242.502 290.392 243.583 293.37 243.132 295.13Z" fill="#D85F32"/>
<path fill-rule="evenodd" clip-rule="evenodd" d="M206.582 295.081C206.166 293.107 206.935 290.267 204.808 290.329C202.035 290.412 202.777 293.439 202.728 295.358C202.686 297.021 202.416 299.812 204.447 299.757C207.476 299.653 205.799 296.473 206.582 295.081Z" fill="#D85F32"/>
<path fill-rule="evenodd" clip-rule="evenodd" d="M166.906 294.361C166.345 292.719 167.232 289.803 164.716 290.309C162.318 290.787 163.004 293.772 163.052 295.712C163.052 297.291 162.706 300.124 165.132 299.646C167.558 299.168 166.338 296.127 166.906 294.361Z" fill="#D85F32"/>
<path fill-rule="evenodd" clip-rule="evenodd" d="M222.83 295.081C223.309 296.785 222.304 299.791 224.91 299.639C227.267 299.501 226.594 296.57 226.608 294.79C226.608 293.148 227.079 290.419 224.868 290.44C222.303 290.447 223.316 293.342 222.83 295.081Z" fill="#D85F32"/>
<path fill-rule="evenodd" clip-rule="evenodd" d="M183.196 295.005C183.646 296.737 182.676 299.736 185.275 299.639C187.687 299.549 186.994 296.605 187.022 294.79C187.022 293.142 187.493 290.412 185.331 290.392C182.627 290.378 183.667 293.294 183.196 295.005Z" fill="#D85F32"/>
<path d="M181.497 162.5L189.004 164.148C189.004 164.148 200.712 238.045 191.923 255.182C183.133 272.319 174.878 255.328 171.052 253.596C167.225 251.864 138.66 169.329 138.66 169.329L181.497 162.5Z" fill="#F7A483"/>
<path d="M161.326 252.924L136.733 165.887C141.807 142.335 169.055 144.004 169.055 144.004C192.969 145.791 194.14 160.629 194.14 160.629L195.721 249.149C195.721 249.149 197.301 264.277 183.438 263.473C183.438 263.467 163.593 260.917 161.326 252.924Z" fill="#0059A5"/>
<path d="M151.185 264.325C151.095 267.789 157.542 304.349 154.831 304.813C154.831 304.813 81.1415 318.785 41.8463 304.813L41.6869 267.172L20.8366 162.368C20.8366 162.368 13.6555 146.616 28.0247 138.74L78.3758 119.164L79.0689 126.701L86.971 145.244L121.372 117.599L187.223 149.601C183.526 159.627 179.854 169.655 176.208 179.685C169.415 198.166 162.81 216.709 155.822 235.142C155.85 235.142 150.049 255.133 151.185 264.325Z" fill="#2782C0"/>
<path d="M91.7605 124.187L92.218 141.061L99.7734 134.979L91.7605 124.187Z" fill="#3EAEC6"/>
<path d="M82 152.495C82 154.429 83.342 156 84.9964 156C86.6509 156 88 154.429 88 152.495C88 150.561 86.6509 149 84.9964 149C83.342 149 82 150.541 82 152.495Z" fill="#CFEAE6"/>
<path d="M82.1184 195.119C82.1184 196.449 83.4285 197.522 85.0435 197.522C86.6586 197.522 87.9756 196.449 87.9756 195.119C87.9756 193.789 86.6586 192.708 85.0435 192.708C83.4285 192.708 82.1184 193.782 82.1184 195.119Z" fill="#CFEAE6"/>
<path d="M82.1184 238.834C82.1184 240.171 83.4285 241.245 85.0435 241.245C86.6586 241.245 87.9756 240.171 87.9756 238.834C87.9756 237.497 86.6586 236.431 85.0435 236.431C83.4285 236.431 82.1184 237.511 82.1184 238.834Z" fill="#CFEAE6"/>
<path d="M82.1184 282.558C82.1184 283.888 83.4285 284.961 85.0435 284.961C86.6586 284.961 87.9756 283.888 87.9756 282.558C87.9756 281.228 86.6586 280.147 85.0435 280.147C83.4285 280.147 82.1184 281.228 82.1184 282.558Z" fill="#CFEAE6"/>
<path d="M91.7607 142.979V308.908" stroke="#00ADDC" stroke-width="2.56" stroke-miterlimit="10"/>
<path d="M42.3037 308.298C42.3037 308.298 79.9352 322.803 156.945 307.979C158.214 307.73 157.638 305.028 157.638 305.028L156.945 298.932C156.606 296.979 155.282 297.069 155.282 297.069C155.282 297.069 81.5989 311.041 42.2967 297.069C42.2967 297.069 40.7094 296.847 40.6401 298.801V306.42C40.6645 306.875 40.8421 307.308 41.1442 307.649C41.4463 307.99 41.855 308.218 42.3037 308.298Z" fill="#471F08"/>
<path d="M80.5248 312.904C80.5724 313.41 80.8172 313.876 81.2064 314.203C81.5955 314.53 82.0977 314.69 82.6043 314.65H97.5973C98.1039 314.69 98.6061 314.53 98.9953 314.203C99.3844 313.876 99.6292 313.41 99.6768 312.904V304.024C99.6309 303.517 99.3868 303.048 98.9975 302.72C98.6081 302.392 98.105 302.231 97.5973 302.271H82.6043C82.0966 302.231 81.5935 302.392 81.2042 302.72C80.8148 303.048 80.5707 303.517 80.5248 304.024V312.904Z" stroke="#BCBEC0" stroke-width="4.19" stroke-miterlimit="10"/>
<path d="M99.6699 307.903H91.7402" stroke="#BCBEC0" stroke-width="4.19" stroke-miterlimit="10"/>
<path d="M91.7601 123.805C91.7601 123.805 116.27 116.089 121.961 108.407L128.747 119.594L103.273 139.682L91.7601 124.186" fill="#84BBDF"/>
<path d="M132.352 122.912L103.066 207.525V344.152C103.066 344.152 152.911 358.955 172.798 344.152L158.775 254.365L187.25 149.609L132.352 122.912Z" fill="#004788"/>
<path d="M132.352 122.912L103.066 207.525L103.191 211.542L140.074 180.51C140.074 180.51 143.948 175.121 138.687 171.934L129.974 165.076L136.213 161.412C136.213 161.412 144.926 157.949 143.838 151.417L141.342 126.923L132.352 122.912Z" fill="#0059A5"/>
<path d="M67.4863 123.507L34.1453 136.398C34.1453 136.398 15.1666 140.52 19.0414 156.694L30.0071 246.315L24.5173 341.215C24.5173 341.215 34.1453 351.5 63.5 341.215L72.1582 205.238L67.4863 123.507Z" fill="#004788"/>
<path d="M69.1979 126.881C69.1979 126.881 69.9881 121.138 79.1446 112.757L83.2412 135.11C83.2412 135.11 74.4173 124.436 69.1979 126.881Z" fill="#84BBDF"/>
<path d="M70.9312 138.116L69.1983 126.881C72.2759 125.44 76.0744 128.46 79.1729 130.933L70.9312 138.116Z" fill="#393434"/>
<path d="M94.1382 130.282L95.2057 128.82L101.104 136.585L95.885 138.109L94.1382 130.282Z" fill="#721011"/>
<path d="M79.9212 131.411L77.7586 129.721C77.7586 129.721 72.4906 135.588 80.2471 138.685C79.711 136.298 79.6007 133.836 79.9212 131.411V131.411Z" fill="#721011"/>
<path d="M94.1377 130.289C94.1377 130.289 88.8211 134.494 79.921 131.411C77.9663 133.448 78.1119 135.789 78.6803 138.304L83.2897 146.131H89.7431L95.8636 138.304C95.8636 138.304 96.5152 136.392 94.1377 130.289Z" fill="#ED1C24"/>
<path d="M89.7572 145.944L94.9697 257.925L84.0941 275.319L75.2216 258.015L83.3177 145.944H89.7572Z" fill="#ED1C24"/>
<path d="M67.4858 123.507L58.8976 126.839L52.6592 150.391C52.6592 150.391 49.5538 156.5 54.0455 158.101L62.1416 161.987L50.7252 167.93C50.7252 167.93 44.7156 171.026 48.4101 175.591L71.3606 212.373L72.0537 206.084L67.4858 123.507Z" fill="#0059A5"/>
<path d="M125.788 216.91L139.159 208.217C139.159 208.217 159.309 205.786 169.38 206.832C169.38 206.832 172.708 210.635 147.282 211.216C147.282 211.216 165.117 215.899 170.85 219.39C170.85 219.39 171.772 223.727 155.462 217.423L148.045 216.973L165.298 224.059C165.298 224.059 164.604 226.754 148.911 223.249L133.163 224.669L125.788 216.91Z" fill="#F5CBD6"/>
<path d="M40.0369 218.532L126.314 210.039C130.626 214.375 134.785 222.244 132.927 230.474L22.7148 259.22C22.7148 259.22 -6.39791 263.467 1.28229 234.63C1.28923 234.63 13.5859 219.931 40.0369 218.532Z" fill="#02457A"/>
<path d="M40.0366 218.532C40.0366 218.532 55.5356 225.403 61.3512 225.943L70.3623 213.142L58.031 206.569L49.5814 204.969C49.5814 204.969 35.7182 202.018 32.0237 217.707L40.0366 218.532Z" fill="#F5CBD6"/>
<path d="M194.279 243.358C199.498 269.285 176.569 262.753 176.569 262.753L59.6674 228.118C62.9529 213.219 70.3767 210.891 70.3767 210.891L170.358 226.595C170.358 226.595 189.17 231.45 194.279 243.358Z" fill="#005E99"/>
<path d="M24.1982 353.628H9.45483" stroke="#2B2C2B" stroke-width="0.75" stroke-miterlimit="10"/>
<path d="M219.718 353.628H33.4104" stroke="#2B2C2B" stroke-width="0.75" stroke-miterlimit="10"/>
<path d="M430.646 353.628H274.207" stroke="#2B2C2B" stroke-width="0.75" stroke-miterlimit="10"/>
<path d="M446.922 353.628H438.451" stroke="#2B2C2B" stroke-width="0.75" stroke-miterlimit="10"/>
<path d="M273.722 124.193C267.941 123.736 258.34 119.822 254.368 122.378C254.639 120.647 252.677 117.765 254.126 116.04C255.776 114.08 261.654 116.428 267.927 117.523C271.854 118.167 275.874 117.954 279.71 116.899C280.559 116.476 281.49 116.242 282.438 116.215C283.386 116.187 284.328 116.366 285.2 116.74L284.867 122.635C281.29 123.879 277.503 124.408 273.722 124.193V124.193Z" fill="#F79F45"/>
<path d="M248.012 131.079C248.705 131.079 248.955 130.49 249.19 129.201C250.452 129.756 252.656 130.711 257.772 129.43C263.248 128.045 266.554 127.955 268.862 129.167C274.636 132.166 281.381 130.628 284.5 127.92L284.119 134.681C284.119 134.681 282.864 134.21 279.648 135.824C276.432 137.438 266.797 136.641 263.366 134.916C259.934 133.191 249.502 136.482 247.977 135.699C246.453 134.916 247.153 131.079 248.012 131.079Z" fill="#00A858"/>
<path d="M268.897 129.167C266.554 127.955 263.248 128.059 257.807 129.43C252.67 130.712 250.487 129.756 249.225 129.201C249.274 128.917 249.322 128.613 249.385 128.259C249.697 126.299 253.065 124.574 254.161 123.009C254.291 122.821 254.374 122.605 254.403 122.378C258.375 119.822 267.975 123.764 273.756 124.193C277.519 124.401 281.287 123.872 284.847 122.635L284.542 127.92C281.416 130.635 274.671 132.166 268.897 129.167Z" fill="white"/>
<path d="M266.007 125.205C265.901 125.662 265.929 126.139 266.088 126.581C266.247 127.022 266.531 127.408 266.904 127.691C267.278 127.975 267.726 128.145 268.194 128.18C268.662 128.215 269.13 128.115 269.542 127.89C269.954 127.665 270.292 127.326 270.516 126.914C270.739 126.502 270.839 126.034 270.802 125.566C270.766 125.098 270.594 124.651 270.309 124.279C270.024 123.906 269.637 123.624 269.195 123.466C268.542 123.275 267.839 123.351 267.241 123.677C266.644 124.003 266.2 124.552 266.007 125.205V125.205Z" fill="#2B2E7E"/>
<path d="M266.264 125.301C266.171 125.706 266.197 126.129 266.338 126.519C266.48 126.91 266.732 127.251 267.063 127.502C267.394 127.752 267.791 127.902 268.205 127.933C268.62 127.964 269.034 127.874 269.399 127.675C269.763 127.476 270.063 127.176 270.26 126.81C270.458 126.445 270.546 126.031 270.514 125.617C270.482 125.203 270.33 124.807 270.078 124.477C269.826 124.147 269.483 123.897 269.092 123.757C268.512 123.587 267.889 123.655 267.358 123.944C266.828 124.234 266.434 124.722 266.264 125.301V125.301Z" fill="white"/>
<path d="M267.961 125.932C267.932 126.019 267.938 126.114 267.978 126.197C268.019 126.28 268.089 126.344 268.176 126.375C268.259 126.378 268.34 126.353 268.407 126.305C268.474 126.257 268.523 126.188 268.547 126.109C268.57 126.03 268.567 125.945 268.538 125.868C268.508 125.791 268.454 125.726 268.384 125.683C268.295 125.661 268.201 125.675 268.122 125.722C268.043 125.768 267.986 125.844 267.961 125.932V125.932Z" fill="#2B2E7E"/>
<path d="M267.088 124.096C267.649 124.502 268.037 125.102 268.177 125.779C267.463 125.509 267.088 124.096 267.088 124.096Z" fill="#2B2E7E"/>
<path d="M266.167 125.398C266.855 125.329 267.545 125.519 268.101 125.932C267.387 126.202 266.167 125.398 266.167 125.398Z" fill="#2B2E7E"/>
<path d="M266.049 126.673C266.596 126.249 267.285 126.048 267.976 126.112C267.511 126.715 266.049 126.673 266.049 126.673Z" fill="#2B2E7E"/>
<path d="M266.679 127.747C266.951 127.127 267.446 126.633 268.065 126.361C267.982 127.089 266.679 127.747 266.679 127.747Z" fill="#2B2E7E"/>
<path d="M268.086 128.384C267.876 127.727 267.923 127.013 268.218 126.389C268.627 127.026 268.086 128.384 268.086 128.384Z" fill="#2B2E7E"/>
<path d="M269.514 127.976C268.936 127.595 268.526 127.008 268.37 126.334C269.091 126.576 269.514 127.976 269.514 127.976Z" fill="#2B2E7E"/>
<path d="M270.436 126.666C269.748 126.745 269.057 126.559 268.502 126.147C269.209 125.87 270.436 126.666 270.436 126.666Z" fill="#2B2E7E"/>
<path d="M270.54 125.482C269.96 125.858 269.258 125.997 268.578 125.87C269.084 125.309 270.54 125.482 270.54 125.482Z" fill="#2B2E7E"/>
<path d="M269.715 124.145C269.529 124.809 269.098 125.379 268.509 125.738C268.516 124.976 269.715 124.145 269.715 124.145Z" fill="#2B2E7E"/>
<path d="M268.481 123.66C268.672 124.326 268.603 125.039 268.287 125.655C267.885 125.004 268.481 123.66 268.481 123.66Z" fill="#2B2E7E"/>
</g>
<defs>
<clipPath id="clip0_2557_20881">
<rect width="472" height="374" fill="white" transform="matrix(-1 0 0 1 472 0)"/>
</clipPath>
</defs>
</svg>
