<svg width="361" height="391" viewBox="0 0 361 391" fill="none" xmlns="http://www.w3.org/2000/svg">
<g clip-path="url(#clip0_2557_20301)">
<path d="M334.803 63.7173H220.016C210.089 63.7173 202.037 71.8213 202.037 81.8277V372.897C202.037 382.896 210.082 391.007 220.016 391.007H334.803C344.73 391.007 352.782 382.903 352.782 372.897V81.8277C352.775 71.8213 344.73 63.7173 334.803 63.7173Z" fill="white"/>
<path d="M326.89 63.7173H212.102C202.176 63.7173 194.124 71.8213 194.124 81.8277V372.897C194.124 382.896 202.169 391.007 212.102 391.007H326.89C336.817 391.007 344.869 382.903 344.869 372.897V81.8277C344.862 71.8213 336.817 63.7173 326.89 63.7173Z" fill="#ED1C24"/>
<path d="M329.263 67.2849V387.418C325.507 389.697 321.115 390.993 316.439 390.993H199.838C195.57 390.993 191.565 389.927 188.072 388.038C180.2 383.795 174.853 375.454 174.853 365.824V88.8794C174.853 79.2632 180.2 70.9083 188.072 66.6786C191.565 64.7833 195.57 63.7241 199.838 63.7241H316.439C321.115 63.7241 325.507 65.0063 329.263 67.2849Z" fill="#ED1C24"/>
<path opacity="0.3" d="M239.529 68.5674H274.393" stroke="#4D6F92" stroke-width="3" stroke-miterlimit="10" stroke-linecap="round" stroke-linejoin="round"/>
<path d="M331.386 80.239L331.677 371.399C327.319 374.381 322.068 376.116 316.417 376.116H205.6C200.398 376.116 195.528 374.639 191.384 372.088C183.512 367.232 178.248 358.445 178.248 348.438V102.098C178.248 92.071 183.305 82.8033 191.184 77.9325C195.327 75.3822 200.391 74.4136 205.6 74.4136H316.417C322.075 74.4136 327.208 76.6782 331.386 80.239Z" fill="#FAFAFA"/>
<path opacity="0.3" d="M188.079 369.991V388.039C180.207 383.809 174.859 375.454 174.859 365.838V335.15C174.852 345.177 179.404 365.873 188.079 369.991Z" fill="#4D6F92"/>
<path opacity="0.3" d="M188.079 66.6787V80.3294C180.684 86.0015 174.859 100.593 174.859 116.271V88.8724C174.852 79.2633 180.2 70.9014 188.079 66.6787Z" fill="#4D6F92"/>
<path d="M191.184 77.9321V372.081C183.429 367.217 178.248 358.416 178.248 348.389V101.638C178.248 91.5968 183.429 82.8099 191.184 77.9321Z" fill="#F5F6F6"/>
<path d="M341.417 100.948V349.755C341.417 359.33 336.533 369.531 328.924 373.05L329.263 78.6152C336.588 82.9216 341.417 91.3601 341.417 100.948Z" fill="white"/>
<path opacity="0.3" d="M350.762 229.387H351.495C353.107 229.387 354.421 228.07 354.421 226.439V127.288C354.421 125.658 353.114 124.341 351.495 124.341H350.762C349.15 124.341 347.836 125.658 347.836 127.288V226.439C347.843 228.07 349.15 229.387 350.762 229.387Z" fill="#AA1E16"/>
<path opacity="0.3" d="M350.762 263.607H351.495C353.107 263.607 354.421 262.29 354.421 260.66V245.511C354.421 243.88 353.114 242.563 351.495 242.563H350.762C349.15 242.563 347.836 243.88 347.836 245.511V260.66C347.843 262.29 349.15 263.607 350.762 263.607Z" fill="#AA1E16"/>
<path d="M353.218 229.387C354.373 229.387 355.307 227.7 355.307 225.624V128.104C355.307 126.027 354.373 124.341 353.218 124.341C352.07 124.341 351.136 126.027 351.136 128.104V225.617C351.136 227.7 352.063 229.387 353.218 229.387Z" fill="white"/>
<path d="M353.218 263.607C354.373 263.607 355.307 261.921 355.307 259.837V246.326C355.307 244.242 354.373 242.556 353.218 242.556C352.07 242.556 351.136 244.242 351.136 246.326V259.837C351.136 261.921 352.063 263.607 353.218 263.607Z" fill="white"/>
<path d="M192.595 167.042L146.186 225.951L138.805 299.703L180.579 283.69L222.001 223.234L192.595 167.042Z" fill="#2382C2"/>
<path d="M149.707 221.477L165.742 254.555L155.822 213.722L149.707 221.477Z" fill="#1C689C"/>
<path d="M313.906 376.116H201.229L210.74 311.096H306.124L313.906 376.116Z" fill="#2B2C2B"/>
<path d="M302.88 254.667C300.314 260.074 297.076 265.28 293.147 270.157L260.165 323.179H215.935C207.98 323.179 201.27 317.2 200.308 309.235L195.051 265.844L185.975 190.943C183.464 172.045 198.053 155.238 216.979 155.238H273.453C307.874 176.386 319.433 219.77 302.88 254.667Z" fill="#2382C2"/>
<path d="M217.069 149.934L213.707 179.967L253.344 169.069L251.781 146.52L217.069 149.934Z" fill="#393434"/>
<path d="M268.383 139.789L217.069 149.935L223.855 169.069L228.227 179.87L264.274 164.059L268.383 139.789Z" fill="#1C689C"/>
<path d="M268.383 101.917V148.471L243.958 157.85L228.228 179.87V101.917H268.383Z" fill="#EDAEBE"/>
<path d="M268.383 110.613H265V149.147H268.383V110.613Z" fill="#F5CBD7"/>
<path d="M259.197 102.174V119.839C259.197 121.929 258.982 123.964 258.581 125.936C258.076 128.375 257.288 130.723 256.236 132.904C251.401 142.98 241.156 149.934 229.307 149.934C228.94 149.934 228.58 149.934 228.228 149.914V96.7671H258.706C258.996 98.3558 259.162 99.9864 259.19 101.645C259.197 101.826 259.197 101.993 259.197 102.174Z" fill="#E07591"/>
<path d="M219.767 97.4364C172.217 97.4364 188.348 37.7537 235.061 55.8571L219.767 97.4364Z" fill="#2B2C2B"/>
<path d="M230.621 55.5292C192.748 42.8053 172.798 70.9429 200.184 89.325" stroke="#2B2C2B" stroke-miterlimit="10"/>
<path d="M267.103 94.4327V112.097C267.103 114.188 266.888 116.222 266.487 118.194C265.982 120.647 265.193 122.981 264.142 125.163C260.739 132.256 254.658 137.81 247.215 140.479C244.088 141.601 240.72 142.214 237.212 142.214C213.084 142.214 207.322 135.197 207.322 112.104V94.4397C207.322 90.642 208.028 87.0046 209.294 83.6599C209.896 82.0711 210.636 80.559 211.48 79.1166C212.752 76.9356 214.302 74.9218 216.066 73.1449C221.475 67.7027 228.946 64.3301 237.206 64.3301C250.985 64.3301 262.586 73.7163 266.044 86.5029C266.681 88.8721 267.04 91.3597 267.082 93.9241C267.103 94.0843 267.103 94.2655 267.103 94.4327Z" fill="#EDAEBE"/>
<path d="M249.2 112.021V129.685C249.2 131.776 248.986 133.81 248.585 135.775C248.253 137.392 247.789 138.967 247.215 140.472C244.088 141.594 240.72 142.207 237.213 142.207C213.085 142.207 207.322 135.19 207.322 112.097V94.433C207.322 90.6353 208.028 86.9979 209.294 83.6532C212.42 82.5174 215.789 81.9111 219.303 81.9111C233.09 81.9111 244.683 91.2973 248.142 104.084C248.778 106.46 249.138 108.941 249.18 111.505C249.2 111.672 249.2 111.854 249.2 112.021Z" fill="#F5CBD7"/>
<path d="M256.568 96.9691V90.3702L248.523 82.1338L259.273 67.1521C259.273 67.1521 295.403 52.4353 279.126 102.976L271.192 106.536C264.323 109.616 256.568 104.55 256.568 96.9691Z" fill="#2B2C2B"/>
<path d="M268.383 101.631V125.546C266.785 124.884 265.346 123.915 264.142 122.71C261.687 120.285 260.172 116.905 260.172 113.177C260.172 108.251 262.807 103.958 266.723 101.631C266.847 101.547 266.979 101.485 267.103 101.415V101.631H268.383Z" fill="#E07591"/>
<path d="M286.742 108.272C286.742 115.658 280.793 121.651 273.46 121.651C272.879 121.651 272.326 121.616 271.765 121.539C265.222 120.71 260.172 115.073 260.172 108.272C260.172 101.457 265.229 95.8265 271.765 94.9972C272.326 94.9206 272.879 94.8857 273.46 94.8857C280.793 94.8857 286.742 100.878 286.742 108.272Z" fill="#F5CBD7"/>
<path d="M283.338 108.272C283.338 115.073 278.296 120.696 271.765 121.539C265.222 120.71 260.172 115.073 260.172 108.272C260.172 101.457 265.229 95.8268 271.765 94.9976C278.296 95.8407 283.338 101.464 283.338 108.272Z" fill="#EDAEBE"/>
<path d="M279.417 108.272C279.417 111.581 276.747 114.271 273.461 114.271C270.175 114.271 267.505 111.588 267.505 108.272C267.505 104.962 270.168 102.272 273.461 102.272C276.747 102.272 279.417 104.955 279.417 108.272Z" fill="#E07591"/>
<path d="M222.001 103.359C222.001 110.536 217.526 116.355 211.999 116.355C206.479 116.355 202.003 110.536 202.003 103.359C202.003 96.1817 206.479 90.3633 211.999 90.3633C217.526 90.3702 222.001 96.1887 222.001 103.359Z" stroke="#2B2C2B" stroke-miterlimit="10"/>
<path d="M219.463 103.875C219.463 106.446 218.39 108.529 217.069 108.529C215.748 108.529 214.676 106.446 214.676 103.875C214.676 101.303 215.748 99.2197 217.069 99.2197C218.39 99.2197 219.463 101.303 219.463 103.875Z" fill="#2B2C2B"/>
<path d="M223.855 99.2197C215.194 106.223 214.772 117.26 214.772 117.26L223.468 117.825" fill="#E0325F"/>
<path d="M250.618 103.359C250.618 110.536 246.143 116.355 240.616 116.355C235.089 116.355 230.613 110.536 230.613 103.359C230.613 96.1817 235.089 90.3633 240.616 90.3633C246.143 90.3702 250.618 96.1887 250.618 103.359Z" stroke="#2B2C2B" stroke-miterlimit="10"/>
<path d="M221.476 99.6729H231.153" stroke="#2B2C2B" stroke-miterlimit="10"/>
<path d="M265.934 67.877L246.371 80.0853C225.889 67.3614 210.733 78.3014 210.733 78.3014C203.954 42.8054 260.559 19.9079 265.934 67.877Z" fill="#2B2C2B"/>
<path d="M224.152 122.089L232.183 120.849C232.183 120.849 229.977 130.535 224.152 122.089Z" fill="white"/>
<path d="M268.383 139.789L243.957 157.851L253.344 188.337L273.46 155.252L268.383 139.789Z" fill="#84BBE0"/>
<path d="M244.78 103.875C244.78 106.446 243.708 108.529 242.387 108.529C241.065 108.529 239.993 106.446 239.993 103.875C239.993 101.303 241.065 99.2197 242.387 99.2197C243.708 99.2197 244.78 101.303 244.78 103.875Z" fill="#2B2C2B"/>
<path d="M235.062 86.3012C237.386 81.4722 244.774 77.8069 252.058 89.3254L235.062 86.3012Z" fill="#2B2C2B"/>
<path d="M204.466 87.5622C205.635 82.3291 212.006 77.0612 221.704 86.6076L204.466 87.5622Z" fill="#2B2C2B"/>
<path d="M302.88 254.667C300.313 260.074 297.076 265.28 293.147 270.157L260.165 323.178H215.935C207.979 323.178 201.27 317.2 200.308 309.235L195.051 265.844L277.403 246.612L302.88 254.667Z" fill="#1C689C"/>
<path d="M196.317 254.555L192.872 186.121L172.127 247.162L196.317 254.555Z" fill="#1C689C"/>
<path d="M296.114 97.4365L308.78 93.8618" stroke="#2B2C2B" stroke-width="0.75" stroke-miterlimit="10"/>
<path d="M295.582 105.324H306.124" stroke="#2B2C2B" stroke-width="0.75" stroke-miterlimit="10"/>
<path d="M129.951 182.776L137 157.886L102.807 159.9C99.1128 177.627 113.1 186.734 113.1 186.734L129.951 182.776Z" fill="#EDAEBE"/>
<path d="M131.023 143.859L118.143 147.022L117.05 134.34L116.289 125.546L106.874 114.042C105.601 112.495 105.629 110.251 106.929 108.725C108.493 106.9 111.28 106.809 112.954 108.537L126.201 122.181L129.93 138.995L131.023 143.859Z" fill="#EDAEBE"/>
<path d="M117.057 134.34L129.938 138.995L128.948 134.508L116.753 130.835L117.057 134.34Z" fill="#E07591"/>
<path d="M125.323 135.943L114.428 132.64C113.328 130.856 111.156 130.069 109.178 130.745L106.224 131.755C104.225 132.445 102.973 134.445 103.215 136.556L103.339 137.594L99.1129 141.768C97.8816 142.988 97.6394 144.897 98.5387 146.381L97.3143 148.311C96 150.381 95.8271 152.987 96.8716 155.21L99.2235 160.241C100.406 162.771 103.18 164.136 105.892 163.502L131.576 157.551L125.323 135.943Z" fill="#EDAEBE"/>
<path d="M98.8442 145.856L109.793 167.399L108.949 167.823L98.375 146.092L98.8442 145.856Z" fill="#E07591"/>
<path d="M105.036 137.07L117.785 171.047L117.134 171.305L103.646 137.62L105.036 137.07Z" fill="#E07591"/>
<path d="M118.454 157.196L114.705 136.277L127.876 142.159L118.454 157.196Z" fill="#E07591"/>
<path d="M136.999 157.879L136.273 143.016C136.072 138.939 133.036 135.581 129.03 135.002L115.77 133.072C113.95 132.807 112.394 134.396 112.685 136.229C113.245 139.796 115.908 142.653 119.408 143.441L122.189 144.068C122.189 144.068 107.296 154.611 113.466 172.665L136.999 157.879Z" fill="#EDAEBE"/>
<path d="M112.097 132.542L112.595 135.685C113.211 139.58 116.116 142.702 119.934 143.559L122.183 144.068C122.183 144.068 107.49 154.109 113.46 172.665C104.024 157.468 116.047 145.183 116.047 145.183C113.508 143.817 111.938 141.127 111.993 138.222L112.097 132.542Z" fill="#E07591"/>
<path d="M129.951 182.776L136.066 208.684L116.752 221.512L109.842 179.87L129.951 182.776Z" fill="#EDAEBE"/>
<path d="M131.023 187.319L111.412 189.319L112.27 194.497L131.023 187.319Z" fill="#E07591"/>
<path d="M138.805 208.161L134.156 186.121L105.56 197.061L112.975 222.585L138.805 208.161Z" fill="#E789A1"/>
<path d="M105.56 197.061L134.156 186.121L138.805 208.161" stroke="white" stroke-width="0.5" stroke-miterlimit="10"/>
<path d="M176.042 270.039L136.827 197.716L108.417 217.08C108.417 217.08 114.456 253.733 138.812 299.696L176.042 270.039Z" fill="#2382C2"/>
<path d="M328.343 331.15L323.681 333.422L299.138 345.351C299.138 345.351 273.951 195.395 273.308 193.04C272.803 191.173 273.19 168.616 273.377 159.272C273.426 156.805 273.46 155.251 273.46 155.251C348.625 172.665 328.343 331.15 328.343 331.15Z" fill="#2382C2"/>
<path d="M299.145 345.351L326.939 319.548L328.343 331.15L299.145 345.351Z" fill="#84BBE0"/>
<path d="M328.343 331.15L323.681 333.422C334.631 192.873 290.643 164.854 273.377 159.272C273.425 156.805 273.46 155.251 273.46 155.251C348.625 172.665 328.343 331.15 328.343 331.15Z" fill="#84BBE0"/>
<path d="M205.503 211.304C196.987 199.827 160.401 209.834 160.401 209.834L156.451 214.607L205.503 211.304Z" fill="white"/>
<path d="M207.301 211.631C204.479 200.127 235.828 184.1 235.828 184.1L244.814 186.476L207.301 211.631Z" fill="white"/>
<path d="M199.007 211.109L156.05 213.269L154.141 215.123L200.688 216.328L199.007 211.109Z" fill="#2B2C2B"/>
<path d="M199.007 211.109L210.739 208.684L211.991 211.318L199.18 213.757L199.007 211.109Z" fill="#2B2C2B"/>
<path d="M245.015 183.487L210.739 208.684L211.424 211.353L247.512 184.016L245.015 183.487Z" fill="#2B2C2B"/>
<path d="M199.18 213.757L154.141 215.123L172.437 286.784L218.348 283.69L199.18 213.757Z" fill="#2B2C2B"/>
<path d="M229.721 283.007L218.342 283.69L206.596 240.814L205.178 235.651L203.968 231.191L202.473 225.742L199.181 213.757L211.425 211.353L214.344 222.801L215.949 229.038L216.806 232.41L218.473 238.933L229.721 283.007Z" fill="#CFB389"/>
<path d="M215.948 229.038L203.967 231.191L202.473 225.742L214.343 222.801L215.948 229.038Z" fill="white"/>
<path d="M218.473 238.933L206.596 240.814L205.178 235.651L216.806 232.411L218.473 238.933Z" fill="white"/>
<path d="M247.512 184.017L211.424 211.353L229.72 283.014L266.68 253.95L247.512 184.017Z" fill="#CFB389"/>
<path d="M247.512 184.017L266.68 253.95L234.445 279.3" stroke="white" stroke-width="0.5" stroke-miterlimit="10"/>
<path d="M231.588 253.915L225.971 274.882L213.706 254.556L207.121 258.416L212.807 279.139L232.591 277.481L235.178 262.52L231.588 253.915Z" fill="#2B2C2B"/>
<path d="M221.392 223.679L246.578 205.458L248.965 214.865L223.792 233.065L221.392 223.679Z" fill="white"/>
<path d="M229.333 283.271L211.424 211.353" stroke="#2B2C2B" stroke-width="0.5" stroke-miterlimit="10"/>
<path d="M237.557 294.414L239.757 269.07L238.367 256.096C238.139 253.928 235.994 252.521 233.933 253.176C232.528 253.615 231.567 254.918 231.532 256.395L231.325 266.018L229.118 274.129L237.557 294.414Z" fill="#F5CBD7"/>
<path d="M240.145 292.567L232.591 273.161L204.894 289.431C211.929 306.106 224.802 303.326 224.802 303.326L240.145 292.567Z" fill="#F5CBD7"/>
<path d="M232.591 273.167L223.432 280.979L223.066 280.372L216.861 270.108L216.847 270.074L212.496 259.921L201.054 249.963C200.287 249.294 199.982 248.221 200.293 247.239C200.798 245.636 202.68 244.953 204.091 245.859L218.452 255.092L229.527 269.251L232.591 273.167Z" fill="#F5CBD7"/>
<path d="M225.037 278.032L223.059 280.373L217.207 287.285L214.668 284.15L209.245 277.404L208.941 277.035L207.882 275.718L200.757 265.106L192.858 253.329C192.249 252.423 192.256 251.239 192.871 250.34L192.961 250.215C193.895 248.849 195.832 248.682 196.987 249.866L207.529 260.632L215.844 269.119L216.826 270.074L221.468 274.596L225.037 278.032Z" fill="#F5CBD7"/>
<path d="M217.303 280.916L215.934 284.184L214.785 301.424L191.909 286.484L186.341 277.279C185.573 276.018 185.864 274.366 187.012 273.432C187.801 272.791 188.824 272.638 189.724 272.917C190.291 273.091 190.817 273.446 191.211 273.962L196.088 280.505L202.009 283.885L195.112 276.38L188.672 264.158C188.174 263.196 188.299 262.039 188.983 261.217C189.551 260.527 190.381 260.221 191.19 260.276C191.861 260.325 192.518 260.639 192.996 261.203L200.439 270.018L210.725 276.673L217.303 280.916Z" fill="#F5CBD7"/>
<path d="M192.996 261.196L200.446 270.011L195.112 276.366L188.679 264.151C188.174 263.196 188.299 262.032 188.99 261.21C190.035 259.956 191.944 259.956 192.996 261.196Z" fill="#EDAEBE"/>
<path d="M192.975 250.207C193.909 248.841 195.846 248.674 197.001 249.859L207.543 260.625L207.121 260.68L200.771 265.098L192.871 253.322C192.262 252.416 192.269 251.232 192.885 250.333L192.975 250.207Z" fill="#EDAEBE"/>
<path d="M218.445 255.092L212.489 259.914L201.048 249.956C200.28 249.288 199.975 248.214 200.287 247.232C200.792 245.629 202.673 244.946 204.084 245.852L218.445 255.092Z" fill="#EDAEBE"/>
<path d="M196.088 280.498L191.91 286.477L186.341 277.272C185.573 276.011 185.864 274.359 187.012 273.426C187.801 272.784 188.824 272.631 189.724 272.91C190.291 273.084 190.817 273.439 191.211 273.955L196.088 280.498Z" fill="#EDAEBE"/>
<path d="M236.824 287.285L256.235 297.598L242.483 315.785L223.792 303.368L236.824 287.285Z" fill="#F5CBD7"/>
<path d="M231.644 309.409L244.814 291.536L256.235 297.598L238.208 314.837L231.644 309.409Z" fill="#E07591"/>
<path d="M230.509 312.58L250.313 290.268L264.515 294.637L247.512 326.558L230.509 312.58Z" fill="#E789A1"/>
<path d="M267.781 294.414L291.467 299.703L276.622 211.631L267.781 294.414Z" fill="#1C689C"/>
<path d="M243.556 330.154L262.558 285.676L308.78 295.522L299.144 345.351L243.556 330.154Z" fill="#2382C2"/>
<path d="M262.559 285.676L308.781 295.522L307.971 299.703L259.404 293.062L262.559 285.676Z" fill="#1C689C"/>
<path d="M230.51 312.58L250.314 290.268L259.404 293.062" stroke="white" stroke-width="0.5" stroke-miterlimit="10"/>
<path d="M237.876 31.0923C237.938 31.0923 237.987 31.1411 237.987 31.2038V35.3151C237.987 35.3778 237.938 35.4265 237.876 35.4265H190.921C190.858 35.4265 190.81 35.3778 190.81 35.3151V31.2038C190.81 31.1411 190.858 31.0923 190.921 31.0923H237.876ZM237.876 30.3955H190.921C190.478 30.3955 190.118 30.7579 190.118 31.2038V35.3151C190.118 35.761 190.478 36.1234 190.921 36.1234H237.876C238.319 36.1234 238.679 35.761 238.679 35.3151V31.2038C238.679 30.7509 238.319 30.3955 237.876 30.3955Z" fill="#2B2C2B"/>
<path d="M249.442 30.3955H244.592C244.15 30.3955 243.79 30.7579 243.79 31.2038V31.4059C243.79 31.8519 244.15 32.2142 244.592 32.2142H249.442C249.884 32.2142 250.244 31.8519 250.244 31.4059V31.2038C250.237 30.7509 249.884 30.3955 249.442 30.3955Z" fill="#2B2C2B"/>
<path d="M249.442 33.9492H244.592C244.15 33.9492 243.79 34.3116 243.79 34.7575V34.9596C243.79 35.4056 244.15 35.7679 244.592 35.7679H249.442C249.884 35.7679 250.244 35.4056 250.244 34.9596V34.7575C250.237 34.3116 249.884 33.9492 249.442 33.9492Z" fill="#2B2C2B"/>
<path d="M263.451 34.8325L255.531 26.8564L254.548 27.847L262.468 35.823L263.451 34.8325Z" fill="#E0325F"/>
<path d="M262.455 26.8633L254.535 34.8394L255.538 35.8496L263.458 27.8735L262.455 26.8633Z" fill="#E0325F"/>
<path d="M192.415 13.7901C197.555 13.7901 201.733 17.9989 201.733 23.1763V24.5351C201.733 24.5978 201.684 24.6466 201.622 24.6466H191.059C190.997 24.6466 190.949 24.5978 190.949 24.5351V13.8946C190.949 13.8319 190.997 13.7831 191.059 13.7831H192.415V13.7901ZM192.415 13.0933H191.059C190.617 13.0933 190.257 13.4556 190.257 13.9016V24.542C190.257 24.988 190.617 25.3503 191.059 25.3503H201.622C202.065 25.3503 202.425 24.988 202.425 24.542V23.1832C202.425 17.6017 197.942 13.0933 192.415 13.0933Z" fill="#2B2C2B"/>
<path d="M221.364 13.7901C226.504 13.7901 230.682 17.9989 230.682 23.1763V24.5351C230.682 24.5978 230.634 24.6466 230.571 24.6466H220.008C219.946 24.6466 219.905 24.5978 219.905 24.5351V13.8946C219.905 13.8319 219.953 13.7831 220.008 13.7831H221.364V13.7901ZM221.364 13.0933H220.008C219.566 13.0933 219.213 13.4556 219.213 13.9016V24.542C219.213 24.988 219.573 25.3503 220.008 25.3503H230.571C231.014 25.3503 231.374 24.988 231.374 24.542V23.1832C231.374 17.6017 226.891 13.0933 221.364 13.0933Z" fill="#E0325F"/>
<path d="M212.268 18.731H209.494V19.6995H212.268V18.731Z" fill="#2B2C2B"/>
<path d="M213.34 18.731H208.422V19.6995H213.34V18.731Z" fill="#2B2C2B"/>
<path d="M210.401 16.7325V21.6938H211.363V16.7325H210.401Z" fill="#2B2C2B"/>
<path d="M157.849 56.7979C158.88 56.7979 159.717 57.641 159.717 58.6793V59.3204C159.717 60.3586 158.88 61.2018 157.849 61.2018H157.206C156.175 61.2018 155.338 60.3586 155.338 59.3204V58.6793C155.338 57.641 156.175 56.7979 157.206 56.7979H157.849ZM157.849 56.1011H157.206C155.795 56.1011 154.646 57.2578 154.646 58.6793V59.3204C154.646 60.7419 155.795 61.8986 157.206 61.8986H157.849C159.26 61.8986 160.409 60.7419 160.409 59.3204V58.6793C160.409 57.2508 159.267 56.1011 157.849 56.1011Z" fill="#2B2C2B"/>
<path d="M168.26 56.7979C169.291 56.7979 170.128 57.641 170.128 58.6793V59.3204C170.128 60.3586 169.291 61.2018 168.26 61.2018H167.617C166.586 61.2018 165.749 60.3586 165.749 59.3204V58.6793C165.749 57.641 166.586 56.7979 167.617 56.7979H168.26ZM168.26 56.1011H167.617C166.206 56.1011 165.058 57.2578 165.058 58.6793V59.3204C165.058 60.7419 166.199 61.8986 167.617 61.8986H168.26C169.672 61.8986 170.82 60.7419 170.82 59.3204V58.6793C170.82 57.2508 169.672 56.1011 168.26 56.1011Z" fill="#2B2C2B"/>
<path d="M178.671 56.7979C179.701 56.7979 180.538 57.641 180.538 58.6793V59.3204C180.538 60.3586 179.701 61.2018 178.671 61.2018H178.027C176.997 61.2018 176.16 60.3586 176.16 59.3204V58.6793C176.16 57.641 176.997 56.7979 178.027 56.7979H178.671ZM178.671 56.1011H178.027C176.616 56.1011 175.468 57.2578 175.468 58.6793V59.3204C175.468 60.7419 176.616 61.8986 178.027 61.8986H178.671C180.082 61.8986 181.23 60.7419 181.23 59.3204V58.6793C181.23 57.2508 180.082 56.1011 178.671 56.1011Z" fill="#2B2C2B"/>
<path d="M157.849 67.1177C158.88 67.1177 159.717 67.9609 159.717 68.9991V69.6472C159.717 70.6855 158.88 71.5286 157.849 71.5286H157.206C156.175 71.5286 155.338 70.6855 155.338 69.6472V68.9991C155.338 67.9609 156.175 67.1177 157.206 67.1177H157.849ZM157.849 66.4209H157.206C155.795 66.4209 154.646 67.5776 154.646 68.9991V69.6472C154.646 71.0687 155.795 72.2254 157.206 72.2254H157.849C159.26 72.2254 160.409 71.0687 160.409 69.6472V68.9991C160.409 67.5776 159.267 66.4209 157.849 66.4209Z" fill="#2B2C2B"/>
<path d="M168.26 67.1177C169.291 67.1177 170.128 67.9609 170.128 68.9991V69.6472C170.128 70.6855 169.291 71.5286 168.26 71.5286H167.617C166.586 71.5286 165.749 70.6855 165.749 69.6472V68.9991C165.749 67.9609 166.586 67.1177 167.617 67.1177H168.26ZM168.26 66.4209H167.617C166.206 66.4209 165.058 67.5776 165.058 68.9991V69.6472C165.058 71.0687 166.199 72.2254 167.617 72.2254H168.26C169.672 72.2254 170.82 71.0687 170.82 69.6472V68.9991C170.82 67.5776 169.672 66.4209 168.26 66.4209Z" fill="#2B2C2B"/>
<path d="M178.671 67.1177C179.701 67.1177 180.538 67.9609 180.538 68.9991V69.6472C180.538 70.6855 179.701 71.5286 178.671 71.5286H178.027C176.997 71.5286 176.16 70.6855 176.16 69.6472V68.9991C176.16 67.9609 176.997 67.1177 178.027 67.1177H178.671ZM178.671 66.4209H178.027C176.616 66.4209 175.468 67.5776 175.468 68.9991V69.6472C175.468 71.0687 176.616 72.2254 178.027 72.2254H178.671C180.082 72.2254 181.23 71.0687 181.23 69.6472V68.9991C181.23 67.5776 180.082 66.4209 178.671 66.4209Z" fill="#2B2C2B"/>
<path d="M157.849 77.4449C158.88 77.4449 159.717 78.288 159.717 79.3263V79.9743C159.717 81.0126 158.88 81.8558 157.849 81.8558H157.206C156.175 81.8558 155.338 81.0126 155.338 79.9743V79.3263C155.338 78.288 156.175 77.4449 157.206 77.4449H157.849ZM157.849 76.748H157.206C155.795 76.748 154.646 77.9048 154.646 79.3263V79.9743C154.646 81.3958 155.795 82.5526 157.206 82.5526H157.849C159.26 82.5526 160.409 81.3958 160.409 79.9743V79.3263C160.409 77.9048 159.267 76.748 157.849 76.748Z" fill="#2B2C2B"/>
<path d="M168.26 77.4449C169.291 77.4449 170.128 78.288 170.128 79.3263V79.9743C170.128 81.0126 169.291 81.8558 168.26 81.8558H167.617C166.586 81.8558 165.749 81.0126 165.749 79.9743V79.3263C165.749 78.288 166.586 77.4449 167.617 77.4449H168.26ZM168.26 76.748H167.617C166.206 76.748 165.058 77.9048 165.058 79.3263V79.9743C165.058 81.3958 166.199 82.5526 167.617 82.5526H168.26C169.672 82.5526 170.82 81.3958 170.82 79.9743V79.3263C170.82 77.9048 169.672 76.748 168.26 76.748Z" fill="#2B2C2B"/>
<path d="M178.671 77.4449C179.701 77.4449 180.538 78.288 180.538 79.3263V79.9743C180.538 81.0126 179.701 81.8558 178.671 81.8558H178.027C176.997 81.8558 176.16 81.0126 176.16 79.9743V79.3263C176.16 78.288 176.997 77.4449 178.027 77.4449H178.671ZM178.671 76.748H178.027C176.616 76.748 175.468 77.9048 175.468 79.3263V79.9743C175.468 81.3958 176.616 82.5526 178.027 82.5526H178.671C180.082 82.5526 181.23 81.3958 181.23 79.9743V79.3263C181.23 77.9048 180.082 76.748 178.671 76.748Z" fill="#2B2C2B"/>
<path d="M157.849 91.6597C158.88 91.6597 159.717 92.5029 159.717 93.5411V94.1822C159.717 95.2204 158.88 96.0636 157.849 96.0636H157.206C156.175 96.0636 155.338 95.2204 155.338 94.1822V93.5411C155.338 92.5029 156.175 91.6597 157.206 91.6597H157.849ZM157.849 90.9629H157.206C155.795 90.9629 154.646 92.1196 154.646 93.5411V94.1822C154.646 95.6037 155.795 96.7604 157.206 96.7604H157.849C159.26 96.7604 160.409 95.6107 160.409 94.1822V93.5411C160.409 92.1196 159.267 90.9629 157.849 90.9629Z" fill="#2B2C2B"/>
<path d="M168.26 91.6597C169.291 91.6597 170.128 92.5029 170.128 93.5411V94.1822C170.128 95.2204 169.291 96.0636 168.26 96.0636H167.617C166.586 96.0636 165.749 95.2204 165.749 94.1822V93.5411C165.749 92.5029 166.586 91.6597 167.617 91.6597H168.26ZM168.26 90.9629H167.617C166.206 90.9629 165.058 92.1196 165.058 93.5411V94.1822C165.058 95.6037 166.199 96.7604 167.617 96.7604H168.26C169.672 96.7604 170.82 95.6107 170.82 94.1822V93.5411C170.82 92.1196 169.672 90.9629 168.26 90.9629Z" fill="#2B2C2B"/>
<path d="M178.671 91.6597C179.701 91.6597 180.538 92.5029 180.538 93.5411V94.1822C180.538 95.2204 179.701 96.0636 178.671 96.0636H178.027C176.997 96.0636 176.16 95.2204 176.16 94.1822V93.5411C176.16 92.5029 176.997 91.6597 178.027 91.6597H178.671ZM178.671 90.9629H178.027C176.616 90.9629 175.468 92.1196 175.468 93.5411V94.1822C175.468 95.6037 176.616 96.7604 178.027 96.7604H178.671C180.082 96.7604 181.23 95.6107 181.23 94.1822V93.5411C181.23 92.1196 180.082 90.9629 178.671 90.9629Z" fill="#2B2C2B"/>
<path d="M153.325 86.998H182.136" stroke="#2B2C2B" stroke-miterlimit="10"/>
<path d="M164.296 19.4969C164.296 21.2529 163.688 21.7755 162.657 21.7755C161.626 21.7755 161.018 21.246 161.018 19.4969C161.018 17.7479 161.626 17.1626 162.657 17.1626C163.688 17.1626 164.296 17.741 164.296 19.4969ZM161.958 19.4969C161.958 20.591 162.159 20.9812 162.664 20.9812C163.162 20.9812 163.356 20.591 163.356 19.4969C163.356 18.4029 163.169 17.957 162.664 17.957C162.159 17.957 161.958 18.4029 161.958 19.4969Z" fill="#010101"/>
<path d="M166.469 17.2461H167.32V21.6988H166.406V18.3192L165.486 18.9463L165.058 18.2216L166.469 17.2461Z" fill="#010101"/>
<path d="M176.097 19.4969C176.097 21.2529 175.489 21.7755 174.458 21.7755C173.427 21.7755 172.818 21.246 172.818 19.4969C172.818 17.7479 173.427 17.1626 174.458 17.1626C175.489 17.1626 176.097 17.741 176.097 19.4969ZM173.759 19.4969C173.759 20.591 173.96 20.9812 174.465 20.9812C174.963 20.9812 175.157 20.591 175.157 19.4969C175.157 18.4029 174.97 17.957 174.465 17.957C173.967 17.957 173.759 18.4029 173.759 19.4969Z" fill="#010101"/>
<path d="M179.846 19.4969C179.846 21.2529 179.237 21.7755 178.207 21.7755C177.176 21.7755 176.567 21.246 176.567 19.4969C176.567 17.7479 177.176 17.1626 178.207 17.1626C179.237 17.1626 179.846 17.741 179.846 19.4969ZM177.508 19.4969C177.508 20.591 177.709 20.9812 178.214 20.9812C178.719 20.9812 178.905 20.591 178.905 19.4969C178.905 18.4029 178.719 17.957 178.214 17.957C177.716 17.957 177.508 18.4029 177.508 19.4969Z" fill="#010101"/>
<path d="M253.019 6.84277H252.099C250.072 6.84277 248.433 8.50121 248.433 10.5359V11.4627C248.433 13.5044 250.079 15.1628 252.099 15.1628H253.019C255.046 15.1628 256.685 13.5044 256.685 11.4627V10.5359C256.692 8.50121 255.046 6.84277 253.019 6.84277Z" fill="#E0325F"/>
<path d="M259.812 0.696821C261.452 0.696821 262.787 2.04168 262.787 3.69315V8.09009C262.787 9.74155 261.452 11.0864 259.812 11.0864H255.447C253.808 11.0864 252.473 9.74155 252.473 8.09009V3.69315C252.473 2.04168 253.808 0.696821 255.447 0.696821H259.812ZM259.812 0H255.447C253.421 0 251.781 1.65843 251.781 3.69315V8.09009C251.781 10.1318 253.421 11.7832 255.447 11.7832H259.812C261.839 11.7832 263.479 10.1248 263.479 8.09009V3.69315C263.486 1.65843 261.839 0 259.812 0Z" fill="#2B2C2B"/>
<path d="M124.936 38.2635L126.686 33.769H129.315L126.568 40.0056L131.003 45.9913H128.187L125.289 41.7685L123.497 45.9913H120.869L123.663 40.131L119.181 33.769H121.996L124.936 38.2635Z" fill="#2B2C2B"/>
<path d="M133.327 38.7849H136.433L136.018 35.7607H138.225L138.64 38.7849H141.787L142.085 40.9451H138.937L139.359 44.0041H137.152L136.731 40.9451H133.625L133.327 38.7849Z" fill="#2B2C2B"/>
<path d="M152.336 45.9973H149.797L149.112 41.0498L144.242 33.7681H147.058L150.032 38.6458L151.658 33.7681H154.473L151.651 41.0498L152.336 45.9973Z" fill="#2B2C2B"/>
<path d="M158.229 36.9243H166.399L166.703 39.0984H158.534L158.229 36.9243ZM158.748 40.6662H166.918L167.215 42.8403H159.046L158.748 40.6662Z" fill="#2B2C2B"/>
<path d="M176.035 39.8303C174.866 40.7989 174.839 41.1473 174.908 41.649L174.984 42.2065H173.019C173.019 42.2065 172.362 41.5933 172.224 40.5689C172.162 40.1021 172.445 39.6491 173.317 38.8757C174.534 37.8165 174.679 37.5447 174.59 36.8828C174.507 36.2695 174.112 35.8236 172.881 35.8236C171.65 35.8236 170.273 36.1093 170.273 36.1093L169.893 34.2975C169.893 34.2975 171.387 33.6704 172.936 33.6704C175.586 33.6704 176.831 34.5484 177.114 36.618C177.329 38.2485 177.177 38.8896 176.035 39.8303ZM172.749 43.2099H175.399L175.8 46.1017H173.151L172.749 43.2099Z" fill="#2B2C2B"/>
<path d="M349.586 6.84277H291.916C285.614 6.84277 280.509 11.9923 280.509 18.3333V58.0661L293.119 48.5963H349.586C355.888 48.5963 360.993 43.4468 360.993 37.0987V18.3333C361 11.9923 355.888 6.84277 349.586 6.84277Z" fill="#E96F8F"/>
<path d="M310.171 28.3816C310.171 30.6323 308.358 32.458 306.124 32.458C303.89 32.458 302.077 30.6323 302.077 28.3816C302.077 26.1308 303.89 24.3052 306.124 24.3052C308.358 24.3052 310.171 26.1308 310.171 28.3816Z" fill="white"/>
<path d="M325.376 28.3816C325.376 30.6323 323.563 32.458 321.336 32.458C319.101 32.458 317.289 30.6323 317.289 28.3816C317.289 26.1308 319.101 24.3052 321.336 24.3052C323.563 24.3052 325.376 26.1308 325.376 28.3816Z" fill="white"/>
<path d="M336.54 32.458C338.775 32.458 340.587 30.6329 340.587 28.3816C340.587 26.1302 338.775 24.3052 336.54 24.3052C334.305 24.3052 332.493 26.1302 332.493 28.3816C332.493 30.6329 334.305 32.458 336.54 32.458Z" fill="white"/>
<path d="M62.9553 94.1821L86.5853 107.317C89.0755 108.704 89.2969 112.209 86.9865 113.679L64.5878 127.957C62.2082 129.469 58.9847 127.699 58.8533 124.807L57.622 97.3945C57.4975 94.5654 60.4443 92.7885 62.9553 94.1821Z" fill="#E0325F"/>
<path opacity="0.3" d="M141.607 159.502C140.77 159.809 139.877 159.976 138.957 159.976H7.49158C3.63165 159.976 0.69174 157.042 0.66407 153.175L0.304364 81.5419L0.262859 74.1069L0.255942 73.4797C0.235189 68.9852 4.13662 65.0552 8.61912 65.0552H140.078C140.673 65.0552 141.24 65.1249 141.787 65.2573C144.775 65.975 146.885 68.5881 146.899 71.8561L146.906 74.1069L146.947 81.5419L147.321 151.552C147.327 155.126 144.872 158.339 141.607 159.502Z" fill="white"/>
<path d="M141.606 159.502C140.769 159.809 139.877 159.976 138.957 159.976H138.32L138.334 153.015L138.348 150.36L138.521 65.062H140.084C140.679 65.062 141.246 65.1317 141.793 65.2641L141.62 150.36V153.015L141.606 159.502Z" fill="white"/>
<path d="M134.724 159.969H126.894L126.9 153.015L126.914 150.36L127.087 65.0552H134.918L134.752 150.36L134.738 153.015L134.724 159.969Z" fill="white"/>
<path d="M141.607 159.502C140.77 159.809 139.877 159.976 138.957 159.976H7.49158C3.63165 159.976 0.69174 157.042 0.66407 153.175L0.304364 81.5419L0.262859 74.1069L0.255942 73.4797C0.235189 68.9852 4.13662 65.0552 8.61912 65.0552H140.078C140.673 65.0552 141.24 65.1249 141.787 65.2573C144.775 65.975 146.885 68.5881 146.899 71.8561L146.906 74.1069L146.947 81.5419L147.321 151.552C147.327 155.126 144.872 158.339 141.607 159.502Z" stroke="#2B2C2B" stroke-width="0.75" stroke-miterlimit="10"/>
<path d="M7.5957 153.015H143.385L143.482 150.36H7.69255L7.5957 153.015Z" fill="white"/>
<path d="M23.485 153.008H7.5957L7.69255 150.36H23.1323C23.0838 150.618 23.0562 150.869 23.0492 151.14C23.0492 151.802 23.2014 152.45 23.485 153.008Z" fill="#D83D4B"/>
<path d="M31.426 151.133C31.4191 151.816 31.2669 152.443 30.9833 153.008C30.2846 154.408 28.8527 155.356 27.2202 155.356C25.5669 155.356 24.1558 154.395 23.4848 153.008C23.2012 152.45 23.049 151.802 23.0559 151.133C23.0628 150.869 23.0836 150.611 23.1389 150.353C23.4917 148.409 25.2141 146.911 27.2548 146.911C29.3092 146.911 31.004 148.395 31.3637 150.353C31.4052 150.611 31.426 150.869 31.426 151.133Z" fill="white"/>
<path d="M28.8596 151.14C28.8527 152.046 28.1263 152.778 27.2271 152.778C26.3278 152.778 25.6084 152.046 25.6084 151.14C25.6153 150.235 26.3416 149.503 27.2409 149.503C28.1402 149.503 28.8665 150.235 28.8596 151.14Z" fill="#D83D4B"/>
</g>
<defs>
<clipPath id="clip0_2557_20301">
<rect width="361" height="391" fill="white"/>
</clipPath>
</defs>
</svg>
