<svg width="1289" height="707" viewBox="0 0 1289 707" fill="none" xmlns="http://www.w3.org/2000/svg">
<path d="M1289 0H8V707H1289V0Z" fill="url(#paint0_linear_2714_32337)"/>
<path d="M440.5 706C531.08 707.23 725.43 705.09 816.01 706.33C819.05 706.37 828.95 705.5 812.44 694.86C798.46 685.84 754.26 693.96 754.26 693.96C754.26 693.96 764.55 689.83 764.5 684.51C764.45 679.19 760.42 674.51 755.57 672.3C750.73 670.09 745.21 669.93 739.9 670.24C729.09 670.86 718.37 673.26 708.33 677.3C712.59 674.68 713.89 668.25 710.98 664.18C708.07 660.11 701.57 659.25 697.71 662.44C704.5 653.25 714.99 612.51 682.74 594.55C642.31 572.04 611.61 590.56 605.06 604.11C601.74 590.81 586.48 580.75 576.43 578.25C553.52 572.56 538.59 574.25 517.2 584.24C509.63 587.77 499.5 599.84 494.47 606.51C486.58 616.94 485.36 630.83 484.92 643.9C484.6 653.71 415 661 423.5 677.5C432 694 440.5 706 440.5 706Z" fill="#D1F4FC"/>
<path d="M440 706C362 706 148.254 705.132 81.904 706.032C-97.786 708.469 72.434 705.422 84.524 697.632C94.764 691.032 127.144 696.972 127.144 696.972C127.144 696.972 119.604 693.952 119.644 690.052C119.674 686.152 122.634 682.722 126.184 681.112C129.734 679.492 133.774 679.372 137.664 679.602C145.584 680.052 153.434 681.812 160.794 684.782C157.674 682.862 156.724 678.152 158.854 675.172C160.984 672.192 165.744 671.562 168.574 673.892C163.604 667.162 155.914 637.312 179.544 624.162C209.154 607.672 231.654 621.242 236.444 631.162C238.874 621.422 250.054 614.052 257.414 612.222C274.204 608.052 285.134 609.292 300.804 616.612C306.344 619.202 313.774 628.042 317.454 632.922C323.224 640.572 324.124 650.742 324.444 660.322C324.444 660.322 368.824 603.962 403.654 646.542" fill="#D1F4FC"/>
<path d="M219.814 415.612C213.946 415.612 208.662 418.069 204.898 422.017C200.889 412.272 191.35 405.42 180.222 405.42C165.458 405.408 153.5 417.449 153.5 432.301C153.5 432.875 153.547 433.438 153.582 434H240.375C239.16 423.647 230.428 415.612 219.814 415.612Z" fill="white"/>
<path d="M649.989 388.688C645.36 388.688 641.187 390.628 638.253 393.704C635.997 376.395 620.976 363 602.729 363C585.078 363 570.443 375.534 567.474 392.028C564.75 389.939 561.325 388.676 557.585 388.676C548.701 388.676 541.5 395.747 541.5 404.47H666.073C666.073 395.758 658.873 388.688 649.989 388.688Z" fill="white"/>
<path d="M1215.39 631.352C1209.89 631.352 1204.93 633.644 1201.45 637.279C1198.77 616.827 1180.92 601 1159.24 601C1138.27 601 1120.89 615.81 1117.36 635.299C1114.12 632.83 1110.05 631.339 1105.61 631.339C1095.05 631.339 1086.5 639.693 1086.5 650H1234.5C1234.5 639.706 1225.95 631.352 1215.39 631.352Z" fill="white"/>
<path d="M971.391 170.352C965.891 170.352 960.933 172.644 957.448 176.279C954.767 155.827 936.922 140 915.243 140C894.273 140 876.886 154.81 873.358 174.299C870.122 171.83 866.053 170.339 861.609 170.339C851.055 170.339 842.5 178.693 842.5 189H990.5C990.5 178.706 981.945 170.352 971.391 170.352Z" fill="#D2F5FE"/>
<path d="M1253.69 274.486C1250.86 274.486 1248.32 275.655 1246.53 277.51C1245.15 267.075 1235.99 259 1224.85 259C1214.09 259 1205.16 266.556 1203.35 276.499C1201.68 275.24 1199.59 274.479 1197.31 274.479C1191.89 274.479 1187.5 278.741 1187.5 284H1263.5C1263.5 278.748 1259.11 274.486 1253.69 274.486Z" fill="#D2F5FE"/>
<path d="M1026.65 178.725C1023.53 178.725 1020.72 179.988 1018.74 181.99C1017.22 170.721 1007.09 162 994.787 162C982.885 162 973.016 170.161 971.014 180.899C969.178 179.539 966.868 178.717 964.346 178.717C958.355 178.717 953.5 183.321 953.5 189H1037.5C1037.5 183.328 1032.64 178.725 1026.65 178.725Z" fill="#D1F5FE"/>
<defs>
<linearGradient id="paint0_linear_2714_32337" x1="644.5" y1="-258.068" x2="636.963" y2="892.529" gradientUnits="userSpaceOnUse">
<stop stop-color="white"/>
<stop offset="0.248779" stop-color="white"/>
<stop offset="0.78912" stop-color="#DAF8FF"/>
<stop offset="0.963776" stop-color="#D5ECFA"/>
<stop offset="1" stop-color="#E0F3FF"/>
</linearGradient>
</defs>
</svg>
