<svg id="Layer_1" data-name="Layer 1" xmlns="http://www.w3.org/2000/svg" viewBox="0 0 676.36 116.86"><defs><style>.cls-1{fill:#2c90ca;}.cls-2{fill:#ee313a;}</style></defs><path class="cls-1" d="M115.7,224.25a23.81,23.81,0,1,0,0,47.62c6.86,0,14.13-3.18,19.46-8.4l8.09,9c-7.38,7.48-17.92,12.29-28.27,12.29-21.09,0-37.38-15.87-37.38-36.56,0-20.48,16.49-36.15,37.9-36.15a39.79,39.79,0,0,1,27.64,11.47l-8,10c-5.12-5.74-12.39-9.32-19.46-9.32" transform="translate(-77.6 -208.17)"/><path class="cls-1" d="M186.26,284.16V277.5c-3.79,4.81-9.94,7.27-17.72,7.27-11.78,0-19.15-7.27-19.15-17,0-10.14,7.47-16.39,20.79-16.49h16v-1.43c0-6.35-4.2-10.14-12.39-10.14-5.12,0-10.65,1.74-16.28,5.12l-4.81-9.21c7.88-4.41,14-6.76,24.06-6.76,14.34,0,22.43,7.27,22.53,19.45l.1,35.85Zm-.11-19.05v-4.92H172.33c-7.07,0-10.34,1.95-10.34,6.76,0,4.61,3.68,7.58,9.72,7.58,7.68,0,13.72-4.1,14.44-9.42" transform="translate(-77.6 -208.17)"/><path class="cls-1" d="M246.26,228.86v12.9c-11.57-.72-18.64,6-18.64,16v26.43H214.31V229.37h13.31v10.55c3.69-7.17,10.14-11,18.64-11.06" transform="translate(-77.6 -208.17)"/><path class="cls-1" d="M304.63,261.42H264.18c1.74,7.78,7.68,12.49,15.67,12.49a20.38,20.38,0,0,0,14.75-6.14l7.16,7.48c-5.42,5.94-13.41,9.42-23,9.42-17,0-28.16-11.27-28.16-27.75,0-16.7,11.47-28,27.86-28,19.25,0,27.54,12.59,26.21,32.46m-12.08-8.91c-.31-8.09-5.74-13.21-14-13.21-7.89,0-13.42,5.12-14.65,13.21Z" transform="translate(-77.6 -208.17)"/><path class="cls-1" d="M365.25,261.42H324.8c1.74,7.78,7.68,12.49,15.67,12.49a20.37,20.37,0,0,0,14.75-6.14l7.17,7.48c-5.43,5.94-13.42,9.42-23.05,9.42-17,0-28.16-11.27-28.16-27.75,0-16.7,11.47-28,27.86-28,19.25,0,27.54,12.59,26.21,32.46m-12.08-8.91c-.31-8.09-5.74-13.21-14-13.21-7.89,0-13.42,5.12-14.65,13.21Z" transform="translate(-77.6 -208.17)"/><path class="cls-1" d="M408.77,228.86v12.9c-11.57-.72-18.64,6-18.64,16v26.43H376.82V229.37h13.31v10.55c3.69-7.17,10.14-11,18.64-11.06" transform="translate(-77.6 -208.17)"/><path class="cls-1" d="M434.47,239.2c-4.3,0-7.37,1.43-7.37,4.81,0,9.22,29,4.41,29,24.07,0,11.16-9.93,16.59-21.61,16.59-8.29,0-16.89-2.66-22.63-7.68l4.61-9.32A30.61,30.61,0,0,0,435,274.43c4.6,0,8.09-1.54,8.09-5.12,0-10.14-28.58-4.61-28.47-24.07,0-11.26,9.62-16.49,20.68-16.49a36.86,36.86,0,0,1,20.07,5.84l-4.81,9.63c-5.32-3.18-11.37-5-16.08-5" transform="translate(-77.6 -208.17)"/><path class="cls-2" d="M500.42,224.25a23.81,23.81,0,1,0,0,47.62c6.86,0,14.13-3.18,19.46-8.4l8.09,9c-7.38,7.48-17.92,12.29-28.27,12.29-21.09,0-37.37-15.87-37.37-36.56,0-20.48,16.48-36.15,37.89-36.15a39.83,39.83,0,0,1,27.65,11.47l-8,10c-5.12-5.74-12.39-9.32-19.46-9.32" transform="translate(-77.6 -208.17)"/><rect class="cls-2" x="461.63" width="13.31" height="75.99"/><path class="cls-2" d="M622.38,256.71c0,16.69-11.67,28-28.78,28-17.3,0-29-11.27-29-28S576.3,229,593.6,229c17.11,0,28.78,11.16,28.78,27.75m-44.34.21c0,9.83,6.35,16.59,15.56,16.59,9,0,15.37-6.76,15.37-16.59s-6.35-16.59-15.37-16.59c-9.21,0-15.56,6.76-15.56,16.59" transform="translate(-77.6 -208.17)"/><path class="cls-2" d="M684.54,229.37v54.79H671.12V274c-3.79,7.27-10.34,10.65-19,10.65-12.28,0-19.86-8.09-19.86-21v-34.3h13.41v30.41c0,7.68,4.41,12.29,11.78,12.29,8.6-.1,13.72-6.86,13.72-15.67v-27Z" transform="translate(-77.6 -208.17)"/><path class="cls-2" d="M754,208.17v76H740.65v-8.81c-3.89,6-10.24,9.42-18.43,9.42-15.67,0-26.12-11.47-26.12-28.16s10.45-27.75,25.81-27.75c8.4,0,14.75,3.37,18.74,9.52V208.17Zm-13.32,48.75c0-9.83-6.35-16.7-15.56-16.7s-15.47,7-15.57,16.7c.1,9.83,6.35,16.69,15.57,16.69s15.56-6.86,15.56-16.69" transform="translate(-77.6 -208.17)"/><path class="cls-1" d="M187.69,300.78a1.72,1.72,0,0,1,1.72-1.73,1.72,1.72,0,0,1,1.72,1.73v20.81h12.05a1.72,1.72,0,0,1,1.72,1.72,1.74,1.74,0,0,1-1.72,1.73H189.41a1.83,1.83,0,0,1-.68-.13,1.72,1.72,0,0,1-.55-.37,1.6,1.6,0,0,1-.36-.54,1.73,1.73,0,0,1-.13-.69Z" transform="translate(-77.6 -208.17)"/><path class="cls-1" d="M240.56,321.59a1.72,1.72,0,0,1,0,3.44h-15a1.92,1.92,0,0,1-.69-.12,1.79,1.79,0,0,1-.54-.37A1.54,1.54,0,0,1,224,324a1.65,1.65,0,0,1-.14-.68V300.78a1.72,1.72,0,0,1,.14-.68,1.54,1.54,0,0,1,.36-.55,1.79,1.79,0,0,1,.54-.37,1.93,1.93,0,0,1,.69-.13h15a1.73,1.73,0,0,1,0,3.45h-13.3v7.82h9.54a1.73,1.73,0,0,1,0,3.45h-9.54v7.82Z" transform="translate(-77.6 -208.17)"/><path class="cls-1" d="M261.42,322.53l8.67-22.31a1.73,1.73,0,0,1,1.64-1.17,1.68,1.68,0,0,1,1.64,1.17l8.71,22.4a1.93,1.93,0,0,1,.13.69,1.74,1.74,0,0,1-1.73,1.73,1.61,1.61,0,0,1-1.2-.51,2,2,0,0,1-.39-.55l-3-7.71h-8.31l-3,7.71a2,2,0,0,1-.39.55A1.67,1.67,0,0,1,263,325a1.62,1.62,0,0,1-1.21-.51,1.67,1.67,0,0,1-.5-1.22,1.85,1.85,0,0,1,.18-.78m13.14-9.71-2.83-7.29-2.82,7.29Z" transform="translate(-77.6 -208.17)"/><path class="cls-1" d="M301.22,323.31V300.77a1.7,1.7,0,0,1,.13-.67,1.72,1.72,0,0,1,.37-.55,1.58,1.58,0,0,1,.54-.37,1.87,1.87,0,0,1,.68-.13h6.27a7.7,7.7,0,0,1,3.09.64,7.93,7.93,0,0,1,2.53,1.72,8.14,8.14,0,0,1,1.72,2.54,7.69,7.69,0,0,1,.63,3.09,8.1,8.1,0,0,1-.27,2.09,7.57,7.57,0,0,1-2.11,3.59,8.69,8.69,0,0,1-1.82,1.35l5.18,8.3a1.82,1.82,0,0,1,.27.94,1.73,1.73,0,0,1-.13.69,1.67,1.67,0,0,1-.92.91,1.86,1.86,0,0,1-.67.13,1.73,1.73,0,0,1-1.48-.85L309.5,315h-4.84v8.29a1.72,1.72,0,1,1-3.44,0m3.44-20.81v9.07h4.55a4.35,4.35,0,0,0,3.2-1.34,4.62,4.62,0,0,0,1-1.44,4.32,4.32,0,0,0,.36-1.75,4.45,4.45,0,0,0-.36-1.77,4.62,4.62,0,0,0-1-1.44,4.7,4.7,0,0,0-1.45-1,4.48,4.48,0,0,0-1.75-.35Z" transform="translate(-77.6 -208.17)"/><path class="cls-1" d="M337.36,323.31V300.78a1.91,1.91,0,0,1,.13-.68,1.72,1.72,0,0,1,.37-.55,1.79,1.79,0,0,1,.54-.37,1.93,1.93,0,0,1,.69-.13,1.77,1.77,0,0,1,1.33.64l14.48,18.62V300.78a1.72,1.72,0,0,1,2.94-1.22,1.63,1.63,0,0,1,.5,1.22v22.53a1.73,1.73,0,0,1-.13.69,1.6,1.6,0,0,1-.36.54,1.72,1.72,0,0,1-.55.37,1.91,1.91,0,0,1-.68.13,1.73,1.73,0,0,1-1.31-.61l-14.5-18.62v17.5a1.73,1.73,0,0,1-3.45,0" transform="translate(-77.6 -208.17)"/><path class="cls-1" d="M421.74,302.5h-6.42v20.81a1.72,1.72,0,1,1-3.44,0V302.5h-6.41a1.73,1.73,0,0,1,0-3.45h16.27a1.73,1.73,0,0,1,0,3.45" transform="translate(-77.6 -208.17)"/><path class="cls-1" d="M465.09,312.05a13,13,0,1,1-3.82-9.18,12.4,12.4,0,0,1,3.82,9.18m-13-9.55a9.36,9.36,0,0,0-3.68.7,9.41,9.41,0,0,0-5.87,8.85,9.54,9.54,0,1,0,9.55-9.55" transform="translate(-77.6 -208.17)"/><path class="cls-1" d="M510.6,300.78a1.73,1.73,0,0,1,3.45,0v20.81h12a1.72,1.72,0,0,1,1.73,1.72,1.74,1.74,0,0,1-1.73,1.73H512.33a1.93,1.93,0,0,1-.69-.13,1.78,1.78,0,0,1-.91-.91,1.93,1.93,0,0,1-.13-.69Z" transform="translate(-77.6 -208.17)"/><path class="cls-1" d="M563.47,321.59a1.72,1.72,0,1,1,0,3.44h-15a1.87,1.87,0,0,1-.68-.12,1.79,1.79,0,0,1-.54-.37,1.72,1.72,0,0,1-.37-.55,1.83,1.83,0,0,1-.13-.68V300.78a1.91,1.91,0,0,1,.13-.68,1.72,1.72,0,0,1,.37-.55,1.79,1.79,0,0,1,.54-.37,1.87,1.87,0,0,1,.68-.13h15a1.73,1.73,0,0,1,0,3.45H550.18v7.82h9.54a1.65,1.65,0,0,1,1.22.51,1.73,1.73,0,0,1,0,2.43,1.65,1.65,0,0,1-1.22.51h-9.54v7.82Z" transform="translate(-77.6 -208.17)"/><path class="cls-1" d="M584.34,322.53,593,300.22a1.72,1.72,0,0,1,1.64-1.17,1.68,1.68,0,0,1,1.64,1.17l8.7,22.4a1.73,1.73,0,0,1,.13.69,1.63,1.63,0,0,1-.5,1.22,1.65,1.65,0,0,1-1.22.51,1.61,1.61,0,0,1-1.2-.51,2,2,0,0,1-.39-.55l-3-7.71h-8.32l-3,7.71a1.82,1.82,0,0,1-1.6,1.06,1.62,1.62,0,0,1-1.21-.51,1.67,1.67,0,0,1-.5-1.22,1.85,1.85,0,0,1,.18-.78m13.13-9.71-2.82-7.29-2.83,7.29Z" transform="translate(-77.6 -208.17)"/><path class="cls-1" d="M630.89,299.05a12.55,12.55,0,0,1,9.18,3.82,13.11,13.11,0,0,1,2.86,4.18,12.69,12.69,0,0,1,1,5,13,13,0,0,1-13,13h-5a1.67,1.67,0,0,1-.67-.13,2.18,2.18,0,0,1-.56-.37,1.71,1.71,0,0,1-.51-1.22V300.78a1.71,1.71,0,0,1,.51-1.22,2,2,0,0,1,.56-.37,1.67,1.67,0,0,1,.67-.14Zm0,22.54a9.19,9.19,0,0,0,6.74-2.79,9.53,9.53,0,0,0,2.11-3.08,9.31,9.31,0,0,0,.7-3.67,9.59,9.59,0,0,0-9.55-9.55h-3.28v19.09Z" transform="translate(-77.6 -208.17)"/></svg>