<svg id="Layer_1" data-name="Layer 1" xmlns="http://www.w3.org/2000/svg" viewBox="0 0 446.97 354.65"><defs><style>.cls-1{fill:#ee313a;}.cls-2{fill:#2c90ca;}</style></defs><path class="cls-1" d="M396.26,329.2l-81.12,21.32a69.72,69.72,0,0,0-23.27-22.93,49.26,49.26,0,0,0,3.4-59.42V242.34h14L324.46,219v25.39a12.77,12.77,0,1,0,4.07-.11V212.78H206.22l-20,29.56h25.87v28a49.22,49.22,0,0,0,4.78,57.22,69.78,69.78,0,0,0-23.26,22.93L112.53,329.2l47.09,107.53-21.19-82.8,109.49,26.92,6.47,50.78,6.48-50.78,109.49-26.92-21.19,82.8Zm-137.42-.53a37.47,37.47,0,0,1-34-53.18c15.29,5.85,45,9.24,63.18-1.74h4a37.47,37.47,0,0,1-33.16,54.92" transform="translate(-32.51 -82.08)"/><path class="cls-2" d="M446.38,179.79A119.44,119.44,0,0,0,342,144.23a104.35,104.35,0,0,0-198.21,24.11c-1.51-.1-3-.2-4.54-.23A104.36,104.36,0,0,0,82.11,361.28a15.89,15.89,0,1,0,16.7-27A72.92,72.92,0,0,1,73.38,307.6,72.57,72.57,0,0,1,154.31,202,15.88,15.88,0,0,0,174,186.55c0-1,0-1.59,0-1.76a72.57,72.57,0,0,1,142.45-17.87,15.89,15.89,0,0,0,19.64,11,87.76,87.76,0,0,1,100.62,127A88.32,88.32,0,0,1,409.22,335a15.89,15.89,0,1,0,17.86,26.29,119.51,119.51,0,0,0,19.3-181.45" transform="translate(-32.51 -82.08)"/></svg>