<svg width="263" height="263" viewBox="0 0 263 263" fill="none" xmlns="http://www.w3.org/2000/svg">
<path d="M111.683 64.448C106.975 65.3685 101.82 68.4193 97.7703 75.5729C97.3437 76.3241 96.7734 76.9839 96.0919 77.5147C95.4103 78.0455 94.6309 78.4368 93.7981 78.6664C92.9653 78.896 92.0955 78.9592 91.2382 78.8526C90.381 78.746 89.5531 78.4716 88.8019 78.0451C88.0508 77.6186 87.3909 77.0482 86.8601 76.3667C86.3294 75.6852 85.938 74.9057 85.7085 74.073C85.4789 73.2402 85.4156 72.3703 85.5222 71.5131C85.6288 70.6558 85.9032 69.828 86.3298 69.0768C92.1289 58.8724 100.374 53.2573 109.158 51.5478C117.332 50.0042 125.785 51.7071 132.723 56.295C139.088 60.503 144.229 67.3804 144.387 75.6255C144.558 84.2387 139.324 92.0104 129.672 97.7175C123.123 101.584 120.572 104.214 119.481 105.963C118.56 107.435 118.35 108.777 118.35 111.775C118.35 113.519 117.657 115.191 116.424 116.424C115.191 117.657 113.519 118.35 111.775 118.35C110.031 118.35 108.359 117.657 107.126 116.424C105.893 115.191 105.2 113.519 105.2 111.775C105.2 108.198 105.384 103.753 108.317 99.0193C111.078 94.5878 115.799 90.6428 122.979 86.3953C130.014 82.2268 131.29 78.2686 131.25 75.9016C131.184 73.1796 129.383 69.8526 125.464 67.2621C121.407 64.5779 116.468 63.5694 111.683 64.448Z" fill="#E5704B"/>
<path d="M115.062 151.225C117.678 151.225 120.187 150.186 122.036 148.336C123.886 146.487 124.925 143.978 124.925 141.363C124.925 138.747 123.886 136.238 122.036 134.389C120.187 132.539 117.678 131.5 115.062 131.5C112.447 131.5 109.938 132.539 108.089 134.389C106.239 136.238 105.2 138.747 105.2 141.363C105.2 143.978 106.239 146.487 108.089 148.336C109.938 150.186 112.447 151.225 115.062 151.225Z" fill="#E5704B"/>
<path d="M111.775 13.1499C96.8694 13.1464 82.2219 17.0409 69.2863 24.4469C56.3506 31.8529 45.5766 42.5129 38.0333 55.369C30.4901 68.2251 26.4399 82.8303 26.2847 97.7351C26.1296 112.64 29.8748 127.326 37.1488 140.337L26.6945 167.715C25.8244 169.991 25.6037 172.464 26.057 174.858C26.5103 177.252 27.6199 179.473 29.2619 181.273C30.9038 183.073 33.0137 184.382 35.356 185.053C37.6984 185.724 40.1811 185.731 42.5271 185.073L75.2312 175.907C86.8162 181.381 99.4836 184.181 112.296 184.098C125.109 184.016 137.74 181.054 149.253 175.431C160.767 169.809 170.869 161.67 178.813 151.616C186.757 141.563 192.338 129.852 195.145 117.35C197.952 104.848 197.913 91.8755 195.03 79.3911C192.146 66.9066 186.493 55.2301 178.488 45.2252C170.484 35.2203 160.332 27.1431 148.784 21.5911C137.236 16.039 124.588 13.1542 111.775 13.1499ZM39.45 98.6249C39.4559 82.8637 44.6102 67.5358 54.1286 54.9734C63.6471 42.411 77.0087 33.3017 92.1804 29.0317C107.352 24.7616 123.504 25.5644 138.177 31.3179C152.851 37.0715 165.243 47.4609 173.469 60.9053C181.695 74.3497 185.303 90.1131 183.746 105.797C182.189 121.481 175.551 136.227 164.842 147.792C154.134 159.357 139.94 167.106 124.422 169.862C108.904 172.618 92.9097 170.23 78.8737 163.06L76.5856 161.876L38.9766 172.41L51.719 139.061L50.0358 136.3C43.0945 124.96 39.4304 111.92 39.45 98.6249Z" fill="#E5704B"/>
<path d="M150.739 223.55C138.434 223.563 126.273 220.914 115.089 215.784C103.906 210.655 93.9646 203.165 85.9485 193.831C93.3519 195.843 101.11 197 109.092 197.21C121.273 205.814 135.826 210.423 150.739 210.4C162.6 210.4 173.777 207.546 183.64 202.51L185.928 201.326L223.537 211.86L210.795 178.511L212.478 175.75C219.184 164.782 223.064 151.895 223.064 138.075C223.084 123.472 218.663 109.209 210.387 97.1783C210.279 89.3553 209.242 81.5729 207.297 73.9949C216.395 82.0064 223.68 91.8659 228.667 102.916C233.653 113.966 236.226 125.952 236.214 138.075C236.214 153.21 232.269 167.439 225.352 179.787L235.819 207.165C236.688 209.44 236.908 211.911 236.455 214.303C236.002 216.695 234.894 218.915 233.254 220.715C231.614 222.514 229.506 223.823 227.166 224.496C224.826 225.168 222.345 225.178 220 224.523L187.282 215.357C176.197 220.617 163.796 223.55 150.725 223.55H150.739Z" fill="#E5704B"/>
</svg>
