<svg width="139" height="139" viewBox="0 0 139 139" fill="none" xmlns="http://www.w3.org/2000/svg">
<path d="M69.0647 138.129C107.208 138.129 138.129 107.208 138.129 69.0647C138.129 30.9213 107.208 0 69.0647 0C30.9213 0 0 30.9213 0 69.0647C0 107.208 30.9213 138.129 69.0647 138.129Z" fill="#20BE79"/>
<path d="M103.069 39.9403C103.966 40.6526 91.0393 58.0111 74.2612 78.6936C70.6734 83.0464 67.2439 87.2146 64.0782 91.0398L62.68 92.7281L61.1763 91.1981C48.0651 77.6911 39.0956 67.6401 39.7288 67.0069C40.3619 66.3738 50.3866 75.3169 63.9199 88.4545L61.0444 88.6127C64.1573 84.7348 67.5077 80.5139 71.0427 76.1347C87.8472 55.3994 102.198 39.2016 103.069 39.9403Z" fill="white"/>
</svg>
