<svg width="334" height="89" viewBox="0 0 334 89" fill="none" xmlns="http://www.w3.org/2000/svg">
<path d="M0 39C0 36.7909 1.79086 35 4 35H330C332.209 35 334 36.7909 334 39V85C334 87.2091 332.209 89 330 89H4.00001C1.79087 89 0 87.2091 0 85V39Z" fill="#FFFBE6"/>
<path d="M163.505 45.0105C175.935 45.0105 186.011 34.9346 186.011 22.5053C186.011 10.076 175.935 0 163.505 0C151.076 0 141 10.076 141 22.5053C141 34.9346 151.076 45.0105 163.505 45.0105Z" fill="#FADA52"/>
<path d="M163.421 40.2587C173.22 40.2587 181.164 32.3149 181.164 22.5158C181.164 12.7167 173.22 4.77289 163.421 4.77289C153.622 4.77289 145.678 12.7167 145.678 22.5158C145.678 32.3149 153.622 40.2587 163.421 40.2587Z" fill="#F68A1F"/>
<path d="M164.032 40.1217C173.314 40.1217 180.838 32.7346 180.838 23.6221C180.838 14.5096 173.314 7.12245 164.032 7.12245C154.751 7.12245 147.227 14.5096 147.227 23.6221C147.227 32.7346 154.751 40.1217 164.032 40.1217Z" fill="#FCAF17"/>
<path d="M164.074 12.243C164.074 12.243 160.618 11.0524 157.7 16.7631C152.516 18.491 150.135 21.1461 154.381 26.056C154.518 27.6469 164.474 40.1323 164.474 40.1323C164.474 40.1323 178.287 40.1323 180.943 24.8548C176.033 19.808 171.249 15.425 171.249 15.425C171.249 15.425 169.785 15.9518 168.331 15.6884C166.856 15.4355 163.674 12.5064 164.074 12.243Z" fill="#F68A1F"/>
<path d="M170.744 24.8654L166.392 26.0138C166.087 25.5186 165.655 25.0866 165.138 24.7811C165.528 24.3175 165.77 23.7169 165.77 23.0637C165.77 22.5158 165.602 22.0101 165.317 21.5886V20.1978H166.076L166.887 18.944V20.3032C166.571 20.3664 166.329 20.6404 166.329 20.9775C166.329 21.3568 166.634 21.6624 167.014 21.6624C167.393 21.6624 167.699 21.3568 167.699 20.9775C167.699 20.6298 167.435 20.3454 167.109 20.3032V18.6069H160.545L159.47 20.1978H160.861V21.7045C160.618 22.1049 160.481 22.5685 160.481 23.0637C160.481 23.7169 160.724 24.3175 161.113 24.7811C160.608 25.0866 160.176 25.5081 159.87 26.0138L155.519 24.8654L158.047 30.6392L156.91 26.1929L162.789 27.6364L163.126 30.3547L163.474 27.6258L169.353 26.1824L168.215 30.6287L170.744 24.8654ZM163.368 24.8338C162.262 24.8338 161.356 23.9382 161.356 22.8214C161.356 22.5158 161.419 22.2313 161.545 21.9785C162.367 22.2945 163.958 22.4737 164.938 21.8836H165.149C165.296 22.1681 165.381 22.4842 165.381 22.8214C165.381 23.9276 164.485 24.8338 163.368 24.8338Z" fill="#FEDE00"/>
<path d="M173.431 16.8473C172.303 15.6568 170.712 14.9087 168.942 14.8665C168.563 14.856 168.194 14.8876 167.825 14.9403C167.457 14.0974 166.888 13.3704 166.171 12.812C165.254 12.085 164.095 11.6425 162.831 11.6109C161.293 11.5793 159.87 12.1693 158.838 13.1597C157.995 13.9604 157.405 15.0351 157.194 16.2362C157.11 16.2362 157.036 16.2257 156.952 16.2257C155.414 16.1941 153.991 16.7841 152.959 17.7745C151.926 18.7649 151.262 20.1557 151.231 21.694C151.21 22.7265 151.463 23.6959 151.926 24.5388C152.39 25.3816 153.064 26.0876 153.886 26.5933C154.286 26.8356 154.813 26.7197 155.055 26.3194C155.298 25.919 155.182 25.3922 154.781 25.1499C154.213 24.8022 153.738 24.307 153.422 23.7169C153.096 23.1374 152.917 22.4631 152.938 21.7467C152.959 20.672 153.422 19.7132 154.139 19.0178C154.866 18.3329 155.835 17.9115 156.92 17.9431C157.215 17.9536 157.489 17.9853 157.763 18.059C158.016 18.1222 158.29 18.059 158.49 17.901C158.701 17.7429 158.817 17.4901 158.817 17.2266C158.817 17.174 158.817 17.1424 158.817 17.1318C158.838 16.0571 159.301 15.0983 160.018 14.403C160.745 13.7076 161.714 13.2967 162.8 13.3283C163.685 13.3493 164.475 13.6549 165.117 14.1606C165.76 14.6664 166.234 15.3723 166.456 16.173C166.519 16.3943 166.666 16.5734 166.856 16.6893C167.056 16.8052 167.288 16.8263 167.509 16.7631C167.952 16.6366 168.415 16.5734 168.9 16.5839C170.206 16.6156 171.365 17.1634 172.198 18.0379C173.03 18.9124 173.525 20.0925 173.504 21.399C173.483 22.1892 173.272 22.9267 172.914 23.58C172.556 24.2227 172.05 24.7811 171.439 25.192C171.049 25.4554 170.944 25.9822 171.218 26.372C171.481 26.7619 172.008 26.8672 172.398 26.5933C173.23 26.0349 173.915 25.2763 174.4 24.4018C174.895 23.5167 175.18 22.5053 175.201 21.4306C175.253 19.65 174.568 18.0274 173.431 16.8473Z" fill="#FEDE00"/>
</svg>
