<svg width="27" height="27" viewBox="0 0 27 27" fill="none" xmlns="http://www.w3.org/2000/svg">
<path d="M15.5313 11.7897C16.0133 11.7897 16.4846 11.6467 16.8855 11.3789C17.2863 11.111 17.5987 10.7304 17.7832 10.285C17.9677 9.83957 18.016 9.34947 17.9219 8.87664C17.8279 8.40381 17.5957 7.96949 17.2548 7.6286C16.9139 7.28771 16.4796 7.05556 16.0068 6.96151C15.534 6.86746 15.0439 6.91573 14.5985 7.10022C14.1531 7.28471 13.7724 7.59713 13.5045 7.99797C13.2367 8.39882 13.0938 8.87008 13.0938 9.35217C13.0938 9.99864 13.3506 10.6186 13.8077 11.0757C14.2648 11.5329 14.8848 11.7897 15.5313 11.7897V11.7897ZM15.5313 8.53967C15.6919 8.53967 15.849 8.58733 15.9827 8.67661C16.1163 8.76588 16.2204 8.89278 16.2819 9.04124C16.3434 9.18971 16.3595 9.35308 16.3281 9.51069C16.2968 9.66829 16.2194 9.81307 16.1058 9.9267C15.9921 10.0403 15.8474 10.1177 15.6898 10.1491C15.5322 10.1804 15.3688 10.1643 15.2203 10.1028C15.0719 10.0413 14.945 9.93719 14.8557 9.80358C14.7664 9.66996 14.7188 9.51287 14.7188 9.35217C14.7188 9.13669 14.8044 8.93002 14.9567 8.77765C15.1091 8.62528 15.3158 8.53967 15.5313 8.53967Z" fill="#4D6F92"/>
<path d="M21.2188 3.66467H4.96875C4.53777 3.66467 4.12445 3.83588 3.8197 4.14062C3.51495 4.44537 3.34375 4.8587 3.34375 5.28967V21.5397C3.34375 21.9706 3.51495 22.384 3.8197 22.6887C4.12445 22.9935 4.53777 23.1647 4.96875 23.1647H21.2188C21.6497 23.1647 22.0631 22.9935 22.3678 22.6887C22.6725 22.384 22.8438 21.9706 22.8438 21.5397V5.28967C22.8438 4.8587 22.6725 4.44537 22.3678 4.14062C22.0631 3.83588 21.6497 3.66467 21.2188 3.66467V3.66467ZM21.2188 21.5397H4.96875V16.6647L9.03125 12.6022L13.5731 17.144C13.8776 17.4467 14.2894 17.6166 14.7188 17.6166C15.1481 17.6166 15.5599 17.4467 15.8644 17.144L17.1562 15.8522L21.2188 19.9147V21.5397ZM21.2188 17.6153L18.3019 14.6984C17.9974 14.3958 17.5856 14.2259 17.1562 14.2259C16.7269 14.2259 16.3151 14.3958 16.0106 14.6984L14.7188 15.9903L10.1769 11.4484C9.87241 11.1458 9.46055 10.9759 9.03125 10.9759C8.60195 10.9759 8.19009 11.1458 7.88563 11.4484L4.96875 14.3653V5.28967H21.2188V17.6153Z" fill="#4D6F92"/>
</svg>
