<svg width="20" height="20" viewBox="0 0 50 50" fill="none" xmlns="http://www.w3.org/2000/svg">
    <g clip-path="url(#clip0_684_1657)">
    <path d="M25 0C11.2144 0 0 11.2144 0 25C0 38.7856 11.2144 50 25 50C38.7856 50 50 38.7856 50 25C50 11.2144 38.7856 0 25 0Z" fill="#01A54E"/>
    <path d="M37.6701 19.7021L24.1283 33.2436C23.722 33.6498 23.1888 33.8543 22.6555 33.8543C22.1222 33.8543 21.5889 33.6498 21.1826 33.2436L14.4119 26.4729C13.5971 25.6584 13.5971 24.3416 14.4119 23.5271C15.2263 22.7123 16.5428 22.7123 17.3576 23.5271L22.6555 28.825L34.7244 16.7564C35.5388 15.9416 36.8553 15.9416 37.6701 16.7564C38.4845 17.5709 38.4845 18.8873 37.6701 19.7021Z" fill="#FAFAFA"/>
    </g>
    <defs>
    <clipPath id="clip0_684_1657">
    <rect width="50" height="50" fill="white"/>
    </clipPath>
    </defs>
    </svg>
    