<svg width="30" height="30" viewBox="0 0 35 36" fill="none" xmlns="http://www.w3.org/2000/svg">
<path d="M9.58993 15.4762L9.58984 11.3787H13.6724" stroke="#0B649D" stroke-width="2" stroke-linecap="round" stroke-linejoin="round"/>
<path d="M23.3717 21.0171L23.3906 25.1146L19.3081 25.1345" stroke="#0B649D" stroke-width="2" stroke-linecap="round" stroke-linejoin="round"/>
<path d="M10.0126 21.4398L10.0123 21.4397L10.011 21.448L9.54721 24.4319C9.54719 24.432 9.54717 24.4321 9.54715 24.4323C9.51275 24.6454 9.58343 24.8554 9.74815 25.0249C9.88202 25.1628 10.0525 25.2343 10.2258 25.2343C10.2413 25.2343 10.255 25.2317 10.2654 25.2291L10.2774 25.2415L10.329 25.233L13.2282 24.7555L13.2283 24.7559L13.2369 24.7537C13.367 24.7202 13.4999 24.6528 13.6017 24.5483L24.3998 13.9563L24.3998 13.9563L24.4015 13.9546C24.5353 13.8168 24.6037 13.6427 24.6037 13.4671C24.6037 13.2914 24.5353 13.1173 24.4015 12.9795L24.4011 12.9791L21.9371 10.4726C21.937 10.4725 21.937 10.4724 21.9369 10.4723C21.6659 10.1936 21.2539 10.1935 20.9827 10.4717L10.2136 21.0638L10.2136 21.0638L10.212 21.0654C10.1102 21.1703 10.0449 21.3068 10.0126 21.4398ZM11.9866 22.6556L11.3452 21.8306L21.4577 11.9374L22.942 13.4654L12.8576 23.3591L11.9866 22.6556Z" fill="#0B649D" stroke="#0B649D" stroke-width="0.2"/>
</svg>