<svg width="38" height="38" viewBox="0 0 38 38" fill="none" xmlns="http://www.w3.org/2000/svg">
<path d="M14.0909 25H32.0909M14.0909 17H20.6364M14.0909 9H20.6364M9.18182 32C9.18182 33.3261 8.75081 34.5979 7.98362 35.5355C7.21642 36.4732 6.17589 37 5.09091 37M9.18182 32L9.22273 9H1V32C1 33.3261 1.43101 34.5979 2.1982 35.5355C2.96539 36.4732 4.00593 37 5.09091 37M9.18182 32V1H37V32C37 33.3261 36.569 34.5979 35.8018 35.5355C35.0346 36.4732 33.9941 37 32.9091 37H5.09091M25.5455 9H30.4545V17H25.5455V9Z" stroke="#E5704B" stroke-width="2"/>
</svg>
