<svg width="18" height="21" viewBox="0 0 18 21" fill="none" xmlns="http://www.w3.org/2000/svg">
<path d="M17.2832 19.1204L17.3071 19.9945L17.3127 20.2006L17.1066 20.2L8.93169 20.1765C8.93142 20.1765 8.93116 20.1765 8.9309 20.1765C6.69875 20.1903 4.66381 20.1982 3.18332 20.1997C2.44305 20.2005 1.84106 20.1997 1.42225 20.1972C1.21297 20.1959 1.04874 20.1943 0.935647 20.1922C0.87933 20.1912 0.834395 20.19 0.802493 20.1887C0.78691 20.188 0.772151 20.1873 0.759933 20.1862C0.754293 20.1857 0.745623 20.1849 0.736327 20.1834C0.732031 20.1828 0.723307 20.1813 0.712863 20.1785C0.707652 20.1771 0.698713 20.1744 0.688082 20.1701C0.679878 20.1667 0.657558 20.1571 0.634204 20.1372C0.603945 20.1115 0.589314 20.0835 0.584471 20.0738C0.578077 20.061 0.574342 20.0501 0.572427 20.044C0.568555 20.0318 0.566573 20.0216 0.565714 20.0169C0.563811 20.0065 0.562754 19.9968 0.562155 19.9908C0.56084 19.9776 0.559814 19.9615 0.558941 19.9446C0.557149 19.91 0.555463 19.8611 0.553846 19.7997C0.550599 19.6763 0.547487 19.4967 0.54453 19.2676C0.538612 18.809 0.533282 18.1491 0.528805 17.3371C0.519848 15.713 0.514294 13.4788 0.514294 11.0265V2.11033V1.91033H0.714294H2.08037H3.24644V1.55516V1V0.8H3.44644H8.85133H14.2562H14.4454L14.4559 0.988929L14.4685 1.21591L14.4685 1.21604C14.4753 1.33655 14.4922 1.49841 14.5049 1.57134L17.2832 19.1204ZM17.2832 19.1204C17.2944 18.8603 17.2987 18.6456 17.293 18.4707C17.2873 18.2965 17.2715 18.1498 17.2371 18.0327C17.2021 17.914 17.1411 17.8028 17.0288 17.7344C16.9193 17.6676 16.7976 17.6642 16.6929 17.6769C16.6303 17.6844 16.5493 17.6972 16.4757 17.7386C16.3914 17.7859 16.3377 17.8577 16.304 17.9428C16.2734 18.0201 16.2575 18.113 16.2464 18.2162C16.235 18.3219 16.2273 18.4546 16.2194 18.6187L16.4191 18.6283L16.2194 18.6187C16.2043 18.9332 16.1869 19.0846 16.16 19.1635C16.1533 19.1832 16.148 19.1917 16.1459 19.1946C16.1434 19.196 16.1359 19.1994 16.1188 19.2036C16.1167 19.2037 16.1068 19.2046 16.0846 19.2058C16.0544 19.2073 16.0118 19.2089 15.9566 19.2104C15.8466 19.2135 15.6909 19.2163 15.4942 19.219C15.1011 19.2243 14.5468 19.2287 13.872 19.2319C12.5224 19.2384 10.6921 19.2404 8.70694 19.2362L1.68568 19.2217L1.65577 11.1436C1.64734 8.86767 1.64473 6.78745 1.64731 5.26941C1.6486 4.51033 1.65119 3.89216 1.655 3.46049C1.6569 3.24453 1.65911 3.07593 1.66158 2.95991C1.66194 2.94328 1.6623 2.92783 1.66266 2.91355C1.69571 2.90936 1.73627 2.90549 1.7845 2.90224C1.9533 2.89088 2.19203 2.88867 2.47386 2.89828C2.9165 2.91339 3.13326 2.92686 3.24201 2.95281C3.24377 2.95323 3.24546 2.95365 3.24708 2.95405C3.253 3.07294 3.29934 3.20577 3.35543 3.32895C3.41841 3.46725 3.50545 3.61824 3.60491 3.76685C3.80208 4.06145 4.062 4.36727 4.30806 4.55715L4.30807 4.55715C4.70931 4.86676 5.05842 5.05051 5.67531 5.15773C6.27498 5.26195 7.13455 5.29507 8.5561 5.31646C11.293 5.35772 12.234 5.26298 13.1329 4.7935L13.1329 4.79349C13.4095 4.64901 13.6871 4.3973 13.9122 4.11985C14.1371 3.84259 14.3251 3.52045 14.4063 3.22282L14.4063 3.2228L14.4787 2.95748L15.1775 2.9156L15.1655 2.71596L15.1775 2.9156C15.4065 2.90187 15.6359 2.89304 15.8205 2.88985C15.9464 2.88767 16.0419 2.88841 16.1019 2.89062C16.1041 2.90002 16.1064 2.91116 16.1089 2.92426C16.1321 3.04977 16.1507 3.2805 16.1639 3.69953C16.1901 4.5314 16.1944 6.05468 16.1944 8.83687V14.943V15.1635L16.4139 15.142L16.7405 15.11L16.7406 15.11L17.0672 15.0781L17.2478 15.0605V14.8791V8.51993V2.16079V1.96502L17.052 1.96084L15.7157 1.93227L15.7156 1.93227C15.13 1.9198 14.81 1.90695 14.6336 1.88071C14.593 1.87466 14.5657 1.8686 14.548 1.86378C14.536 1.76849 14.5181 1.64657 14.5049 1.57107L17.2832 19.1204ZM5.22827 9.67305L5.38403 9.54759L5.38398 9.54754L5.38383 9.54736L5.3833 9.54669L5.38128 9.54419L5.37359 9.53469L5.34457 9.49907C5.31956 9.46848 5.28369 9.42489 5.24008 9.37262C5.15296 9.26823 5.03438 9.12857 4.90929 8.9885C4.7849 8.84922 4.65107 8.70615 4.53402 8.59664C4.47591 8.54228 4.41762 8.49209 4.36385 8.45424C4.33701 8.43535 4.30716 8.41657 4.27587 8.40184C4.24764 8.38854 4.20153 8.3704 4.14658 8.3704C4.02741 8.3704 3.88817 8.39194 3.78804 8.48849C3.67618 8.59636 3.66727 8.74154 3.69112 8.86195C3.71459 8.98046 3.77508 9.1116 3.85686 9.25047L5.22827 9.67305ZM5.22827 9.67305L5.38405 9.54762L5.39089 9.55611L5.39635 9.56467L5.39643 9.56478L5.39649 9.56488L5.39661 9.56507L5.39668 9.56517L5.39672 9.56523L5.39676 9.5653L5.39796 9.56707L5.40609 9.57863C5.41368 9.58911 5.42482 9.60368 5.4384 9.61931C5.46918 9.65473 5.49775 9.67834 5.51561 9.68683L5.51565 9.68685C5.52561 9.69159 5.53364 9.69547 5.54029 9.69872C5.54618 9.69209 5.55308 9.68397 5.56103 9.67405C5.67206 9.53552 5.85797 9.2234 6.25697 8.5535C6.28304 8.50973 6.31002 8.46444 6.33795 8.41756C6.63369 7.92117 6.95962 7.4004 7.06121 7.26589C7.13067 7.17387 7.21676 7.07695 7.33926 7.03734C7.47129 6.99465 7.59352 7.03366 7.69245 7.07867L5.22827 9.67305ZM5.79224 11.2226L5.79218 11.2227C5.69821 11.272 5.60661 11.2435 5.56524 11.2268C5.51622 11.2071 5.46909 11.1763 5.42684 11.1444C5.34069 11.0793 5.23746 10.9808 5.12091 10.857C4.88591 10.6074 4.57297 10.2294 4.19538 9.73883C4.19538 9.73882 4.19538 9.73882 4.19538 9.73882L5.79224 11.2226ZM5.79224 11.2226C5.82851 11.2036 5.85585 11.1762 5.86789 11.1639M5.79224 11.2226L5.86789 11.1639M7.05793 12.9226L7.05797 12.9225C7.30783 12.5914 7.7686 12.6055 8.0198 12.9252C8.01985 12.9253 8.01991 12.9254 8.01996 12.9254L7.86265 13.0489L7.05793 12.9226ZM7.05793 12.9226C6.95824 13.0548 6.63371 13.5737 6.33795 14.0701C6.04003 14.5702 5.71616 15.1063 5.61802 15.2623L5.78729 15.3688L7.05793 12.9226ZM5.86789 11.1639C5.88445 11.147 5.90143 11.1274 5.91793 11.1073M5.86789 11.1639L5.91793 11.1073M5.91793 11.1073C5.9512 11.0666 5.99014 11.0142 6.03182 10.955M5.91793 11.1073L6.03182 10.955M6.03182 10.955C6.11554 10.8361 6.21633 10.681 6.31473 10.5176M6.03182 10.955L6.31473 10.5176M6.31473 10.5176C6.65879 9.94648 7.06129 9.29697 7.39154 8.77549M6.31473 10.5176L7.39154 8.77549M7.39154 8.77549C7.55669 8.5147 7.70338 8.28656 7.81542 8.11657M7.39154 8.77549L7.81542 8.11657M7.81542 8.11657C7.8715 8.03147 7.91836 7.96178 7.95424 7.91017M7.81542 8.11657L7.95424 7.91017M7.95424 7.91017C7.97222 7.88432 7.98684 7.86387 7.99812 7.8487M7.95424 7.91017L7.99812 7.8487M7.99812 7.8487C8.01064 7.83187 8.01525 7.82672 8.01427 7.82777M7.99812 7.8487L8.01427 7.82777M8.01427 7.82777C8.06635 7.77172 8.11045 7.70033 8.12396 7.61374M8.01427 7.82777C8.01426 7.82778 8.01425 7.82779 8.01424 7.82779L8.12396 7.61374M8.12396 7.61374C8.13793 7.52418 8.11565 7.44089 8.07373 7.37094M8.12396 7.61374L8.07373 7.37094M8.07373 7.37094C7.99748 7.2437 7.85141 7.15099 7.69246 7.07868L8.07373 7.37094ZM16.1449 19.1958C16.1447 19.196 16.1449 19.1956 16.1456 19.195C16.1452 19.1955 16.145 19.1958 16.1449 19.1958ZM8.85905 4.18144H5.51088C5.45577 4.14825 5.33665 4.06307 5.10288 3.86024C4.84445 3.63602 4.66501 3.44236 4.5458 3.19868C4.42682 2.95549 4.35917 2.64419 4.35917 2.17321V1.70349L8.8799 1.72881L13.4127 1.7541L13.4365 2.2214C13.4552 2.59024 13.3931 2.9013 13.253 3.17163C13.1125 3.44261 12.8869 3.68549 12.5592 3.90709L12.6712 4.07277L12.5592 3.90709L12.1534 4.18144H8.85905ZM16.5786 17.5743L16.5786 17.5744C16.6891 17.5989 16.8118 17.6103 16.9277 17.5693C17.0541 17.5245 17.1381 17.4304 17.1913 17.3145C17.2415 17.2052 17.2686 17.0683 17.2847 16.9115C17.301 16.7522 17.3072 16.5569 17.3072 16.3225V15.4342V15.2342H17.1072H16.7508H16.3944H16.1944V15.4342V16.3813C16.1944 16.7957 16.1992 17.0609 16.2368 17.2259C16.2569 17.3142 16.2918 17.401 16.3626 17.4683C16.433 17.5353 16.5156 17.5603 16.5786 17.5743Z" fill="#C2CFE0" stroke="#C2CFE0" stroke-width="0.4"/>
</svg>
