<svg width="20" height="20" viewBox="0 0 20 20" fill="none" xmlns="http://www.w3.org/2000/svg">
<path d="M14.9349 8.04688L15.7552 10.5804L13.9453 10.1116L14.9349 8.04688ZM0.507812 16.9754L9.54427 14.3862V2.8683L0.507812 5.46875V16.9754ZM16.6667 13.4375L17.9948 13.7835L15.638 6.45089L14.3359 6.10491L11.5234 12.0871L12.8516 12.433L13.4375 11.2054L16.1849 11.9308L16.6667 13.4375ZM10.1172 2.70089L17.5781 4.75446V0.513393L10.1172 2.70089ZM14.1667 17.4665L16.224 17.6116L15.5208 19.3973L15 18.6607C13.8715 19.2783 12.6736 19.6801 11.4063 19.8661C10.9028 19.9554 10.5078 20 10.2214 20H9.1276C8.44184 20 7.57596 19.8549 6.52995 19.5647C5.48394 19.2746 4.6875 18.9583 4.14062 18.6161C4.07118 18.564 4.03646 18.5045 4.03646 18.4375C4.03646 18.378 4.05816 18.3278 4.10156 18.2868C4.14497 18.2459 4.20139 18.2254 4.27083 18.2254C4.30556 18.2254 4.38368 18.2533 4.50521 18.3092C4.62674 18.365 4.75911 18.4263 4.90234 18.4933C5.04557 18.5603 5.13455 18.6012 5.16927 18.6161C5.80295 18.8914 6.49523 19.1202 7.24609 19.3025C7.99696 19.4847 8.68056 19.5759 9.29688 19.5759C10.1215 19.5759 10.8464 19.5219 11.4714 19.4141C12.0964 19.3062 12.7778 19.1183 13.5156 18.8504C13.6458 18.7984 13.7782 18.7407 13.9128 18.6775C14.0473 18.6142 14.1949 18.5435 14.3555 18.4654C14.5161 18.3873 14.6398 18.3259 14.7266 18.2812L14.1667 17.4665ZM20 5.42411V17.4665L9.92188 14.721C9.80035 14.7656 8.17274 15.24 5.03906 16.144C1.90538 17.048 0.30816 17.5 0.247396 17.5C0.134549 17.5 0.0564236 17.4516 0.0130208 17.3549C0.0130208 17.3475 0.00868056 17.3363 0 17.3214V5.29018C0.0260417 5.22321 0.0434028 5.18601 0.0520833 5.17857C0.0954861 5.13393 0.182292 5.09301 0.3125 5.0558C1.24132 4.78795 1.88802 4.60193 2.2526 4.49777V0.212054L9.51823 2.42188C9.53559 2.42188 10.2322 2.21726 11.6081 1.80804C12.9839 1.39881 14.3555 0.995164 15.7227 0.597098C17.0898 0.199033 17.7908 0 17.8255 0C17.9991 0 18.0859 0.078125 18.0859 0.234375V4.89955L20 5.42411Z" fill="#C2CFE0"/>
<path d="M7.3709 7.44098L5.64585 7.60928C5.55435 7.6182 5.47019 7.66096 5.41189 7.72815C5.3536 7.79533 5.32593 7.88144 5.33499 7.96752C5.34405 8.0536 5.38908 8.13262 5.46019 8.18718C5.53129 8.24173 5.62265 8.26737 5.71415 8.25844L6.23166 8.20795L6.43656 10.1554L4.72876 10.3221C4.92764 10.0205 5.01602 9.66623 4.9803 9.31378C4.94269 8.95654 4.78085 8.6215 4.51986 8.36064C4.25887 8.09978 3.91332 7.92766 3.53681 7.87098C3.16029 7.8143 2.77384 7.87623 2.4374 8.04716C2.10096 8.21809 1.83332 8.48847 1.67598 8.81637C1.65557 8.85569 1.64374 8.89843 1.64118 8.94206C1.63863 8.98568 1.6454 9.02931 1.6611 9.07034C1.6768 9.11138 1.70111 9.14899 1.73258 9.18096C1.76406 9.21292 1.80206 9.23857 1.84434 9.25641C1.88661 9.27424 1.9323 9.28388 1.9787 9.28477C2.02509 9.28566 2.07125 9.27777 2.11443 9.26157C2.15761 9.24536 2.19693 9.22118 2.23007 9.19046C2.26321 9.15973 2.28949 9.12308 2.30735 9.08269C2.38261 8.92581 2.50032 8.79015 2.64866 8.68933C2.797 8.58852 2.97073 8.52611 3.1524 8.50837C3.33407 8.49063 3.51728 8.5182 3.68361 8.58829C3.84994 8.65838 3.99354 8.76853 4.09997 8.90767C4.2064 9.04681 4.27192 9.21003 4.28994 9.38095C4.30796 9.55186 4.27784 9.72443 4.20261 9.88133C4.12739 10.0382 4.00971 10.1739 3.8614 10.2748C3.71308 10.3756 3.53936 10.4381 3.3577 10.4558C3.2662 10.4648 3.18204 10.5075 3.12374 10.5747C3.06544 10.6419 3.03778 10.728 3.04684 10.8141C3.0559 10.9002 3.10093 10.9792 3.17204 11.0337C3.24314 11.0883 3.3345 11.1139 3.426 11.105C3.60767 11.0873 3.79087 11.115 3.95717 11.1851C4.12348 11.2553 4.26703 11.3655 4.3734 11.5046C4.47978 11.6438 4.54523 11.8071 4.56318 11.978C4.58112 12.1489 4.55093 12.3215 4.47565 12.4783C4.40036 12.6352 4.28262 12.7708 4.13427 12.8716C3.98591 12.9724 3.81217 13.0348 3.6305 13.0525C3.44882 13.0702 3.26562 13.0427 3.0993 12.9725C2.93298 12.9024 2.7894 12.7923 2.68299 12.6531C2.62825 12.5859 2.54777 12.5416 2.45861 12.5295C2.36945 12.5174 2.27863 12.5385 2.2054 12.5883C2.13218 12.6381 2.08229 12.7127 2.06634 12.7962C2.05038 12.8798 2.0696 12.9658 2.11993 13.0359C2.34236 13.3268 2.66088 13.54 3.02609 13.6425C3.3913 13.7449 3.78279 13.731 4.13985 13.6027C4.49691 13.4745 4.79959 13.2391 5.00094 12.9331C5.20229 12.6272 5.29106 12.2677 5.25349 11.9104C5.21508 11.5583 5.05471 11.2283 4.79706 10.9712L6.50486 10.8046L6.74391 13.0767C6.75296 13.1628 6.798 13.2418 6.86911 13.2964C6.94021 13.3509 7.03156 13.3765 7.12307 13.3676C7.21457 13.3587 7.29873 13.3159 7.35702 13.2487C7.41532 13.1816 7.44298 13.0955 7.43393 13.0094L6.92168 8.14063L7.4392 8.09014C7.5307 8.08122 7.61485 8.03846 7.67315 7.97128C7.73145 7.90409 7.75911 7.81799 7.75006 7.7319C7.741 7.64582 7.69596 7.5668 7.62486 7.51225C7.55375 7.45769 7.4624 7.43205 7.3709 7.44098Z" fill="#C2CFE0"/>
</svg>
