<svg width="22" height="19" viewBox="0 0 22 19" fill="none" xmlns="http://www.w3.org/2000/svg">
<path d="M18.8571 9H18.3571V9.5V13.0453L14.4468 9.14595L14.3004 9H14.0938H9.42857C9.16752 9 8.9272 8.90353 8.69082 8.66536C8.45448 8.42723 8.35714 8.18337 8.35714 7.91667V1.58333C8.35714 1.31663 8.45448 1.07277 8.69082 0.834639C8.9272 0.59647 9.16752 0.5 9.42857 0.5H20.4286C20.6768 0.5 20.916 0.594824 21.1602 0.840823C21.4042 1.08673 21.5 1.32948 21.5 1.58333V7.91667C21.5 8.20923 21.3997 8.45492 21.1786 8.67773C20.9575 8.90047 20.7154 9 20.4286 9H18.8571ZM7.55319 13.8959L3.64286 17.7953V14.25V13.75H3.14286H1.57143C1.31038 13.75 1.07006 13.6535 0.83368 13.4154C0.597341 13.1772 0.5 12.9334 0.5 12.6667V6.33333C0.5 6.06663 0.597341 5.82277 0.83368 5.58464C1.07006 5.34647 1.31038 5.25 1.57143 5.25H5.78571V7.91667H5.78569L5.78574 7.92178C5.79545 8.87123 6.18929 9.71681 6.91297 10.446C7.61638 11.1547 8.45343 11.5444 9.40844 11.5829L9.4185 11.5833H9.42857H13.6429V12.6667C13.6429 12.9291 13.5483 13.1747 13.3186 13.4185C13.094 13.6568 12.8671 13.75 12.6205 13.75H7.90625H7.69956L7.55319 13.8959Z" stroke="#0b649d"/>
</svg>
