<svg width="22" height="20" viewBox="0 0 22 20" fill="none" xmlns="http://www.w3.org/2000/svg">
<path fill-rule="evenodd" clip-rule="evenodd" d="M9.13304 0.58215L7.53265 2.08735C7.40342 2.20905 7.22825 2.2776 7.04545 2.278H4.52732C3.36315 2.278 2.41991 3.16593 2.41991 4.26183V6.63229C2.41991 6.80561 2.34627 6.9696 2.21739 7.09225L0.616999 8.59746C0.221934 8.96948 0 9.47397 0 10C0 10.526 0.221934 11.0305 0.616999 11.4025L2.21739 12.9091C2.34666 13.0307 2.41949 13.1956 2.41991 13.3677V15.7382C2.41991 16.8341 3.36315 17.722 4.52732 17.722H7.04545C7.22957 17.722 7.40377 17.7913 7.53407 17.9126L9.13304 19.4192C9.52823 19.7911 10.0642 20 10.623 20C11.1818 20 11.7177 19.7911 12.1129 19.4192L13.7133 17.9126C13.8425 17.7909 14.0177 17.7224 14.2005 17.722H16.7186C17.8828 17.722 18.826 16.8341 18.826 15.7382V13.3677C18.826 13.1944 18.8996 13.0304 19.0285 12.9077L20.6289 11.4025C21.024 11.0305 21.2459 10.526 21.2459 10C21.2459 9.47397 21.024 8.96948 20.6289 8.59746L19.0285 7.09092C18.8992 6.96927 18.8264 6.80436 18.826 6.63229V4.26183C18.826 3.16593 17.8828 2.278 16.7186 2.278H14.2005C14.0172 2.27795 13.8414 2.20938 13.7118 2.08735L12.1129 0.580817C11.7177 0.208919 11.1818 0 10.623 0C10.0642 0 9.52823 0.208919 9.13304 0.580817V0.58215ZM6.58092 12.8611L13.6623 6.195L14.665 7.13892L7.58364 13.805L6.58092 12.8611ZM7.08228 6.66696V8.00017H8.49855V6.66696H7.08228ZM12.7474 13.333H14.1636V11.9998H12.7474V13.333Z" fill="#FDBC15"/>
</svg>
