<svg width="22" height="22" viewBox="0 0 22 22" fill="none" xmlns="http://www.w3.org/2000/svg">
<path fill-rule="evenodd" clip-rule="evenodd" d="M10.9782 0C4.91526 0 0 4.91526 0 10.9782C0 17.0412 4.91526 21.9565 10.9782 21.9565C17.0412 21.9565 21.9565 17.0412 21.9565 10.9782C21.9565 4.91526 17.0412 0 10.9782 0ZM6.98616 9.98022C6.72147 9.98022 6.46761 10.0854 6.28045 10.2725C6.09328 10.4597 5.98813 10.7136 5.98813 10.9782C5.98813 11.2429 6.09328 11.4968 6.28045 11.684C6.46761 11.8711 6.72147 11.9763 6.98616 11.9763H14.9703C15.235 11.9763 15.4889 11.8711 15.676 11.684C15.8632 11.4968 15.9684 11.2429 15.9684 10.9782C15.9684 10.7136 15.8632 10.4597 15.676 10.2725C15.4889 10.0854 15.235 9.98022 14.9703 9.98022H6.98616Z" fill="#0B649D"/>
</svg>
