<svg width="24" height="24" viewBox="0 0 24 24" fill="none" xmlns="http://www.w3.org/2000/svg">
<path fill-rule="evenodd" clip-rule="evenodd" d="M19.3333 22.6666C20.2174 22.6666 21.0652 22.3154 21.6903 21.6903C22.3155 21.0652 22.6667 20.2173 22.6667 19.3333C22.6667 18.4492 22.3155 17.6014 21.6903 16.9763C21.0652 16.3511 20.2174 16 19.3333 16C18.4493 16 17.6014 16.3511 16.9763 16.9763C16.3512 17.6014 16 18.4492 16 19.3333C16 20.2173 16.3512 21.0652 16.9763 21.6903C17.6014 22.3154 18.4493 22.6666 19.3333 22.6666ZM19.3333 24C20.571 24 21.758 23.5083 22.6332 22.6331C23.5083 21.758 24 20.571 24 19.3333C24 18.0956 23.5083 16.9086 22.6332 16.0335C21.758 15.1583 20.571 14.6666 19.3333 14.6666C18.0956 14.6666 16.9087 15.1583 16.0335 16.0335C15.1583 16.9086 14.6667 18.0956 14.6667 19.3333C14.6667 20.571 15.1583 21.758 16.0335 22.6331C16.9087 23.5083 18.0956 24 19.3333 24Z" fill="#334D6E"/>
<path fill-rule="evenodd" clip-rule="evenodd" d="M19.3333 17C19.5101 17 19.6797 17.0702 19.8047 17.1953C19.9298 17.3203 20 17.4899 20 17.6667V19.0573L20.4713 19.5287C20.5928 19.6544 20.66 19.8228 20.6584 19.9976C20.6569 20.1724 20.5868 20.3396 20.4632 20.4632C20.3396 20.5868 20.1724 20.6569 19.9976 20.6585C19.8228 20.66 19.6544 20.5928 19.5287 20.4713L18.6667 19.6093V17.6667C18.6667 17.4899 18.7369 17.3203 18.8619 17.1953C18.9869 17.0702 19.1565 17 19.3333 17Z" fill="#334D6E"/>
<path fill-rule="evenodd" clip-rule="evenodd" d="M5.33332 11.3333H3.99999V12.6667H5.33332V11.3333ZM3.99999 10C3.64637 10 3.30723 10.1405 3.05718 10.3905C2.80713 10.6406 2.66666 10.9797 2.66666 11.3333V12.6667C2.66666 13.0203 2.80713 13.3594 3.05718 13.6095C3.30723 13.8595 3.64637 14 3.99999 14H5.33332C5.68695 14 6.02608 13.8595 6.27613 13.6095C6.52618 13.3594 6.66666 13.0203 6.66666 12.6667V11.3333C6.66666 10.9797 6.52618 10.6406 6.27613 10.3905C6.02608 10.1405 5.68695 10 5.33332 10H3.99999Z" fill="#334D6E"/>
<path fill-rule="evenodd" clip-rule="evenodd" d="M10.6667 11.3333H9.33333V12.6667H10.6667V11.3333ZM9.33333 10C8.97971 10 8.64057 10.1405 8.39052 10.3905C8.14048 10.6406 8 10.9797 8 11.3333V12.6667C8 13.0203 8.14048 13.3594 8.39052 13.6095C8.64057 13.8595 8.97971 14 9.33333 14H10.6667C11.0203 14 11.3594 13.8595 11.6095 13.6095C11.8595 13.3594 12 13.0203 12 12.6667V11.3333C12 10.9797 11.8595 10.6406 11.6095 10.3905C11.3594 10.1405 11.0203 10 10.6667 10H9.33333Z" fill="#334D6E"/>
<path fill-rule="evenodd" clip-rule="evenodd" d="M16 11.3333H14.6667V12.6667H16V11.3333ZM14.6667 10C14.3131 10 13.9739 10.1405 13.7239 10.3905C13.4738 10.6406 13.3333 10.9797 13.3333 11.3333V12.6667C13.3333 13.0203 13.4738 13.3594 13.7239 13.6095C13.9739 13.8595 14.3131 14 14.6667 14H16C16.3536 14 16.6928 13.8595 16.9428 13.6095C17.1929 13.3594 17.3333 13.0203 17.3333 12.6667V11.3333C17.3333 10.9797 17.1929 10.6406 16.9428 10.3905C16.6928 10.1405 16.3536 10 16 10H14.6667Z" fill="#334D6E"/>
<path fill-rule="evenodd" clip-rule="evenodd" d="M5.33332 16.6667H3.99999V18H5.33332V16.6667ZM3.99999 15.3334C3.64637 15.3334 3.30723 15.4739 3.05718 15.7239C2.80713 15.9739 2.66666 16.3131 2.66666 16.6667V18C2.66666 18.3537 2.80713 18.6928 3.05718 18.9429C3.30723 19.1929 3.64637 19.3334 3.99999 19.3334H5.33332C5.68695 19.3334 6.02608 19.1929 6.27613 18.9429C6.52618 18.6928 6.66666 18.3537 6.66666 18V16.6667C6.66666 16.3131 6.52618 15.9739 6.27613 15.7239C6.02608 15.4739 5.68695 15.3334 5.33332 15.3334H3.99999Z" fill="#334D6E"/>
<path fill-rule="evenodd" clip-rule="evenodd" d="M10.6667 16.6667H9.33333V18H10.6667V16.6667ZM9.33333 15.3334C8.97971 15.3334 8.64057 15.4739 8.39052 15.7239C8.14048 15.9739 8 16.3131 8 16.6667V18C8 18.3537 8.14048 18.6928 8.39052 18.9429C8.64057 19.1929 8.97971 19.3334 9.33333 19.3334H10.6667C11.0203 19.3334 11.3594 19.1929 11.6095 18.9429C11.8595 18.6928 12 18.3537 12 18V16.6667C12 16.3131 11.8595 15.9739 11.6095 15.7239C11.3594 15.4739 11.0203 15.3334 10.6667 15.3334H9.33333Z" fill="#334D6E"/>
<path fill-rule="evenodd" clip-rule="evenodd" d="M1.33333 4C1.33333 3.82319 1.40357 3.65362 1.5286 3.5286C1.65362 3.40357 1.82319 3.33333 2 3.33333H5.33333V2H2C1.46957 2 0.960859 2.21071 0.585787 2.58579C0.210714 2.96086 0 3.46957 0 4V20C0 20.5304 0.210714 21.0391 0.585787 21.4142C0.960859 21.7893 1.46957 22 2 22H15.5033C15.219 21.5928 15.0018 21.1426 14.86 20.6667H2C1.82319 20.6667 1.65362 20.5964 1.5286 20.4714C1.40357 20.3464 1.33333 20.1768 1.33333 20V4ZM18.6667 14.7133C19.1089 14.6501 19.5578 14.6501 20 14.7133V4C20 3.46957 19.7893 2.96086 19.4142 2.58579C19.0391 2.21071 18.5304 2 18 2H16V3.33333H18C18.1768 3.33333 18.3464 3.40357 18.4714 3.5286C18.5964 3.65362 18.6667 3.82319 18.6667 4V14.7133ZM6.66667 3.33333H13.7087V2H6.66667V3.33333Z" fill="#334D6E"/>
<path fill-rule="evenodd" clip-rule="evenodd" d="M20 7.99996H1.33334V6.66663H20V7.99996Z" fill="#334D6E"/>
<path d="M4 0.666667C4 0.489856 4.07024 0.320287 4.19526 0.195262C4.32029 0.070238 4.48986 0 4.66667 0C4.84348 0 5.01305 0.070238 5.13807 0.195262C5.2631 0.320287 5.33333 0.489856 5.33333 0.666667V4C5.33333 4.17681 5.2631 4.34638 5.13807 4.4714C5.01305 4.59643 4.84348 4.66667 4.66667 4.66667C4.48986 4.66667 4.32029 4.59643 4.19526 4.4714C4.07024 4.34638 4 4.17681 4 4V0.666667Z" fill="#334D6E"/>
<path d="M13.3333 0.666667C13.3333 0.489856 13.4036 0.320287 13.5286 0.195262C13.6536 0.070238 13.8232 0 14 0C14.1768 0 14.3464 0.070238 14.4714 0.195262C14.5964 0.320287 14.6667 0.489856 14.6667 0.666667V4C14.6667 4.17681 14.5964 4.34638 14.4714 4.4714C14.3464 4.59643 14.1768 4.66667 14 4.66667C13.8232 4.66667 13.6536 4.59643 13.5286 4.4714C13.4036 4.34638 13.3333 4.17681 13.3333 4V0.666667Z" fill="#334D6E"/>
</svg>
