<svg width="26" height="27" viewBox="0 0 26 27" fill="none" xmlns="http://www.w3.org/2000/svg">
<path d="M19.4154 10.8633L20.4818 14.2835L18.1289 13.6507L19.4154 10.8633ZM0.660156 22.9169L12.4076 19.4213V3.87221L0.660156 7.38281V22.9169ZM21.6667 18.1406L23.3932 18.6077L20.3294 8.70871L18.6367 8.24163L14.9805 16.3175L16.707 16.7846L17.4688 15.1272L21.0404 16.1066L21.6667 18.1406ZM13.1523 3.64621L22.8516 6.41853V0.69308L13.1523 3.64621ZM18.4167 23.5798L21.0911 23.7757L20.1771 26.1864L19.5 25.192C18.033 26.0257 16.4757 26.5681 14.8281 26.8192C14.1736 26.9397 13.6602 27 13.2878 27H11.8659C10.9744 27 9.84874 26.8041 8.48893 26.4124C7.12912 26.0206 6.09375 25.5938 5.38281 25.1317C5.29253 25.0614 5.2474 24.981 5.2474 24.8906C5.2474 24.8103 5.27561 24.7425 5.33203 24.6872C5.38845 24.632 5.46181 24.6044 5.55208 24.6044C5.59722 24.6044 5.69878 24.642 5.85677 24.7174C6.01476 24.7927 6.18685 24.8756 6.37305 24.966C6.55924 25.0564 6.67491 25.1116 6.72005 25.1317C7.54384 25.5033 8.44379 25.8122 9.41992 26.0583C10.3961 26.3044 11.2847 26.4275 12.0859 26.4275C13.158 26.4275 14.1003 26.3546 14.9128 26.209C15.7253 26.0633 16.6111 25.8097 17.5703 25.4481C17.7396 25.3778 17.9117 25.2999 18.0866 25.2146C18.2615 25.1292 18.4533 25.0338 18.6621 24.9283C18.8709 24.8228 19.0317 24.74 19.1445 24.6797L18.4167 23.5798ZM26 7.32254V23.5798L12.8984 19.8733C12.7405 19.9336 10.6246 20.5739 6.55078 21.7944C2.477 23.0148 0.400608 23.625 0.321615 23.625C0.174913 23.625 0.0733507 23.5597 0.0169271 23.4291C0.0169271 23.4191 0.0112847 23.404 0 23.3839V7.14174C0.0338542 7.05134 0.0564236 7.00112 0.0677083 6.99107C0.124132 6.9308 0.236979 6.87556 0.40625 6.82534C1.61372 6.46373 2.45443 6.21261 2.92839 6.07199V0.286272L12.3737 3.26953C12.3963 3.26953 13.3019 2.9933 15.0905 2.44085C16.8791 1.88839 18.6621 1.34347 20.4395 0.806083C22.2168 0.268694 23.128 0 23.1732 0C23.3989 0 23.5117 0.105469 23.5117 0.316406V6.6144L26 7.32254Z" fill="#2ED47A"/>
<path d="M9.58146 10.0454L7.3389 10.2726C7.21995 10.2846 7.11055 10.3423 7.03476 10.433C6.95897 10.5237 6.92301 10.64 6.93479 10.7562C6.94656 10.8724 7.0051 10.9791 7.09754 11.0527C7.18998 11.1264 7.30874 11.161 7.42769 11.1489L8.10046 11.0808L8.36683 13.7099L6.14669 13.9348C6.40523 13.5277 6.52012 13.0495 6.47368 12.5737C6.4248 12.0914 6.2144 11.6391 5.87511 11.2869C5.53583 10.9347 5.08662 10.7024 4.59715 10.6259C4.10768 10.5494 3.6053 10.633 3.16792 10.8637C2.73054 11.0945 2.38261 11.4595 2.17808 11.9021C2.15154 11.9552 2.13616 12.0129 2.13284 12.0718C2.12951 12.1307 2.13832 12.1896 2.15873 12.245C2.17914 12.3004 2.21074 12.3512 2.25166 12.3943C2.29258 12.4375 2.34198 12.4721 2.39694 12.4962C2.4519 12.5203 2.51129 12.5333 2.57161 12.5345C2.63192 12.5357 2.69192 12.525 2.74805 12.5032C2.80419 12.4813 2.85531 12.4486 2.89839 12.4072C2.94147 12.3657 2.97563 12.3162 2.99885 12.2617C3.09669 12.0499 3.24972 11.8667 3.44256 11.7306C3.6354 11.5945 3.86125 11.5103 4.09742 11.4863C4.33359 11.4624 4.57176 11.4996 4.78799 11.5942C5.00422 11.6889 5.1909 11.8376 5.32926 12.0254C5.46762 12.2132 5.5528 12.4336 5.57622 12.6643C5.59964 12.8951 5.56049 13.128 5.4627 13.3398C5.3649 13.5516 5.21192 13.7348 5.01911 13.871C4.82631 14.0071 4.60047 14.0914 4.36431 14.1154C4.24535 14.1275 4.13595 14.1852 4.06016 14.2759C3.98438 14.3666 3.94841 14.4828 3.96019 14.599C3.97196 14.7153 4.03051 14.8219 4.12295 14.8956C4.21538 14.9692 4.33414 15.0038 4.45309 14.9918C4.68927 14.9679 4.92743 15.0052 5.14362 15.0999C5.35982 15.1946 5.54643 15.3434 5.68472 15.5313C5.82301 15.7192 5.90809 15.9396 5.93143 16.1703C5.95476 16.4011 5.91551 16.634 5.81764 16.8458C5.71976 17.0576 5.5667 17.2407 5.37384 17.3768C5.18099 17.5128 4.95512 17.5971 4.71894 17.621C4.48277 17.6449 4.24461 17.6076 4.02839 17.513C3.81217 17.4183 3.62552 17.2696 3.48719 17.0817C3.41602 16.9911 3.31139 16.9312 3.19549 16.9149C3.07959 16.8985 2.96152 16.927 2.86632 16.9942C2.77113 17.0614 2.70628 17.1621 2.68554 17.275C2.66479 17.3878 2.68978 17.5038 2.75521 17.5986C3.04437 17.9912 3.45844 18.279 3.93321 18.4174C4.40798 18.5557 4.91692 18.5369 5.3811 18.3637C5.84528 18.1906 6.23876 17.8729 6.50051 17.4598C6.76227 17.0467 6.87768 16.5614 6.82884 16.0791C6.7789 15.6037 6.57042 15.1582 6.23548 14.8112L8.45562 14.5863L8.76638 17.6536C8.77815 17.7698 8.8367 17.8765 8.92914 17.9501C9.02157 18.0238 9.14033 18.0584 9.25928 18.0463C9.37824 18.0343 9.48764 17.9766 9.56343 17.8859C9.63921 17.7952 9.67518 17.6789 9.6634 17.5627L8.99748 10.9899L9.67025 10.9217C9.7892 10.9097 9.89861 10.852 9.97439 10.7613C10.0502 10.6706 10.0861 10.5543 10.0744 10.4381C10.0626 10.3219 10.004 10.2152 9.91161 10.1416C9.81917 10.0679 9.70042 10.0333 9.58146 10.0454Z" fill="#C2CFE0"/>
</svg>
