<svg width="20" height="20" viewBox="0 0 20 20" fill="none" xmlns="http://www.w3.org/2000/svg">
<path d="M14.9349 8.04688L15.7552 10.5804L13.9453 10.1116L14.9349 8.04688ZM0.507812 16.9754L9.54427 14.3862V2.8683L0.507812 5.46875V16.9754ZM16.6667 13.4375L17.9948 13.7835L15.638 6.45089L14.3359 6.10491L11.5234 12.0871L12.8516 12.433L13.4375 11.2054L16.1849 11.9308L16.6667 13.4375ZM10.1172 2.70089L17.5781 4.75446V0.513393L10.1172 2.70089ZM14.1667 17.4665L16.224 17.6116L15.5208 19.3973L15 18.6607C13.8715 19.2783 12.6736 19.6801 11.4063 19.8661C10.9028 19.9554 10.5078 20 10.2214 20H9.1276C8.44184 20 7.57596 19.8549 6.52995 19.5647C5.48394 19.2746 4.6875 18.9583 4.14062 18.6161C4.07118 18.564 4.03646 18.5045 4.03646 18.4375C4.03646 18.378 4.05816 18.3278 4.10156 18.2868C4.14497 18.2459 4.20139 18.2254 4.27083 18.2254C4.30556 18.2254 4.38368 18.2533 4.50521 18.3092C4.62674 18.365 4.75911 18.4263 4.90234 18.4933C5.04557 18.5603 5.13455 18.6012 5.16927 18.6161C5.80295 18.8914 6.49523 19.1202 7.24609 19.3025C7.99696 19.4847 8.68056 19.5759 9.29688 19.5759C10.1215 19.5759 10.8464 19.5219 11.4714 19.4141C12.0964 19.3062 12.7778 19.1183 13.5156 18.8504C13.6458 18.7984 13.7782 18.7407 13.9128 18.6775C14.0473 18.6142 14.1949 18.5435 14.3555 18.4654C14.5161 18.3873 14.6398 18.3259 14.7266 18.2812L14.1667 17.4665ZM20 5.42411V17.4665L9.92188 14.721C9.80035 14.7656 8.17274 15.24 5.03906 16.144C1.90538 17.048 0.30816 17.5 0.247396 17.5C0.134549 17.5 0.0564236 17.4516 0.0130208 17.3549C0.0130208 17.3475 0.00868056 17.3363 0 17.3214V5.29018C0.0260417 5.22321 0.0434028 5.18601 0.0520833 5.17857C0.0954861 5.13393 0.182292 5.09301 0.3125 5.0558C1.24132 4.78795 1.88802 4.60193 2.2526 4.49777V0.212054L9.51823 2.42188C9.53559 2.42188 10.2322 2.21726 11.6081 1.80804C12.9839 1.39881 14.3555 0.995164 15.7227 0.597098C17.0898 0.199033 17.7908 0 17.8255 0C17.9991 0 18.0859 0.078125 18.0859 0.234375V4.89955L20 5.42411Z" fill="#01A54E"/>
<path d="M7.37087 7.44104L5.64582 7.60934C5.55432 7.61827 5.47016 7.66102 5.41186 7.72821C5.35357 7.79539 5.3259 7.8815 5.33496 7.96758C5.34402 8.05367 5.38905 8.13268 5.46016 8.18724C5.53126 8.2418 5.62262 8.26743 5.71412 8.2585L6.23163 8.20801L6.43653 10.1555L4.72873 10.3221C4.92761 10.0206 5.01599 9.66629 4.98027 9.31384C4.94266 8.9566 4.78082 8.62157 4.51983 8.3607C4.25884 8.09984 3.91329 7.92772 3.53678 7.87104C3.16026 7.81436 2.77381 7.87629 2.43737 8.04722C2.10093 8.21815 1.83329 8.48853 1.67595 8.81643C1.65554 8.85575 1.64371 8.89849 1.64115 8.94212C1.6386 8.98574 1.64537 9.02937 1.66107 9.07041C1.67677 9.11144 1.70108 9.14906 1.73255 9.18102C1.76403 9.21298 1.80203 9.23863 1.84431 9.25647C1.88658 9.2743 1.93227 9.28395 1.97867 9.28483C2.02506 9.28572 2.07122 9.27783 2.1144 9.26163C2.15758 9.24543 2.1969 9.22125 2.23004 9.19052C2.26318 9.15979 2.28945 9.12314 2.30731 9.08275C2.38258 8.92587 2.50029 8.79021 2.64863 8.68939C2.79697 8.58858 2.9707 8.52617 3.15237 8.50843C3.33404 8.4907 3.51725 8.51826 3.68358 8.58835C3.84991 8.65844 3.99351 8.76859 4.09994 8.90773C4.20637 9.04687 4.27189 9.21009 4.28991 9.38101C4.30793 9.55192 4.27781 9.72449 4.20258 9.88139C4.12736 10.0383 4.00968 10.174 3.86137 10.2748C3.71305 10.3757 3.53933 10.4381 3.35767 10.4559C3.26617 10.4648 3.18201 10.5076 3.12371 10.5748C3.06541 10.6419 3.03775 10.728 3.04681 10.8141C3.05586 10.9002 3.1009 10.9792 3.17201 11.0338C3.24311 11.0883 3.33446 11.114 3.42597 11.1051C3.60764 11.0874 3.79084 11.115 3.95714 11.1852C4.12345 11.2553 4.267 11.3655 4.37337 11.5047C4.47975 11.6439 4.5452 11.8071 4.56314 11.978C4.58109 12.149 4.5509 12.3215 4.47562 12.4784C4.40033 12.6353 4.28259 12.7709 4.13424 12.8717C3.98588 12.9725 3.81214 13.0349 3.63047 13.0526C3.44879 13.0703 3.26559 13.0427 3.09927 12.9726C2.93295 12.9025 2.78937 12.7923 2.68296 12.6532C2.62822 12.586 2.54774 12.5417 2.45858 12.5296C2.36942 12.5175 2.2786 12.5385 2.20537 12.5883C2.13214 12.6381 2.08226 12.7127 2.06631 12.7963C2.05035 12.8799 2.06957 12.9658 2.1199 13.036C2.34233 13.3269 2.66085 13.5401 3.02606 13.6425C3.39127 13.745 3.78276 13.731 4.13982 13.6028C4.49688 13.4745 4.79955 13.2392 5.00091 12.9332C5.20226 12.6272 5.29103 12.2678 5.25346 11.9105C5.21505 11.5583 5.05468 11.2283 4.79703 10.9713L6.50483 10.8047L6.74388 13.0768C6.75293 13.1628 6.79797 13.2419 6.86908 13.2964C6.94018 13.351 7.03153 13.3766 7.12304 13.3677C7.21454 13.3588 7.29869 13.316 7.35699 13.2488C7.41529 13.1816 7.44295 13.0955 7.4339 13.0094L6.92165 8.14069L7.43917 8.09021C7.53067 8.08128 7.61482 8.03852 7.67312 7.97134C7.73142 7.90415 7.75908 7.81805 7.75002 7.73196C7.74097 7.64588 7.69593 7.56687 7.62483 7.51231C7.55372 7.45775 7.46237 7.43211 7.37087 7.44104Z" fill="#01A54E"/>
</svg>
