<svg width="25" height="25" viewBox="0 0 25 25" fill="none" xmlns="http://www.w3.org/2000/svg">
<path d="M13.2787 22.3432H2.87866V12.0232C2.87866 7.45317 6.57866 3.75317 11.1487 3.75317H11.2287C16.9287 3.75317 21.5487 8.37317 21.5487 14.0732C21.5587 18.6432 17.8487 22.3432 13.2787 22.3432Z" fill="#0B649D"/>
<path d="M9.10864 8.92308C9.88864 7.87308 11.2886 7.34308 12.6786 7.82308C13.8386 8.22308 14.6786 9.32308 14.7486 10.5531C14.8286 11.8931 14.1086 13.0031 13.0786 13.5431" stroke="white" stroke-width="1.5" stroke-miterlimit="10" stroke-linecap="round" stroke-linejoin="round"/>
<path d="M11.7388 15.7132C11.7388 14.7432 12.3088 13.9032 13.1388 13.5132" stroke="white" stroke-width="1.5" stroke-miterlimit="10" stroke-linecap="round" stroke-linejoin="round"/>
<path d="M11.7287 19.2732C12.2921 19.2732 12.7487 18.8165 12.7487 18.2532C12.7487 17.6898 12.2921 17.2332 11.7287 17.2332C11.1654 17.2332 10.7087 17.6898 10.7087 18.2532C10.7087 18.8165 11.1654 19.2732 11.7287 19.2732Z" fill="white"/>
</svg>
