<svg width="22" height="23" viewBox="0 0 22 23" fill="none" xmlns="http://www.w3.org/2000/svg">
<path fill-rule="evenodd" clip-rule="evenodd" d="M10.9505 0.802734C4.91393 0.802734 0.0214844 5.72695 0.0214844 11.8027C0.0214844 17.8785 4.91393 22.8027 10.9505 22.8027C16.9871 22.8027 21.8795 17.8785 21.8795 11.8027C21.8795 5.72695 16.9871 0.802734 10.9505 0.802734ZM11.6326 17.9902C11.6326 18.3705 11.3273 18.6777 10.9495 18.6777C10.5717 18.6777 10.2665 18.3705 10.2665 17.9902C10.2665 17.61 10.5717 17.3027 10.9495 17.3027C11.3273 17.3027 11.6326 17.61 11.6326 17.9902ZM11.6326 15.2402C11.6326 15.6205 11.3273 15.9277 10.9495 15.9277C10.5717 15.9277 10.2665 15.6205 10.2665 15.2402V5.61523C10.2665 5.23496 10.5717 4.92773 10.9495 4.92773C11.3273 4.92773 11.6326 5.23496 11.6326 5.61523V15.2402Z" fill="white"/>
</svg>
