<svg width="19" height="19" viewBox="0 0 19 19" fill="none" xmlns="http://www.w3.org/2000/svg">
<path d="M3.70605 5.55102C7.45605 5.55102 11.2061 5.54102 14.9461 5.54102C15.0561 5.54102 15.1661 5.55102 15.2761 5.55102" stroke="#0B649D" stroke-miterlimit="10" stroke-linecap="round" stroke-linejoin="round"/>
<path d="M15.2663 7.78125C15.1963 7.78125 15.1163 7.79125 15.0463 7.79125C11.3363 7.79125 7.62629 7.79125 3.91629 7.79125C3.84629 7.79125 3.76629 7.78125 3.69629 7.78125" stroke="#0B649D" stroke-miterlimit="10" stroke-linecap="round" stroke-linejoin="round"/>
<path d="M15.2663 10.0315C15.1763 10.0315 15.0863 10.0215 14.9963 10.0215C11.3163 10.0215 7.64629 10.0215 3.96629 10.0215C3.87629 10.0215 3.78629 10.0315 3.69629 10.0315" stroke="#0B649D" stroke-miterlimit="10" stroke-linecap="round" stroke-linejoin="round"/>
<path d="M15.1764 1.23156C15.1164 1.26156 15.0464 1.25156 14.9764 1.25156C10.7164 1.25156 6.4664 1.25156 2.2064 1.25156C1.4064 1.25156 0.646398 1.94156 0.536398 2.75156C0.506398 2.97156 0.506398 3.18156 0.506398 3.40156C0.506398 6.48156 0.496398 9.55156 0.506398 12.6316C0.506398 13.5116 1.0064 14.2316 1.9164 14.4616C2.0564 14.4916 2.1964 14.5116 2.3364 14.5116C2.8564 14.5216 3.3764 14.5316 3.8964 14.5116C4.8964 14.4816 5.9064 14.5116 6.9064 14.4916C7.1264 14.4916 7.2564 14.5616 7.3664 14.7516C7.7864 15.4616 8.2264 16.1716 8.6464 16.8716C8.7964 17.1216 8.9464 17.3816 9.0964 17.6316C9.1364 17.6916 9.1764 17.7416 9.2264 17.7916C9.3664 17.9316 9.5264 17.9216 9.6364 17.7516C9.9264 17.3616 10.1464 16.9316 10.3964 16.5216C10.7464 15.9416 11.1064 15.3616 11.4464 14.7816C11.5664 14.5716 11.7164 14.4816 11.9764 14.4916C13.4964 14.5016 15.0064 14.5016 16.5264 14.5016C16.9164 14.5016 17.2864 14.4316 17.6164 14.2116C18.0664 13.9116 18.3264 13.5116 18.4164 12.9816C18.4464 12.8316 18.4464 12.6816 18.4464 12.5316C18.4464 9.39156 18.4564 6.24156 18.4464 3.10156C18.4464 2.19156 17.9164 1.48156 16.9464 1.25156C16.7764 1.21156 16.5964 1.23156 16.4264 1.23156C16.0164 1.23156 15.6064 1.23156 15.1964 1.23156" stroke="#0B649D" stroke-miterlimit="10" stroke-linecap="round" stroke-linejoin="round"/>
</svg>
