<svg width="39" height="35" viewBox="0 0 39 35" fill="none" xmlns="http://www.w3.org/2000/svg">
<path d="M2.66667 22V24.8889H7.448L0 32.9576L1.88533 35L9.33333 26.9313V32.1111H12V22H2.66667Z" fill="#E5704B"/>
<path d="M24 8H34V10H24V8Z" fill="#E5704B"/>
<path d="M24 15H34V18H24V15Z" fill="#E5704B"/>
<path d="M24 22H34V25H24V22Z" fill="#E5704B"/>
<path d="M36.2143 0H2.78571C2.04712 0.000770148 1.33899 0.30751 0.816731 0.852904C0.294468 1.3983 0.000737485 2.13779 0 2.90909V17.4545H2.78571V2.90909H18.1071V32H36.2143C36.9529 31.9992 37.661 31.6925 38.1833 31.1471C38.7055 30.6017 38.9993 29.8622 39 29.0909V2.90909C38.9993 2.13779 38.7055 1.3983 38.1833 0.852904C37.661 0.30751 36.9529 0.000770148 36.2143 0ZM20.8929 29.0909V2.90909H36.2143L36.2171 29.0909H20.8929Z" fill="#E5704B"/>
</svg>
