<svg width="225" height="221" viewBox="0 0 225 221" fill="none" xmlns="http://www.w3.org/2000/svg">
<path d="M174.466 47.6965C173.439 44.8466 172.295 42.0165 171.043 39.2653C168.549 33.7902 167.976 28.6016 164.472 24.0229" stroke="#CCDDE2" stroke-width="4"/>
<path d="M156.349 18.7751C153.334 15.7079 150.514 12.411 145.389 9.94876C134.56 4.7626 120.713 4.23658 103.038 11.5713" stroke="#CCDDE2" stroke-width="4"/>
<path d="M28.73 219.781C11.6033 195.571 6.06401 168.201 8.92627 140.208" stroke="#CCDDE2" stroke-width="4"/>
<path d="M184.102 100.6V100.899C183.934 106.332 188.954 128.855 203.194 136.009C217.434 143.164 227.586 174.567 195.482 186.888C163.377 199.209 165.125 219.781 165.125 219.781" stroke="#CCDDE2" stroke-width="4"/>
<path d="M103.035 34.8251V8.21766C103.026 4.41217 99.9434 1.32957 96.1379 1.32007H8.02259C4.2171 1.32957 1.1345 4.41217 1.125 8.21766V133.328C1.13181 137.132 4.21837 140.212 8.02259 140.21H96.1379C96.9927 140.216 97.8402 140.053 98.6322 139.731" stroke="black" stroke-width="2" stroke-linecap="round" stroke-linejoin="round"/>
<rect x="4.21875" y="5.53564" width="95.7217" height="130.471" rx="24.95" fill="#3FBDF1"/>
<rect x="9.85449" y="15.6313" width="85.4976" height="24.4293" rx="12.2146" fill="#3FBDF1"/>
<ellipse cx="52.0801" cy="23.3933" rx="2.52639" ry="2.5264" fill="#D7E8F0"/>
<path d="M45.0205 34.8252C45.0205 30.9258 48.1816 27.7646 52.0811 27.7646C55.9805 27.7646 59.1417 30.9258 59.1417 34.8252H45.0205Z" fill="#D7E8F0"/>
<path d="M18.4053 50.9665H84.8844" stroke="white" stroke-width="7.24"/>
<path d="M18.4053 57.5085H84.8844" stroke="white" stroke-width="7.24"/>
<path d="M18.4053 99.6472H84.8844" stroke="white" stroke-width="7.24"/>
<path d="M33.8467 105.836H69.441" stroke="white" stroke-width="7.24"/>
<path d="M25.4688 146.365C25.4688 146.365 37.2981 99.3582 74.1421 87.877L89.1177 84.3035C89.1177 84.3035 91.4861 73.7262 90.6143 72.6149C89.7425 71.5036 87.9521 69.2266 84.6725 69.7205C81.3928 70.2144 72.9147 70.3725 70.7439 60.0076C68.5731 49.6427 76.5944 25.0059 97.4403 21.3213C118.286 17.6366 118.773 32.9432 118.773 32.9432L103.461 68.424L105.837 97.0466L106.136 139.684L25.4688 146.365Z" fill="white"/>
<mask id="mask0" style="mask-type:alpha" maskUnits="userSpaceOnUse" x="16" y="20" width="160" height="201">
<path fill-rule="evenodd" clip-rule="evenodd" d="M16.2178 20.0225H175.732V220.68H16.2178L16.2178 20.0225Z" fill="white"/>
</mask>
<g mask="url(#mask0)">
<path d="M152.786 110.518C152.539 110.59 149.388 111.511 148.148 113.706C147.666 112.68 146.639 112.027 145.51 112.028H108.503C107.147 112.025 105.97 112.966 105.666 114.294L98.3781 145.708C97.8842 145.611 97.3903 145.552 96.8766 145.502L79.6783 141.187C78.1495 140.802 76.5798 141.648 76.0529 143.141C75.9383 143.464 75.8815 143.806 75.885 144.149C75.8849 145.767 77.1296 147.109 78.7349 147.223L86.8673 147.749C79.0337 151.456 69.5035 158.516 61.549 165.004C53.8092 152.821 61.0723 140.641 66.5351 134.082C65.8313 126.852 62.2651 110.066 44.4717 110.523C50.6012 102.621 58.2446 95.8479 67.7156 91.3145C100.156 127.463 137.269 97.9085 138.057 97.273C143.607 100.913 148.574 105.381 152.786 110.523" fill="#2E2E2E"/>
<path d="M149.415 214.216V220.462H42.2812V211.614C46.4549 211.862 50.8458 210.869 54.8392 209.059C59.8944 206.746 64.2607 203.151 67.9947 199.049C71.835 194.804 73.944 188.917 76.3914 183.798C80.0661 176.089 84.9337 170.597 92.6586 168.271L92.1647 170.406C91.9639 171.277 92.1687 172.192 92.7211 172.892C93.2735 173.593 94.1132 174.002 95.0023 174.004H132.194C131.454 180.459 128.33 215.713 149.415 214.223" fill="#2E2E2E"/>
<path d="M132.212 49.9327C132.182 53.2724 131.749 56.5962 130.923 59.8312C130.153 62.9637 127.629 65.3523 124.472 65.9362C124.411 63.6819 123.457 61.7032 122.003 60.4742C122.136 58.5657 122.117 56.6496 121.946 54.7442C121.85 53.4854 121.699 52.3111 121.541 51.2559C121.447 50.6553 121.311 50.0622 121.134 49.4808C120.637 48.9446 120.052 48.4986 119.405 48.1625C117.115 46.8665 112.403 45.4886 103.673 47.5145C102.248 47.8425 100.907 48.4675 99.7369 49.3492C99.7109 49.3654 99.6876 49.3855 99.6678 49.4088C98.88 50.1387 97.8773 51.0623 96.8401 51.5415C95.7658 52.038 94.6446 52.0579 93.7037 50.8835C93.679 50.8587 93.6666 50.8364 93.6444 50.8115C93.1505 50.1636 92.6788 49.3219 91.807 49.1556C89.9696 48.808 89.0757 50.6452 88.8435 52.1894C88.641 53.617 89.0584 54.8757 89.6684 56.0749C90.1792 57.0498 90.8467 57.9331 91.644 58.6892C91.8486 58.8881 92.0362 59.104 92.2046 59.3347C92.128 59.3483 92.0527 59.3691 91.9799 59.3968C91.811 59.4537 91.646 59.5217 91.486 59.6003C89.2633 60.6058 87.6803 63.1258 87.6458 66.0752C87.6458 66.1671 83.9191 66.1125 83.4474 66.0752C81.6298 65.9064 79.8394 65.3801 78.5601 64.0022C74.9298 60.0919 74.9471 54.2898 76.4387 49.7514C77.8513 45.4439 79.6492 41.2382 82.0052 37.3627C87.1099 28.9761 95.0299 22.7892 105.056 22.2331C107.461 22.1115 109.871 22.253 112.245 22.6551C113.369 22.8331 114.48 23.0819 115.572 23.4C125.794 27.8837 132.281 38.0479 132.222 49.9327" fill="#2E2E2E"/>
<path d="M126.294 144.89C125.087 147.99 122.212 149.763 119.873 148.842C117.535 147.92 116.616 144.68 117.821 141.581C119.026 138.482 121.903 136.706 124.242 137.63C126.581 138.553 127.502 141.793 126.294 144.893" fill="#3FBDF1"/>
<path d="M132.508 172.57C132.508 172.57 125.948 218.294 152.186 213.227C178.279 208.181 188.155 102.026 112.625 86.7585" stroke="black" stroke-width="2"/>
<path d="M71.0784 128.549C71.0784 128.549 49.909 146.402 61.3161 164.257" stroke="black" stroke-width="2"/>
<path d="M132.984 159.869C132.621 159.891 132.103 159.649 131.75 159.553C131.302 159.434 130.858 159.307 130.418 159.172C127.839 158.37 125.413 157.141 123.239 155.537C122.745 155.184 121.866 154.957 121.264 155.189C120.581 155.439 120.088 156.042 119.979 156.762C119.794 158.036 120.693 159.283 121.674 160.101C122.837 161.074 124.044 161.97 125.455 162.553C126.816 163.1 128.22 163.532 129.653 163.845C130.302 163.995 130.962 164.092 131.606 164.257" stroke="black" stroke-width="2"/>
<path d="M141.109 147.499C141.375 148.906 141.57 150.368 141.437 151.798C141.326 153.008 140.891 154.421 139.545 154.715C139.289 154.782 139.024 154.807 138.76 154.786C133.692 154.487 129.516 152.737 124.748 149.289C119.979 145.841 118.299 153.781 122.656 155.189" stroke="black" stroke-width="2"/>
<path d="M122.839 161.059C122.722 160.963 122.61 160.86 122.505 160.75C120.132 158.268 119.702 163.255 122.194 164.721L122.515 164.912C122.683 164.983 122.863 165.067 123.041 165.159C123.125 165.181 123.219 165.218 123.305 165.243C125.558 166.23 127.956 166.863 130.317 167.507C127.98 166.744 125.651 165.993 123.305 165.243C123.103 165.159 122.91 165.075 122.708 164.978C122.646 164.952 122.581 164.932 122.515 164.919C122.43 164.88 122.33 164.89 122.253 164.944C122.197 164.99 122.156 165.052 122.135 165.122C121.752 166.04 122.063 167.198 122.552 168.021C123.066 168.89 123.947 169.559 124.817 170.036C127.155 171.347 129.874 172.123 132.5 172.587C132.987 172.688 133.485 172.72 133.981 172.683" stroke="black" stroke-width="2"/>
<path d="M155.159 178.341C155.159 178.341 147.11 164.625 146.214 152.699C145.666 145.318 143.497 143.754 141.946 143.648" stroke="black" stroke-width="2"/>
<path d="M139.545 154.712L141.111 147.498L141.945 143.646L148.134 115.082C148.32 114.221 148.106 113.322 147.553 112.636C146.999 111.95 146.165 111.551 145.284 111.551H108.275C106.919 111.549 105.742 112.485 105.437 113.806L98.1494 145.056L92.8299 167.858L92.336 169.994C92.1369 170.86 92.3428 171.769 92.8955 172.465C93.4481 173.161 94.2874 173.568 95.176 173.57H132.366" stroke="black" stroke-width="2"/>
<path d="M93.6611 49.9096C93.6611 49.9096 95.6195 41.6044 106.678 40.5029C117.737 39.4015 120.508 47.6648 120.508 47.6648L120.16 48.497C120.16 48.497 105.621 42.6638 97.5927 50.9888C97.5927 50.9888 94.7008 52.3002 93.6611 49.9146" fill="#3FBDF1"/>
<path d="M96.6439 144.851L79.4432 140.554C78.3244 140.277 77.145 140.655 76.3955 141.53C75.646 142.406 75.4546 143.629 75.9009 144.692C76.3471 145.755 77.3548 146.475 78.5047 146.552L86.6371 147.088" stroke="black" stroke-width="2"/>
<path d="M137.837 96.8642C137.837 96.8642 100.267 127.299 67.4854 90.9495" stroke="black" stroke-width="2"/>
<path d="M66.3082 133.486C65.6043 126.294 62.0407 109.585 44.2324 110.052" stroke="black" stroke-width="2"/>
<path d="M152.563 110.047C152.563 110.047 149.207 110.971 147.92 113.228" stroke="black" stroke-width="3"/>
<path d="M122.005 60.282C123.508 61.5464 124.474 63.611 124.474 65.9472C124.474 69.8245 121.78 72.9609 118.451 72.9609C118.074 72.9589 117.699 72.915 117.332 72.83C121.209 69.8665 121.995 60.282 121.995 60.282" fill="#3FBDF1"/>
<path d="M100.071 75.9317C103.852 77.8131 108.258 77.983 112.172 76.3984C123.083 71.842 122.665 58.4123 121.532 51.1122C121.442 50.52 121.313 49.9343 121.147 49.3588C119.895 45.1851 116.627 41.7845 112.323 40.8189C103.985 38.9346 96.3618 43.6614 93.1982 50.0256" stroke="black" stroke-width="2"/>
<path d="M121.251 49.4896C121.251 49.4896 121.216 49.4402 121.144 49.3587C120.403 48.524 116.114 44.5405 103.697 47.4028C102.272 47.7286 100.931 48.3504 99.7626 49.2278C99.735 49.2437 99.71 49.2637 99.6885 49.2871" stroke="black" stroke-width="2"/>
<path d="M88.1527 69.7207H82.0108C77.5779 69.7207 74.0636 65.6607 72.5349 61.8501C70.3864 56.4911 71.7619 51.0061 73.6956 45.7977C75.3157 41.4389 77.3754 37.2035 80.0845 33.4127C86.1498 24.9296 95.3071 20.1237 105.833 21.0128C106.766 21.0918 107.695 21.2071 108.621 21.3585C122.754 23.6503 132.284 35.4674 132.213 49.7787C132.183 53.1033 131.75 56.4121 130.924 59.6324C130.148 62.7458 127.625 65.1194 124.471 65.7051" stroke="black" stroke-width="2"/>
<path d="M92.2097 59.1384C92.0405 58.9088 91.853 58.6932 91.6491 58.4939C90.8512 57.7432 90.1836 56.8652 89.6734 55.8959C89.0634 54.703 88.646 53.451 88.8485 52.0309C89.0757 50.5047 89.9697 48.6674 91.8121 49.0131C92.6838 49.181 93.1481 50.0158 93.6494 50.6603C95.556 53.1299 98.1811 50.648 99.7913 49.1563" stroke="black" stroke-width="2"/>
<path d="M122.004 60.282C123.508 61.5464 124.473 63.611 124.473 65.9472C124.473 69.8245 121.779 72.9609 118.45 72.9609C118.073 72.9589 117.698 72.915 117.331 72.83" stroke="black" stroke-width="2"/>
<path d="M109.115 65.0409C110.464 65.9473 113.721 66.6906 113.067 64.0037C112.281 60.8204 111.224 54.0191 117.697 53.5005C117.697 53.5005 120.547 53.6215 121.955 54.5896" stroke="black" stroke-width="2"/>
<path d="M111.553 70.3629C111.553 70.3629 108.293 72.0916 106.678 68.6465" stroke="black" stroke-width="2"/>
<path d="M104.942 58.1507C104.816 59.2448 105.243 60.1906 105.898 60.2672C106.552 60.3437 107.184 59.5263 107.313 58.4248C107.441 57.3234 107.009 56.3874 106.357 56.3109C105.705 56.2343 105.068 57.0518 104.942 58.1507Z" fill="black"/>
<path d="M115.555 58.7952C115.429 59.8868 115.857 60.8351 116.511 60.9116C117.165 60.9882 117.798 60.1708 117.924 59.0693C118.05 57.9679 117.622 57.0294 116.97 56.9554C116.318 56.8813 115.681 57.6962 115.555 58.7952Z" fill="black"/>
<path d="M109.116 54.1994C109.116 54.1994 107.12 51.1222 102.599 54.0413" stroke="black" stroke-width="2"/>
<path d="M112.622 76.196V93.2659" stroke="black" stroke-width="2"/>
<path d="M45.1377 178.341C45.1377 178.341 52.1736 171.673 61.3111 164.264C69.2657 157.811 78.8058 150.776 86.6418 147.091C87.6445 146.624 88.6175 146.207 89.5634 145.856C91.8202 144.996 94.2426 144.658 96.6486 144.868C97.1523 144.91 97.6535 144.977 98.1502 145.071" stroke="black" stroke-width="2"/>
<path d="M92.831 167.858C85.1037 170.172 80.2361 175.635 76.5638 183.303C74.1214 188.395 72.0074 194.25 68.1672 198.473C64.4356 202.551 60.0693 206.129 55.0141 208.431C45.842 212.604 34.5485 212.283 28.5893 203.208C24.559 197.053 22.9735 189.408 22.1684 182.216C20.7854 169.717 25.1517 134.486 44.2318 110.049C50.3613 102.189 58.0072 95.4516 67.4757 90.9421C74.1214 87.786 81.6339 85.7214 90.1491 85.1361L92.5347 72.8301" stroke="black" stroke-width="2"/>
<path d="M149.569 213.375V220.463" stroke="black" stroke-width="2"/>
<path d="M42.4689 211.8V220.463" stroke="black" stroke-width="2"/>
<path d="M99.6768 65.9473C99.7004 67.7986 99.043 69.5942 97.8295 70.9927C97.1491 71.3073 96.4084 71.4699 95.6588 71.4693C92.3322 71.4693 89.6354 68.3329 89.6354 64.4556C89.6115 62.6045 90.27 60.8094 91.4851 59.4127C92.165 59.0964 92.906 58.9329 93.6559 58.9336C96.9825 58.9336 99.6768 62.0725 99.6768 65.9473Z" fill="#3FBDF1"/>
<ellipse cx="93.6595" cy="65.9473" rx="6.01595" ry="7.01366" stroke="black" stroke-width="2"/>
</g>
<path fill-rule="evenodd" clip-rule="evenodd" d="M165.186 4.65398C157.606 2.39453 149.412 4.92327 144.424 11.061C139.436 17.1988 138.637 25.7369 142.399 32.694C146.16 39.6511 153.743 43.6571 161.61 42.844C169.477 42.031 176.079 36.5589 178.339 28.9795C181.424 18.6301 175.535 7.7392 165.186 4.65398ZM155.361 37.6083C153.849 37.1569 152.988 35.5647 153.44 34.0521C153.891 32.5395 155.483 31.6793 156.996 32.1308C158.509 32.5822 159.369 34.1744 158.917 35.687C158.466 37.1996 156.874 38.0598 155.361 37.6083ZM165.121 17.9083C165.159 17.8145 165.199 17.7182 165.24 17.6194H165.232C165.307 17.4447 165.386 17.263 165.468 17.0758C166.268 15.2486 167.3 12.8916 165.81 11.3392C164.324 9.79818 161.17 9.10916 159.498 10.7144C158.02 12.1212 157.838 14.8811 157.69 17.1308C157.649 17.7483 157.611 18.3274 157.549 18.8295C157.089 22.02 156.842 25.2376 156.809 28.4609C156.814 29.4982 158.602 30.0316 159.172 29.1673C161.526 25.6221 163.519 21.8504 165.121 17.9083Z" fill="#D7E8F0"/>
<path fill-rule="evenodd" clip-rule="evenodd" d="M178.713 116.779C175.939 119.6 175.137 123.815 176.682 127.458C178.227 131.1 181.815 133.454 185.771 133.42C189.728 133.386 193.275 130.971 194.757 127.303C196.24 123.634 195.366 119.433 192.543 116.66C188.691 112.875 182.5 112.928 178.713 116.779ZM190.984 128.838C190.43 129.401 189.524 129.409 188.961 128.855C188.398 128.301 188.39 127.396 188.944 126.833C189.302 126.468 189.827 126.323 190.322 126.451C190.817 126.579 191.205 126.961 191.342 127.453C191.478 127.946 191.342 128.473 190.984 128.838ZM184.925 120.516C184.75 120.288 184.576 120.062 184.403 119.836C184.305 119.711 184.205 119.575 184.104 119.435C183.531 118.65 182.884 117.764 181.81 118.07C180.78 118.367 179.738 119.599 180.057 120.715C180.332 121.698 181.511 122.425 182.472 123.018C182.735 123.18 182.981 123.332 183.188 123.476C184.491 124.428 185.857 125.291 187.276 126.06C187.735 126.302 188.389 125.635 188.142 125.18C187.255 123.543 186.073 122.007 184.925 120.516Z" fill="#3FBDF1"/>
<path fill-rule="evenodd" clip-rule="evenodd" d="M217.067 38.4307C219.788 35.0832 219.281 30.1637 215.933 27.4425C212.586 24.7214 207.666 25.2288 204.945 28.5759C202.224 31.9231 202.731 36.8426 206.078 39.5643C207.685 40.8715 209.746 41.4864 211.807 41.2739C213.868 41.0613 215.761 40.0385 217.067 38.4307ZM206.407 29.7649C206.664 29.4482 207.071 29.2927 207.474 29.3571C207.877 29.4214 208.215 29.6958 208.36 30.077C208.506 30.4581 208.437 30.888 208.18 31.2047C207.923 31.5214 207.516 31.6769 207.113 31.6126C206.711 31.5482 206.373 31.2738 206.227 30.8927C206.081 30.5116 206.15 30.0817 206.407 29.7649ZM211.838 35.9195C211.999 36.0912 212.158 36.2622 212.316 36.4328V36.418C212.399 36.5074 212.484 36.6041 212.57 36.703C213.087 37.2944 213.672 37.9638 214.516 37.6379C215.314 37.3367 216.05 36.2772 215.714 35.4153C215.422 34.6527 214.432 34.1647 213.625 33.7669C213.402 33.6572 213.193 33.5543 213.017 33.4544C211.906 32.7938 210.752 32.208 209.562 31.701C209.187 31.543 208.708 32.1209 208.94 32.4641C209.77 33.7021 210.818 34.8257 211.838 35.9195Z" fill="#3FBDF1"/>
<path d="M139.423 89.9319C142.179 94.6241 142.053 97.9655 141.337 103.381C141.05 105.443 143.27 106.839 145.071 105.801C160.977 96.664 175.824 103.89 194.791 99.4102C201.755 97.7753 210.438 94.387 216.39 88.9391C218.365 86.0067 219.42 82.5517 219.42 79.0162C219.42 64.1986 199.17 52.1692 174.195 52.1692C158.189 52.1692 144.127 57.1084 136.089 64.5493C136.089 64.5493 136.089 64.5493 136.066 64.5715C134.027 67.6264 132.905 70.9653 132.905 74.4499C132.893 79.767 136.847 85.531 139.423 89.9319Z" fill="#D7E8F0"/>
<path fill-rule="evenodd" clip-rule="evenodd" d="M132.965 74.4499V74.8253C133.054 80.0115 135.657 84.8445 138.739 89.0255C140.803 91.8211 143.253 94.9278 142.673 98.3556C142.426 99.867 141.574 101.238 141.361 102.754C141.149 104.27 141.957 106.162 143.488 106.241C144.461 106.29 145.288 105.599 146.059 105.006C150.615 101.475 156.537 100.154 162.296 99.9214C168.055 99.6892 173.807 100.45 179.569 100.613C187.876 100.86 196.315 99.8127 203.988 96.6269C210.863 93.777 217.163 89.0996 221.3 82.8515C225.365 76.717 222.962 67.8092 218.625 62.4748C214.56 57.469 208.67 54.2659 202.63 52.0087C186.382 45.9433 167.838 46.0816 151.815 52.7273C147.059 54.703 142.458 57.2714 138.892 60.9881C135.417 64.6086 133.002 69.4342 132.965 74.4499H132.965Z" stroke="black" stroke-width="2"/>
<ellipse cx="199.628" cy="74.114" rx="6.23821" ry="6.23822" fill="white"/>
<ellipse cx="179.451" cy="74.114" rx="6.23822" ry="6.23822" fill="white"/>
<ellipse cx="158.883" cy="74.114" rx="6.2382" ry="6.23822" fill="white"/>
</svg>
