<svg width="24" height="25" viewBox="0 0 24 25" fill="none" xmlns="http://www.w3.org/2000/svg">
<path d="M5.80021 12.294H4.02759L8.99018 20.3506L23.9164 0H22.1438L8.99018 14.7108L5.80021 12.294Z" fill="#109CF1"/>
<path d="M19.3347 21.5591C19.3347 21.7815 19.1544 21.9617 18.9317 21.9617H2.8195C2.71269 21.9617 2.61026 21.9193 2.5347 21.8438C2.45915 21.7683 2.41665 21.6659 2.41655 21.5591V5.44653C2.41655 5.22381 2.59717 5.04358 2.8195 5.04358H13.838L16.0361 2.62665H0.805515C0.591906 2.62695 0.387139 2.71197 0.23613 2.86305C0.0851218 3.01413 0.000202449 3.21894 0 3.43255V23.5727C0 24.0185 0.360856 24.3786 0.805515 24.3786H20.9457C21.0515 24.3787 21.1563 24.358 21.2541 24.3175C21.3518 24.2771 21.4407 24.2177 21.5155 24.1429C21.5903 24.0681 21.6497 23.9793 21.6901 23.8815C21.7305 23.7837 21.7513 23.6789 21.7512 23.5731V7.92239L19.3347 11.2795V21.5591Z" fill="#109CF1"/>
</svg>
