<svg width="20" height="18" viewBox="0 0 20 18" fill="none" xmlns="http://www.w3.org/2000/svg">
<path d="M19.0803 12.1601C19.1744 13.5261 19.0566 14.8984 18.731 16.2283C18.7034 16.3592 18.6497 16.4833 18.5733 16.5931C18.4968 16.7029 18.3991 16.7962 18.2859 16.8676C18.1727 16.939 18.0463 16.9869 17.9143 17.0085C17.7822 17.0301 17.6472 17.025 17.5171 16.9935C17.3871 16.962 17.2647 16.9047 17.1572 16.825C17.0497 16.7454 16.9593 16.6449 16.8913 16.5297C16.8233 16.4144 16.7791 16.2867 16.7614 16.154C16.7437 16.0214 16.7528 15.8866 16.7881 15.7575C17.0643 14.6306 17.1648 13.4677 17.0862 12.3101C16.9573 10.5926 16.4232 8.93 15.5277 7.45871C14.6322 5.98742 13.4007 4.74929 11.9343 3.84582C10.4679 2.94235 8.80825 2.39925 7.09141 2.26104C5.37457 2.12284 3.64941 2.39346 2.05735 3.05072C1.81254 3.15015 1.53832 3.14865 1.29461 3.04653C1.0509 2.94442 0.857516 2.75 0.7567 2.50576C0.655885 2.26151 0.655837 1.98729 0.756569 1.743C0.8573 1.49872 1.05062 1.30424 1.2943 1.20204C3.17843 0.424276 5.22005 0.10407 7.25183 0.267667C9.28361 0.431263 11.2477 1.07401 12.9831 2.14321C14.7185 3.21242 16.1759 4.67765 17.2357 6.41882C18.2955 8.15998 18.9276 10.1275 19.0803 12.1601ZM13.2309 13.7162C13.3075 14.716 13.1817 15.7579 12.8843 16.7262C12.8471 16.8532 12.7849 16.9715 12.7016 17.0742C12.6182 17.177 12.5153 17.2622 12.3988 17.3249C12.2822 17.3876 12.1544 17.4266 12.0227 17.4395C11.891 17.4525 11.7581 17.4392 11.6316 17.4004C11.5051 17.3616 11.3875 17.298 11.2858 17.2134C11.184 17.1289 11.1 17.0249 11.0387 16.9077C10.9774 16.7904 10.94 16.6621 10.9286 16.5303C10.9172 16.3984 10.9321 16.2657 10.9724 16.1396C11.1995 15.4049 11.2897 14.6348 11.2384 13.8675C11.1787 13.073 10.9632 12.298 10.604 11.5868C10.2448 10.8756 9.74896 10.2421 9.14489 9.72257C8.54083 9.20302 7.84032 8.80756 7.0834 8.55878C6.32647 8.31 5.52794 8.21278 4.73344 8.27267C3.97618 8.3355 3.23732 8.53921 2.55487 8.87333C2.43642 8.93029 2.30791 8.96336 2.17668 8.97066C2.04545 8.97796 1.91406 8.95933 1.79003 8.91585C1.666 8.87237 1.55174 8.80489 1.45379 8.71725C1.35584 8.62962 1.27611 8.52355 1.21915 8.4051C1.16219 8.28665 1.12912 8.15814 1.12182 8.02691C1.11453 7.89568 1.13315 7.7643 1.17663 7.64027C1.22011 7.51623 1.2876 7.40198 1.37523 7.30403C1.46287 7.20607 1.56894 7.12634 1.68739 7.06938C2.59487 6.62719 3.57717 6.35897 4.58345 6.2786C5.63982 6.19906 6.70151 6.32838 7.70789 6.65919C8.71427 6.99 9.64562 7.51581 10.4488 8.20659C11.2519 8.89738 11.9111 9.73961 12.3888 10.6852C12.8664 11.6308 13.1531 12.6612 13.2324 13.7175L13.2309 13.7162ZM7.79261 14.138C7.81818 14.478 7.77653 14.8198 7.67004 15.1437C7.56355 15.4676 7.3943 15.7674 7.17196 16.0259C6.94962 16.2844 6.67853 16.4966 6.37418 16.6503C6.06983 16.8041 5.73819 16.8964 5.39817 16.922C5.05815 16.9475 4.71643 16.9059 4.39251 16.7994C4.06859 16.6929 3.76881 16.5237 3.5103 16.3013C3.25179 16.079 3.0396 15.8079 2.88586 15.5035C2.73211 15.1992 2.63982 14.8675 2.61424 14.5275C2.56259 13.8408 2.78585 13.1617 3.23489 12.6397C3.68394 12.1176 4.32199 11.7952 5.00868 11.7436C5.69538 11.6919 6.37446 11.9152 6.89655 12.3642C7.41864 12.8133 7.74096 13.4513 7.79261 14.138Z" fill="#0B649D"/>
</svg>
