<svg width="20" height="18" viewBox="0 0 20 18" fill="none" xmlns="http://www.w3.org/2000/svg">
<path d="M19.0803 12.3492C19.1744 13.7152 19.0566 15.0875 18.731 16.4174C18.7034 16.5483 18.6497 16.6724 18.5733 16.7822C18.4968 16.892 18.3991 16.9853 18.2859 17.0567C18.1727 17.128 18.0463 17.176 17.9143 17.1976C17.7822 17.2192 17.6472 17.2141 17.5171 17.1826C17.3871 17.1511 17.2647 17.0938 17.1572 17.0141C17.0497 16.9345 16.9593 16.834 16.8913 16.7188C16.8233 16.6035 16.7791 16.4758 16.7614 16.3431C16.7437 16.2105 16.7528 16.0757 16.7881 15.9466C17.0643 14.8197 17.1648 13.6568 17.0862 12.4992C16.9573 10.7816 16.4232 9.11908 15.5277 7.64779C14.6322 6.1765 13.4007 4.93838 11.9343 4.03491C10.4679 3.13144 8.80825 2.58834 7.09141 2.45013C5.37457 2.31192 3.64941 2.58254 2.05735 3.23981C1.81254 3.33924 1.53832 3.33773 1.29461 3.23562C1.0509 3.13351 0.857516 2.93909 0.7567 2.69484C0.655885 2.45059 0.655837 2.17637 0.756569 1.93209C0.8573 1.68781 1.05062 1.49332 1.2943 1.39113C3.17843 0.613363 5.22005 0.293157 7.25183 0.456754C9.28361 0.62035 11.2477 1.26309 12.9831 2.3323C14.7185 3.40151 16.1759 4.86674 17.2357 6.6079C18.2955 8.34907 18.9276 10.3166 19.0803 12.3492ZM13.2309 13.9053C13.3075 14.9051 13.1817 15.947 12.8843 16.9153C12.8471 17.0423 12.7849 17.1606 12.7016 17.2633C12.6182 17.3661 12.5153 17.4513 12.3988 17.514C12.2822 17.5767 12.1544 17.6157 12.0227 17.6286C11.891 17.6416 11.7581 17.6283 11.6316 17.5895C11.5051 17.5506 11.3875 17.4871 11.2858 17.4025C11.184 17.318 11.1 17.214 11.0387 17.0968C10.9774 16.9795 10.94 16.8512 10.9286 16.7194C10.9172 16.5875 10.9321 16.4548 10.9724 16.3287C11.1995 15.594 11.2897 14.8239 11.2384 14.0566C11.1787 13.2621 10.9632 12.4871 10.604 11.7759C10.2448 11.0647 9.74896 10.4312 9.14489 9.91166C8.54083 9.3921 7.84032 8.99664 7.0834 8.74787C6.32647 8.49909 5.52794 8.40187 4.73344 8.46175C3.97618 8.52458 3.23732 8.7283 2.55487 9.06242C2.43642 9.11938 2.30791 9.15245 2.17668 9.15975C2.04545 9.16704 1.91406 9.14842 1.79003 9.10494C1.666 9.06146 1.55174 8.99398 1.45379 8.90634C1.35584 8.81871 1.27611 8.71263 1.21915 8.59419C1.16219 8.47574 1.12912 8.34723 1.12182 8.216C1.11453 8.08477 1.13315 7.95339 1.17663 7.82935C1.22011 7.70532 1.2876 7.59107 1.37523 7.49311C1.46287 7.39516 1.56894 7.31543 1.68739 7.25847C2.59487 6.81628 3.57717 6.54806 4.58345 6.46769C5.63982 6.38815 6.70151 6.51747 7.70789 6.84828C8.71427 7.17909 9.64562 7.7049 10.4488 8.39568C11.2519 9.08647 11.9111 9.9287 12.3888 10.8743C12.8664 11.8198 13.1531 12.8502 13.2324 13.9066L13.2309 13.9053ZM7.79261 14.3271C7.81818 14.6671 7.77653 15.0089 7.67004 15.3328C7.56355 15.6567 7.3943 15.9565 7.17196 16.215C6.94962 16.4735 6.67853 16.6857 6.37418 16.8394C6.06983 16.9932 5.73819 17.0855 5.39817 17.111C5.05815 17.1366 4.71643 17.095 4.39251 16.9885C4.06859 16.882 3.76881 16.7127 3.5103 16.4904C3.25179 16.2681 3.0396 15.997 2.88586 15.6926C2.73211 15.3883 2.63982 15.0566 2.61424 14.7166C2.56259 14.0299 2.78585 13.3508 3.23489 12.8287C3.68394 12.3066 4.32199 11.9843 5.00868 11.9327C5.69538 11.881 6.37446 12.1043 6.89655 12.5533C7.41864 13.0024 7.74096 13.6404 7.79261 14.3271Z" fill="#C2CFE0"/>
</svg>
