<svg width="25" height="25" viewBox="0 0 25 25" fill="none" xmlns="http://www.w3.org/2000/svg">
<path d="M18.6327 7.01992C18.3333 6.50266 17.8411 6.12511 17.2639 5.96992C16.9789 5.89155 16.6811 5.87108 16.388 5.90972C16.095 5.94837 15.8126 6.04534 15.5577 6.19492C15.2149 6.3926 14.9304 6.67717 14.7327 7.01992L13.2702 4.48867C13.1226 4.23247 12.9259 4.00788 12.6914 3.82774C12.4569 3.6476 12.1893 3.51544 11.9037 3.43882C11.6181 3.3622 11.3202 3.34262 11.027 3.3812C10.7339 3.41979 10.4512 3.51577 10.1952 3.66367C9.83884 3.86666 9.54653 4.16546 9.35143 4.52617C9.08423 4.21534 8.7372 3.9834 8.34781 3.8554C7.95842 3.7274 7.54146 3.7082 7.14195 3.79987C6.74245 3.89155 6.37557 4.09061 6.08094 4.37558C5.78631 4.66054 5.57512 5.02057 5.47018 5.4168C5.36689 5.79424 5.36689 6.19249 5.47018 6.56992C5.18848 6.60971 4.91756 6.70533 4.6733 6.85117C4.4171 6.99879 4.19251 7.19546 4.01237 7.42994C3.83223 7.66441 3.70007 7.93209 3.62345 8.21768C3.54683 8.50326 3.52725 8.80115 3.56583 9.09431C3.60441 9.38746 3.7004 9.67014 3.8483 9.92617L4.1858 10.5074C3.7908 10.5056 3.40247 10.6092 3.0608 10.8074C2.54527 11.1073 2.16923 11.5989 2.01468 12.1749C1.86013 12.751 1.93962 13.3648 2.2358 13.8824L5.70455 19.8918C6.40173 21.0933 7.42633 22.0717 8.6587 22.7127C9.89108 23.3538 11.2804 23.631 12.6644 23.5121C14.0484 23.3931 15.3701 22.8829 16.475 22.041C17.5799 21.1991 18.4226 20.0603 18.9046 18.7574C20.0973 17.6237 20.8756 16.1229 21.1153 14.4949C21.3549 12.8669 21.0419 11.2055 20.2264 9.77617L18.6327 7.01992ZM10.2327 5.31367C10.271 5.17195 10.3372 5.03928 10.4273 4.9234C10.5175 4.80751 10.6298 4.71072 10.7577 4.63867C10.8857 4.56472 11.027 4.51673 11.1736 4.49744C11.3202 4.47815 11.4691 4.48794 11.6119 4.52625C11.7547 4.56456 11.8886 4.63064 12.0058 4.72071C12.123 4.81078 12.2214 4.92307 12.2952 5.05117L14.4233 8.72617C14.1722 8.77612 13.9313 8.86803 13.7108 8.99805C13.364 9.19042 13.0782 9.47626 12.8858 9.82305L11.4233 7.28242C11.1984 6.90189 10.87 6.59303 10.4764 6.3918L10.3452 6.17617C10.1965 5.91438 10.1562 5.60484 10.2327 5.31367ZM6.55768 5.70742C6.61492 5.49204 6.73484 5.2985 6.90224 5.15138C7.06964 5.00425 7.27696 4.91015 7.49791 4.88103C7.71886 4.8519 7.94349 4.88906 8.14329 4.98778C8.3431 5.08651 8.50908 5.24235 8.62018 5.43555L9.0608 6.19492C8.73193 6.25576 8.42076 6.38915 8.14994 6.58538C7.87911 6.78161 7.65543 7.03574 7.49518 7.3293C7.30402 7.10202 7.0678 6.91686 6.80143 6.78555L6.67018 6.56055C6.52209 6.30199 6.48168 5.99554 6.55768 5.70742ZM15.1358 21.5887C13.7143 22.4084 12.0258 22.6308 10.4406 22.2073C8.85531 21.7837 7.50275 20.7487 6.67955 19.3293L3.2108 13.3199C3.13693 13.1919 3.08901 13.0506 3.06976 12.904C3.05051 12.7574 3.06032 12.6085 3.09863 12.4657C3.13693 12.323 3.20298 12.1891 3.293 12.0719C3.38303 11.9547 3.49526 11.8563 3.6233 11.7824C3.75134 11.7086 3.89268 11.6606 4.03924 11.6414C4.1858 11.6221 4.33471 11.6319 4.47748 11.6702C4.62025 11.7086 4.75408 11.7746 4.87133 11.8646C4.98857 11.9546 5.08693 12.0669 5.1608 12.1949L7.4108 16.0949C7.4602 16.1805 7.53127 16.2515 7.61685 16.3009C7.70243 16.3503 7.7995 16.3762 7.8983 16.3762C7.99679 16.3746 8.09338 16.3489 8.17955 16.3012C8.2436 16.2643 8.29975 16.2151 8.34479 16.1565C8.38982 16.0979 8.42286 16.0309 8.44202 15.9595C8.46117 15.8882 8.46607 15.8137 8.45642 15.7404C8.44677 15.6671 8.42278 15.5964 8.3858 15.5324L4.8233 9.36367C4.67412 9.10509 4.63377 8.79783 4.71113 8.50949C4.78848 8.22116 4.97722 7.97536 5.2358 7.82617C5.49439 7.67699 5.80165 7.63664 6.08998 7.714C6.37832 7.79136 6.62412 7.98009 6.7733 8.23867L10.3358 14.4074C10.3727 14.4714 10.4219 14.5276 10.4805 14.5726C10.5392 14.6176 10.6061 14.6506 10.6775 14.6698C10.7488 14.6889 10.8233 14.6938 10.8966 14.6842C10.9699 14.6746 11.0405 14.6506 11.1046 14.6137C11.1686 14.5767 11.2247 14.5276 11.2697 14.4689C11.3147 14.4103 11.3477 14.3434 11.3669 14.272C11.386 14.2006 11.3909 14.1262 11.3813 14.0529C11.3717 13.9796 11.3477 13.9089 11.3108 13.8449L8.4983 8.96992C8.35021 8.71136 8.3098 8.40491 8.3858 8.1168C8.42302 7.97338 8.48867 7.8389 8.57885 7.72134C8.66904 7.60377 8.78192 7.50553 8.9108 7.43242C9.16992 7.28558 9.47639 7.24652 9.76406 7.3237C10.0517 7.40088 10.2975 7.58809 10.4483 7.84492L14.3858 14.6699C14.4352 14.7555 14.5063 14.8265 14.5918 14.8759C14.6774 14.9253 14.7745 14.9512 14.8733 14.9512C14.9716 14.9485 15.068 14.9229 15.1546 14.8762C15.282 14.7999 15.3749 14.6771 15.4134 14.5336C15.4519 14.3901 15.433 14.2373 15.3608 14.1074L13.8608 11.5012C13.7871 11.3739 13.7392 11.2332 13.7201 11.0874C13.7009 10.9415 13.7108 10.7933 13.7491 10.6513C13.7875 10.5093 13.8535 10.3762 13.9435 10.2598C14.0334 10.1434 14.1455 10.046 14.2733 9.97305C14.3997 9.89767 14.5399 9.84827 14.6856 9.82775C14.8314 9.80723 14.9798 9.81599 15.1221 9.85354C15.2644 9.89108 15.3978 9.95664 15.5144 10.0464C15.6311 10.1361 15.7287 10.2482 15.8014 10.3762L17.3952 13.1418C17.8021 13.8446 18.0664 14.6208 18.1731 15.4259C18.2797 16.2309 18.2266 17.0491 18.0168 17.8337C17.8069 18.6182 17.4445 19.3537 16.9501 19.998C16.4558 20.6423 15.8392 21.1828 15.1358 21.5887ZM19.3546 16.3293C19.3755 15.0128 19.035 13.7158 18.3702 12.5793L16.7764 9.81367C16.5572 9.43424 16.2312 9.12774 15.8389 8.93242L15.7077 8.70742C15.6319 8.58035 15.5828 8.43915 15.5635 8.29246C15.5441 8.14577 15.5549 7.99668 15.5952 7.8543C15.6324 7.71088 15.698 7.5764 15.7882 7.45884C15.8784 7.34127 15.9913 7.24303 16.1202 7.16992C16.3793 7.02308 16.6858 6.98403 16.9734 7.0612C17.2611 7.13838 17.5069 7.32559 17.6577 7.58242L19.2514 10.3387C19.7695 11.2485 20.0505 12.274 20.0685 13.3208C20.0865 14.3676 19.841 15.4022 19.3546 16.3293ZM16.4389 2.84805L16.8327 1.39492C16.8843 1.26769 16.9807 1.16374 17.1037 1.10266C17.2266 1.04158 17.3677 1.02759 17.5003 1.06333C17.6329 1.09907 17.7478 1.18207 17.8234 1.29668C17.899 1.41129 17.9301 1.54961 17.9108 1.68555L17.5264 3.13867C17.495 3.25834 17.4243 3.36401 17.3258 3.43879C17.2272 3.51357 17.1064 3.55314 16.9827 3.55117C16.935 3.55417 16.8873 3.5478 16.8421 3.53242C16.698 3.49493 16.5746 3.40183 16.4991 3.27355C16.4235 3.14526 16.4019 2.99225 16.4389 2.84805ZM18.8858 3.7668L19.7389 2.53867C19.8247 2.4156 19.9559 2.33164 20.1036 2.30527C20.2512 2.27889 20.4034 2.31227 20.5264 2.39805C20.6495 2.48383 20.7335 2.61499 20.7598 2.76268C20.7862 2.91036 20.7528 3.06247 20.6671 3.18555L19.8046 4.41367C19.7538 4.48885 19.6854 4.5504 19.6053 4.5929C19.5252 4.63541 19.4359 4.65757 19.3452 4.65742C19.2283 4.65475 19.1145 4.61899 19.0171 4.5543C18.8968 4.46607 18.8158 4.33436 18.7913 4.18724C18.7668 4.04013 18.8007 3.88926 18.8858 3.7668ZM22.7389 5.53867L21.5108 6.3918C21.4155 6.46077 21.3003 6.49696 21.1827 6.49492C21.0638 6.49369 20.9483 6.4548 20.8529 6.38383C20.7574 6.31287 20.6869 6.21348 20.6515 6.09995C20.6161 5.98642 20.6176 5.86459 20.6558 5.75195C20.6939 5.63932 20.7668 5.54167 20.8639 5.47305L22.0921 4.61055C22.2151 4.52477 22.3672 4.49139 22.5149 4.51777C22.6626 4.54414 22.7938 4.6281 22.8796 4.75117C22.9653 4.87425 22.9987 5.02636 22.9723 5.17405C22.946 5.32173 22.862 5.45289 22.7389 5.53867Z" fill="#01A54E"/>
</svg>
