<svg width="25" height="24" viewBox="0 0 25 24" fill="none" xmlns="http://www.w3.org/2000/svg">
<path d="M21.0831 11.25H20.3331V12V15.9884L16.4537 11.509L16.2293 11.25H15.8867H10.7974C10.6136 11.25 10.4117 11.1788 10.1749 10.9025C9.93973 10.6282 9.83315 10.3365 9.83315 10V2C9.83315 1.66348 9.93973 1.37185 10.1749 1.09747C10.4117 0.821207 10.6136 0.75 10.7974 0.75H22.7974C22.965 0.75 23.1661 0.816944 23.4133 1.10528C23.6572 1.38991 23.7617 1.68025 23.7617 2V10C23.7617 10.3702 23.6513 10.6639 23.4333 10.9182C23.2169 11.1706 23.0143 11.25 22.7974 11.25H21.0831ZM8.56979 17.509L4.69029 21.9884V18V17.25H3.94029H2.226C2.04214 17.25 1.84028 17.1788 1.60348 16.9025C1.3683 16.6282 1.26172 16.3365 1.26172 16V8C1.26172 7.66348 1.3683 7.37185 1.60348 7.09747C1.84028 6.82121 2.04214 6.75 2.226 6.75H6.61886V10H6.61883L6.61889 10.0066C6.6295 11.2072 7.05947 12.2915 7.87085 13.2381C8.65954 14.1582 9.62836 14.6963 10.7625 14.7492L10.7799 14.75H10.7974H15.1903V16C15.1903 16.3308 15.0869 16.626 14.8563 16.9094C14.6305 17.1869 14.4433 17.25 14.2796 17.25H9.13672H8.79409L8.56979 17.509Z" stroke="#0B649D" stroke-width="1.5"/>
</svg>
