<svg width="16" height="17" viewBox="0 0 16 17" fill="none" xmlns="http://www.w3.org/2000/svg">
<path d="M5.16242 9.41034L4.85494 9.24329L4.59269 9.47496C4.14789 9.86789 3.55916 10.0905 2.94304 10.0922C2.51542 10.0929 2.09623 9.98771 1.72687 9.78863C1.35749 9.58953 1.05201 9.30415 0.838111 8.96296C0.624349 8.62199 0.508737 8.2361 0.500476 7.84305C0.492216 7.45002 0.591516 7.06034 0.790531 6.71196C0.989667 6.36336 1.28254 6.06698 1.64286 5.85425C2.00331 5.64144 2.41769 5.52044 2.84516 5.50494C3.27265 5.48943 3.69599 5.58005 4.07322 5.7665C4.45032 5.9529 4.76687 6.22785 4.99392 6.56182L5.24836 6.93609L5.64606 6.72009L10.4191 4.12759L10.7695 3.93732L10.662 3.55342C10.6119 3.37444 10.5852 3.18914 10.5822 3.00269C10.5813 2.48616 10.7666 1.98146 11.1127 1.57333C11.46 1.1639 11.9487 0.876231 12.4996 0.764351C13.0506 0.652439 13.6247 0.724484 14.1243 0.966517C14.6235 1.20838 15.0144 1.60327 15.2369 2.07978C15.4591 2.55567 15.5019 3.08774 15.3596 3.58853C15.2171 4.08981 14.8961 4.53479 14.4439 4.84513C13.9913 5.15577 13.4367 5.31088 12.8735 5.2806C12.3103 5.25031 11.7789 5.03685 11.3675 4.68097L11.1058 4.45454L10.8017 4.6198L5.63725 7.42627L5.38318 7.56434L5.37614 7.85341C5.37208 8.01989 5.34773 8.1858 5.30352 8.34501L5.19711 8.72825L5.5466 8.91813L10.8034 11.7741L11.1094 11.9403L11.3714 11.711C11.8045 11.3318 12.371 11.1105 12.9679 11.0931C13.5649 11.0756 14.1453 11.2635 14.6031 11.6174C15.0602 11.9708 15.363 12.4646 15.4634 13.0051C15.5637 13.5451 15.4567 14.103 15.1582 14.578C14.8592 15.0537 14.3861 15.4168 13.8209 15.5942C13.2553 15.7717 12.6409 15.7494 12.0919 15.532C11.5432 15.3148 11.1015 14.9196 10.842 14.4249C10.5827 13.931 10.5202 13.3675 10.6633 12.8356L10.7659 12.4546L10.4192 12.2663L5.16242 9.41034Z" stroke="#0B649D"/>
</svg>
