<svg width="35" height="28" viewBox="0 0 35 28" fill="none" xmlns="http://www.w3.org/2000/svg">
<path d="M32.8125 22.8574C32.8125 23.4376 32.582 23.994 32.1718 24.4042C31.7616 24.8145 31.2052 25.0449 30.625 25.0449H4.375C3.79484 25.0449 3.23844 24.8145 2.8282 24.4042C2.41797 23.994 2.1875 23.4376 2.1875 22.8574V9.73242C2.1875 9.15226 2.41797 8.59586 2.8282 8.18563C3.23844 7.77539 3.79484 7.54492 4.375 7.54492H6.93875C8.67833 7.54397 10.3464 6.85237 11.5763 5.62211L13.3919 3.81086C13.8009 3.40167 14.3555 3.1712 14.9341 3.16992H20.0616C20.6417 3.17005 21.198 3.4006 21.6081 3.81086L23.4194 5.62211C24.0289 6.2318 24.7525 6.71542 25.549 7.04534C26.3455 7.37527 27.1992 7.54503 28.0613 7.54492H30.625C31.2052 7.54492 31.7616 7.77539 32.1718 8.18563C32.582 8.59586 32.8125 9.15226 32.8125 9.73242V22.8574ZM4.375 5.35742C3.21468 5.35742 2.10188 5.81836 1.28141 6.63883C0.460936 7.4593 0 8.5721 0 9.73242L0 22.8574C0 24.0177 0.460936 25.1305 1.28141 25.951C2.10188 26.7715 3.21468 27.2324 4.375 27.2324H30.625C31.7853 27.2324 32.8981 26.7715 33.7186 25.951C34.5391 25.1305 35 24.0177 35 22.8574V9.73242C35 8.5721 34.5391 7.4593 33.7186 6.63883C32.8981 5.81836 31.7853 5.35742 30.625 5.35742H28.0613C26.901 5.35717 25.7884 4.89608 24.9681 4.07555L23.1569 2.2643C22.3366 1.44377 21.224 0.98267 20.0637 0.982422H14.9362C13.776 0.98267 12.6634 1.44377 11.8431 2.2643L10.0319 4.07555C9.21159 4.89608 8.09898 5.35717 6.93875 5.35742H4.375Z" fill="#0B649D"/>
<path d="M17.5 20.6699C16.0496 20.6699 14.6586 20.0938 13.633 19.0682C12.6074 18.0426 12.0312 16.6516 12.0312 15.2012C12.0312 13.7508 12.6074 12.3598 13.633 11.3342C14.6586 10.3086 16.0496 9.73242 17.5 9.73242C18.9504 9.73242 20.3414 10.3086 21.367 11.3342C22.3926 12.3598 22.9688 13.7508 22.9688 15.2012C22.9688 16.6516 22.3926 18.0426 21.367 19.0682C20.3414 20.0938 18.9504 20.6699 17.5 20.6699ZM17.5 22.8574C19.5306 22.8574 21.478 22.0508 22.9138 20.615C24.3496 19.1791 25.1562 17.2317 25.1562 15.2012C25.1562 13.1706 24.3496 11.2232 22.9138 9.78739C21.478 8.35156 19.5306 7.54492 17.5 7.54492C15.4694 7.54492 13.522 8.35156 12.0862 9.78739C10.6504 11.2232 9.84375 13.1706 9.84375 15.2012C9.84375 17.2317 10.6504 19.1791 12.0862 20.615C13.522 22.0508 15.4694 22.8574 17.5 22.8574ZM6.5625 10.8262C6.5625 11.1163 6.44727 11.3945 6.24215 11.5996C6.03703 11.8047 5.75883 11.9199 5.46875 11.9199C5.17867 11.9199 4.90047 11.8047 4.69535 11.5996C4.49023 11.3945 4.375 11.1163 4.375 10.8262C4.375 10.5361 4.49023 10.2579 4.69535 10.0528C4.90047 9.84766 5.17867 9.73242 5.46875 9.73242C5.75883 9.73242 6.03703 9.84766 6.24215 10.0528C6.44727 10.2579 6.5625 10.5361 6.5625 10.8262Z" fill="#0B649D"/>
</svg>
