<svg width="21" height="21" viewBox="0 0 21 21" fill="none" xmlns="http://www.w3.org/2000/svg">
<path d="M10.375 0.00439453C4.845 0.00439453 0.375 4.47439 0.375 10.0044C0.375 15.5344 4.845 20.0044 10.375 20.0044C15.905 20.0044 20.375 15.5344 20.375 10.0044C20.375 4.47439 15.905 0.00439453 10.375 0.00439453ZM14.675 14.3044C14.5825 14.3971 14.4726 14.4706 14.3516 14.5208C14.2307 14.571 14.101 14.5968 13.97 14.5968C13.839 14.5968 13.7093 14.571 13.5884 14.5208C13.4674 14.4706 13.3575 14.3971 13.265 14.3044L10.375 11.4144L7.485 14.3044C7.29802 14.4914 7.04443 14.5964 6.78 14.5964C6.51557 14.5964 6.26198 14.4914 6.075 14.3044C5.88802 14.1174 5.78298 13.8638 5.78298 13.5994C5.78298 13.4685 5.80877 13.3388 5.85887 13.2179C5.90898 13.0969 5.98242 12.987 6.075 12.8944L8.965 10.0044L6.075 7.11439C5.88802 6.92742 5.78298 6.67382 5.78298 6.40939C5.78298 6.14497 5.88802 5.89137 6.075 5.70439C6.26198 5.51742 6.51557 5.41237 6.78 5.41237C7.04443 5.41237 7.29802 5.51742 7.485 5.70439L10.375 8.59439L13.265 5.70439C13.3576 5.61181 13.4675 5.53837 13.5885 5.48827C13.7094 5.43816 13.8391 5.41237 13.97 5.41237C14.1009 5.41237 14.2306 5.43816 14.3515 5.48827C14.4725 5.53837 14.5824 5.61181 14.675 5.70439C14.7676 5.79698 14.841 5.90689 14.8911 6.02785C14.9412 6.14882 14.967 6.27846 14.967 6.40939C14.967 6.54032 14.9412 6.66997 14.8911 6.79094C14.841 6.9119 14.7676 7.02181 14.675 7.11439L11.785 10.0044L14.675 12.8944C15.055 13.2744 15.055 13.9144 14.675 14.3044Z" fill="black"/>
</svg>
