<svg width="57" height="56" viewBox="0 0 57 56" fill="none" xmlns="http://www.w3.org/2000/svg">
<rect x="3.5625" y="3.5" width="49.875" height="49" rx="6" fill="url(#paint0_radial_1746_2368)"/>
<rect x="3.5625" y="3.5" width="49.875" height="49" rx="6" fill="url(#paint1_radial_1746_2368)"/>
<rect x="3.5625" y="3.5" width="49.875" height="49" rx="6" fill="url(#paint2_radial_1746_2368)"/>
<path d="M40.9688 18.375C40.9688 19.8247 39.7725 21 38.2969 21C36.8212 21 35.625 19.8247 35.625 18.375C35.625 16.9253 36.8212 15.75 38.2969 15.75C39.7725 15.75 40.9688 16.9253 40.9688 18.375Z" fill="white"/>
<path fill-rule="evenodd" clip-rule="evenodd" d="M28.5 36.75C33.4188 36.75 37.4062 32.8325 37.4062 28C37.4062 23.1675 33.4188 19.25 28.5 19.25C23.5812 19.25 19.5938 23.1675 19.5938 28C19.5938 32.8325 23.5812 36.75 28.5 36.75ZM28.5 33.25C31.4513 33.25 33.8438 30.8995 33.8438 28C33.8438 25.1005 31.4513 22.75 28.5 22.75C25.5487 22.75 23.1562 25.1005 23.1562 28C23.1562 30.8995 25.5487 33.25 28.5 33.25Z" fill="white"/>
<path fill-rule="evenodd" clip-rule="evenodd" d="M10.6875 27.3C10.6875 21.4194 10.6875 18.4792 11.8524 16.2331C12.877 14.2574 14.512 12.6511 16.523 11.6444C18.8092 10.5 21.8019 10.5 27.7875 10.5H29.2125C35.1981 10.5 38.1908 10.5 40.477 11.6444C42.488 12.6511 44.123 14.2574 45.1476 16.2331C46.3125 18.4792 46.3125 21.4194 46.3125 27.3V28.7C46.3125 34.5806 46.3125 37.5208 45.1476 39.7669C44.123 41.7426 42.488 43.3489 40.477 44.3556C38.1908 45.5 35.1981 45.5 29.2125 45.5H27.7875C21.8019 45.5 18.8092 45.5 16.523 44.3556C14.512 43.3489 12.877 41.7426 11.8524 39.7669C10.6875 37.5208 10.6875 34.5806 10.6875 28.7V27.3ZM27.7875 14H29.2125C32.2641 14 34.3385 14.0027 35.9419 14.1314C37.5038 14.2568 38.3025 14.484 38.8597 14.763C40.2003 15.4341 41.2903 16.5049 41.9734 17.8221C42.2573 18.3695 42.4886 19.1542 42.6162 20.6886C42.7472 22.2639 42.75 24.302 42.75 27.3V28.7C42.75 31.698 42.7472 33.7361 42.6162 35.3114C42.4886 36.8458 42.2573 37.6305 41.9734 38.1779C41.2903 39.4951 40.2003 40.5659 38.8597 41.237C38.3025 41.516 37.5038 41.7432 35.9419 41.8686C34.3385 41.9973 32.2641 42 29.2125 42H27.7875C24.7359 42 22.6615 41.9973 21.0581 41.8686C19.4962 41.7432 18.6975 41.516 18.1403 41.237C16.7997 40.5659 15.7097 39.4951 15.0266 38.1779C14.7427 37.6305 14.5114 36.8458 14.3838 35.3114C14.2528 33.7361 14.25 31.698 14.25 28.7V27.3C14.25 24.302 14.2528 22.2639 14.3838 20.6886C14.5114 19.1542 14.7427 18.3695 15.0266 17.8221C15.7097 16.5049 16.7997 15.4341 18.1403 14.763C18.6975 14.484 19.4962 14.2568 21.0581 14.1314C22.6615 14.0027 24.7359 14 27.7875 14Z" fill="white"/>
<defs>
<radialGradient id="paint0_radial_1746_2368" cx="0" cy="0" r="1" gradientUnits="userSpaceOnUse" gradientTransform="translate(21.375 40.25) rotate(-54.9002) scale(44.9183 45.1947)">
<stop stop-color="#B13589"/>
<stop offset="0.79309" stop-color="#C62F94"/>
<stop offset="1" stop-color="#8A3AC8"/>
</radialGradient>
<radialGradient id="paint1_radial_1746_2368" cx="0" cy="0" r="1" gradientUnits="userSpaceOnUse" gradientTransform="translate(19.5937 54.25) rotate(-64.7472) scale(39.6657 40.1184)">
<stop stop-color="#E0E8B7"/>
<stop offset="0.444662" stop-color="#FB8A2E"/>
<stop offset="0.71474" stop-color="#E2425C"/>
<stop offset="1" stop-color="#E2425C" stop-opacity="0"/>
</radialGradient>
<radialGradient id="paint2_radial_1746_2368" cx="0" cy="0" r="1" gradientUnits="userSpaceOnUse" gradientTransform="translate(0.890628 5.25) rotate(-7.98933) scale(69.2503 14.5622)">
<stop offset="0.156701" stop-color="#406ADC"/>
<stop offset="0.467799" stop-color="#6A45BE"/>
<stop offset="1" stop-color="#6A45BE" stop-opacity="0"/>
</radialGradient>
</defs>
</svg>
