<svg width="20" height="17" viewBox="0 0 20 17" fill="none" xmlns="http://www.w3.org/2000/svg">
<path d="M9.86849 3.87021L10.0808 2.07253C10.1649 1.35012 10.9856 0.859911 11.8147 1.03596C13.062 1.30155 13.9382 2.25389 13.9382 3.34585V5.64892C13.9382 6.16113 13.9382 6.41762 14.073 6.60505C14.1496 6.71205 14.2548 6.80235 14.3804 6.86685C14.602 6.98143 14.9039 6.98143 15.5068 6.98143H15.8724C17.4447 6.98143 18.2303 6.98143 18.7141 7.27738C19.077 7.49972 19.3327 7.82526 19.4343 8.19405C19.569 8.68729 19.2671 9.30423 18.6624 10.5366L18.3614 11.1512C18.1869 11.5072 18.1154 11.8917 18.1528 12.2743C18.367 14.4552 16.2629 16.2923 13.6907 16.1717L4.06681 15.7171C3.01523 15.6678 2.4899 15.6428 2.01535 15.2975C1.53988 14.9522 1.45033 14.5963 1.27214 13.8853C0.8929 12.3727 0.910211 10.8109 1.32292 9.30423C1.5842 8.3572 2.68471 7.84726 3.82122 7.96868C6.8347 8.28739 9.56659 6.43659 9.86849 3.87097V3.87021Z" stroke="#0b649d" stroke-linecap="round" stroke-linejoin="round"/>
<path d="M5.61611 8.20795L5.48962 8.55473C4.67078 10.7982 4.71496 13.1948 5.61611 15.4169" stroke="#0b649d" stroke-linecap="round" stroke-linejoin="round"/>
</svg>
