<svg width="18" height="20" viewBox="0 0 18 20" fill="none" xmlns="http://www.w3.org/2000/svg">
<path d="M14.3385 6.33333C15.8113 6.33333 17.0052 5.13943 17.0052 3.66667C17.0052 2.19391 15.8113 1 14.3385 1C12.8658 1 11.6719 2.19391 11.6719 3.66667C11.6719 5.13943 12.8658 6.33333 14.3385 6.33333Z" stroke="#3C4852" stroke-width="1.8" stroke-linecap="round" stroke-linejoin="round"/>
<path d="M3.66667 12.5555C5.13943 12.5555 6.33333 11.3616 6.33333 9.88883C6.33333 8.41608 5.13943 7.22217 3.66667 7.22217C2.19391 7.22217 1 8.41608 1 9.88883C1 11.3616 2.19391 12.5555 3.66667 12.5555Z" stroke="#3C4852" stroke-width="1.8" stroke-linecap="round" stroke-linejoin="round"/>
<path d="M14.3385 18.7778C15.8113 18.7778 17.0052 17.5839 17.0052 16.1111C17.0052 14.6384 15.8113 13.4445 14.3385 13.4445C12.8658 13.4445 11.6719 14.6384 11.6719 16.1111C11.6719 17.5839 12.8658 18.7778 14.3385 18.7778Z" stroke="#3C4852" stroke-width="1.8" stroke-linecap="round" stroke-linejoin="round"/>
<path d="M5.96875 11.2311L12.0399 14.7689" stroke="#3C4852" stroke-width="1.8" stroke-linecap="round" stroke-linejoin="round"/>
<path d="M12.031 5.00891L5.96875 8.54669" stroke="#3C4852" stroke-width="1.8" stroke-linecap="round" stroke-linejoin="round"/>
</svg>
