<svg width="20" height="19" viewBox="0 0 20 19" fill="none" xmlns="http://www.w3.org/2000/svg">
    <path
        d="M19.1593 6.72936L13.4635 5.90157L10.9173 0.739654C10.8478 0.598324 10.7334 0.483914 10.592 0.41437C10.2376 0.23939 9.80687 0.385207 9.62965 0.739654L7.08346 5.90157L1.38763 6.72936C1.23059 6.7518 1.08702 6.82583 0.977097 6.93799C0.844206 7.07458 0.770977 7.25834 0.773501 7.44889C0.776025 7.63945 0.854095 7.8212 0.990557 7.95422L5.11157 11.972L4.13796 17.6454C4.11513 17.7774 4.12973 17.9131 4.18011 18.0372C4.2305 18.1613 4.31465 18.2688 4.42302 18.3475C4.53138 18.4263 4.65964 18.473 4.79324 18.4825C4.92683 18.4921 5.06043 18.464 5.17887 18.4014L10.2735 15.7229L15.3681 18.4014C15.5072 18.4755 15.6687 18.5001 15.8235 18.4732C16.2138 18.4059 16.4763 18.0358 16.409 17.6454L15.4354 11.972L19.5564 7.95422C19.6686 7.8443 19.7426 7.70073 19.765 7.54369C19.8256 7.15111 19.5519 6.78769 19.1593 6.72936Z"
        stroke="#3C4852" stroke-width="1.5" stroke-linecap="round" stroke-linejoin="round" />
</svg>