<svg width="39" height="38" viewBox="0 0 39 38" fill="none" xmlns="http://www.w3.org/2000/svg">
<path d="M38.1094 18.9675C38.1094 23.9403 36.1339 28.7095 32.6176 32.2258C29.1013 35.7421 24.3322 37.7175 19.3594 37.7175C14.3866 37.7175 9.61743 35.7421 6.10112 32.2258C2.58482 28.7095 0.609375 23.9403 0.609375 18.9675C0.609375 13.9947 2.58482 9.22558 6.10112 5.70928C9.61743 2.19297 14.3866 0.217529 19.3594 0.217529C24.3322 0.217529 29.1013 2.19297 32.6176 5.70928C36.1339 9.22558 38.1094 13.9947 38.1094 18.9675V18.9675ZM28.8047 11.866C28.6373 11.6991 28.4379 11.5678 28.2186 11.4798C27.9992 11.3917 27.7644 11.3488 27.5281 11.3537C27.2918 11.3585 27.0589 11.4109 26.8433 11.5078C26.6277 11.6047 26.4339 11.744 26.2734 11.9175L18.1336 22.2886L13.2281 17.3808C12.8949 17.0703 12.4542 16.9013 11.9988 16.9093C11.5434 16.9173 11.1089 17.1018 10.7868 17.4239C10.4648 17.7459 10.2803 18.1804 10.2722 18.6358C10.2642 19.0912 10.4332 19.532 10.7437 19.8652L16.9453 26.0691C17.1124 26.2359 17.3113 26.3673 17.5303 26.4555C17.7492 26.5437 17.9837 26.5869 18.2197 26.5825C18.4557 26.5781 18.6884 26.5263 18.904 26.43C19.1195 26.3337 19.3134 26.1951 19.4742 26.0222L28.8305 14.3269C29.1494 13.9953 29.3256 13.5518 29.3213 13.0916C29.3169 12.6315 29.1323 12.1915 28.807 11.866H28.8047Z" fill="#01A54E"/>
</svg>
