<svg width="78" height="97" viewBox="0 0 78 97" fill="none" xmlns="http://www.w3.org/2000/svg">
<path d="M22.502 9.52832H50.1886C57.1537 15.7564 63.2268 23.4382 68.1468 32.2435V86.0089H22.502V9.52832Z" fill="url(#paint0_linear)"/>
<path d="M22.502 9.52832H50.1886C57.1537 15.7564 63.2268 23.4382 68.1468 32.2435V86.0089H22.502V9.52832Z" stroke="#C8C8C8" stroke-width="0.25"/>
<path d="M50.1826 9.52832C57.139 15.7714 63.2118 23.4508 68.1455 32.2435C66.5052 30.1151 64.5164 28.4648 62.3181 27.4082C60.1199 26.3515 57.7654 25.914 55.4192 26.1262C55.7538 23.0244 55.4474 19.866 54.5299 16.9578C53.6123 14.0495 52.1148 11.4902 50.1826 9.52832Z" fill="url(#paint1_linear)"/>
<path d="M50.1826 9.52832C57.139 15.7714 63.2118 23.4508 68.1455 32.2435C66.5052 30.1151 64.5164 28.4648 62.3181 27.4082C60.1199 26.3515 57.7654 25.914 55.4192 26.1262C55.7538 23.0244 55.4474 19.866 54.5299 16.9578C53.6123 14.0495 52.1148 11.4902 50.1826 9.52832V9.52832Z" stroke="#C8C8C8" stroke-width="0.25"/>
<path d="M13.6113 19.5754H47.2649V27.7117H13.6113V19.5754Z" stroke="#C8C8C8" stroke-width="2"/>
<path d="M38.6235 59.8318C39.7358 57.0775 41.0103 53.9767 42.0128 50.8608L42.4138 49.6313C41.0915 43.2791 40.2991 38.1803 41.0079 34.8837C41.1566 34.4397 41.413 34.0669 41.7403 33.8188C42.0676 33.5708 42.4489 33.4604 42.8291 33.5035H43.4353C44.5905 33.4824 45.1323 35.3357 45.1944 36.0559C45.2032 37.1473 45.0899 38.2348 44.8578 39.2863C44.9145 38.1685 44.7836 37.0481 44.4736 35.9986C43.9962 34.6757 43.5403 33.8892 43.1322 33.7597C42.9869 33.9082 42.869 34.0948 42.7866 34.3066C42.7042 34.5183 42.6592 34.7502 42.6548 34.9861C42.5337 35.9216 42.4722 36.8678 42.471 37.8157C42.5274 40.6024 42.8749 43.3675 43.5045 46.0393C43.6334 45.5693 43.7432 45.1172 43.8387 44.6924C43.9795 44.0234 44.8721 39.5967 44.8721 39.5967C44.8721 39.5967 44.6478 45.4909 44.3327 47.2718C44.2659 47.6485 44.1919 48.0222 44.1131 48.4019C45.1699 52.2275 46.9235 55.6864 49.2328 58.4998C50.1399 59.4932 51.1326 60.3545 52.1924 61.0673C54.1809 60.6886 56.189 60.4983 58.1999 60.4977C59.8129 60.2923 61.4352 60.75 62.8255 61.8026C63.1319 62.1928 63.313 62.7123 63.3339 63.2611C63.3235 63.5477 63.2907 63.8323 63.236 64.1108C63.2599 63.9571 63.2599 63.2068 61.434 62.4655C59.0035 61.8817 56.5109 61.8378 54.0684 62.3359C57.8061 64.6442 61.4507 65.7923 62.6035 65.1053C62.8469 64.8999 63.0588 64.6406 63.2289 64.3399C63.1487 64.8386 63.0321 65.3269 62.8804 65.7983C62.6503 66.1673 62.3363 66.4386 61.9806 66.5758C60.1571 67.1785 55.4122 65.7682 51.2759 62.7849C46.606 63.69 42.0019 65.0717 37.5089 66.9163C33.5111 75.7637 30.5037 79.8258 28.0597 78.2799L27.1598 77.7104C26.9958 77.5434 26.8758 77.3173 26.8157 77.0623C26.7556 76.8072 26.7582 76.5351 26.8233 76.282C27.1073 74.5222 28.8568 71.8674 32.3702 69.2186C32.7473 68.9172 34.4324 67.8053 34.4324 67.8053C34.4324 67.8053 33.1841 69.3301 32.8929 69.6284C30.0884 72.5303 28.0191 76.1796 28.0692 77.5959V77.7194C30.456 77.2915 34.0242 71.1683 38.6164 59.8227L38.6235 59.8318ZM40.0723 60.7629C39.3521 62.4639 38.6154 64.1535 37.8622 65.8315C41.6911 63.8941 45.6712 62.472 49.7364 61.5886C49.2112 61.1327 48.7038 60.6449 48.216 60.1271C46.1199 57.8445 44.4144 55.0463 43.2038 51.9035C42.3185 54.9443 41.2682 57.9045 40.0604 60.7629" fill="#F91D0A"/>
<path d="M9.81738 14.9725H51.0228V32.4594H9.81738V14.9725Z" fill="url(#paint2_linear)"/>
<path d="M51.809 33.5044H9.07129V13.9202H51.809V33.5044ZM50.2743 15.8608H10.6084V31.5577H50.2743V15.8608Z" fill="url(#paint3_linear)"/>
<path d="M20.5869 17.5342H23.5847C23.9632 17.5036 24.3425 17.577 24.6965 17.7492C25.0504 17.9213 25.3706 18.1883 25.635 18.5317C26.149 19.3239 26.405 20.3334 26.351 21.3553C26.4049 22.3817 26.1491 23.3959 25.635 24.1939C25.3699 24.5356 25.0495 24.8009 24.6956 24.9715C24.3417 25.1422 23.9627 25.2141 23.5847 25.1823H22.3913V29.2474H20.5869V17.5342ZM22.3937 19.722V22.9946H23.3938C23.5456 23.0055 23.6975 22.973 23.838 22.8994C23.9786 22.8258 24.1041 22.7131 24.2053 22.5697C24.4099 22.2228 24.5113 21.7961 24.4917 21.3643C24.5136 20.9322 24.412 20.5045 24.2053 20.1589C24.1042 20.0153 23.9787 19.9025 23.8381 19.8289C23.6976 19.7553 23.5457 19.7229 23.3938 19.734H22.3937V19.722ZM29.4323 19.8275V26.9662H30.0791C30.3972 26.9931 30.7158 26.9253 31.0093 26.7683C31.3028 26.6112 31.563 26.3694 31.769 26.0622C32.1998 25.2838 32.407 24.3428 32.3561 23.3953C32.407 22.4535 32.2015 21.5179 31.7738 20.7435C31.5667 20.4364 31.3056 20.1947 31.0114 20.0377C30.7171 19.8808 30.3979 19.8129 30.0791 19.8395H29.4323V19.8275ZM27.6255 17.5553H29.535C30.3326 17.504 31.1312 17.6274 31.8955 17.92C32.4291 18.1821 32.8938 18.6279 33.2369 19.2067C33.572 19.7512 33.8208 20.3723 33.9696 21.0358C34.1367 21.8001 34.217 22.5905 34.2083 23.3833C34.2171 24.183 34.1367 24.9803 33.9696 25.7518C33.8208 26.4154 33.572 27.0364 33.2369 27.581C32.8895 28.1615 32.422 28.6099 31.8859 28.8768C31.1201 29.1703 30.3203 29.2977 29.5206 29.2534H27.6112V17.5342L27.6255 17.5553ZM35.5878 17.5342H40.4879V19.8184H37.409V21.9971H40.2946V24.2813H37.409V29.2474H35.6022V17.5342" fill="#FFF9F9"/>
<defs>
<linearGradient id="paint0_linear" x1="35.8268" y1="69.4399" x2="59.4514" y2="35.6212" gradientUnits="userSpaceOnUse">
<stop stop-color="white"/>
<stop offset="1" stop-color="#E1E1E1"/>
</linearGradient>
<linearGradient id="paint1_linear" x1="57.0923" y1="23.2966" x2="60.2256" y2="21.0088" gradientUnits="userSpaceOnUse">
<stop stop-color="white"/>
<stop offset="1" stop-color="#C8C8C8"/>
</linearGradient>
<linearGradient id="paint2_linear" x1="34.4227" y1="39.2697" x2="22.3471" y2="9.8319" gradientUnits="userSpaceOnUse">
<stop offset="0.127" stop-color="#8A0000"/>
<stop offset="0.244" stop-color="#900000" stop-opacity="0.999"/>
<stop offset="0.398" stop-color="#A00000" stop-opacity="0.999"/>
<stop offset="0.573" stop-color="#BC0000" stop-opacity="0.998"/>
<stop offset="0.761" stop-color="#E20000" stop-opacity="0.997"/>
<stop offset="0.867" stop-color="#FA0000" stop-opacity="0.996"/>
</linearGradient>
<linearGradient id="paint3_linear" x1="34.7602" y1="40.4985" x2="21.7302" y2="8.72737" gradientUnits="userSpaceOnUse">
<stop offset="0.315" stop-color="#5E0000"/>
<stop offset="0.444" stop-color="#830000" stop-opacity="0.999"/>
<stop offset="0.618" stop-color="#AE0000" stop-opacity="0.998"/>
<stop offset="0.775" stop-color="#CD0000" stop-opacity="0.997"/>
<stop offset="0.908" stop-color="#E00000" stop-opacity="0.996"/>
<stop offset="1" stop-color="#E70000" stop-opacity="0.996"/>
</linearGradient>
</defs>
</svg>
