<svg id="Layer_1" data-name="Layer 1" xmlns="http://www.w3.org/2000/svg" viewBox="0 0 20.16 20.29"><defs><style>.cls-1{fill:#0b649d;}</style></defs><path class="cls-1" d="M19.76,7.19C18.17,5.62,16.6,4.05,15,2.47L13,.41a1.17,1.17,0,0,0-1.78,0L8.79,2.82a1.14,1.14,0,0,0,0,1.76L9,4.79l-.11.11L7.1,6.7a11.26,11.26,0,0,0-3.46-.16A4.75,4.75,0,0,0,.94,7.7a1.24,1.24,0,0,0-.47.91,1.29,1.29,0,0,0,.44.94L5,13.65l-.15.15Q2.63,16,.41,18.25a1.15,1.15,0,0,0-.27,1.43,1.13,1.13,0,0,0,1,.61,1.24,1.24,0,0,0,.33,0,1.44,1.44,0,0,0,.64-.39q1.76-1.72,3.49-3.47l1.06-1.07,4,4c.11.1.22.2.34.29a1.13,1.13,0,0,0,1.53-.18,4.75,4.75,0,0,0,1.2-2.71,9.87,9.87,0,0,0-.18-3.5l1.49-1.48.45-.45a1.29,1.29,0,0,1,.16.17,1.34,1.34,0,0,0,.93.45h0a1.28,1.28,0,0,0,.92-.45l.65-.65c.51-.52,1-1,1.54-1.52a1.39,1.39,0,0,0,.42-1A1.55,1.55,0,0,0,19.76,7.19Zm-8.75,6a7.89,7.89,0,0,1,.24,3,2.87,2.87,0,0,1-.05.31L3.57,9a4.79,4.79,0,0,1,.73-.08A9.13,9.13,0,0,1,7,9.16a1.28,1.28,0,0,0,1.3-.35l3.17-3.17a1.09,1.09,0,0,0,0-1.68l-.26-.24.89-.84,5.2,5.21-.82.82-.18-.2a1.13,1.13,0,0,0-.89-.41,1.27,1.27,0,0,0-.88.42L13.2,10l-1.85,1.9A1.25,1.25,0,0,0,11,13.22Z"/></svg>