<svg width="42" height="44" viewBox="0 0 42 44" fill="none" xmlns="http://www.w3.org/2000/svg">
<path d="M19.58 28.86H21.5V26.66C23.74 26.18 25.34 24.56 25.34 22.76C25.34 20.66 23.62 19.02 21.04 19.02C19.04 19.02 17.56 19.96 16.46 21.28L17.7 22.52C18.5 21.56 19.5 20.84 20.82 20.84C22.36 20.84 23.3 21.86 23.3 22.96C23.3 24.14 21.76 25.1 19.58 25.26V28.86ZM20.54 33.24C21.26 33.24 21.84 32.62 21.84 31.88C21.84 31.2 21.26 30.58 20.54 30.58C19.78 30.58 19.2 31.2 19.2 31.88C19.2 32.62 19.78 33.24 20.54 33.24Z" fill="#E5704B"/>
<path d="M13.082 1.57143C13.082 1.15466 13.2502 0.754962 13.5496 0.460262C13.849 0.165561 14.255 0 14.6784 0H27.4493C27.8727 0 28.2787 0.165561 28.5781 0.460262C28.8774 0.754962 29.0456 1.15466 29.0456 1.57143C29.0456 1.9882 28.8774 2.3879 28.5781 2.6826C28.2787 2.9773 27.8727 3.14286 27.4493 3.14286H14.6784C14.255 3.14286 13.849 2.9773 13.5496 2.6826C13.2502 2.3879 13.082 1.9882 13.082 1.57143Z" fill="#E5704B"/>
<path d="M40.2182 25.1428C40.2182 30.144 38.2 34.9404 34.6075 38.4768C31.015 42.0133 26.1425 44 21.0619 44C15.9813 44 11.1088 42.0133 7.51634 38.4768C3.92383 34.9404 1.90558 30.144 1.90558 25.1428C1.90558 20.1416 3.92383 15.3452 7.51634 11.8088C11.1088 8.27235 15.9813 6.28561 21.0619 6.28561C26.1425 6.28561 31.015 8.27235 34.6075 11.8088C38.2 15.3452 40.2182 20.1416 40.2182 25.1428ZM37.0255 25.1428C37.0255 20.9751 35.3436 16.9781 32.3499 14.0311C29.3561 11.0841 25.2957 9.42848 21.0619 9.42848C16.8281 9.42848 12.7677 11.0841 9.77393 14.0311C6.78017 16.9781 5.0983 20.9751 5.0983 25.1428C5.0983 29.3105 6.78017 33.3075 9.77393 36.2545C12.7677 39.2015 16.8281 40.8571 21.0619 40.8571C25.2957 40.8571 29.3561 39.2015 32.3499 36.2545C35.3436 33.3075 37.0255 29.3105 37.0255 25.1428Z" fill="#E5704B"/>
<path d="M36.8769 5.16053C36.7296 5.01044 36.5535 4.89072 36.3587 4.80837C36.1639 4.72601 35.9545 4.68266 35.7425 4.68085C35.5305 4.67903 35.3203 4.71879 35.1241 4.7978C34.9279 4.87682 34.7497 4.9935 34.5998 5.14105C34.4499 5.28859 34.3314 5.46405 34.2511 5.65717C34.1709 5.85029 34.1305 6.05722 34.1323 6.26587C34.1342 6.47453 34.1782 6.68073 34.2619 6.87245C34.3455 7.06417 34.4671 7.23757 34.6196 7.38253L39.099 11.792C39.2463 11.9421 39.4224 12.0618 39.6172 12.1441C39.8119 12.2265 40.0214 12.2698 40.2334 12.2717C40.4453 12.2735 40.6555 12.2337 40.8517 12.1547C41.0479 12.0757 41.2262 11.959 41.376 11.8114C41.5259 11.6639 41.6445 11.4884 41.7247 11.2953C41.805 11.1022 41.8454 10.8953 41.8435 10.6866C41.8417 10.478 41.7977 10.2718 41.714 10.08C41.6303 9.88832 41.5087 9.71492 41.3563 9.56996L36.8769 5.16053Z" fill="#E5704B"/>
<path d="M7.38417 8.11864C7.53664 7.97368 7.65825 7.80028 7.74192 7.60856C7.82558 7.41684 7.86962 7.21064 7.87146 7.00199C7.8733 6.79333 7.83291 6.58641 7.75265 6.39328C7.67238 6.20016 7.55384 6.02471 7.40396 5.87716C7.25407 5.72961 7.07583 5.61293 6.87965 5.53392C6.68346 5.45491 6.47325 5.41515 6.26129 5.41696C6.04933 5.41877 5.83985 5.46212 5.64509 5.54448C5.45033 5.62684 5.27418 5.74655 5.12692 5.89664L0.647531 10.3061C0.495062 10.451 0.373447 10.6244 0.289783 10.8162C0.206119 11.0079 0.162081 11.2141 0.16024 11.4227C0.158398 11.6314 0.19879 11.8383 0.279056 12.0314C0.359322 12.2246 0.477857 12.4 0.627744 12.5476C0.77763 12.6951 0.955866 12.8118 1.15205 12.8908C1.34824 12.9698 1.55845 13.0096 1.77041 13.0078C1.98238 13.0059 2.19185 12.9626 2.38661 12.8802C2.58137 12.7979 2.75752 12.6782 2.90478 12.5281L7.38417 8.11864Z" fill="#E5704B"/>
</svg>
