<svg width="20" height="17" viewBox="0 0 20 17" fill="none" xmlns="http://www.w3.org/2000/svg">
<path d="M8.67133 2.20902L1.78055 13.7126C1.63848 13.9587 1.5633 14.2376 1.56251 14.5217C1.56171 14.8058 1.63532 15.0852 1.77601 15.332C1.9167 15.5789 2.11957 15.7845 2.36444 15.9286C2.6093 16.0727 2.88763 16.1502 3.17172 16.1533H16.9533C17.2374 16.1502 17.5157 16.0727 17.7606 15.9286C18.0054 15.7845 18.2083 15.5789 18.349 15.332C18.4897 15.0852 18.5633 14.8058 18.5625 14.5217C18.5617 14.2376 18.4865 13.9587 18.3445 13.7126L11.4537 2.20902C11.3086 1.96993 11.1044 1.77224 10.8608 1.63505C10.6171 1.49786 10.3421 1.42578 10.0625 1.42578C9.78285 1.42578 9.50793 1.49786 9.26425 1.63505C9.02057 1.77224 8.81636 1.96993 8.67133 2.20902Z" stroke="#3C4852" stroke-width="1.5" stroke-linecap="round" stroke-linejoin="round"/>
<path d="M10.0547 6.39233V9.64654" stroke="#3C4852" stroke-width="1.5" stroke-linecap="round" stroke-linejoin="round"/>
<path d="M10.0547 12.9001H10.0633" stroke="#3C4852" stroke-width="1.5" stroke-linecap="round" stroke-linejoin="round"/>
</svg>
