<svg width="22" height="22" viewBox="0 0 22 22" fill="none" xmlns="http://www.w3.org/2000/svg">
<path fill-rule="evenodd" clip-rule="evenodd" d="M10.929 0C4.89245 0 0 4.92422 0 11C0 17.0758 4.89245 22 10.929 22C16.9656 22 21.8581 17.0758 21.8581 11C21.8581 4.92422 16.9656 0 10.929 0ZM11.6111 17.1875C11.6111 17.5678 11.3059 17.875 10.928 17.875C10.5502 17.875 10.245 17.5678 10.245 17.1875C10.245 16.8072 10.5502 16.5 10.928 16.5C11.3059 16.5 11.6111 16.8072 11.6111 17.1875ZM11.6111 14.4375C11.6111 14.8178 11.3059 15.125 10.928 15.125C10.5502 15.125 10.245 14.8178 10.245 14.4375V4.8125C10.245 4.43223 10.5502 4.125 10.928 4.125C11.3059 4.125 11.6111 4.43223 11.6111 4.8125V14.4375Z" fill="#606060"/>
</svg>
