<svg id="Layer_1" data-name="Layer 1" xmlns="http://www.w3.org/2000/svg" viewBox="0 0 66.7 66.7"><defs><style>.cls-1{fill:#3d5675;}.cls-2{fill:#fff;}</style></defs><rect class="cls-1" width="66.7" height="66.7"/><path class="cls-2" d="M33.35,10.85h0a22.5,22.5,0,0,1,22.5,22.5v0a22.5,22.5,0,0,1-22.5,22.5H10.85a0,0,0,0,1,0,0V33.35a22.5,22.5,0,0,1,22.5-22.5Z"/><path class="cls-1" d="M31.76,44.73a1.94,1.94,0,0,0-1.52.57,2,2,0,0,0-.52,1.42,1.85,1.85,0,0,0,2,2,1.85,1.85,0,0,0,2.05-2,2.09,2.09,0,0,0-.52-1.42A2,2,0,0,0,31.76,44.73Z"/><path class="cls-1" d="M37.77,22.83a7.59,7.59,0,0,0-5.49-1.89,8,8,0,0,0-5.51,1.86A6,6,0,0,0,25,25.43a1.71,1.71,0,0,0,1.63,2.25h0a1.75,1.75,0,0,0,1.64-1.25,3.24,3.24,0,0,1,1-1.46,4.5,4.5,0,0,1,3.06-1,3.84,3.84,0,0,1,3,1.11,4.31,4.31,0,0,1,1,3.06,5.61,5.61,0,0,1-1.57,3.8l-2.44,2.52a8.84,8.84,0,0,0-1.9,2.85,10.66,10.66,0,0,0-.5,3.44h0A1.27,1.27,0,0,0,31.16,42H32a1.27,1.27,0,0,0,1.28-1.23h0a6.24,6.24,0,0,1,1.37-4.34l2-2q3-3.18,3-6.43A6.83,6.83,0,0,0,37.77,22.83Z"/></svg>