<svg width="14" height="15" viewBox="0 0 14 15" fill="none" xmlns="http://www.w3.org/2000/svg">
<path d="M4.26201 8.92034L3.93437 8.72616L3.66012 8.99044C3.31321 9.32475 2.86114 9.50826 2.39475 9.5097C2.07029 9.5102 1.75021 9.42327 1.46575 9.25601C1.18096 9.08855 0.94089 8.84582 0.770827 8.54989C0.600706 8.25387 0.50707 7.91568 0.500385 7.56868C0.4937 7.22168 0.574237 6.87969 0.732974 6.57656L0.293212 6.34628L0.732974 6.57656C0.89166 6.27353 1.12245 6.02075 1.40087 5.84143C1.67914 5.6622 1.99605 5.56204 2.3205 5.5492C2.64494 5.53636 2.96788 5.61119 3.25791 5.76758C3.54808 5.92404 3.79624 6.15733 3.97638 6.44639L4.23497 6.86133L4.6556 6.6121L8.54008 4.31048L8.86274 4.1193L8.76951 3.75603C8.72921 3.59898 8.70765 3.43595 8.70524 3.27162C8.70446 2.81499 8.85493 2.37409 9.12829 2.02249C9.40189 1.67059 9.78095 1.43043 10.1997 1.33765C10.6182 1.24493 11.0552 1.30396 11.4386 1.50656C11.8223 1.70939 12.1312 2.04519 12.3093 2.46129C12.4875 2.87765 12.5225 3.34617 12.4077 3.78712C12.2928 4.2279 12.0363 4.6105 11.6855 4.87317C11.3351 5.13552 10.911 5.26319 10.4843 5.23815C10.0575 5.21311 9.649 5.03652 9.32818 4.73376L9.05415 4.47516L8.73004 4.6673L4.52709 7.15889L4.28838 7.3004L4.28219 7.57783C4.27891 7.72453 4.25924 7.87044 4.2237 8.01005L4.1314 8.37271L4.45333 8.56351L8.73146 11.099L9.05754 11.2923L9.33169 11.0305C9.6697 10.7078 10.1052 10.5248 10.5578 10.5104C11.0102 10.496 11.4552 10.6508 11.811 10.9509C12.1672 11.2513 12.4106 11.6779 12.4917 12.1547C12.5729 12.6316 12.4854 13.1218 12.2475 13.5349C12.0097 13.9475 11.6393 14.2532 11.2077 14.401C10.7766 14.5486 10.309 14.5303 9.8892 14.349C9.46888 14.1674 9.12112 13.8329 8.91378 13.4019C8.70627 12.9706 8.655 12.4745 8.77065 12.0058L8.85961 11.6452L8.54013 11.4559L4.26201 8.92034Z" stroke="#0b649d"/>
</svg>
