<svg width="40" height="37" viewBox="0 0 40 37" fill="none" xmlns="http://www.w3.org/2000/svg">
<path d="M18.1632 1.26546C18.8573 -0.346462 21.1428 -0.346464 21.837 1.26546L25.7491 10.3499C26.0387 11.0222 26.6724 11.4826 27.4013 11.5503L37.25 12.4637C38.9976 12.6258 39.7038 14.7994 38.3853 15.9577L30.9544 22.4856C30.4045 22.9687 30.1624 23.7137 30.3234 24.4279L32.498 34.0768C32.8839 35.7889 31.0349 37.1323 29.5259 36.2362L21.0212 31.1863C20.3917 30.8125 19.6084 30.8125 18.9789 31.1863L10.4743 36.2362C8.96523 37.1323 7.11623 35.7889 7.50211 34.0768L9.67679 24.4279C9.83774 23.7138 9.59567 22.9687 9.0457 22.4856L1.61485 15.9577C0.296327 14.7994 1.00258 12.6258 2.75012 12.4637L12.5988 11.5503C13.3277 11.4826 13.9615 11.0222 14.251 10.3499L18.1632 1.26546Z" fill="#F7AC0E"/>
</svg>
