<svg width="22" height="20" viewBox="0 0 22 20" fill="none" xmlns="http://www.w3.org/2000/svg">
<path d="M6.28989 9.00408H5.56413C4.57373 8.97312 3.58654 9.11857 2.66382 9.4314C1.74111 9.74423 0.902554 10.2178 0.200208 10.8226L0 11.0247V17H3.40355V13.6082L3.86236 13.1608L4.07091 12.9515C5.15698 11.9863 6.5091 11.2761 8 10.8876C7.25355 10.3962 6.66485 9.74785 6.28989 9.00408Z" fill="#2ED47A"/>
<path d="M21.8273 10.8161C21.1351 10.2134 20.3086 9.74156 19.3992 9.42985C18.4897 9.11814 17.5167 8.97321 16.5406 9.00407C16.2412 9.00481 15.9421 9.01921 15.6444 9.04721C15.2679 9.74247 14.7035 10.3471 14 10.8089C15.5687 11.1885 16.9898 11.9342 18.111 12.9661L18.3165 13.1674L18.7605 13.6132V17H22V11.0174L21.8273 10.8161Z" fill="#2ED47A"/>
<path d="M5.26839 6.96577H5.51599C5.40095 5.90742 5.57428 4.83602 6.01506 3.88088C6.45583 2.92575 7.14522 2.12772 8 1.58313C7.69015 1.07597 7.26268 0.663722 6.75944 0.386751C6.2562 0.10978 5.69446 -0.022417 5.1292 0.00310416C4.56395 0.0286253 4.01458 0.21099 3.53488 0.532341C3.05517 0.853691 2.66159 1.30301 2.39266 1.8363C2.12373 2.36959 1.98869 2.96857 2.00074 3.57458C2.0128 4.18059 2.17154 4.77286 2.46143 5.29339C2.75132 5.81392 3.16242 6.24486 3.65446 6.54402C4.14651 6.84318 4.70264 7.0003 5.26839 7V6.96577Z" fill="#2ED47A"/>
<path d="M15.3362 6.3663C15.3457 6.56312 15.3457 6.76036 15.3362 6.95718C15.4876 6.98323 15.6406 6.99754 15.7939 7H15.9439C16.5005 6.9678 17.0399 6.77977 17.5096 6.45423C17.9793 6.12868 18.3634 5.67672 18.6243 5.14233C18.8853 4.60794 19.0143 4.00933 18.9987 3.4048C18.9832 2.80027 18.8237 2.2104 18.5356 1.69263C18.2476 1.17486 17.841 0.746826 17.3552 0.450207C16.8695 0.153588 16.3213 -0.00151028 15.7639 1.10853e-05C15.2065 0.00153245 14.659 0.159622 14.1746 0.458889C13.6903 0.758155 13.2856 1.1884 13 1.70774C13.7143 2.21379 14.3017 2.90432 14.7095 3.7174C15.1172 4.53048 15.3325 5.44066 15.3362 6.3663Z" fill="#2ED47A"/>
<path d="M10.5 10C12.433 10 14 8.433 14 6.5C14 4.567 12.433 3 10.5 3C8.567 3 7 4.567 7 6.5C7 8.433 8.567 10 10.5 10Z" fill="#2ED47A"/>
<path d="M11.0123 11.0074C9.94544 10.9637 8.88094 11.1394 7.88281 11.524C6.88467 11.9086 5.97354 12.494 5.20422 13.2452L5 13.4772V18.7234C5.00319 18.8943 5.03953 19.0629 5.10694 19.2195C5.17436 19.3762 5.27152 19.5178 5.3929 19.6363C5.51427 19.7548 5.65747 19.8479 5.81432 19.9103C5.97116 19.9727 6.13858 20.0031 6.30701 19.9998H15.693C15.8614 20.0031 16.0288 19.9727 16.1857 19.9103C16.3425 19.8479 16.4857 19.7548 16.6071 19.6363C16.7285 19.5178 16.8256 19.3762 16.8931 19.2195C16.9605 19.0629 16.9968 18.8943 17 18.7234V13.4938L16.8039 13.2452C16.0396 12.4917 15.1316 11.9046 14.1357 11.5198C13.1398 11.135 12.0769 10.9607 11.0123 11.0074Z" fill="#2ED47A"/>
</svg>
