<svg width="26" height="26" viewBox="0 0 26 26" fill="none" xmlns="http://www.w3.org/2000/svg">
<path fill-rule="evenodd" clip-rule="evenodd" d="M20.7913 24.3335C21.7307 24.3335 22.6315 23.9604 23.2957 23.2962C23.9599 22.632 24.333 21.7311 24.333 20.7918C24.333 19.8525 23.9599 18.9517 23.2957 18.2875C22.6315 17.6233 21.7307 17.2502 20.7913 17.2502C19.852 17.2502 18.9512 17.6233 18.287 18.2875C17.6228 18.9517 17.2497 19.8525 17.2497 20.7918C17.2497 21.7311 17.6228 22.632 18.287 23.2962C18.9512 23.9604 19.852 24.3335 20.7913 24.3335ZM20.7913 25.7502C22.1064 25.7502 23.3675 25.2278 24.2974 24.2979C25.2273 23.368 25.7497 22.1069 25.7497 20.7918C25.7497 19.4768 25.2273 18.2156 24.2974 17.2858C23.3675 16.3559 22.1064 15.8335 20.7913 15.8335C19.4763 15.8335 18.2151 16.3559 17.2853 17.2858C16.3554 18.2156 15.833 19.4768 15.833 20.7918C15.833 22.1069 16.3554 23.368 17.2853 24.2979C18.2151 25.2278 19.4763 25.7502 20.7913 25.7502Z" fill="#109CF1"/>
<path fill-rule="evenodd" clip-rule="evenodd" d="M20.7913 18.3125C20.9792 18.3125 21.1594 18.3871 21.2922 18.52C21.425 18.6528 21.4997 18.833 21.4997 19.0208V20.4984L22.0005 20.9992C22.1295 21.1328 22.2009 21.3117 22.1993 21.4975C22.1977 21.6832 22.1232 21.8608 21.9918 21.9922C21.8605 22.1235 21.6828 22.198 21.4971 22.1996C21.3114 22.2012 21.1325 22.1298 20.9989 22.0008L20.083 21.0849V19.0208C20.083 18.833 20.1576 18.6528 20.2905 18.52C20.4233 18.3871 20.6035 18.3125 20.7913 18.3125Z" fill="#109CF1"/>
<path fill-rule="evenodd" clip-rule="evenodd" d="M5 17C4.73478 17 4.48043 17.1054 4.29289 17.2929C4.10536 17.4804 4 17.7348 4 18V19C4 19.2652 4.10536 19.5196 4.29289 19.7071C4.48043 19.8946 4.73478 20 5 20H6C6.26522 20 6.51957 19.8946 6.70711 19.7071C6.89464 19.5196 7 19.2652 7 19V18C7 17.7348 6.89464 17.4804 6.70711 17.2929C6.51957 17.1054 6.26522 17 6 17H5Z" fill="black"/>
<path fill-rule="evenodd" clip-rule="evenodd" d="M10 17C9.73478 17 9.48043 17.1054 9.29289 17.2929C9.10536 17.4804 9 17.7348 9 18V19C9 19.2652 9.10536 19.5196 9.29289 19.7071C9.48043 19.8946 9.73478 20 10 20H11C11.2652 20 11.5196 19.8946 11.7071 19.7071C11.8946 19.5196 12 19.2652 12 19V18C12 17.7348 11.8946 17.4804 11.7071 17.2929C11.5196 17.1054 11.2652 17 11 17H10Z" fill="black"/>
<path fill-rule="evenodd" clip-rule="evenodd" d="M10 11C9.73478 11 9.48043 11.1054 9.29289 11.2929C9.10536 11.4804 9 11.7348 9 12V13C9 13.2652 9.10536 13.5196 9.29289 13.7071C9.48043 13.8946 9.73478 14 10 14H11C11.2652 14 11.5196 13.8946 11.7071 13.7071C11.8946 13.5196 12 13.2652 12 13V12C12 11.7348 11.8946 11.4804 11.7071 11.2929C11.5196 11.1054 11.2652 11 11 11H10Z" fill="black"/>
<path fill-rule="evenodd" clip-rule="evenodd" d="M15 11C14.7348 11 14.4804 11.1054 14.2929 11.2929C14.1054 11.4804 14 11.7348 14 12V13C14 13.2652 14.1054 13.5196 14.2929 13.7071C14.4804 13.8946 14.7348 14 15 14H16C16.2652 14 16.5196 13.8946 16.7071 13.7071C16.8946 13.5196 17 13.2652 17 13V12C17 11.7348 16.8946 11.4804 16.7071 11.2929C16.5196 11.1054 16.2652 11 16 11H15Z" fill="black"/>
<path fill-rule="evenodd" clip-rule="evenodd" d="M5 11C4.73478 11 4.48043 11.1054 4.29289 11.2929C4.10536 11.4804 4 11.7348 4 12V13C4 13.2652 4.10536 13.5196 4.29289 13.7071C4.48043 13.8946 4.73478 14 5 14H6C6.26522 14 6.51957 13.8946 6.70711 13.7071C6.89464 13.5196 7 13.2652 7 13V12C7 11.7348 6.89464 11.4804 6.70711 11.2929C6.51957 11.1054 6.26522 11 6 11H5Z" fill="black"/>
<path fill-rule="evenodd" clip-rule="evenodd" d="M1.66667 4.5C1.66667 4.31214 1.74129 4.13197 1.87413 3.99913C2.00697 3.86629 2.18714 3.79167 2.375 3.79167H5.91667V2.375H2.375C1.81141 2.375 1.27091 2.59888 0.872398 2.9974C0.473883 3.39591 0.25 3.93641 0.25 4.5V21.5C0.25 22.0636 0.473883 22.6041 0.872398 23.0026C1.27091 23.4011 1.81141 23.625 2.375 23.625H16.7223C16.4202 23.1923 16.1894 22.714 16.0388 22.2083H2.375C2.18714 22.2083 2.00697 22.1337 1.87413 22.0009C1.74129 21.868 1.66667 21.6879 1.66667 21.5V4.5ZM20.0833 15.8829C20.5532 15.8157 21.0302 15.8157 21.5 15.8829V4.5C21.5 3.93641 21.2761 3.39591 20.8776 2.9974C20.4791 2.59888 19.9386 2.375 19.375 2.375H17.25V3.79167H19.375C19.5629 3.79167 19.743 3.86629 19.8759 3.99913C20.0087 4.13197 20.0833 4.31214 20.0833 4.5V15.8829ZM7.33333 3.79167H14.8155V2.375H7.33333V3.79167Z" fill="#109CF1"/>
<path fill-rule="evenodd" clip-rule="evenodd" d="M21.5003 8.75016H1.66699V7.3335H21.5003V8.75016Z" fill="#109CF1"/>
<path d="M4.5 0.958333C4.5 0.770472 4.57463 0.590304 4.70747 0.457466C4.8403 0.324628 5.02047 0.25 5.20833 0.25C5.3962 0.25 5.57636 0.324628 5.7092 0.457466C5.84204 0.590304 5.91667 0.770472 5.91667 0.958333V4.5C5.91667 4.68786 5.84204 4.86803 5.7092 5.00087C5.57636 5.13371 5.3962 5.20833 5.20833 5.20833C5.02047 5.20833 4.8403 5.13371 4.70747 5.00087C4.57463 4.86803 4.5 4.68786 4.5 4.5V0.958333Z" fill="#109CF1"/>
<path d="M14.417 0.958333C14.417 0.770472 14.4916 0.590304 14.6245 0.457466C14.7573 0.324628 14.9375 0.25 15.1253 0.25C15.3132 0.25 15.4934 0.324628 15.6262 0.457466C15.759 0.590304 15.8337 0.770472 15.8337 0.958333V4.5C15.8337 4.68786 15.759 4.86803 15.6262 5.00087C15.4934 5.13371 15.3132 5.20833 15.1253 5.20833C14.9375 5.20833 14.7573 5.13371 14.6245 5.00087C14.4916 4.86803 14.417 4.68786 14.417 4.5V0.958333Z" fill="#109CF1"/>
</svg>
