<svg width="24" height="24" viewBox="0 0 24 24" fill="none" xmlns="http://www.w3.org/2000/svg">
<g clip-path="url(#clip0)">
<path d="M19.5 18.2071V18.5H4.5V18.2071L6.35355 16.3536L6.5 16.2071V16V11C6.5 8.09437 8.02219 5.78092 10.6153 5.16653L11 5.07538V4.68V4C11 3.44614 11.4461 3 12 3C12.5539 3 13 3.44614 13 4V4.68V5.07506L13.3843 5.16644C15.9681 5.78076 17.5 8.10482 17.5 11V16V16.2071L17.6464 16.3536L19.5 18.2071ZM13.4135 20.5C13.2061 21.0806 12.6488 21.5 12 21.5C11.3443 21.5 10.7907 21.0813 10.5854 20.5H13.4135Z" fill="#109CF1" stroke="#109CF1"/>
<path d="M18.6758 3.26915C19.9362 4.36464 20.9287 5.73448 21.577 7.27342C22.2254 8.81236 22.5123 10.4794 22.4158 12.1466L20.39 12.0293C20.4686 10.6718 20.235 9.31433 19.7071 8.06122C19.1792 6.8081 18.371 5.69268 17.3447 4.80065L18.6758 3.26915Z" fill="#109CF1"/>
<path d="M1.66844 12.2414C1.56628 10.5746 1.84757 8.9066 2.4907 7.36548C3.13383 5.82436 4.12169 4.45117 5.37837 3.35143L6.71467 4.87843C5.69139 5.77391 4.88701 6.89206 4.36332 8.14695C3.83964 9.40184 3.61059 10.7601 3.69377 12.1173L1.66844 12.2414Z" fill="#109CF1"/>
</g>
<defs>
<clipPath id="clip0">
<rect width="24" height="24" fill="white"/>
</clipPath>
</defs>
</svg>
