<svg width="22" height="22" viewBox="0 0 22 22" fill="none" xmlns="http://www.w3.org/2000/svg">
<g clip-path="url(#clip0)">
<path d="M12.5857 19.25C12.4246 19.5278 12.1933 19.7584 11.9149 19.9187C11.6366 20.079 11.3211 20.1634 10.9999 20.1634C10.6787 20.1634 10.3632 20.079 10.0849 19.9187C9.80654 19.7584 9.57522 19.5278 9.41406 19.25" stroke="#C2CFE0" stroke-width="2" stroke-linecap="round" stroke-linejoin="round"/>
<path d="M17.0769 11.9167C16.6691 10.4238 16.4747 8.88075 16.4994 7.33337" stroke="#C2CFE0" stroke-width="2" stroke-linecap="round" stroke-linejoin="round"/>
<path d="M5.73833 5.7384C5.57908 6.25505 5.49873 6.79277 5.5 7.3334C5.5 13.7501 2.75 15.5834 2.75 15.5834H15.5833" stroke="#C2CFE0" stroke-width="2" stroke-linecap="round" stroke-linejoin="round"/>
<path d="M16.4998 7.33348C16.5013 6.33712 16.2321 5.35907 15.721 4.50381C15.2098 3.64855 14.476 2.9482 13.5978 2.47756C12.7196 2.00693 11.73 1.7837 10.7348 1.83171C9.73962 1.87972 8.77615 2.19717 7.94733 2.75015" stroke="#C2CFE0" stroke-width="2" stroke-linecap="round" stroke-linejoin="round"/>
<path d="M0.917297 0.916626L21.084 21.0833" stroke="#C2CFE0" stroke-width="2" stroke-linecap="round" stroke-linejoin="round"/>
</g>
<defs>
<clipPath id="clip0">
<rect width="22" height="22" fill="white"/>
</clipPath>
</defs>
</svg>
