<svg width="24" height="24" viewBox="0 0 24 24" fill="none" xmlns="http://www.w3.org/2000/svg">
<path d="M18 9.75H16.5C16.4994 9.15345 16.2622 8.5815 15.8403 8.15967C15.4185 7.73784 14.8466 7.5006 14.25 7.5V6C15.2442 6.00119 16.1973 6.39666 16.9003 7.09966C17.6033 7.80267 17.9988 8.7558 18 9.75Z" fill="#109CF1"/>
<path d="M21 9.75H19.5C19.4984 8.3581 18.9448 7.02367 17.9606 6.03944C16.9763 5.05522 15.6419 4.50159 14.25 4.5V3C16.0396 3.00199 17.7553 3.71378 19.0208 4.97922C20.2862 6.24466 20.998 7.9604 21 9.75Z" fill="#109CF1"/>
<path d="M19.5007 21.75H19.3732C4.6357 20.9025 2.5432 8.4675 2.2507 4.6725C2.20498 4.07756 2.39746 3.48883 2.78579 3.03579C3.17413 2.58276 3.72651 2.30253 4.32145 2.25675C4.38095 2.25225 4.4407 2.25 4.5007 2.25H8.4532C8.75362 2.24971 9.0472 2.33963 9.29592 2.50812C9.54464 2.67661 9.73704 2.9159 9.8482 3.195L10.9882 6C11.098 6.27266 11.1252 6.57156 11.0665 6.85957C11.0079 7.14758 10.8659 7.412 10.6582 7.62L9.0607 9.2325C9.30922 10.651 9.98799 11.9587 11.0049 12.9784C12.0219 13.998 13.3279 14.6802 14.7457 14.9325L16.3732 13.32C16.5843 13.1146 16.8512 12.9759 17.1407 12.9213C17.4301 12.8666 17.7292 12.8983 18.0007 13.0125L20.8282 14.145C21.1031 14.2597 21.3376 14.4536 21.5019 14.702C21.6662 14.9504 21.7528 15.2422 21.7507 15.54V19.5C21.7507 20.0967 21.5136 20.669 21.0917 21.091C20.6697 21.5129 20.0974 21.75 19.5007 21.75ZM4.5007 3.75C4.40221 3.7497 4.30462 3.76881 4.21351 3.80623C4.12241 3.84365 4.03956 3.89864 3.96971 3.96808C3.89985 4.03751 3.84436 4.12003 3.8064 4.21091C3.76843 4.30179 3.74874 4.39926 3.74845 4.49775C3.74845 4.51875 3.7492 4.5395 3.7507 4.56C4.0957 9 6.3082 19.5 19.4557 20.25C19.6542 20.2619 19.8493 20.1945 19.9981 20.0625C20.1469 19.9306 20.2372 19.745 20.2492 19.5465L20.2507 19.5V15.54L17.4232 14.4075L15.2707 16.545L14.9107 16.5C8.3857 15.6825 7.5007 9.1575 7.5007 9.09L7.4557 8.73L9.5857 6.5775L8.4607 3.75H4.5007Z" fill="#109CF1"/>
</svg>
