<svg width="19" height="19" viewBox="0 0 19 19" fill="none" xmlns="http://www.w3.org/2000/svg">
<path fill-rule="evenodd" clip-rule="evenodd" d="M8.97907 0.619469C8.91285 0.627244 8.7116 0.649535 8.53186 0.669041C7.39687 0.792196 6.14 1.21808 5.12579 1.82322C3.835 2.59336 2.78588 3.64248 2.01575 4.93327C1.41556 5.93918 1.01692 7.10816 0.854271 8.33933C0.798576 8.76085 0.798576 10.0507 0.854271 10.4722C1.01692 11.7034 1.41556 12.8723 2.01575 13.8782C2.78588 15.169 3.835 16.2182 5.12579 16.9883C6.13171 17.5885 7.30068 17.9871 8.53186 18.1498C8.95337 18.2055 10.2432 18.2055 10.6647 18.1498C12.8068 17.8668 14.6225 16.9259 16.1043 15.3312C16.9242 14.449 17.5655 13.3516 17.9591 12.1578C18.2694 11.2168 18.3855 10.4675 18.3855 9.40576C18.3855 8.62032 18.3523 8.27332 18.2114 7.58251C17.728 5.21398 16.2062 3.09733 14.0708 1.82322C13.0751 1.22916 11.8878 0.82209 10.6991 0.667218C10.3974 0.627932 9.19235 0.59446 8.97907 0.619469ZM10.1975 3.1083C10.7643 3.30649 11.199 3.74265 11.3931 4.30789C11.5052 4.63422 11.5052 5.16427 11.3931 5.4906C11.1996 6.05398 10.7735 6.48272 10.1975 6.69349C9.90545 6.80038 9.29112 6.80038 8.99902 6.69349C8.42305 6.48272 7.99692 6.05398 7.80345 5.4906C7.69137 5.16427 7.69137 4.63422 7.80345 4.30789C8.02578 3.6604 8.55621 3.19155 9.23707 3.04064C9.45641 2.99203 9.96806 3.02808 10.1975 3.1083ZM10.9743 10.9194V14.0155H11.4903H12.0063V14.5315V15.0475H9.59828H7.19022V14.5315V14.0155H7.70623H8.22225V11.4354V8.85534H7.70623H7.19022V8.33933V7.82332H9.08227H10.9743V10.9194Z" fill="white"/>
</svg>
