<svg width="13" height="13" viewBox="0 0 13 13" fill="none" xmlns="http://www.w3.org/2000/svg">
<path d="M6.88281 0.522949C3.56942 0.522949 0.882812 3.20956 0.882812 6.52295C0.882812 9.83634 3.56942 12.5229 6.88281 12.5229C10.1962 12.5229 12.8828 9.83634 12.8828 6.52295C12.8828 3.20956 10.1962 0.522949 6.88281 0.522949ZM6.88281 11.5051C4.13192 11.5051 1.90067 9.27384 1.90067 6.52295C1.90067 3.77206 4.13192 1.54081 6.88281 1.54081C9.63371 1.54081 11.865 3.77206 11.865 6.52295C11.865 9.27384 9.63371 11.5051 6.88281 11.5051Z" fill="#3C4852"/>
<path d="M9.22143 8.21845L7.31161 6.83765V3.52291C7.31161 3.46399 7.26339 3.41577 7.20446 3.41577H6.56027C6.50134 3.41577 6.45312 3.46399 6.45312 3.52291V7.21131C6.45312 7.24613 6.4692 7.27827 6.49732 7.29836L8.7125 8.91354C8.76071 8.94836 8.82768 8.93765 8.8625 8.89077L9.24554 8.36845C9.28036 8.3189 9.26964 8.25193 9.22143 8.21845Z" fill="#3C4852"/>
</svg>
