<svg width="60" height="60" viewBox="0 0 60 60" fill="none" xmlns="http://www.w3.org/2000/svg">
<path d="M20.2053 55C13.5042 55 7.25765 53.0773 2 49.7597C6.46391 50.0447 14.3417 49.3623 19.2417 44.7515C11.8705 44.4179 8.54626 38.8408 8.11266 36.4574C8.73897 36.6957 11.726 36.9817 13.4122 36.3144C4.93293 34.217 3.63214 26.8763 3.9212 24.6359C5.51106 25.7323 8.20901 26.1136 9.26892 26.0183C1.36779 20.4412 4.21027 12.0517 5.60742 10.2404C11.2776 17.9899 19.7753 22.3423 30.2882 22.5844C30.09 21.7268 29.9853 20.8339 29.9853 19.9168C29.9853 13.3354 35.3778 8 42.0297 8C45.5053 8 48.637 9.4565 50.8354 11.7862C53.1579 11.2493 56.6532 9.99253 58.362 8.90568C57.5007 11.9564 54.8192 14.5013 53.1972 15.4445C53.2107 15.4766 53.184 15.4123 53.1972 15.4445C54.622 15.2319 58.4771 14.5011 60 13.4817C59.2469 15.1956 56.404 18.0452 54.071 19.6405C54.5051 38.5256 39.8584 55 20.2053 55Z" fill="#47ACDF"/>
</svg>
