<svg width="37" height="37" viewBox="0 0 37 37" fill="none" xmlns="http://www.w3.org/2000/svg">
<path d="M3.93964 11.0908H0.339844V32.691C0.339844 34.6764 1.95435 36.291 3.93964 36.291H25.5384V32.691H3.93964V11.0908Z" fill="#E5704B"/>
<path d="M32.7377 0.291016H11.1389C10.1841 0.291016 9.26851 0.670303 8.59342 1.34544C7.91833 2.02057 7.53906 2.93625 7.53906 3.89104V25.4912C7.53906 26.446 7.91833 27.3617 8.59342 28.0368C9.26851 28.7119 10.1841 29.0912 11.1389 29.0912H32.7377C33.6924 29.0912 34.608 28.7119 35.2831 28.0368C35.9582 27.3617 36.3375 26.446 36.3375 25.4912V3.89104C36.3375 2.93625 35.9582 2.02057 35.2831 1.34544C34.608 0.670303 33.6924 0.291016 32.7377 0.291016ZM16.5386 21.8912V7.49106L29.1379 14.6911L16.5386 21.8912Z" fill="#E5704B"/>
</svg>
