<svg width="23" height="22" viewBox="0 0 23 22" fill="none" xmlns="http://www.w3.org/2000/svg">
<path fill-rule="evenodd" clip-rule="evenodd" d="M11.2673 0C5.20432 0 0.289062 4.91526 0.289062 10.9782C0.289062 17.0412 5.20432 21.9565 11.2673 21.9565C17.3303 21.9565 22.2456 17.0412 22.2456 10.9782C22.2456 4.91526 17.3303 0 11.2673 0ZM7.27522 9.98022C7.01053 9.98022 6.75668 10.0854 6.56951 10.2725C6.38235 10.4597 6.2772 10.7136 6.2772 10.9782C6.2772 11.2429 6.38235 11.4968 6.56951 11.684C6.75668 11.8711 7.01053 11.9763 7.27522 11.9763H15.2594C15.5241 11.9763 15.7779 11.8711 15.9651 11.684C16.1523 11.4968 16.2574 11.2429 16.2574 10.9782C16.2574 10.7136 16.1523 10.4597 15.9651 10.2725C15.7779 10.0854 15.5241 9.98022 15.2594 9.98022H7.27522Z" fill="#0B649D"/>
</svg>
