<svg width="17" height="17" viewBox="0 0 17 17" fill="none" xmlns="http://www.w3.org/2000/svg">
<path d="M13.104 2.8335C13.6919 2.8335 14.1665 3.30808 14.1665 3.896V13.1043C14.1665 13.6922 13.6919 14.1668 13.104 14.1668C12.5161 14.1668 12.0415 13.6922 12.0415 13.1043V3.896C12.0415 3.30808 12.5161 2.8335 13.104 2.8335ZM4.604 9.91683C5.19192 9.91683 5.6665 10.3914 5.6665 10.9793V13.1043C5.6665 13.6922 5.19192 14.1668 4.604 14.1668C4.01609 14.1668 3.5415 13.6922 3.5415 13.1043V10.9793C3.5415 10.3914 4.01609 9.91683 4.604 9.91683ZM8.854 6.37516C9.44192 6.37516 9.9165 6.84975 9.9165 7.43766V13.1043C9.9165 13.6922 9.44192 14.1668 8.854 14.1668C8.26609 14.1668 7.7915 13.6922 7.7915 13.1043V7.43766C7.7915 6.84975 8.26609 6.37516 8.854 6.37516Z" fill="#E0F3FF"/>
</svg>
