<svg width="40" height="40" viewBox="0 0 40 40" fill="none" xmlns="http://www.w3.org/2000/svg">
<path d="M15.4073 26H33.4073M15.4073 18H21.9528M15.4073 10H21.9528M10.4982 33C10.4982 34.3261 10.0672 35.5979 9.30002 36.5355C8.53283 37.4732 7.49229 38 6.40732 38M10.4982 33L10.5391 10H2.31641V33C2.31641 34.3261 2.74741 35.5979 3.51461 36.5355C4.2818 37.4732 5.32234 38 6.40732 38M10.4982 33V2H38.3164V33C38.3164 34.3261 37.8854 35.5979 37.1182 36.5355C36.351 37.4732 35.3105 38 34.2255 38H6.40732M26.8619 10H31.771V18H26.8619V10Z" stroke="#5A72C8" stroke-width="3"/>
</svg>
