<svg width="14" height="16" viewBox="0 0 14 16" fill="none" xmlns="http://www.w3.org/2000/svg">
    <path
        d="M2.4519 2.50842C2.77207 2.51935 2.92885 2.5291 3.00751 2.54787C3.00878 2.54817 3.01 2.54847 3.01117 2.54877C3.01546 2.63476 3.04898 2.73084 3.08955 2.81993C3.1351 2.91996 3.19806 3.02918 3.26999 3.13666C3.41261 3.34976 3.60061 3.57096 3.77859 3.70829L3.86696 3.59376L3.77859 3.70829C4.06881 3.93224 4.32133 4.06514 4.76752 4.14269C5.20127 4.21808 5.823 4.24203 6.85121 4.2575C8.83086 4.28735 9.51149 4.21882 10.1616 3.87925L10.1616 3.87924C10.3617 3.77474 10.5625 3.59268 10.7253 3.392C10.888 3.19145 11.024 2.95844 11.0827 2.74316L11.0827 2.74316L11.135 2.55125L11.6405 2.52095L11.6319 2.37655L11.6405 2.52095C11.8061 2.51102 11.9721 2.50463 12.1056 2.50233C12.1966 2.50075 12.2657 2.50129 12.3091 2.50289C12.3107 2.50969 12.3124 2.51774 12.3142 2.52722C12.331 2.618 12.3444 2.78489 12.354 3.08798C12.3729 3.68967 12.376 4.79146 12.376 6.80384V11.2204V11.3799L12.5348 11.3644L12.771 11.3412L12.7711 11.3412L13.0073 11.3182L13.1379 11.3054V11.1742V6.57459V1.975V1.8334L12.9964 1.83037L12.0298 1.80971L12.0297 1.80971C11.6061 1.80069 11.3747 1.7914 11.2471 1.77241C11.2177 1.76804 11.198 1.76366 11.1852 1.76017C11.1765 1.69133 11.1636 1.60327 11.154 1.54864C11.1448 1.49588 11.1326 1.37874 11.1277 1.29156L11.1186 1.12738L11.111 0.99073H10.9741H7.06475H3.15537H3.01071V1.13539V1.53694V1.79383H2.16729H1.1792H1.03454V1.93849V8.38763C1.03454 10.1614 1.03856 11.7774 1.04503 12.9521C1.04827 13.5394 1.05213 14.0167 1.05641 14.3484C1.05855 14.5141 1.0608 14.644 1.06315 14.7333C1.06432 14.7777 1.06553 14.8131 1.06683 14.8381C1.06746 14.8503 1.0682 14.8619 1.06916 14.8715C1.06959 14.8759 1.07035 14.8829 1.07173 14.8904C1.07235 14.8938 1.07379 14.9012 1.07659 14.91C1.07797 14.9144 1.08067 14.9223 1.0853 14.9315C1.0888 14.9385 1.09938 14.9589 1.12127 14.9775L1.12127 14.9775C1.13816 14.9918 1.15431 14.9987 1.16024 15.0012C1.16793 15.0044 1.1744 15.0062 1.17816 15.0073C1.18572 15.0093 1.19203 15.0104 1.19514 15.0109C1.20186 15.0119 1.20813 15.0125 1.21221 15.0129C1.22105 15.0136 1.23172 15.0142 1.24299 15.0147C1.26607 15.0156 1.29857 15.0165 1.3393 15.0172C1.4211 15.0187 1.53989 15.0199 1.69126 15.0208C1.99419 15.0226 2.42962 15.0232 2.96505 15.0226C4.03589 15.0216 5.50775 15.0159 7.12225 15.0058L13.0358 15.0228L13.1849 15.0233L13.1808 14.8742L13.1635 14.242C13.1717 14.0538 13.1748 13.8985 13.1707 13.772C13.1666 13.646 13.1551 13.5399 13.1302 13.4552C13.1049 13.3694 13.0608 13.289 12.9796 13.2394C12.9004 13.1911 12.8123 13.1887 12.7366 13.1979C12.6913 13.2033 12.6328 13.2125 12.5795 13.2425C12.5185 13.2767 12.4797 13.3287 12.4553 13.3902C12.4332 13.4461 12.4217 13.5133 12.4137 13.588C12.4054 13.6644 12.3998 13.7604 12.3941 13.8791C12.3832 14.1066 12.3706 14.2161 12.3512 14.2731C12.3463 14.2874 12.3425 14.2936 12.3409 14.2957C12.3391 14.2966 12.3337 14.2991 12.3213 14.3022C12.3198 14.3022 12.3127 14.3029 12.2966 14.3037C12.2748 14.3048 12.2439 14.3059 12.204 14.3071C12.1245 14.3093 12.0119 14.3113 11.8696 14.3133C11.5852 14.3171 11.1843 14.3203 10.6962 14.3226C9.72006 14.3273 8.3962 14.3287 6.96032 14.3257L1.88181 14.3152L1.86018 8.4723C1.85408 6.82612 1.85219 5.32148 1.85405 4.22348C1.85499 3.67443 1.85686 3.2273 1.85961 2.91507C1.86099 2.75887 1.86259 2.63692 1.86438 2.553C1.86464 2.54097 1.8649 2.5298 1.86516 2.51947C1.88906 2.51644 1.9184 2.51364 1.95328 2.51129C2.07538 2.50308 2.24805 2.50147 2.4519 2.50842ZM2.4519 2.50842L2.45684 2.36385L2.4519 2.50842ZM4.65201 7.41862L4.65204 7.41863C4.65925 7.42206 4.66505 7.42487 4.66987 7.42722C4.67413 7.42242 4.67912 7.41655 4.68486 7.40938C4.76518 7.30917 4.89965 7.08341 5.18825 6.59886C5.20711 6.5672 5.22662 6.53445 5.24681 6.50055C5.46076 6.14145 5.69654 5.76472 5.76998 5.6675M4.65201 7.41862L5.76998 5.6675M4.65201 7.41862C4.6391 7.41248 4.61843 7.3954 4.59617 7.36978C4.58634 7.35847 4.57829 7.34793 4.5728 7.34035L4.56692 7.332L4.56599 7.33062L4.56594 7.33054L4.56586 7.33041L4.56581 7.33034L4.56575 7.33025L4.5618 7.32407L4.55686 7.31793L4.44418 7.40865M4.65201 7.41862L4.44418 7.40865M5.76998 5.6675C5.82022 5.60095 5.88248 5.53087 5.97107 5.50223C6.06657 5.47135 6.15497 5.49956 6.22653 5.53212M5.76998 5.6675L6.22653 5.53212M6.22653 5.53212C6.3415 5.58443 6.44716 5.65149 6.50231 5.74352M6.22653 5.53212L6.50231 5.74352M4.44418 7.40865L4.55684 7.31791L4.55681 7.31787L4.5567 7.31773L4.55631 7.31725L4.55485 7.31545L4.54929 7.30857L4.5283 7.28281C4.51021 7.26068 4.48427 7.22915 4.45272 7.19135C4.38971 7.11584 4.30394 7.01482 4.21346 6.91351C4.12349 6.81277 4.02669 6.70929 3.94202 6.63008C3.9 6.59076 3.85783 6.55446 3.81894 6.52708C3.79953 6.51341 3.77794 6.49983 3.75531 6.48917C3.73489 6.47956 3.70153 6.46644 3.66179 6.46644C3.57559 6.46644 3.47488 6.48201 3.40246 6.55185C3.32155 6.62988 3.3151 6.73489 3.33235 6.82198C3.34933 6.90769 3.39308 7.00255 3.45223 7.10299C3.51257 7.20546 3.59468 7.32319 3.69708 7.45622C3.97019 7.81103 4.19655 8.0845 4.36652 8.26502C4.45083 8.35456 4.52549 8.42581 4.58781 8.47285C4.61837 8.49592 4.65245 8.5182 4.68791 8.53248C4.71784 8.54453 4.78409 8.56521 4.85206 8.52949L4.8521 8.52947M4.44418 7.40865L4.8521 8.52947M4.8521 8.52947C4.87834 8.51567 4.89811 8.49586 4.90682 8.48698M4.8521 8.52947L4.90682 8.48698M6.4593 6.07395L6.45929 6.07397C6.45947 6.07377 6.45942 6.07383 6.45911 6.07421C6.45813 6.07541 6.45455 6.07978 6.44763 6.08909C6.43947 6.10006 6.42889 6.11485 6.41589 6.13355C6.38994 6.17088 6.35604 6.22129 6.31548 6.28284C6.23444 6.4058 6.12834 6.57081 6.00888 6.75944C5.77002 7.13662 5.4789 7.6064 5.23004 8.01945L6.4593 6.07395ZM6.4593 6.07395C6.49697 6.03341 6.52887 5.98177 6.53865 5.91914M6.4593 6.07395L6.53865 5.91914M5.76758 9.75905L5.76761 9.75901C5.94833 9.51949 6.28161 9.52971 6.46331 9.76097C6.46335 9.76102 6.46338 9.76107 6.46342 9.76112L6.34964 9.85045L5.76758 9.75905ZM5.76758 9.75905C5.69547 9.85469 5.46074 10.23 5.24681 10.5891C5.03133 10.9507 4.79707 11.3386 4.72609 11.4514L4.84852 11.5284L5.76758 9.75905ZM4.90682 8.48698C4.9188 8.47477 4.93108 8.46061 4.94301 8.44602M4.90682 8.48698L4.94301 8.44602M4.94301 8.44602C4.96708 8.41661 4.99525 8.37873 5.02539 8.33591M4.94301 8.44602L5.02539 8.33591M5.02539 8.33591C5.08594 8.24988 5.15884 8.13769 5.23002 8.01948L5.02539 8.33591ZM6.53865 5.91914C6.54875 5.85436 6.53263 5.79412 6.50231 5.74352M6.53865 5.91914L6.50231 5.74352M4.64859 3.43655C4.60873 3.41253 4.52257 3.35093 4.35348 3.20421C4.16656 3.04204 4.03677 2.90196 3.95054 2.72571C3.86449 2.54981 3.81556 2.32464 3.81556 1.98398V1.64423L7.08542 1.66255L10.364 1.68084L10.3812 2.01883C10.3812 2.01884 10.3812 2.01885 10.3812 2.01885C10.3948 2.28563 10.3499 2.51062 10.2485 2.70614C10.1469 2.90214 9.98373 3.07782 9.74667 3.2381L9.45319 3.43655H7.07034H4.64859ZM12.6539 13.1237L12.654 13.1237C12.7339 13.1414 12.8226 13.1497 12.9064 13.12C12.9978 13.0877 13.0586 13.0195 13.0971 12.9357C13.1334 12.8567 13.153 12.7576 13.1646 12.6443C13.1764 12.529 13.1809 12.3877 13.1809 12.2182V11.5757V11.4311H13.0362H12.7785H12.5207H12.376V11.5757V12.2608C12.376 12.5605 12.3795 12.7523 12.4067 12.8716C12.4213 12.9356 12.4465 12.9983 12.4977 13.047C12.5486 13.0954 12.6084 13.1136 12.6539 13.1237Z"
        fill="#0B649D" stroke="#0B649D" stroke-width="0.289322" />
</svg>