<svg width="24" height="23" viewBox="0 0 24 23" fill="none" xmlns="http://www.w3.org/2000/svg">
<path fill-rule="evenodd" clip-rule="evenodd" d="M7.81509 0.801471C6.83828 1.04111 5.96444 1.77163 5.55946 2.68721L5.45718 2.91832H3.1328H0.808411V4.04253V5.16673L3.12218 5.16694L5.43595 5.1672L5.64176 5.57218C5.94477 6.16853 6.54338 6.75542 7.13533 7.03652C7.70361 7.30638 8.04082 7.38414 8.62556 7.38027C9.54683 7.3741 10.2512 7.07401 10.9312 6.39797C11.2518 6.07917 11.4026 5.87901 11.5535 5.57197L11.7526 5.16673H17.418H23.0834V4.04253V2.91832H17.4172H11.7511L11.5888 2.59152C11.147 1.70178 10.3032 1.02066 9.37041 0.800739C8.96962 0.706253 8.20181 0.706619 7.81509 0.801471ZM9.14615 3.0926C9.74485 3.42061 9.87965 4.2613 9.41789 4.78727C8.75586 5.54128 7.50135 5.07115 7.50135 4.06909C7.50135 3.18698 8.37337 2.66927 9.14615 3.0926ZM14.5865 8.58678C13.5969 8.81444 12.7336 9.50177 12.2984 10.4084L12.1289 10.7616H6.46865H0.808411V11.8597V12.9577H6.46865H12.1289L12.299 13.3107C12.6349 14.0078 13.2208 14.5808 13.9291 14.905C15.5189 15.6326 17.4299 14.9669 18.226 13.4083L18.4558 12.9582L20.7696 12.958L23.0834 12.9577V11.8597V10.7616L20.7696 10.7614L18.4558 10.7611L18.226 10.3111C17.8356 9.54674 17.0993 8.92184 16.2858 8.66427C15.8469 8.52534 15.0177 8.48748 14.5865 8.58678ZM15.8123 10.8794C15.9348 10.9442 16.1091 11.0994 16.1997 11.2244C16.3505 11.4327 16.3643 11.4854 16.3643 11.8562C16.3643 12.2122 16.3471 12.2854 16.2213 12.4654C16.1427 12.578 15.9915 12.729 15.8853 12.8009C15.7206 12.9124 15.6328 12.9316 15.2883 12.9316C14.9182 12.9316 14.8653 12.9178 14.6571 12.767C14.317 12.5206 14.1818 12.2306 14.2049 11.7966C14.2202 11.5099 14.252 11.4056 14.3789 11.2254C14.6941 10.7779 15.3301 10.6244 15.8123 10.8794ZM6.97465 16.357C6.32685 16.4586 5.61933 16.8218 5.1446 17.2965C4.85618 17.5849 4.50344 18.1056 4.41507 18.3734L4.35593 18.5526H2.58215H0.808411V19.6768V20.801H2.57383H4.33925L4.52158 21.1801C4.75317 21.6616 5.4393 22.3732 5.90692 22.6169C6.83562 23.1008 7.95208 23.1279 8.887 22.689C9.57157 22.3676 10.2135 21.7235 10.4939 21.0764L10.6125 20.8028L16.8479 20.8019L23.0834 20.801V19.6768V18.5526H16.8637H10.644L10.4198 18.1212C10.0126 17.3373 9.27891 16.7261 8.438 16.47C8.02534 16.3444 7.37555 16.2942 6.97465 16.357ZM8.07956 18.7314C8.37196 18.9249 8.54749 19.2151 8.58357 19.5646C8.60919 19.8127 8.59246 19.8991 8.47063 20.1481C8.13609 20.8319 7.3241 20.9878 6.7461 20.4789C6.15879 19.962 6.28136 19.0444 6.98553 18.6871C7.34548 18.5044 7.76196 18.5212 8.07956 18.7314Z" fill="#151515"/>
</svg>
