<?xml version="1.0" encoding="utf-8"?>
<!-- Generator: Adobe Illustrator 26.0.1, SVG Export Plug-In . SVG Version: 6.00 Build 0)  -->
<svg width="27" height="28" version="1.1" id="Layer_1" xmlns="http://www.w3.org/2000/svg" xmlns:xlink="http://www.w3.org/1999/xlink" x="0px" y="0px"
	 viewBox="0 0 238.9 236" style="enable-background:new 0 0 23.9 23;" xml:space="preserve">
<style type="text/css">
	.st0{fill-rule:evenodd;clip-rule:evenodd;fill:#151515;}
	.st1{fill:#E53C49;stroke:#E5E5E5;stroke-width:4;stroke-miterlimit:10;}
</style>
<path class="st0" d="M68.8,29.6c-8.9,2.2-16.8,8.8-20.5,17.2l-0.9,2.1H26.1H5v10.2v10.2l21.1,0l21.1,0l1.9,3.7
	c2.8,5.4,8.2,10.8,13.6,13.3c5.2,2.5,8.2,3.2,13.6,3.1c8.4-0.1,14.8-2.8,21-8.9c2.9-2.9,4.3-4.7,5.7-7.5l1.8-3.7h51.6h51.6V59.1
	V48.9h-51.6h-51.6l-1.5-3c-4-8.1-11.7-14.3-20.2-16.3C79.3,28.8,72.3,28.8,68.8,29.6z M80.9,50.5c5.4,3,6.7,10.6,2.5,15.4
	c-6,6.9-17.4,2.6-17.4-6.5C65.9,51.4,73.8,46.6,80.9,50.5z M130.4,100.5c-9,2.1-16.9,8.3-20.8,16.6l-1.5,3.2H56.5H5v10v10h51.5H108
	l1.5,3.2c3.1,6.3,8.4,11.6,14.8,14.5c14.5,6.6,31.9,0.6,39.1-13.6l2.1-4.1l21.1,0l21.1,0v-10v-10l-21.1,0l-21.1,0l-2.1-4.1
	c-3.6-7-10.3-12.6-17.7-15C141.9,99.9,134.3,99.6,130.4,100.5z M141.5,121.4c1.1,0.6,2.7,2,3.5,3.1c1.4,1.9,1.5,2.4,1.5,5.8
	c0,3.2-0.2,3.9-1.3,5.5c-0.7,1-2.1,2.4-3.1,3.1c-1.5,1-2.3,1.2-5.4,1.2c-3.4,0-3.8-0.1-5.7-1.5c-3.1-2.2-4.3-4.9-4.1-8.8
	c0.1-2.6,0.4-3.6,1.6-5.2C131.4,120.4,137.2,119,141.5,121.4z M61.1,171.2c-5.9,0.9-12.3,4.2-16.7,8.6c-2.6,2.6-5.8,7.4-6.6,9.8
	l-0.5,1.6H21.1H5v10.2v10.2h16.1h16.1l1.7,3.5c2.1,4.4,8.4,10.9,12.6,13.1c8.5,4.4,18.6,4.7,27.1,0.7c6.2-2.9,12.1-8.8,14.6-14.7
	l1.1-2.5l56.7,0l56.8,0v-10.2v-10.2h-56.6H94.5l-2-3.9c-3.7-7.1-10.4-12.7-18-15C70.7,171.1,64.8,170.6,61.1,171.2z M71.2,192.8
	c2.7,1.8,4.3,4.4,4.6,7.6c0.2,2.3,0.1,3-1,5.3c-3,6.2-10.4,7.6-15.7,3c-5.3-4.7-4.2-13.1,2.2-16.3C64.5,190.8,68.3,190.9,71.2,192.8
	z"/>
<circle class="st1" cx="204.5" cy="33.8" r="36.1"/>
</svg>
