<svg width="19" height="20" viewBox="0 0 19 20" fill="none" xmlns="http://www.w3.org/2000/svg">
<g clip-path="url(#clip0_3403_24074)">
<path d="M16.7947 4.92572C16.2117 4.06512 15.4906 3.31375 14.6625 2.70408C12.8322 1.3516 10.6132 0.742271 8.57405 1.03555C6.53493 1.32882 4.54612 2.42718 2.98403 4.12633C1.61704 5.6105 0.865638 7.32531 0.858744 8.95541C0.851161 12.0569 0.851854 15.1761 0.853922 17.8192C0.853922 18.7239 1.24685 19.1275 2.12441 19.1296H3.98567H5.21067L7.53725 19.1261C8.58232 19.1261 9.62762 19.1261 10.6731 19.1261H10.678C11.7568 19.1261 12.9294 18.4918 13.7056 18.0711C14.2042 17.8006 14.6755 17.4797 15.1126 17.113C18.6614 14.1404 19.4025 8.78599 16.7947 4.92572ZM14.3323 16.12C13.9596 16.4335 13.5576 16.7077 13.1321 16.9386C12.4634 17.3009 11.4535 17.8469 10.68 17.8469C9.63359 17.8469 8.58737 17.8469 7.54138 17.8469L5.2148 17.8505C4.18765 17.8505 3.16028 17.8505 2.13268 17.8505H2.09959V17.8177C2.09959 15.1761 2.09959 12.0583 2.10441 8.95825C2.10855 7.20287 3.22256 5.73009 3.88572 5.009C5.25548 3.51913 6.98231 2.55887 8.74776 2.30403C10.4712 2.0556 12.3676 2.58094 13.9421 3.74478C14.6552 4.26975 15.2763 4.91662 15.7785 5.65748C18.0121 8.97106 17.3778 13.5667 14.3323 16.12Z" fill="#0B649D"/>
<path d="M11.3206 6.22422C10.8118 5.76041 10.16 5.4983 9.48138 5.48462H9.47518C8.34601 5.50597 7.5374 5.9587 7.00383 6.86842C6.7922 7.22861 6.84873 7.59663 7.14791 7.8052C7.44709 8.01377 7.79383 7.95967 7.99788 7.66283C8.33222 7.1738 8.92231 6.67481 9.48828 6.66627H9.50551C9.82675 6.66627 10.108 6.82785 10.3431 7.14746C10.7229 7.66496 10.7029 8.43802 10.2955 8.98542C10.1039 9.2431 9.88673 9.49153 9.6751 9.73142C9.38058 10.0518 9.10656 10.3916 8.85476 10.7486C8.74165 10.9058 8.66081 11.0852 8.61719 11.2758C8.57357 11.4663 8.56808 11.6641 8.60107 11.857C8.65071 12.1702 8.84304 12.3645 9.12843 12.3915C9.15187 12.3915 9.17462 12.3915 9.19737 12.3915C9.46829 12.3915 9.67579 12.2349 9.7723 11.9531C10.0068 11.2576 10.4217 10.642 10.9718 10.1735C11.566 9.65596 11.9686 8.72418 11.9741 7.85432C11.9796 7.18662 11.7501 6.60576 11.3206 6.22422Z" fill="#0B649D"/>
<path d="M9.23028 13.6125C9.01176 13.6047 8.83873 13.6609 8.71809 13.7791C8.6576 13.8431 8.61043 13.9191 8.57949 14.0026C8.54855 14.0861 8.53449 14.1753 8.53817 14.2646C8.53197 14.7059 8.79668 15.0191 9.18134 15.0277H9.19306C9.38067 15.023 9.55886 14.9419 9.68871 14.802C9.75413 14.7367 9.80615 14.6586 9.84168 14.5721C9.87721 14.4856 9.89552 14.3927 9.89552 14.2987C9.88724 13.8837 9.63701 13.6275 9.23028 13.6125Z" fill="#0B649D"/>
</g>
<defs>
<clipPath id="clip0_3403_24074">
<rect width="17.4945" height="18.1674" fill="white" transform="translate(0.853516 0.963867)"/>
</clipPath>
</defs>
</svg>
