<svg width="40" height="36" viewBox="0 0 40 36" fill="none" xmlns="http://www.w3.org/2000/svg">
<path d="M3.50798 22.7017V25.5905H8.28931L0.841309 33.6592L2.72664 35.7017L10.1746 27.633V32.8128H12.8413V22.7017H3.50798Z" fill="#5A72C8"/>
<path d="M24.8413 8.70166H34.8413V10.7017H24.8413V8.70166Z" fill="#5A72C8"/>
<path d="M24.8413 15.7017H34.8413V18.7017H24.8413V15.7017Z" fill="#5A72C8"/>
<path d="M24.8413 22.7017H34.8413V25.7017H24.8413V22.7017Z" fill="#5A72C8"/>
<path d="M37.0556 0.70166H3.62702C2.88843 0.70243 2.1803 1.00917 1.65804 1.55456C1.13578 2.09996 0.842046 2.83945 0.841309 3.61075V18.1562H3.62702V3.61075H18.9485V32.7017H37.0556C37.7942 32.7009 38.5023 32.3942 39.0246 31.8488C39.5468 31.3034 39.8406 30.5639 39.8413 29.7926V3.61075C39.8406 2.83945 39.5468 2.09996 39.0246 1.55456C38.5023 1.00917 37.7942 0.70243 37.0556 0.70166ZM21.7342 29.7926V3.61075H37.0556L37.0584 29.7926H21.7342Z" fill="#5A72C8"/>
</svg>
