<svg width="25" height="25" viewBox="0 0 25 25" fill="none" xmlns="http://www.w3.org/2000/svg">
<path d="M6.08951 12.294H4.31689L9.27948 20.3506L24.2057 0H22.4331L9.27948 14.7108L6.08951 12.294Z" fill="#0B649D"/>
<path d="M19.6237 21.5592C19.6237 21.7815 19.4435 21.9618 19.2208 21.9618H3.10856C3.00176 21.9618 2.89932 21.9194 2.82376 21.8439C2.74821 21.7684 2.70571 21.666 2.70561 21.5592V5.44659C2.70561 5.22387 2.88623 5.04364 3.10856 5.04364H14.1271L16.3251 2.62671H1.09458C0.880969 2.62701 0.676202 2.71203 0.525193 2.86311C0.374184 3.01419 0.289265 3.219 0.289062 3.43261V23.5728C0.289062 24.0186 0.649918 24.3787 1.09458 24.3787H21.2348C21.3406 24.3788 21.4454 24.358 21.5431 24.3176C21.6409 24.2771 21.7297 24.2178 21.8046 24.143C21.8794 24.0682 21.9387 23.9793 21.9792 23.8815C22.0196 23.7838 22.0404 23.679 22.0403 23.5732V7.92245L19.6237 11.2796V21.5592Z" fill="#0B649D"/>
</svg>
