<svg width="118" height="159" viewBox="0 0 118 159" fill="none" xmlns="http://www.w3.org/2000/svg">
<path d="M28.2137 37.5787C27.4793 35.8794 23.1228 30.7813 24.2077 30.1753C24.8587 29.8071 29.1485 34.8088 29.1485 34.8088C28.4779 33.0054 27.4878 31.3427 26.2274 29.9034C24.6751 28.0851 25.3372 27.6377 25.3372 27.6377C26.667 26.9636 31.5187 33.0699 31.5187 33.0699C31.0178 32.0824 30.443 31.1356 29.7995 30.2378C28.9538 29.1049 28.4252 27.196 28.9649 27.077C30.4171 26.7598 35.369 35.2391 35.369 35.2391C35.369 35.2391 35.8363 36.1624 36.0756 33.1037C36.2374 31.7026 36.8987 30.4108 37.934 29.473C38.0429 29.3682 38.1813 29.3006 38.3298 29.28C38.4783 29.2593 38.6294 29.2868 38.7619 29.358C38.8945 29.4292 39.0018 29.5407 39.0688 29.6771C39.1359 29.8136 39.1593 29.9682 39.1358 30.1188C38.7908 32.2599 38.3346 35.6755 38.6906 36.916C38.9076 37.6467 40.5101 42.5236 40.5101 42.5236C40.6158 42.7615 40.7159 43.0051 40.8216 43.243C41.851 45.5087 44.3993 51.0596 47.4984 56.6785C44.2416 60.1791 40.9533 63.6383 37.6335 67.0557C34.7297 60.7104 32.4179 54.1012 30.7287 47.3156C30.5172 46.6245 30.3447 46.007 30.2112 45.4689C28.3362 39.9405 24.7586 35.6472 24.97 34.6163C25.1814 33.5854 28.2137 37.5787 28.2137 37.5787Z" fill="#FF846C"/>
<path d="M35.6088 35.6475C35.0524 36.3668 34.496 37.0862 34.0064 37.8056C33.7449 38.1681 33.5112 38.5418 33.2887 38.91C33.0688 39.2555 32.9141 39.6396 32.8324 40.0428L32.7545 40.5697L32.3818 40.1958C32.1659 39.9817 31.918 39.8041 31.6473 39.6692C31.3722 39.5289 31.0743 39.4406 30.7682 39.4086C30.4523 39.3834 30.1345 39.4121 29.8279 39.4935C29.5068 39.5785 29.1967 39.7021 28.9043 39.8617C29.1557 39.6295 29.441 39.4384 29.75 39.2952C30.0711 39.1358 30.4222 39.0491 30.7793 39.0405C31.1441 39.0333 31.5063 39.1045 31.842 39.2499C32.1844 39.388 32.4965 39.5942 32.7601 39.8561L32.315 40.0146C32.3975 39.5228 32.5877 39.0562 32.8714 38.6494C33.116 38.2531 33.3874 37.8745 33.6837 37.5166C33.9841 37.171 34.2902 36.8369 34.6129 36.5253C34.9297 36.2153 35.2621 35.9223 35.6088 35.6475Z" fill="black"/>
<path d="M86.4474 97.9152C88.4115 89.0562 94.3371 75.2975 94.3371 75.2975C87.5769 74.5838 68.1866 78.7415 64.1973 76.119C54.95 70.0128 43.2434 43.1357 43.2434 43.1357L30.9082 54.838C30.9082 54.838 36.6669 84.7004 48.2399 94.5166C57.6819 102.549 84.7059 105.749 86.4474 97.9152Z" fill="#ED0626"/>
<g style="mix-blend-mode:overlay" opacity="0.55">
<g style="mix-blend-mode:overlay" opacity="0.55">
<path d="M32.0211 54.8151C31.7651 54.5886 33.8683 51.7791 36.9285 48.76C39.9886 45.741 42.7928 43.6623 43.0098 43.9399C43.2268 44.2174 40.7843 46.6812 37.7964 49.6719C34.8086 52.6627 32.2659 55.053 32.0211 54.8151Z" fill="black"/>
</g>
</g>
<g style="mix-blend-mode:overlay" opacity="0.55">
<g style="mix-blend-mode:overlay" opacity="0.55">
<path d="M61.5697 81.5964C61.2637 81.4378 61.6643 80.0386 62.4544 78.4752C63.2444 76.9119 64.1235 75.7734 64.4518 75.9376C64.7801 76.1019 64.3572 77.4955 63.5671 79.0588C62.7771 80.6222 61.8757 81.7607 61.5697 81.5964Z" fill="black"/>
</g>
</g>
<g style="mix-blend-mode:overlay" opacity="0.55">
<g style="mix-blend-mode:overlay" opacity="0.55">
<path d="M57.9319 81.0186C57.7205 80.741 58.8388 79.4779 60.4357 78.1864C62.0325 76.895 63.4959 76.0792 63.7073 76.3511C63.9187 76.6229 62.8059 77.8918 61.2091 79.1832C59.6122 80.4747 58.1712 81.2905 57.9319 81.0186Z" fill="black"/>
</g>
</g>
<path d="M84.4545 28.3457C84.4545 28.3457 81.1162 35.9755 83.5365 38.9209L89.8849 31.3195L84.4545 28.3457Z" fill="#381A01"/>
<path d="M101.748 27.2469C101.748 27.2469 111.391 26.7201 112.225 36.7968C112.309 37.8221 110.767 49.9663 108.748 52.2207C107.179 53.971 106.266 53.3536 101.236 52.7871L101.748 27.2469Z" fill="#663100"/>
<path d="M82.2631 40.2641C82.6056 37.2193 83.9586 34.3847 86.0984 32.229C88.2381 30.0733 91.0366 28.7257 94.0309 28.4089C95.9971 28.2004 97.9815 28.5533 99.7617 29.4284C104.274 31.6941 105.838 38.5877 106.377 43.8441L105.966 50.4317L106.572 77.6203C102.594 94.5056 89.5352 93.9109 89.4406 73.1569L89.6131 59.5626C81.7012 57.2855 81.4118 47.2822 82.2631 40.2641Z" fill="#FF846C"/>
<g style="mix-blend-mode:overlay" opacity="0.42">
<path d="M89.6136 59.5682C89.6136 59.5682 93.2914 60.9162 98.4492 57.4609C98.4492 57.4609 95.5392 63.4823 89.5469 65.6178L89.6136 59.5682Z" fill="black"/>
</g>
<path d="M89.6133 59.5682C89.9875 59.6685 90.3725 59.7216 90.7595 59.7267C91.1435 59.7456 91.5285 59.7362 91.9112 59.6985C92.6755 59.6288 93.4306 59.4788 94.1646 59.251C94.9018 59.0299 95.6262 58.767 96.3345 58.4635L97.3972 57.9765C97.7478 57.8065 98.0927 57.6195 98.4488 57.4609C98.1373 57.6988 97.809 57.9143 97.4863 58.1466C97.1635 58.3788 96.8075 58.5487 96.4625 58.713C95.7627 59.0829 95.0283 59.3808 94.2703 59.6022C93.5074 59.8244 92.7208 59.9518 91.9279 59.9817C91.1356 60.0222 90.3446 59.8809 89.6133 59.5682Z" fill="black"/>
<path d="M91.9275 45.6104C91.5344 46.0813 91.0614 46.4766 90.531 46.7772C89.9904 47.0847 89.3942 47.2774 88.7784 47.3437C88.4677 47.3776 88.1543 47.3776 87.8436 47.3437C87.5365 47.2872 87.2374 47.1921 86.9534 47.0604C86.3981 46.7988 85.909 46.4113 85.5234 45.9276C85.9955 46.2801 86.5144 46.5624 87.0647 46.7659C87.5986 46.962 88.1695 47.0319 88.7338 46.97C89.3103 46.9065 89.8735 46.7517 90.403 46.5112C90.9384 46.2614 91.4489 45.9596 91.9275 45.6104Z" fill="black"/>
<path d="M88.5111 39.5498C88.134 40.5555 87.6309 41.5074 87.0144 42.382L86.981 42.1723C87.5374 42.6651 88.0938 43.1805 88.6502 43.7187C88.0159 43.3108 87.3983 42.8748 86.803 42.4273L86.6973 42.3479L86.764 42.2119C87.235 41.2537 87.8219 40.3595 88.5111 39.5498Z" fill="black"/>
<path d="M102.214 47.044C102.244 47.9361 102.011 48.8167 101.546 49.5733C101.081 50.33 100.405 50.9282 99.6035 51.2909C98.8024 51.6536 97.9132 51.7644 97.0498 51.6092C96.1864 51.454 95.3882 51.0398 94.7576 50.4197C94.127 49.7996 93.6927 49.0018 93.5103 48.1288C93.328 47.2557 93.4059 46.3472 93.7341 45.5196C94.0624 44.6919 94.6259 43.9828 95.3526 43.4834C96.0792 42.984 96.9358 42.717 97.8126 42.7164C98.9597 42.6967 100.068 43.1416 100.893 43.953C101.718 44.7645 102.193 45.8762 102.214 47.044Z" fill="#FF745C"/>
<path d="M84.3177 43.6848C84.3244 43.8845 84.2724 44.0817 84.1683 44.2511C84.0641 44.4205 83.9127 44.5544 83.7333 44.6356C83.554 44.7168 83.3549 44.7416 83.1616 44.7068C82.9683 44.6721 82.7896 44.5793 82.6484 44.4405C82.5073 44.3017 82.41 44.1231 82.3692 43.9277C82.3284 43.7322 82.3458 43.5288 82.4193 43.3435C82.4928 43.1582 82.619 42.9995 82.7817 42.8877C82.9443 42.7759 83.1361 42.7161 83.3324 42.716C83.5892 42.7115 83.8373 42.8111 84.022 42.9927C84.2068 43.1744 84.3131 43.4233 84.3177 43.6848Z" fill="#FF745C"/>
<path d="M102.154 31.9768C102.254 31.8352 88.1329 42.7956 83.0642 30.725C80.3712 24.3074 98.2871 21.8943 106.104 28.3459C113.922 34.7975 109.549 43.1525 109.549 43.1525C109.549 43.1525 108.77 52.8612 107.056 53.1784C105.587 53.4503 102.093 53.8184 104.218 46.8683C104.741 45.169 105.976 44.4268 103.512 43.7811C98.9325 42.5859 98.7879 36.7801 102.154 31.9768Z" fill="#663100"/>
<path d="M84.3216 39.7598C84.1992 40.3885 84.4329 40.9719 84.8446 41.0569C85.2563 41.1419 85.7015 40.7002 85.8239 40.0715C85.9463 39.4427 85.7181 38.8591 85.3008 38.7685C84.8836 38.6779 84.4329 39.1254 84.3216 39.7598Z" fill="black"/>
<path d="M92.6678 41.4874C92.5399 42.1161 92.7735 42.6996 93.1908 42.7845C93.6081 42.8695 94.0421 42.4276 94.1701 41.7988C94.2981 41.1701 94.0588 40.5866 93.6471 40.5017C93.2354 40.4167 92.7902 40.8587 92.6678 41.4874Z" fill="black"/>
<path d="M103.16 44.8011C103.16 47.0668 104.685 48.9359 106.571 48.9359C108.457 48.9359 109.976 47.0838 109.976 44.8011C109.976 42.5184 108.451 40.666 106.571 40.666C104.69 40.666 103.16 42.5184 103.16 44.8011Z" fill="#FF846C"/>
<path d="M107.785 44.801C107.333 44.8033 106.894 44.9498 106.528 45.22C106.359 45.3567 106.204 45.5104 106.066 45.6789C105.995 45.7792 105.919 45.8758 105.838 45.9679C105.763 46.0767 105.679 46.1787 105.588 46.2735C105.555 45.9988 105.592 45.7204 105.693 45.4637C105.794 45.1892 105.968 44.9483 106.194 44.767C106.433 44.5841 106.724 44.4864 107.023 44.4893C107.307 44.4904 107.58 44.602 107.785 44.801Z" fill="black"/>
<path d="M19.4133 82.7968C17.8832 81.7772 11.5069 79.9135 12.0911 78.8033C12.4417 78.1405 18.7122 79.9361 18.7122 79.9361C17.1862 78.7974 15.4683 77.9528 13.6435 77.4439C11.3678 76.7755 11.685 76.0391 11.685 76.0391C12.4361 74.7364 19.7749 77.172 19.7749 77.172C18.8232 76.616 17.8319 76.133 16.8094 75.7274C15.5018 75.2573 14.0274 73.9377 14.4169 73.5356C15.4629 72.4707 24.1538 76.8379 24.1538 76.8379C24.1538 76.8379 25.0384 77.3531 23.5974 74.6513C22.9768 73.3584 22.848 71.8776 23.2357 70.4938C23.2695 70.3509 23.3465 70.2224 23.4557 70.1265C23.565 70.0305 23.701 69.972 23.8448 69.9589C23.9885 69.9457 24.1327 69.9788 24.257 70.0535C24.3813 70.1281 24.4794 70.2404 24.5377 70.3748C25.389 72.3573 26.8579 75.5464 27.826 76.3904C28.3824 76.8889 32.3495 80.0891 32.3495 80.0891L33.0004 80.5252C35.0814 81.8733 40.1724 85.1019 45.7641 88.104C44.9073 92.8469 43.9985 97.5672 43.0378 102.265C37.2102 98.5518 31.7389 94.2886 26.6965 89.5314C26.1401 89.0669 25.6783 88.6421 25.2721 88.2683C20.7486 84.6714 15.4518 83.0458 15.079 82.0375C14.7062 81.0293 19.4133 82.7968 19.4133 82.7968Z" fill="#FF846C"/>
<path d="M100.517 101.143L100.796 100.679C106.96 90.0924 103.861 67.7749 94.308 75.3141C88.477 79.9135 75.947 94.0063 73.3375 94.0063C62.3209 94.0063 34.9463 79.1773 34.9463 79.1773L30.8457 95.8134C30.8457 95.8134 51.6437 117.677 66.5996 119.496C78.8681 120.968 96.3722 107.98 100.517 101.143Z" fill="#FF3144"/>
<path d="M112.224 158.2C112.224 158.2 120.214 125.959 117.393 98.5717C116.185 86.824 114.26 80.2987 109.286 69.8708L108.813 64.9316C98.0915 65.1525 89.1446 69.9955 89.1446 69.9955C89.1446 69.9955 74.0274 96.6517 62.9941 158.132L112.224 158.2Z" fill="#FF3144"/>
<g style="mix-blend-mode:overlay" opacity="0.55">
<g style="mix-blend-mode:overlay" opacity="0.55">
<path d="M108.93 69.2025C108.997 69.5424 105.592 70.5563 101.308 71.4683C97.0237 72.3802 93.5184 72.8218 93.4238 72.4819C93.3292 72.142 96.7622 71.1281 101.052 70.2162C105.342 69.3042 108.864 68.857 108.93 69.2025Z" fill="black"/>
</g>
</g>
<g style="mix-blend-mode:overlay" opacity="0.55">
<g style="mix-blend-mode:overlay" opacity="0.55">
<path d="M81.9466 87.0337C81.7852 86.9487 82.1246 85.9913 82.6699 84.4562C83.2152 82.9212 83.9607 80.797 84.851 78.452C85.5943 76.43 86.4948 74.4715 87.5439 72.5952C88.3785 71.1565 89.0684 70.3863 89.2131 70.4769C89.3577 70.5675 88.9516 71.502 88.334 72.9974C87.7164 74.4927 86.9152 76.5886 86.0194 78.9167C85.2803 80.9298 84.4333 82.9001 83.4822 84.8188C82.7144 86.2859 82.0968 87.113 81.9466 87.0337Z" fill="black"/>
</g>
</g>
<g style="mix-blend-mode:overlay" opacity="0.55">
<g style="mix-blend-mode:overlay" opacity="0.55">
<path d="M105.491 137.447C105.18 137.571 103.221 133.113 101.797 127.285C100.372 121.456 100.011 116.591 100.339 116.551C100.667 116.511 101.585 121.23 103.01 126.973C104.434 132.717 105.825 137.322 105.491 137.447Z" fill="black"/>
</g>
</g>
<g style="mix-blend-mode:overlay" opacity="0.55">
<g style="mix-blend-mode:overlay" opacity="0.55">
<path d="M107.223 122.017C106.923 122.045 106.289 119.944 105.749 117.236C105.209 114.529 105.109 112.246 105.493 112.207C105.877 112.167 106.428 114.285 106.973 116.993C107.518 119.7 107.607 121.977 107.223 122.017Z" fill="black"/>
</g>
</g>
<g style="mix-blend-mode:overlay" opacity="0.55">
<g style="mix-blend-mode:overlay" opacity="0.55">
<path d="M108.246 99.8011C108.346 99.9087 106.577 101.812 103.316 104.44C101.403 105.97 99.4141 107.399 97.3572 108.722C94.8279 110.334 92.2125 111.802 89.5232 113.118C86.8228 114.404 84.0552 115.539 81.233 116.517C78.9261 117.307 76.5806 117.974 74.2057 118.516C70.144 119.428 67.579 119.649 67.5568 119.479C67.5345 119.309 70.0327 118.765 73.9887 117.644C75.9695 117.077 78.3008 116.335 80.8546 115.412C83.4085 114.489 86.157 113.316 88.9891 111.957C91.8211 110.598 94.4195 109.125 96.7786 107.714C99.1377 106.304 101.141 104.922 102.81 103.704C106.137 101.302 108.112 99.6539 108.246 99.8011Z" fill="black"/>
</g>
</g>
<g style="mix-blend-mode:overlay" opacity="0.55">
<g style="mix-blend-mode:overlay" opacity="0.55">
<path d="M31.0866 94.0976C30.7528 94.0353 31.1701 90.3987 32.4553 86.0995C33.7406 81.8003 35.3653 78.5322 35.6768 78.6682C35.9884 78.8041 34.909 82.231 33.6516 86.4679C32.3941 90.7048 31.4316 94.1655 31.0866 94.0976Z" fill="black"/>
</g>
</g>
<g style="mix-blend-mode:overlay" opacity="0.55">
<g style="mix-blend-mode:overlay" opacity="0.55">
<path d="M75.4577 104.678C75.1128 104.723 74.5286 102.22 74.1446 99.0988C73.7607 95.9777 73.7329 93.4004 74.0723 93.3551C74.4117 93.3098 75.0015 95.8136 75.3854 98.9403C75.7693 102.067 75.7971 104.633 75.4577 104.678Z" fill="black"/>
</g>
</g>
<g style="mix-blend-mode:overlay" opacity="0.55">
<g style="mix-blend-mode:overlay" opacity="0.55">
<path d="M80.4718 102.118C80.2437 102.367 78.3408 100.911 76.5771 98.5435C74.8133 96.1758 73.962 93.9213 74.2625 93.7684C74.5629 93.6155 75.8816 95.5131 77.573 97.7788C79.2644 100.045 80.7167 101.857 80.4718 102.118Z" fill="black"/>
</g>
</g>
<path d="M24.0362 0.200195L31.4641 15.5221L48.0669 17.9748L36.0488 29.9038L38.8864 46.7381L24.0362 38.7911L9.1805 46.7381L12.0181 29.9038L0 17.9748L16.6084 15.5221L24.0362 0.200195Z" fill="#F9A824"/>
</svg>
