<svg width="23" height="22" viewBox="0 0 23 22" fill="none" xmlns="http://www.w3.org/2000/svg">
<path d="M10.9882 1.90177C11.1437 1.78078 11.3352 1.71509 11.5322 1.71509C11.7293 1.71509 11.9207 1.78078 12.0763 1.90177L19.3666 7.5724C19.6863 7.82111 19.9449 8.1396 20.1228 8.50354C20.3006 8.86748 20.3929 9.26725 20.3926 9.67231V17.3373C20.3926 17.8073 20.2059 18.258 19.8736 18.5904C19.5412 18.9227 19.0905 19.1094 18.6205 19.1094H15.4125C14.9426 19.1094 14.4918 18.9227 14.1595 18.5904C13.8272 18.258 13.6405 17.8073 13.6405 17.3373V11.9673H9.43229V17.3373C9.43229 17.8073 9.24559 18.258 8.91326 18.5904C8.58094 18.9227 8.1302 19.1094 7.66022 19.1094H4.44395C3.97396 19.1094 3.52323 18.9227 3.1909 18.5904C2.85857 18.258 2.67188 17.8073 2.67188 17.3373V9.67231C2.67188 8.85007 3.0511 8.07744 3.69968 7.5724L10.9882 1.90177ZM11.5322 3.27798L4.42634 8.97057C4.31953 9.05365 4.23317 9.1601 4.17389 9.28174C4.1146 9.40338 4.08397 9.53699 4.08433 9.67231V17.6644H7.98809V12.3481C7.98809 11.8782 8.17479 11.4274 8.50712 11.0951C8.83945 10.7628 9.29018 10.5761 9.76017 10.5761H13.3043C13.7743 10.5761 14.225 10.7628 14.5574 11.0951C14.8897 11.4274 15.0764 11.8782 15.0764 12.3481V17.6644H19.052V9.67231C19.0523 9.53699 19.0217 9.40338 18.9624 9.28174C18.9031 9.1601 18.8168 9.05365 18.71 8.97057L11.5322 3.27975V3.27798Z" fill="#0B649D"/>
</svg>
