<svg width="16" height="15" viewBox="0 0 16 15" fill="none" xmlns="http://www.w3.org/2000/svg">
    <path
        d="M11.4519 6.23245L12.0452 8.06493L10.7361 7.72588L11.4519 6.23245ZM1.01672 12.6905L7.55283 10.8177V2.48677L1.01672 4.36768V12.6905ZM12.7045 10.1315L13.6651 10.3818L11.9605 5.07807L11.0187 4.82782L8.98437 9.15473L9.94501 9.40498L10.3688 8.517L12.356 9.04172L12.7045 10.1315ZM7.96722 2.36568L13.3638 3.85104V0.783449L7.96722 2.36568ZM10.8962 13.0457L12.3843 13.1507L11.8757 14.4423L11.499 13.9095C10.6828 14.3562 9.8163 14.6468 8.89961 14.7813C8.53545 14.8459 8.24976 14.8782 8.04257 14.8782H7.25145C6.75544 14.8782 6.12914 14.7733 5.37256 14.5634C4.61597 14.3535 4.03991 14.1248 3.64435 13.8772C3.59412 13.8395 3.569 13.7965 3.569 13.748C3.569 13.705 3.5847 13.6687 3.61609 13.6391C3.64749 13.6095 3.6883 13.5947 3.73853 13.5947C3.76364 13.5947 3.82015 13.6148 3.90805 13.6552C3.99595 13.6956 4.0917 13.74 4.1953 13.7884C4.2989 13.8368 4.36326 13.8664 4.38837 13.8772C4.84672 14.0763 5.34744 14.2418 5.89055 14.3737C6.43365 14.5055 6.9281 14.5714 7.37389 14.5714C7.97036 14.5714 8.49463 14.5324 8.9467 14.4544C9.39876 14.3764 9.89164 14.2405 10.4253 14.0467C10.5195 14.0091 10.6153 13.9673 10.7126 13.9216C10.8099 13.8759 10.9166 13.8247 11.0328 13.7682C11.1489 13.7117 11.2384 13.6673 11.3012 13.635L10.8962 13.0457ZM15.1155 4.33539V13.0457L7.82595 11.0599C7.73805 11.0922 6.5608 11.4352 4.29419 12.0891C2.02759 12.743 0.872307 13.0699 0.828357 13.0699C0.746734 13.0699 0.690226 13.035 0.658832 12.965C0.658832 12.9596 0.655693 12.9515 0.649414 12.9408V4.23852C0.66825 4.19009 0.680807 4.16318 0.687086 4.15779C0.71848 4.1255 0.781266 4.09591 0.875447 4.069C1.54727 3.87525 2.01503 3.74071 2.27873 3.66537V0.565489L7.53399 2.16386C7.54655 2.16386 8.05042 2.01587 9.04559 1.71987C10.0408 1.42388 11.0328 1.13192 12.0217 0.843993C13.0106 0.556071 13.5176 0.412109 13.5427 0.412109C13.6683 0.412109 13.7311 0.468618 13.7311 0.581634V3.95598L15.1155 4.33539Z"
        fill="#0B649D" />
    <path
        d="M5.98093 5.79418L4.7332 5.91591C4.66701 5.92237 4.60614 5.9533 4.56398 6.00189C4.52181 6.05048 4.5018 6.11276 4.50835 6.17503C4.5149 6.2373 4.54748 6.29445 4.59891 6.33391C4.65034 6.37337 4.71642 6.39191 4.7826 6.38546L5.15692 6.34894L5.30512 7.75757L4.06987 7.87808C4.21371 7.65996 4.27764 7.40371 4.2518 7.14879C4.2246 6.89039 4.10754 6.64806 3.91876 6.45938C3.72999 6.27069 3.48005 6.1462 3.20772 6.1052C2.93538 6.06421 2.65586 6.109 2.41251 6.23263C2.16916 6.35627 1.97557 6.55184 1.86178 6.78901C1.84701 6.81745 1.83845 6.84836 1.8366 6.87992C1.83475 6.91147 1.83965 6.94303 1.85101 6.97271C1.86236 7.00239 1.87995 7.0296 1.90271 7.05271C1.92548 7.07583 1.95297 7.09439 1.98355 7.10729C2.01413 7.12019 2.04717 7.12716 2.08073 7.1278C2.11429 7.12844 2.14767 7.12274 2.1789 7.11102C2.21013 7.0993 2.23858 7.08181 2.26255 7.05959C2.28652 7.03736 2.30552 7.01085 2.31844 6.98164C2.37288 6.86816 2.45802 6.77004 2.56532 6.69712C2.67261 6.6242 2.79827 6.57906 2.92968 6.56623C3.06108 6.5534 3.19359 6.57334 3.3139 6.62403C3.43421 6.67473 3.53808 6.7544 3.61506 6.85504C3.69204 6.95568 3.73943 7.07375 3.75246 7.19737C3.76549 7.32099 3.74371 7.44581 3.6893 7.5593C3.63489 7.67278 3.54977 7.77092 3.44249 7.84387C3.33522 7.91681 3.20957 7.96198 3.07817 7.97484C3.01198 7.98129 2.95111 8.01222 2.90895 8.06081C2.86678 8.10941 2.84677 8.17169 2.85332 8.23395C2.85987 8.29622 2.89245 8.35337 2.94388 8.39283C2.99531 8.43229 3.06138 8.45084 3.12757 8.44438C3.25898 8.4316 3.39148 8.45158 3.51177 8.50232C3.63206 8.55306 3.73589 8.63277 3.81283 8.73344C3.88977 8.83411 3.93711 8.95219 3.95009 9.07582C3.96308 9.19944 3.94124 9.32426 3.88678 9.43772C3.83233 9.55119 3.74717 9.6493 3.63986 9.7222C3.53256 9.79511 3.40689 9.84023 3.27548 9.85304C3.14408 9.86585 3.01157 9.8459 2.89127 9.79518C2.77097 9.74447 2.66711 9.66478 2.59015 9.56413C2.55055 9.51555 2.49234 9.48349 2.42785 9.47474C2.36337 9.46598 2.29768 9.48123 2.24471 9.51724C2.19174 9.55326 2.15566 9.60721 2.14412 9.66766C2.13258 9.7281 2.14648 9.7903 2.18288 9.84105C2.34377 10.0514 2.57415 10.2056 2.83831 10.2797C3.10247 10.3539 3.38564 10.3438 3.6439 10.251C3.90216 10.1582 4.12109 9.988 4.26673 9.76669C4.41237 9.54538 4.47658 9.28536 4.4494 9.02697C4.42162 8.77223 4.30562 8.53354 4.11927 8.34763L5.35452 8.22711L5.52743 9.87052C5.53398 9.93279 5.56655 9.98994 5.61799 10.0294C5.66942 10.0689 5.73549 10.0874 5.80168 10.0809C5.86786 10.0745 5.92873 10.0436 5.9709 9.99497C6.01306 9.94637 6.03307 9.88409 6.02652 9.82183L5.65601 6.30024L6.03033 6.26372C6.09652 6.25727 6.15739 6.22634 6.19956 6.17775C6.24172 6.12915 6.26173 6.06687 6.25518 6.00461C6.24863 5.94234 6.21606 5.88519 6.16462 5.84573C6.11319 5.80627 6.04712 5.78772 5.98093 5.79418Z"
        fill="#0B649D" />
</svg>