<svg width="288" height="142" viewBox="0 0 288 142" fill="none" xmlns="http://www.w3.org/2000/svg">
<path d="M278.206 71.4101L274.714 71.7843L277.25 74.1542L276.751 77.6883L279.703 76.0252L282.863 77.6883L282.27 74.1542L284.692 71.7843L281.2 71.4101L279.703 68.375L278.206 71.4101Z" fill="#E0F3FF"/>
<path d="M161.345 3.50585L157.853 3.88004L160.389 6.24991L159.89 9.78396L162.842 8.12088L166.002 9.78396L165.408 6.24991L167.831 3.88004L164.339 3.50585L162.842 0.470703L161.345 3.50585Z" fill="#E0F3FF"/>
<path d="M15.3341 85.3567C17.8448 85.3567 19.8801 83.3214 19.8801 80.8107C19.8801 78.3 17.8448 76.2646 15.3341 76.2646C12.8234 76.2646 10.7881 78.3 10.7881 80.8107C10.7881 83.3214 12.8234 85.3567 15.3341 85.3567Z" fill="#0B649D"/>
<path d="M64.2367 38.1931C66.069 38.1931 67.5544 36.7077 67.5544 34.8754C67.5544 33.043 66.069 31.5576 64.2367 31.5576C62.4043 31.5576 60.9189 33.043 60.9189 34.8754C60.9189 36.7077 62.4043 38.1931 64.2367 38.1931Z" fill="#E0F3FF"/>
<path d="M216.645 43.9926C219.446 43.9926 221.717 41.7218 221.717 38.9206C221.717 36.1194 219.446 33.8486 216.645 33.8486C213.844 33.8486 211.573 36.1194 211.573 38.9206C211.573 41.7218 213.844 43.9926 216.645 43.9926Z" fill="#0B649D"/>
<path d="M199.081 141.293C200.592 141.293 201.817 140.068 201.817 138.556C201.817 137.045 200.592 135.82 199.081 135.82C197.57 135.82 196.345 137.045 196.345 138.556C196.345 140.068 197.57 141.293 199.081 141.293Z" fill="#F8A724"/>
<path d="M174.289 94.2716C176.751 94.2716 178.746 92.2759 178.746 89.814C178.746 87.3522 176.751 85.3564 174.289 85.3564C171.827 85.3564 169.831 87.3522 169.831 89.814C169.831 92.2759 171.827 94.2716 174.289 94.2716Z" fill="#E0F3FF"/>
<path d="M2.1256 133.263C3.09081 133.263 3.87327 132.48 3.87327 131.515C3.87327 130.55 3.09081 129.768 2.1256 129.768C1.16039 129.768 0.37793 130.55 0.37793 131.515C0.37793 132.48 1.16039 133.263 2.1256 133.263Z" fill="#DEEBF3"/>
<path d="M282.787 138.557C285.249 138.557 287.244 136.561 287.244 134.099C287.244 131.637 285.249 129.642 282.787 129.642C280.325 129.642 278.329 131.637 278.329 134.099C278.329 136.561 280.325 138.557 282.787 138.557Z" fill="#F8A724"/>
</svg>
