<svg width="72" height="82" viewBox="0 0 72 82" fill="none" xmlns="http://www.w3.org/2000/svg">
    <path
        d="M64.8973 25.3898C64.5112 24.8308 63.8228 24.3277 63.7389 23.7128C63.6325 22.9862 64.6007 22.6619 64.9981 22.0806C65.1251 21.8806 65.2713 21.6934 65.4346 21.5216C65.8263 21.1583 66.1677 20.9011 66.7386 21.3875C67.112 21.7304 67.6064 21.9113 68.1133 21.8903C68.6201 21.8694 69.0979 21.6483 69.4417 21.2757C69.7934 20.8914 69.9832 20.3864 69.9718 19.8659C69.9603 19.3453 69.7484 18.8492 69.3801 18.4807C68.9883 18.0503 68.4735 17.7317 68.0985 17.2901C66.8952 15.9131 65.6133 14.6067 64.2593 13.3772C63.8922 13.0631 63.4248 12.8905 62.9414 12.8905C62.458 12.8905 61.9905 13.0631 61.6234 13.3772C61.2769 13.7186 61.0631 14.1719 61.02 14.6561C60.977 15.1404 61.1075 15.6241 61.3884 16.0212C62.2726 17.2789 62.2726 17.2789 61.2149 18.3578C61.0061 18.5301 60.8097 18.7169 60.6272 18.9167C60.1124 19.6155 59.7038 19.6266 58.9931 19.0229C54.5021 15.1799 49.112 12.5322 43.323 11.3257C42.4275 11.1301 41.2355 11.3257 40.6926 10.6885C40.1498 10.0512 40.6199 8.89414 40.5023 7.9774C40.3736 6.94328 40.7318 6.61907 41.7951 6.6582C42.2385 6.68378 42.6825 6.62007 43.1007 6.47086C43.5189 6.32164 43.9029 6.08997 44.2296 5.7896C44.5564 5.48924 44.8194 5.12632 45.003 4.72241C45.1866 4.3185 45.287 3.88184 45.2983 3.43841C45.3095 2.99497 45.2314 2.5538 45.0686 2.14111C44.9057 1.72843 44.6615 1.35266 44.3503 1.03613C44.0392 0.71961 43.6675 0.468798 43.2574 0.298602C42.8473 0.128406 42.4071 0.0423004 41.963 0.0454058C37.9933 -0.0104927 34.0254 -0.0235355 30.0594 0.00627707C29.2204 0.0069989 28.4128 0.32509 27.7991 0.896541C27.1855 1.46799 26.8113 2.25039 26.7518 3.08629C26.7093 3.91908 26.9689 4.73926 27.4829 5.39637C27.9968 6.05349 28.7308 6.50348 29.5501 6.66379C30.1937 6.79236 31.1059 6.32281 31.4361 6.98241C31.7663 7.64201 31.5256 8.39664 31.5368 9.11773C31.5228 9.25526 31.5228 9.39386 31.5368 9.53138C31.7831 10.6494 31.1619 10.9344 30.1657 11.1021C25.5253 11.8187 21.0797 13.4719 17.1001 15.9611C13.1205 18.4502 9.69028 21.723 7.01871 25.5798C4.32604 29.2391 2.39078 33.3978 1.32608 37.8128C0.261373 42.2279 0.0885962 46.8106 0.81784 51.2931C2.49678 62.3611 8.28353 70.7123 17.6856 76.6543C17.9654 76.8276 18.2452 77.0735 18.609 76.8499C18.6538 77.3754 19.1239 77.4592 19.4653 77.6325C23.3145 79.6581 27.5096 80.9455 31.8334 81.428C39.0815 82.3039 46.424 80.932 52.8649 77.4984C53.2287 77.3027 53.7492 77.2245 53.8163 76.6599C54.376 76.8276 54.7453 76.4419 55.1259 76.1903C63.8172 70.4048 69.3073 62.4617 71.0814 52.154C72.7212 42.3885 70.4938 33.4895 64.8973 25.3898ZM63.7053 47.8442C65.8767 47.9225 65.9103 47.9281 65.6081 50.0802C64.8438 55.6715 62.5292 60.938 58.9259 65.2845C58.439 65.8771 58.092 65.8882 57.6555 65.2845C57.5433 65.153 57.4238 65.028 57.2973 64.91C55.9318 63.507 55.7583 63.5349 54.3424 64.91C53.6764 65.564 53.682 66.1342 54.3144 66.7603L54.3816 66.8385C55.8926 68.4652 55.8926 68.4596 54.1129 69.8011C52.9138 70.7267 51.641 71.553 50.3073 72.2719C50.1171 72.3725 49.9436 72.4619 49.8988 72.6911C48.3822 73.0433 47.1006 73.9153 45.5951 74.3681C43.4047 75.0745 41.1552 75.5834 38.8738 75.8885C37.9448 75.9947 37.5922 75.7208 37.7153 74.7985C37.7377 74.5232 37.7377 74.2465 37.7153 73.9712C37.7153 72.6855 37.4523 72.434 36.1259 72.4172C34.5085 72.4172 34.2679 72.6352 34.2847 74.2339C34.2847 76.0785 34.2847 76.0226 32.4826 75.7991C29.3084 75.3897 26.2132 74.5099 23.2988 73.1886C23.0652 73.0407 22.7916 72.9685 22.5153 72.9818C22.2075 72.3669 21.5303 72.2886 21.0211 71.9812C19.6387 71.1315 18.3348 70.1813 17.0308 69.2254C16.2865 68.6664 16.085 68.2136 16.9301 67.6211C17.0083 67.5541 17.0813 67.4813 17.1483 67.4031C18.5474 66.0056 18.3907 65.0386 16.639 64.0492C16.0514 63.725 15.6597 64.0212 15.2679 64.3846C13.589 65.9777 13.589 65.9833 12.1731 64.1219C8.81295 59.6335 6.75648 54.307 6.22963 48.7274C6.15687 48.0958 6.27439 47.7324 7.01313 47.8163C7.35796 47.8358 7.70364 47.8358 8.04848 47.8163C9.41401 47.8163 9.68263 47.5368 9.69382 46.1896C9.69382 44.5797 9.54833 44.4512 7.80223 44.4288C6.05613 44.4065 6.12329 44.658 6.34715 42.8245C6.99543 37.1867 9.22876 31.8474 12.7887 27.4245C13.7177 26.245 13.8072 26.1891 14.7306 27.2959C16.1298 28.9729 16.8013 28.235 18.0326 26.7817C18.1541 26.6306 18.216 26.4403 18.2067 26.2467C18.1975 26.0531 18.1176 25.8696 17.9822 25.7308C17.8077 25.5152 17.6208 25.3099 17.4226 25.1159C16.1689 23.7967 16.1633 23.7911 17.5848 22.6955C21.9764 19.2604 27.2404 17.1174 32.7848 16.5075C34.2455 16.3398 34.2455 16.351 34.2455 17.8155C34.2455 19.6211 35.3648 20.3869 37.0941 19.7105C37.6538 19.4925 37.6873 19.0062 37.7209 18.5143C37.8496 16.3566 37.8496 16.351 39.9931 16.6305C45.5514 17.3711 50.7883 19.661 55.1035 23.2377C55.7135 23.7296 55.7863 24.1041 55.1371 24.5681C54.9972 24.6687 54.8965 24.8196 54.7621 24.9314C53.1448 26.2953 53.7548 26.8152 55.3218 28.1064C55.5021 28.2499 55.7317 28.3168 55.9609 28.2928C56.1902 28.2687 56.4008 28.1556 56.5474 27.9779C56.8216 27.7208 57.1071 27.4524 57.3645 27.1897C58.3383 26.2786 58.3327 26.2842 59.1889 27.363C62.9268 32.0034 65.2104 37.6425 65.7536 43.5736C65.8095 44.1326 65.6808 44.44 65.0708 44.4009C64.8302 44.4009 64.5895 44.4009 64.3433 44.4009C62.4237 44.4009 62.323 44.5462 62.3118 46.4523C62.3062 47.4697 62.821 47.8163 63.7053 47.8442Z"
        fill="#3C4852" fill-opacity="0.1" />
    <path
        d="M49.7121 33.5227C49.1525 32.9246 48.8838 33.0532 48.3634 33.573C43.6623 38.3188 39.146 43.6348 34.445 48.3638C33.8349 48.9842 33.5271 48.9228 32.9283 48.3638C29.8503 45.2167 26.7107 42.1311 23.599 39.0175C23.1905 38.6095 22.8771 38.2517 22.3174 38.9169C21.6067 39.7498 21.8697 39.3194 21.131 40.1355C20.4136 40.9579 19.6434 41.7328 18.8252 42.4553C18.2656 42.8745 18.3719 43.182 18.8532 43.6627C23.9572 48.6936 25.9216 50.6556 31.0031 55.7368C33.488 58.2243 33.2417 58.392 35.9896 55.7871C36.0512 55.7871 46.6229 44.7751 53.2379 38.2014C53.68 37.7542 53.5961 37.5195 53.2099 37.1449C51.2679 35.2109 51.5925 35.4848 49.7121 33.5227Z"
        fill="#3C4852" fill-opacity="0.1" />
</svg>