<svg width="20" height="18" viewBox="0 0 20 18" fill="none" xmlns="http://www.w3.org/2000/svg">
<path fill-rule="evenodd" clip-rule="evenodd" d="M9.57941 0.396441C7.61401 0.785378 6.19205 2.54254 6.19205 4.58226C6.19205 5.83635 6.50694 6.59404 7.41687 7.52976C7.8459 7.97096 8.19688 8.34947 8.19688 8.37112C8.19688 8.39264 8.10025 8.41028 7.9821 8.41028C7.51644 8.41028 6.01843 9.2634 5.27411 9.9524C4.84227 10.3523 4.32141 10.9993 4.11665 11.3904C3.76674 12.0587 3.69163 12.1195 2.86323 12.4043C2.37846 12.5711 1.75643 12.8541 1.4807 13.0334L0.979492 13.3593V15.1508C0.979492 16.1362 1.01598 17.0375 1.06062 17.1537C1.17022 17.4395 1.54004 17.4197 2.08349 17.0991C3.40507 16.3193 5.67654 15.9765 7.46993 16.2862C7.97996 16.3743 8.82867 16.6531 9.35594 16.9058C9.88308 17.1584 10.3836 17.3652 10.4682 17.3652C10.5527 17.3652 10.8784 17.2148 11.1918 17.0312C12.4577 16.2894 14.9426 15.9593 16.644 16.307C17.0335 16.3867 17.8149 16.6651 18.3802 16.9259C18.9454 17.1866 19.5019 17.3639 19.6165 17.3199C19.7919 17.2527 19.8249 16.9356 19.8249 15.3184C19.8249 13.6442 19.7942 13.3692 19.5865 13.1811C19.3213 12.9412 18.0816 12.3732 17.5326 12.24C17.2816 12.1792 17.0534 11.9332 16.7506 11.3965C16.1527 10.3372 15.1812 9.4405 14.0415 8.89625C13.5101 8.64244 12.9593 8.39705 12.8176 8.35081C12.5897 8.27649 12.6134 8.23038 13.0234 7.95185C14.2997 7.08456 14.9669 5.20255 14.5605 3.6162C14.1313 1.94123 13.0893 0.884818 11.4432 0.456052C10.6095 0.238862 10.4085 0.232446 9.57941 0.396441ZM11.7387 1.44243C12.543 1.80904 13.0832 2.32549 13.4658 3.09347C14.3087 4.78461 13.5956 6.82219 11.8594 7.6836C11.1199 8.05062 9.65653 8.03284 8.93198 7.64831C6.23281 6.21539 6.47727 2.37935 9.33295 1.35742C9.97022 1.12941 11.1429 1.17084 11.7387 1.44243ZM12.6693 9.23788C13.1075 9.38289 13.7166 9.6482 14.0227 9.82756C14.6106 10.1721 15.9489 11.5035 15.9489 11.7436C15.9489 11.8321 15.5302 11.8853 14.8342 11.8853C13.5741 11.8853 12.0384 12.2285 11.0492 12.7314L10.4034 13.0595L9.75517 12.731C8.75917 12.2263 7.23015 11.8853 5.9627 11.8853H4.8404L5.08178 11.4725C5.60985 10.5699 6.89762 9.65181 8.25061 9.21342C9.61817 8.77035 11.2834 8.77957 12.6693 9.23788ZM8.19688 13.0329C8.60119 13.153 9.15759 13.3662 9.43319 13.5067L9.9344 13.762V16.1503L9.07366 15.8263C7.14956 15.1021 4.69271 15.1048 2.75711 15.8334L1.91508 16.1503V13.762L2.4203 13.5042C2.94837 13.2347 4.10302 12.8777 4.78867 12.7717C5.50694 12.6607 7.4444 12.8091 8.19688 13.0329ZM17.085 13.0021C17.4525 13.1024 18.0389 13.3197 18.3881 13.485L19.023 13.7859V14.9884C19.023 16.0806 19.0016 16.1822 18.7891 16.096C16.1017 15.0062 13.6016 15.004 11.1039 16.0893C10.8908 16.1818 10.87 16.0826 10.87 14.9764V13.762L11.3752 13.5042C11.9033 13.2347 13.0579 12.8777 13.7436 12.7717C14.3981 12.6705 16.3659 12.8063 17.085 13.0021Z" fill="#0B649D" stroke="#0B649D" stroke-width="0.3"/>
</svg>
