<svg width="121" height="121" viewBox="0 0 121 121" fill="none" xmlns="http://www.w3.org/2000/svg">
<g clip-path="url(#clip0_6801_4447)">
<path d="M60.5 120.314C93.9132 120.314 121 93.4515 121 60.3144C121 27.1773 93.9132 0.314453 60.5 0.314453C27.0868 0.314453 0 27.1773 0 60.3144C0 93.4515 27.0868 120.314 60.5 120.314Z" fill="#FADA52"/>
<path d="M60.2693 107.655C86.615 107.655 107.972 86.4741 107.972 60.3461C107.972 34.2182 86.615 13.0373 60.2693 13.0373C33.9236 13.0373 12.5663 34.2182 12.5663 60.3461C12.5663 86.4741 33.9236 107.655 60.2693 107.655Z" fill="#F68A1F"/>
<path d="M61.9134 107.279C86.867 107.279 107.096 87.5844 107.096 63.2895C107.096 38.9946 86.867 19.2997 61.9134 19.2997C36.9598 19.2997 16.7309 38.9946 16.7309 63.2895C16.7309 87.5844 36.9598 107.279 61.9134 107.279Z" fill="#FCAF17"/>
<path d="M62.0325 32.9659C62.0325 32.9659 52.7485 29.7788 44.8928 45.0061C30.9668 49.6098 24.5394 56.6922 35.9659 69.7949C36.3229 74.0445 63.1037 107.332 63.1037 107.332C63.1037 107.332 100.24 107.332 107.381 66.6079C94.1693 53.1511 81.3146 41.465 81.3146 41.465C78.7875 42.3049 76.0974 42.5475 73.459 42.1732C69.5311 41.4649 60.9613 33.6741 62.0325 32.9659Z" fill="#F68A1F"/>
<path d="M79.9708 66.6037L68.2682 69.6536C67.4263 68.3116 66.2755 67.1869 64.9101 66.3717C65.9158 65.2018 66.5082 63.7379 66.5967 62.203C66.6852 60.6682 66.2651 59.1468 65.4005 57.8708V54.1747H67.4269L69.6134 50.8391V54.4717C69.1582 54.5571 68.7522 54.8093 68.4761 55.1782C68.2 55.5471 68.0742 56.0056 68.1236 56.4624C68.173 56.9192 68.3941 57.3408 68.7428 57.6432C69.0915 57.9456 69.5423 58.1067 70.0054 58.0943C70.4684 58.082 70.9098 57.8971 71.2417 57.5766C71.5735 57.2561 71.7715 56.8234 71.7961 56.3646C71.8207 55.9059 71.6703 55.4547 71.3746 55.101C71.079 54.7474 70.6599 54.5171 70.2008 54.456V49.9441H52.5526L49.6735 54.1747H53.4053V58.1838C52.643 59.4489 52.2996 60.9192 52.4235 62.3879C52.5474 63.8566 53.1324 65.2499 54.0961 66.3718C52.7308 67.1865 51.5804 68.3114 50.7396 69.6537L39.0351 66.6039L45.8291 81.9897L42.7724 70.1406L58.5693 73.9929L59.5031 81.2605L60.4386 73.9929L76.2346 70.1406L73.1779 81.9897L79.9708 66.6037ZM60.146 66.5267C59.2385 66.527 58.3456 66.3007 57.5496 65.8687C56.7535 65.4367 56.08 64.8128 55.591 64.0547C55.102 63.2966 54.8134 62.4286 54.7517 61.5307C54.69 60.6329 54.8572 59.7341 55.2379 58.9172C57.4438 59.7554 61.7283 60.2402 64.3526 58.669H64.9292C65.3626 59.4861 65.576 60.4002 65.5487 61.3231C65.5213 62.2459 65.2542 63.1461 64.7731 63.9364C64.292 64.7268 63.6133 65.3806 62.8026 65.8345C61.992 66.2883 61.0769 66.5269 60.146 66.5272" fill="#FEDE00"/>
<path d="M87.2045 45.2243C85.2912 43.2372 82.9229 41.7371 80.3005 40.8513C77.6781 39.9654 74.8789 39.7198 72.1404 40.1354C70.8348 37.2078 68.6149 34.7737 65.8084 33.1924C63.0018 31.611 59.757 30.9661 56.5528 31.3526C53.3485 31.7392 50.3543 33.1368 48.0119 35.3394C45.6694 37.5419 44.1028 40.4328 43.543 43.5855C43.3263 43.572 43.1087 43.5581 42.8888 43.5531C39.5826 43.4783 36.3436 44.485 33.6718 46.4178C31.0001 48.3506 29.0443 51.1019 28.1065 54.247C27.1687 57.392 27.3011 60.7558 28.4831 63.8188C29.6652 66.8818 31.8312 69.4737 34.6467 71.1941C34.9029 71.3509 35.1878 71.4561 35.485 71.5037C35.7822 71.5513 36.086 71.5404 36.3789 71.4716C36.6719 71.4028 36.9483 71.2774 37.1924 71.1026C37.4366 70.9279 37.6436 70.7071 37.8017 70.453C37.9598 70.1989 38.0658 69.9164 38.1138 69.6216C38.1618 69.3269 38.1508 69.0256 38.0814 68.735C38.012 68.4445 37.8856 68.1704 37.7094 67.9283C37.5332 67.6862 37.3106 67.4809 37.0544 67.3241C35.5235 66.3851 34.2608 65.0726 33.387 63.5119C32.3991 61.7438 31.9532 59.7281 32.1039 57.7123C32.2546 55.6964 32.9954 53.768 34.2354 52.1637C35.4754 50.5595 37.1607 49.3491 39.0844 48.6811C41.0081 48.0131 43.0866 47.9166 45.0649 48.4034C45.4028 48.4859 45.7553 48.491 46.0955 48.4185C46.4357 48.3459 46.7549 48.1975 47.0287 47.9844C47.3025 47.7714 47.5239 47.4994 47.676 47.189C47.8282 46.8786 47.9071 46.5379 47.9068 46.1927C47.9061 46.0458 47.9043 45.9638 47.9043 45.9401C47.9615 43.4511 48.9184 41.0654 50.6006 39.2175C52.2829 37.3697 54.5785 36.1826 57.0693 35.8727C59.5601 35.5628 62.0803 36.1507 64.1707 37.5291C66.2611 38.9076 67.7826 40.985 68.4579 43.3828C68.539 43.6713 68.6767 43.941 68.8631 44.1765C69.0495 44.4121 69.281 44.6088 69.5443 44.7554C69.8075 44.902 70.0974 44.9956 70.3972 45.0309C70.6971 45.0661 71.001 45.0423 71.2915 44.9608C74.1852 44.1467 77.2766 44.3815 80.0116 45.623C82.7466 46.8645 84.9462 49.0316 86.2161 51.7357C87.486 54.4398 87.7432 57.5041 86.9415 60.3792C86.1398 63.2543 84.3316 65.7521 81.8412 67.4249C81.341 67.7652 80.997 68.2881 80.8845 68.8793C80.7721 69.4704 80.9004 70.0817 81.2413 70.5793C81.5822 71.0769 82.1079 71.4203 82.7035 71.5344C83.2991 71.6484 83.916 71.5239 84.4192 71.188C86.4931 69.7926 88.2353 67.9656 89.5245 65.8342C90.8137 63.7029 91.6189 61.3184 91.884 58.8469C92.1491 56.3755 91.8677 53.8764 91.0594 51.5238C90.2512 49.1712 88.9355 47.0216 87.204 45.2247" fill="#FEDE00"/>
</g>
<defs>
<clipPath id="clip0_6801_4447">
<rect width="121" height="120" fill="white" transform="translate(0 0.314453)"/>
</clipPath>
</defs>
</svg>
