<svg width="25" height="24" viewBox="0 0 25 24" fill="none" xmlns="http://www.w3.org/2000/svg">
<path d="M18.2891 9.75H16.7891C16.7885 9.15345 16.5512 8.5815 16.1294 8.15967C15.7076 7.73784 15.1356 7.5006 14.5391 7.5V6C15.5333 6.00119 16.4864 6.39666 17.1894 7.09966C17.8924 7.80267 18.2879 8.7558 18.2891 9.75Z" fill="#0B649D"/>
<path d="M21.2891 9.75H19.7891C19.7875 8.3581 19.2338 7.02367 18.2496 6.03944C17.2654 5.05522 15.931 4.50159 14.5391 4.5V3C16.3287 3.00199 18.0444 3.71378 19.3098 4.97922C20.5753 6.24466 21.2871 7.9604 21.2891 9.75Z" fill="#0B649D"/>
<path d="M19.7898 21.75H19.6623C4.92482 20.9025 2.83232 8.4675 2.53982 4.6725C2.49411 4.07756 2.68658 3.48883 3.07492 3.03579C3.46325 2.58276 4.01564 2.30253 4.61057 2.25675C4.67007 2.25225 4.72982 2.25 4.78982 2.25H8.74232C9.04274 2.24971 9.33632 2.33963 9.58505 2.50812C9.83377 2.67661 10.0262 2.9159 10.1373 3.195L11.2773 6C11.3871 6.27266 11.4143 6.57156 11.3557 6.85957C11.297 7.14758 11.155 7.412 10.9473 7.62L9.34982 9.2325C9.59834 10.651 10.2771 11.9587 11.2941 12.9784C12.311 13.998 13.617 14.6802 15.0348 14.9325L16.6623 13.32C16.8734 13.1146 17.1404 12.9759 17.4298 12.9213C17.7192 12.8666 18.0183 12.8983 18.2898 13.0125L21.1173 14.145C21.3922 14.2597 21.6267 14.4536 21.791 14.702C21.9553 14.9504 22.0419 15.2422 22.0398 15.54V19.5C22.0398 20.0967 21.8028 20.669 21.3808 21.091C20.9589 21.5129 20.3866 21.75 19.7898 21.75ZM4.78982 3.75C4.69133 3.7497 4.59374 3.76881 4.50264 3.80623C4.41153 3.84365 4.32868 3.89864 4.25883 3.96808C4.18898 4.03751 4.13349 4.12003 4.09552 4.21091C4.05756 4.30179 4.03787 4.39926 4.03757 4.49775C4.03757 4.51875 4.03832 4.5395 4.03982 4.56C4.38482 9 6.59732 19.5 19.7448 20.25C19.9433 20.2619 20.1384 20.1945 20.2872 20.0625C20.436 19.9306 20.5263 19.745 20.5383 19.5465L20.5398 19.5V15.54L17.7123 14.4075L15.5598 16.545L15.1998 16.5C8.67482 15.6825 7.78982 9.1575 7.78982 9.09L7.74482 8.73L9.87482 6.5775L8.74982 3.75H4.78982Z" fill="#0B649D"/>
</svg>
