<svg width="75" height="86" viewBox="0 0 75 86" fill="none" xmlns="http://www.w3.org/2000/svg">
<path d="M66.4061 29.5622C66.02 29.0032 65.3316 28.5001 65.2476 27.8852C65.1413 27.1585 66.1095 26.8343 66.5069 26.253C66.6339 26.053 66.7801 25.8658 66.9434 25.694C67.3351 25.3306 67.6765 25.0735 68.2474 25.5598C68.6208 25.9028 69.1152 26.0836 69.6221 26.0627C70.1289 26.0417 70.6067 25.8206 70.9504 25.448C71.3022 25.0637 71.492 24.5588 71.4806 24.0382C71.4691 23.5177 71.2572 23.0216 70.8889 22.6531C70.4971 22.2227 69.9823 21.9041 69.6073 21.4625C68.404 20.0855 67.1221 18.779 65.7681 17.5496C65.401 17.2355 64.9335 17.0628 64.4502 17.0628C63.9668 17.0628 63.4993 17.2355 63.1322 17.5496C62.7857 17.891 62.5719 18.3442 62.5288 18.8285C62.4858 19.3127 62.6163 19.7965 62.8971 20.1936C63.7814 21.4513 63.7814 21.4513 62.7237 22.5301C62.5149 22.7025 62.3185 22.8892 62.136 23.0891C61.6211 23.7878 61.2126 23.799 60.5019 23.1953C56.0109 19.3523 50.6208 16.7046 44.8318 15.4981C43.9363 15.3024 42.7443 15.4981 42.2014 14.8608C41.6586 14.2236 42.1287 13.0665 42.0111 12.1498C41.8824 11.1156 42.2406 10.7914 43.3039 10.8306C43.7473 10.8561 44.1913 10.7924 44.6095 10.6432C45.0277 10.494 45.4116 10.2623 45.7384 9.96197C46.0652 9.6616 46.3282 9.29868 46.5118 8.89477C46.6954 8.49086 46.7958 8.05421 46.8071 7.61077C46.8183 7.16733 46.7402 6.72616 46.5774 6.31348C46.4145 5.90079 46.1703 5.52502 45.8591 5.2085C45.548 4.89197 45.1763 4.64116 44.7662 4.47097C44.3561 4.30077 43.9159 4.21466 43.4718 4.21777C39.5021 4.16187 35.5342 4.14883 31.5681 4.17864C30.7292 4.17936 29.9216 4.49745 29.3079 5.0689C28.6942 5.64036 28.3201 6.42275 28.2606 7.25865C28.2181 8.09144 28.4777 8.91162 28.9916 9.56874C29.5056 10.2258 30.2396 10.6758 31.0589 10.8362C31.7025 10.9647 32.6147 10.4952 32.9449 11.1548C33.2751 11.8144 33.0344 12.569 33.0456 13.2901C33.0315 13.4276 33.0315 13.5662 33.0456 13.7037C33.2919 14.8217 32.6706 15.1068 31.6745 15.2745C27.0341 15.991 22.5885 17.6443 18.6089 20.1334C14.6293 22.6226 11.1991 25.8954 8.5275 29.7522C5.83483 33.4115 3.89957 37.5702 2.83487 41.9852C1.77016 46.4002 1.59739 50.983 2.32663 55.4655C4.00557 66.5334 9.79232 74.8847 19.1944 80.8267C19.4742 80.9999 19.754 81.2459 20.1178 81.0223C20.1626 81.5478 20.6327 81.6316 20.974 81.8049C24.8233 83.8305 29.0184 85.1179 33.3422 85.6004C40.5903 86.4763 47.9328 85.1044 54.3737 81.6707C54.7375 81.4751 55.258 81.3968 55.3251 80.8323C55.8848 81 56.2541 80.6143 56.6347 80.3627C65.326 74.5772 70.8161 66.634 72.5902 56.3263C74.23 46.5609 72.0026 37.6618 66.4061 29.5622ZM65.2141 52.0166C67.3855 52.0948 67.4191 52.1004 67.1169 54.2525C66.3526 59.8439 64.038 65.1103 60.4347 69.4569C59.9478 70.0494 59.6008 70.0606 59.1643 69.4569C59.0521 69.3254 58.9325 69.2003 58.8061 69.0824C57.4406 67.6793 57.2671 67.7073 55.8512 69.0824C55.1852 69.7364 55.1908 70.3066 55.8232 70.9326L55.8904 71.0109C57.4014 72.6375 57.4014 72.6319 55.6217 73.9735C54.4226 74.899 53.1498 75.7254 51.8161 76.4442C51.6259 76.5448 51.4524 76.6343 51.4076 76.8635C49.891 77.2156 48.6094 78.0876 47.1039 78.5404C44.9135 79.2469 42.664 79.7558 40.3826 80.0609C39.4536 80.1671 39.101 79.8932 39.2241 78.9708C39.2465 78.6955 39.2465 78.4189 39.2241 78.1435C39.2241 76.8579 38.9611 76.6063 37.6347 76.5896C36.0173 76.5896 35.7767 76.8076 35.7935 78.4063C35.7935 80.2509 35.7935 80.195 33.9914 79.9714C30.8172 79.5621 27.7219 78.6823 24.8076 77.361C24.574 77.2131 24.3004 77.1409 24.0241 77.1541C23.7163 76.5393 23.0391 76.461 22.5299 76.1535C21.1475 75.3039 19.8436 74.3536 18.5396 73.3978C17.7953 72.8388 17.5938 72.386 18.4388 71.7935C18.5171 71.7265 18.5901 71.6536 18.6571 71.5755C20.0562 70.178 19.8995 69.211 18.1478 68.2216C17.5602 67.8973 17.1685 68.1936 16.7767 68.5569C15.0978 70.15 15.0978 70.1556 13.6819 68.2942C10.3217 63.8059 8.26527 58.4794 7.73842 52.8998C7.66566 52.2681 7.78318 51.9048 8.52192 51.9886C8.86675 52.0082 9.21243 52.0082 9.55727 51.9886C10.9228 51.9886 11.1914 51.7091 11.2026 50.362C11.2026 48.7521 11.0571 48.6235 9.31102 48.6012C7.56492 48.5788 7.63208 48.8304 7.85594 46.9969C8.50422 41.359 10.7375 36.0197 14.2975 31.5969C15.2265 30.4174 15.316 30.3615 16.2394 31.4683C17.6385 33.1452 18.3101 32.4074 19.5414 30.954C19.6628 30.8029 19.7248 30.6126 19.7155 30.419C19.7062 30.2255 19.6264 30.042 19.491 29.9031C19.3165 29.6875 19.1296 29.4822 18.9313 29.2882C17.6777 27.969 17.6721 27.9634 19.0936 26.8678C23.4852 23.4328 28.7492 21.2898 34.2936 20.6799C35.7543 20.5122 35.7543 20.5234 35.7543 21.9879C35.7543 23.7934 36.8736 24.5592 38.6029 23.8829C39.1625 23.6649 39.1961 23.1785 39.2297 22.6866C39.3584 20.529 39.3584 20.5234 41.5019 20.8029C47.0602 21.5434 52.2971 23.8333 56.6123 27.4101C57.2223 27.902 57.2951 28.2765 56.6459 28.7404C56.506 28.8411 56.4052 28.992 56.2709 29.1038C54.6536 30.4677 55.2636 30.9876 56.8306 32.2788C57.0109 32.4223 57.2405 32.4892 57.4697 32.4651C57.699 32.4411 57.9096 32.328 58.0562 32.1502C58.3304 31.8931 58.6158 31.6248 58.8733 31.3621C59.8471 30.4509 59.8415 30.4565 60.6977 31.5354C64.4355 36.1758 66.7191 41.8149 67.2624 47.7459C67.3183 48.3049 67.1896 48.6124 66.5796 48.5732C66.339 48.5732 66.0983 48.5732 65.8521 48.5732C63.9325 48.5732 63.8317 48.7186 63.8206 50.6247C63.815 51.6421 64.3298 51.9886 65.2141 52.0166Z" fill="#FFB946"/>
<path d="M51.8879 37.6956C51.3282 37.0975 51.0596 37.226 50.5391 37.7459C45.8381 42.4917 41.3218 47.8076 36.6207 52.5366C36.0107 53.1571 35.7029 53.0956 35.1041 52.5366C32.0261 49.3895 28.8864 46.3039 25.7748 43.1904C25.3663 42.7823 25.0529 42.4246 24.4932 43.0898C23.7825 43.9227 24.0455 43.4922 23.3068 44.3084C22.5893 45.1307 21.8191 45.9056 21.001 46.6282C20.4414 47.0474 20.5477 47.3548 21.029 47.8356C26.133 52.8664 28.0973 54.8285 33.1789 59.9096C35.6638 62.3971 35.4175 62.5648 38.1654 59.9599C38.2269 59.9599 48.7986 48.9479 55.4137 42.3743C55.8558 41.9271 55.7718 41.6923 55.3857 41.3178C53.4437 39.3837 53.7683 39.6576 51.8879 37.6956Z" fill="#FFB946"/>
</svg>
