<svg width="42" height="44" viewBox="0 0 42 44" fill="none" xmlns="http://www.w3.org/2000/svg">
<path d="M19.7089 28.86H21.6289V26.66C23.8689 26.18 25.4689 24.56 25.4689 22.76C25.4689 20.66 23.7489 19.02 21.1689 19.02C19.1689 19.02 17.6889 19.96 16.5889 21.28L17.8289 22.52C18.6289 21.56 19.6289 20.84 20.9489 20.84C22.4889 20.84 23.4289 21.86 23.4289 22.96C23.4289 24.14 21.8889 25.1 19.7089 25.26V28.86ZM20.6689 33.24C21.3889 33.24 21.9689 32.62 21.9689 31.88C21.9689 31.2 21.3889 30.58 20.6689 30.58C19.9089 30.58 19.3289 31.2 19.3289 31.88C19.3289 32.62 19.9089 33.24 20.6689 33.24Z" fill="#5A72C8"/>
<path d="M13.2109 1.57143C13.2109 1.15466 13.3791 0.754962 13.6785 0.460262C13.9779 0.165561 14.3839 0 14.8073 0H27.5782C28.0016 0 28.4076 0.165561 28.707 0.460262C29.0064 0.754962 29.1745 1.15466 29.1745 1.57143C29.1745 1.9882 29.0064 2.3879 28.707 2.6826C28.4076 2.9773 28.0016 3.14286 27.5782 3.14286H14.8073C14.3839 3.14286 13.9779 2.9773 13.6785 2.6826C13.3791 2.3879 13.2109 1.9882 13.2109 1.57143Z" fill="#5A72C8"/>
<path d="M40.3473 25.1428C40.3473 30.1441 38.3291 34.9405 34.7366 38.4769C31.1441 42.0133 26.2716 44 21.191 44C16.1104 44 11.2379 42.0133 7.64543 38.4769C4.05292 34.9405 2.03467 30.1441 2.03467 25.1428C2.03467 20.1416 4.05292 15.3452 7.64543 11.8088C11.2379 8.27238 16.1104 6.28564 21.191 6.28564C26.2716 6.28564 31.1441 8.27238 34.7366 11.8088C38.3291 15.3452 40.3473 20.1416 40.3473 25.1428ZM37.1546 25.1428C37.1546 20.9751 35.4727 16.9781 32.479 14.0311C29.4852 11.0841 25.4248 9.42851 21.191 9.42851C16.9572 9.42851 12.8968 11.0841 9.90302 14.0311C6.90926 16.9781 5.22739 20.9751 5.22739 25.1428C5.22739 29.3105 6.90926 33.3075 9.90302 36.2545C12.8968 39.2015 16.9572 40.8572 21.191 40.8572C25.4248 40.8572 29.4852 39.2015 32.479 36.2545C35.4727 33.3075 37.1546 29.3105 37.1546 25.1428Z" fill="#5A72C8"/>
<path d="M37.0058 5.16053C36.8586 5.01044 36.6824 4.89072 36.4877 4.80837C36.2929 4.72601 36.0834 4.68266 35.8715 4.68085C35.6595 4.67903 35.4493 4.71879 35.2531 4.7978C35.0569 4.87682 34.8787 4.9935 34.7288 5.14105C34.5789 5.28859 34.4604 5.46405 34.3801 5.65717C34.2998 5.85029 34.2594 6.05722 34.2613 6.26587C34.2631 6.47453 34.3072 6.68073 34.3908 6.87245C34.4745 7.06417 34.5961 7.23757 34.7486 7.38253L39.228 11.792C39.3752 11.9421 39.5514 12.0618 39.7461 12.1441C39.9409 12.2265 40.1504 12.2698 40.3623 12.2717C40.5743 12.2735 40.7845 12.2337 40.9807 12.1547C41.1769 12.0757 41.3551 11.959 41.505 11.8114C41.6549 11.6639 41.7734 11.4884 41.8537 11.2953C41.934 11.1022 41.9744 10.8953 41.9725 10.6866C41.9707 10.478 41.9266 10.2718 41.843 10.08C41.7593 9.88832 41.6377 9.71492 41.4852 9.56996L37.0058 5.16053Z" fill="#5A72C8"/>
<path d="M7.51314 8.11861C7.66561 7.97365 7.78722 7.80025 7.87089 7.60853C7.95455 7.41681 7.99859 7.21061 8.00043 7.00196C8.00227 6.7933 7.96188 6.58638 7.88161 6.39325C7.80135 6.20013 7.68281 6.02468 7.53293 5.87713C7.38304 5.72958 7.2048 5.6129 7.00862 5.53389C6.81243 5.45488 6.60222 5.41512 6.39026 5.41693C6.17829 5.41874 5.96882 5.46209 5.77406 5.54445C5.57929 5.62681 5.40314 5.74652 5.25588 5.89661L0.776498 10.306C0.624029 10.451 0.502414 10.6244 0.41875 10.8161C0.335087 11.0078 0.291049 11.214 0.289207 11.4227C0.287365 11.6314 0.327757 11.8383 0.408024 12.0314C0.48829 12.2245 0.606825 12.4 0.756711 12.5475C0.906598 12.6951 1.08483 12.8118 1.28102 12.8908C1.47721 12.9698 1.68742 13.0095 1.89938 13.0077C2.11134 13.0059 2.32082 12.9626 2.51558 12.8802C2.71034 12.7979 2.88649 12.6781 3.03375 12.5281L7.51314 8.11861Z" fill="#5A72C8"/>
</svg>
