<svg width="72" height="83" viewBox="0 0 72 83" fill="none" xmlns="http://www.w3.org/2000/svg">
<path d="M64.9989 25.9284C64.6127 25.3694 63.9244 24.8663 63.8404 24.2514C63.7341 23.5247 64.7023 23.2005 65.0996 22.6192C65.2267 22.4192 65.3729 22.232 65.5361 22.0602C65.9279 21.6968 66.2693 21.4397 66.8401 21.926C67.2135 22.269 67.708 22.4499 68.2148 22.4289C68.7217 22.4079 69.1995 22.1869 69.5432 21.8142C69.8949 21.4299 70.0848 20.925 70.0733 20.4044C70.0619 19.8839 69.85 19.3878 69.4817 19.0193C69.0899 18.5889 68.575 18.2703 68.2001 17.8287C66.9968 16.4517 65.7149 15.1452 64.3609 13.9158C63.9938 13.6017 63.5263 13.429 63.0429 13.429C62.5595 13.429 62.0921 13.6017 61.725 13.9158C61.3785 14.2572 61.1647 14.7104 61.1216 15.1947C61.0786 15.6789 61.2091 16.1627 61.4899 16.5598C62.3742 17.8175 62.3742 17.8175 61.3164 18.8963C61.1077 19.0687 60.9113 19.2555 60.7288 19.4553C60.2139 20.154 59.8054 20.1652 59.0946 19.5615C54.6037 15.7185 49.2136 13.0708 43.4245 11.8643C42.5291 11.6687 41.337 11.8643 40.7942 11.2271C40.2513 10.5898 40.7214 9.43271 40.6039 8.51598C40.4752 7.48186 40.8334 7.15764 41.8967 7.19677C42.3401 7.22236 42.784 7.15865 43.2023 7.00943C43.6205 6.86022 44.0044 6.62854 44.3312 6.32818C44.658 6.02781 44.921 5.66489 45.1046 5.26098C45.2882 4.85707 45.3886 4.42042 45.3998 3.97698C45.4111 3.53354 45.333 3.09237 45.1701 2.67969C45.0073 2.267 44.763 1.89123 44.4519 1.57471C44.1408 1.25818 43.7691 1.00737 43.359 0.837176C42.9489 0.66698 42.5087 0.580875 42.0646 0.58398C38.0948 0.528082 34.1269 0.515039 30.1609 0.544851C29.3219 0.545573 28.5143 0.863664 27.9007 1.43512C27.287 2.00657 26.9128 2.78896 26.8534 3.62486C26.8109 4.45765 27.0704 5.27783 27.5844 5.93495C28.0984 6.59206 28.8323 7.04205 29.6516 7.20236C30.2952 7.33093 31.2074 6.86138 31.5376 7.52099C31.8678 8.18059 31.6272 8.93522 31.6384 9.65631C31.6243 9.79383 31.6243 9.93243 31.6384 10.07C31.8846 11.1879 31.2634 11.473 30.2673 11.6407C25.6269 12.3572 21.1813 14.0105 17.2017 16.4996C13.2221 18.9888 9.79184 22.2616 7.12027 26.1184C4.42761 29.7777 2.49235 33.9364 1.42764 38.3514C0.362935 42.7665 0.190159 47.3492 0.919403 51.8317C2.59834 62.8996 8.38509 71.2509 17.7871 77.1929C18.067 77.3662 18.3468 77.6121 18.7106 77.3885C18.7553 77.914 19.2254 77.9978 19.5668 78.1711C23.416 80.1967 27.6111 81.4841 31.935 81.9666C39.1831 82.8425 46.5255 81.4706 52.9665 78.0369C53.3303 77.8413 53.8507 77.763 53.9179 77.1985C54.4775 77.3662 54.8469 76.9805 55.2275 76.7289C63.9188 70.9434 69.4089 63.0002 71.183 52.6926C72.8227 42.9271 70.5954 34.0281 64.9989 25.9284ZM63.8068 48.3828C65.9783 48.461 66.0118 48.4666 65.7096 50.6187C64.9453 56.2101 62.6308 61.4765 59.0275 65.8231C58.5406 66.4156 58.1936 66.4268 57.7571 65.8231C57.6449 65.6916 57.5253 65.5665 57.3989 65.4486C56.0334 64.0455 55.8599 64.0735 54.444 65.4486C53.778 66.1026 53.7836 66.6728 54.416 67.2988L54.4831 67.3771C55.9942 69.0037 55.9942 68.9982 54.2145 70.3397C53.0153 71.2653 51.7426 72.0916 50.4089 72.8104C50.2186 72.9111 50.0452 73.0005 50.0004 73.2297C48.4837 73.5818 47.2021 74.4538 45.6967 74.9066C43.5063 75.6131 41.2568 76.122 38.9753 76.4271C38.0463 76.5333 37.6937 76.2594 37.8169 75.337C37.8393 75.0617 37.8393 74.7851 37.8169 74.5098C37.8169 73.2241 37.5538 72.9725 36.2275 72.9558C34.6101 72.9558 34.3694 73.1738 34.3862 74.7725C34.3862 76.6171 34.3862 76.5612 32.5842 76.3376C29.41 75.9283 26.3147 75.0485 23.4004 73.7272C23.1668 73.5793 22.8931 73.5071 22.6169 73.5203C22.3091 72.9055 21.6319 72.8272 21.1226 72.5198C19.7403 71.6701 18.4363 70.7198 17.1324 69.764C16.388 69.205 16.1866 68.7522 17.0316 68.1597C17.1099 68.0927 17.1828 68.0198 17.2499 67.9417C18.649 66.5442 18.4923 65.5772 16.7406 64.5878C16.153 64.2636 15.7612 64.5598 15.3695 64.9232C13.6905 66.5163 13.6905 66.5218 12.2746 64.6604C8.91451 60.1721 6.85805 54.8456 6.33119 49.266C6.25843 48.6343 6.37596 48.271 7.11469 48.3548C7.45953 48.3744 7.8052 48.3744 8.15004 48.3548C9.51558 48.3548 9.78419 48.0753 9.79538 46.7282C9.79538 45.1183 9.64989 44.9897 7.90379 44.9674C6.1577 44.945 6.22485 45.1966 6.44871 43.3631C7.097 37.7252 9.33032 32.3859 12.8902 27.9631C13.8193 26.7836 13.9088 26.7277 14.8322 27.8345C16.2313 29.5115 16.9029 28.7736 18.1341 27.3202C18.2556 27.1691 18.3176 26.9788 18.3083 26.7853C18.299 26.5917 18.2192 26.4082 18.0838 26.2693C17.9093 26.0537 17.7224 25.8484 17.5241 25.6545C16.2705 24.3353 16.2649 24.3297 17.6864 23.234C22.0779 19.799 27.342 17.656 32.8864 17.0461C34.3471 16.8784 34.3471 16.8896 34.3471 18.3541C34.3471 20.1596 35.4664 20.9254 37.1957 20.2491C37.7553 20.0311 37.7889 19.5448 37.8225 19.0528C37.9512 16.8952 37.9512 16.8896 40.0946 17.1691C45.6529 17.9096 50.8899 20.1995 55.2051 23.7763C55.8151 24.2682 55.8878 24.6427 55.2387 25.1067C55.0987 25.2073 54.998 25.3582 54.8637 25.47C53.2463 26.8339 53.8563 27.3538 55.4234 28.645C55.6037 28.7885 55.8332 28.8554 56.0625 28.8313C56.2918 28.8073 56.5024 28.6942 56.649 28.5165C56.9232 28.2593 57.2086 27.991 57.4661 27.7283C58.4398 26.8171 58.4342 26.8227 59.2905 27.9016C63.0283 32.542 65.3119 38.1811 65.8551 44.1121C65.9111 44.6711 65.7824 44.9786 65.1724 44.9394C64.9317 44.9394 64.6911 44.9394 64.4448 44.9394C62.5253 44.9394 62.4245 45.0848 62.4133 46.9909C62.4077 48.0083 62.9226 48.3548 63.8068 48.3828Z" fill="#0B649D"/>
<path d="M49.8117 34.0618C49.2521 33.4637 48.9834 33.5922 48.463 34.1121C43.7619 38.8579 39.2456 44.1738 34.5446 48.9028C33.9346 49.5233 33.6268 49.4618 33.0279 48.9028C29.9499 45.7557 26.8103 42.6701 23.6986 39.5566C23.2901 39.1485 22.9767 38.7908 22.417 39.456C21.7063 40.2889 21.9693 39.8585 21.2306 40.6746C20.5132 41.4969 19.743 42.2719 18.9248 42.9944C18.3652 43.4136 18.4715 43.721 18.9528 44.2018C24.0568 49.2326 26.0212 51.1947 31.1028 56.2758C33.5876 58.7633 33.3413 58.931 36.0892 56.3261C36.1508 56.3261 46.7225 45.3141 53.3375 38.7405C53.7796 38.2933 53.6957 38.0585 53.3095 37.684C51.3675 35.7499 51.6921 36.0238 49.8117 34.0618Z" fill="#0B649D"/>
</svg>
