<svg width="75" height="87" viewBox="0 0 75 87" fill="none" xmlns="http://www.w3.org/2000/svg">
<g clip-path="url(#clip0_4869_2958)">
<path d="M66.4061 30.0622C66.02 29.5032 65.3316 29.0001 65.2476 28.3852C65.1413 27.6585 66.1095 27.3343 66.5069 26.753C66.6339 26.553 66.7801 26.3658 66.9434 26.194C67.3351 25.8306 67.6765 25.5735 68.2474 26.0598C68.6208 26.4028 69.1152 26.5836 69.6221 26.5627C70.1289 26.5417 70.6067 26.3206 70.9504 25.948C71.3022 25.5637 71.492 25.0588 71.4806 24.5382C71.4691 24.0177 71.2572 23.5216 70.8889 23.1531C70.4971 22.7227 69.9823 22.4041 69.6073 21.9625C68.404 20.5855 67.1221 19.279 65.7681 18.0496C65.401 17.7355 64.9335 17.5628 64.4502 17.5628C63.9668 17.5628 63.4993 17.7355 63.1322 18.0496C62.7857 18.391 62.5719 18.8442 62.5288 19.3285C62.4858 19.8127 62.6163 20.2965 62.8971 20.6936C63.7814 21.9513 63.7814 21.9513 62.7237 23.0301C62.5149 23.2025 62.3185 23.3892 62.136 23.5891C61.6211 24.2878 61.2126 24.299 60.5019 23.6953C56.0109 19.8523 50.6208 17.2046 44.8318 15.9981C43.9363 15.8024 42.7443 15.9981 42.2014 15.3608C41.6586 14.7236 42.1287 13.5665 42.0111 12.6498C41.8824 11.6156 42.2406 11.2914 43.3039 11.3306C43.7473 11.3561 44.1913 11.2924 44.6095 11.1432C45.0277 10.994 45.4116 10.7623 45.7384 10.462C46.0652 10.1616 46.3282 9.79868 46.5118 9.39477C46.6954 8.99086 46.7958 8.55421 46.8071 8.11077C46.8183 7.66733 46.7402 7.22616 46.5774 6.81348C46.4145 6.40079 46.1703 6.02502 45.8591 5.7085C45.548 5.39197 45.1763 5.14116 44.7662 4.97097C44.3561 4.80077 43.9159 4.71466 43.4718 4.71777C39.5021 4.66187 35.5342 4.64883 31.5681 4.67864C30.7292 4.67936 29.9216 4.99745 29.3079 5.5689C28.6942 6.14036 28.3201 6.92275 28.2606 7.75865C28.2181 8.59144 28.4777 9.41162 28.9916 10.0687C29.5056 10.7258 30.2396 11.1758 31.0589 11.3362C31.7025 11.4647 32.6147 10.9952 32.9449 11.6548C33.2751 12.3144 33.0344 13.069 33.0456 13.7901C33.0315 13.9276 33.0315 14.0662 33.0456 14.2037C33.2919 15.3217 32.6706 15.6068 31.6745 15.7745C27.0341 16.491 22.5885 18.1443 18.6089 20.6334C14.6293 23.1226 11.1991 26.3954 8.5275 30.2522C5.83483 33.9115 3.89957 38.0702 2.83487 42.4852C1.77016 46.9002 1.59739 51.483 2.32663 55.9655C4.00557 67.0334 9.79232 75.3847 19.1944 81.3267C19.4742 81.4999 19.754 81.7459 20.1178 81.5223C20.1626 82.0478 20.6327 82.1316 20.974 82.3049C24.8233 84.3305 29.0184 85.6179 33.3422 86.1004C40.5903 86.9763 47.9328 85.6044 54.3737 82.1707C54.7375 81.9751 55.258 81.8968 55.3251 81.3323C55.8848 81.5 56.2541 81.1143 56.6347 80.8627C65.326 75.0772 70.8161 67.134 72.5902 56.8263C74.23 47.0609 72.0026 38.1618 66.4061 30.0622ZM65.2141 52.5166C67.3855 52.5948 67.4191 52.6004 67.1169 54.7525C66.3526 60.3439 64.038 65.6103 60.4347 69.9569C59.9478 70.5494 59.6008 70.5606 59.1643 69.9569C59.0521 69.8254 58.9325 69.7003 58.8061 69.5824C57.4406 68.1793 57.2671 68.2073 55.8512 69.5824C55.1852 70.2364 55.1908 70.8066 55.8232 71.4326L55.8904 71.5109C57.4014 73.1375 57.4014 73.1319 55.6217 74.4735C54.4226 75.399 53.1498 76.2254 51.8161 76.9442C51.6259 77.0448 51.4524 77.1343 51.4076 77.3635C49.891 77.7156 48.6094 78.5876 47.1039 79.0404C44.9135 79.7469 42.664 80.2558 40.3826 80.5609C39.4536 80.6671 39.101 80.3932 39.2241 79.4708C39.2465 79.1955 39.2465 78.9189 39.2241 78.6435C39.2241 77.3579 38.9611 77.1063 37.6347 77.0896C36.0173 77.0896 35.7767 77.3076 35.7935 78.9063C35.7935 80.7509 35.7935 80.695 33.9914 80.4714C30.8172 80.0621 27.7219 79.1823 24.8076 77.861C24.574 77.7131 24.3004 77.6409 24.0241 77.6541C23.7163 77.0393 23.0391 76.961 22.5299 76.6535C21.1475 75.8039 19.8436 74.8536 18.5396 73.8978C17.7953 73.3388 17.5938 72.886 18.4388 72.2935C18.5171 72.2265 18.5901 72.1536 18.6571 72.0755C20.0562 70.678 19.8995 69.711 18.1478 68.7216C17.5602 68.3973 17.1685 68.6936 16.7767 69.0569C15.0978 70.65 15.0978 70.6556 13.6819 68.7942C10.3217 64.3059 8.26527 58.9794 7.73842 53.3998C7.66566 52.7681 7.78318 52.4048 8.52192 52.4886C8.86675 52.5082 9.21243 52.5082 9.55727 52.4886C10.9228 52.4886 11.1914 52.2091 11.2026 50.862C11.2026 49.2521 11.0571 49.1235 9.31102 49.1012C7.56492 49.0788 7.63208 49.3304 7.85594 47.4969C8.50422 41.859 10.7375 36.5197 14.2975 32.0969C15.2265 30.9174 15.316 30.8615 16.2394 31.9683C17.6385 33.6452 18.3101 32.9074 19.5414 31.454C19.6628 31.3029 19.7248 31.1126 19.7155 30.919C19.7062 30.7255 19.6264 30.542 19.491 30.4031C19.3165 30.1875 19.1296 29.9822 18.9313 29.7882C17.6777 28.469 17.6721 28.4634 19.0936 27.3678C23.4852 23.9328 28.7492 21.7898 34.2936 21.1799C35.7543 21.0122 35.7543 21.0234 35.7543 22.4879C35.7543 24.2934 36.8736 25.0592 38.6029 24.3829C39.1625 24.1649 39.1961 23.6785 39.2297 23.1866C39.3584 21.029 39.3584 21.0234 41.5019 21.3029C47.0602 22.0434 52.2971 24.3333 56.6123 27.9101C57.2223 28.402 57.2951 28.7765 56.6459 29.2404C56.506 29.3411 56.4052 29.492 56.2709 29.6038C54.6536 30.9677 55.2636 31.4876 56.8306 32.7788C57.0109 32.9223 57.2405 32.9892 57.4697 32.9651C57.699 32.9411 57.9096 32.828 58.0562 32.6502C58.3304 32.3931 58.6158 32.1248 58.8733 31.8621C59.8471 30.9509 59.8415 30.9565 60.6977 32.0354C64.4355 36.6758 66.7191 42.3149 67.2624 48.2459C67.3183 48.8049 67.1896 49.1124 66.5796 49.0732C66.339 49.0732 66.0983 49.0732 65.8521 49.0732C63.9325 49.0732 63.8317 49.2186 63.8206 51.1247C63.815 52.1421 64.3298 52.4886 65.2141 52.5166Z" fill="#6A983C"/>
<path d="M51.8879 38.1956C51.3282 37.5975 51.0596 37.726 50.5391 38.2459C45.8381 42.9917 41.3218 48.3076 36.6207 53.0366C36.0107 53.6571 35.7029 53.5956 35.1041 53.0366C32.0261 49.8895 28.8864 46.8039 25.7748 43.6904C25.3663 43.2823 25.0529 42.9246 24.4932 43.5898C23.7825 44.4227 24.0455 43.9922 23.3068 44.8084C22.5893 45.6307 21.8191 46.4056 21.001 47.1282C20.4414 47.5474 20.5477 47.8548 21.029 48.3356C26.133 53.3664 28.0973 55.3285 33.1789 60.4096C35.6638 62.8971 35.4175 63.0648 38.1654 60.4599C38.2269 60.4599 48.7986 49.4479 55.4137 42.8743C55.8558 42.4271 55.7718 42.1923 55.3857 41.8178C53.4437 39.8837 53.7683 40.1576 51.8879 38.1956Z" fill="#6A983C"/>
</g>
<defs>
<clipPath id="clip0_4869_2958">
<rect width="75" height="86" fill="white" transform="translate(0 0.5)"/>
</clipPath>
</defs>
</svg>
