<svg width="46" height="47" viewBox="0 0 46 47" fill="none" xmlns="http://www.w3.org/2000/svg">
<path d="M18.5703 11.6179C17.5679 11.8174 16.4703 12.4786 15.6079 14.029C15.5171 14.1918 15.3957 14.3348 15.2505 14.4498C15.1054 14.5649 14.9395 14.6497 14.7621 14.6994C14.5848 14.7492 14.3996 14.7629 14.2171 14.7398C14.0345 14.7167 13.8583 14.6572 13.6983 14.5648C13.5384 14.4723 13.3979 14.3487 13.2848 14.201C13.1718 14.0533 13.0885 13.8844 13.0396 13.7039C12.9907 13.5234 12.9773 13.3349 13 13.1491C13.0227 12.9633 13.0811 12.7839 13.1719 12.6211C14.4067 10.4095 16.1623 9.19254 18.0327 8.82204C19.7731 8.48749 21.573 8.85656 23.0503 9.85089C24.4055 10.7629 25.5003 12.2534 25.5339 14.0404C25.5703 15.9071 24.4559 17.5915 22.4007 18.8284C21.0063 19.6663 20.4631 20.2363 20.2307 20.6153C20.0347 20.9345 19.9899 21.2252 19.9899 21.875C19.9899 22.253 19.8424 22.6154 19.5799 22.8827C19.3173 23.1499 18.9612 23.3 18.5899 23.3C18.2186 23.3 17.8625 23.1499 17.6 22.8827C17.3374 22.6154 17.1899 22.253 17.1899 21.875C17.1899 21.0998 17.2291 20.1365 17.8535 19.1105C18.4415 18.1501 19.4467 17.2951 20.9755 16.3745C22.4735 15.4711 22.7451 14.6132 22.7367 14.1002C22.7227 13.5103 22.3391 12.7892 21.5047 12.2278C20.6408 11.646 19.5891 11.4275 18.5703 11.6179Z" fill="#5A72C8"/>
<path d="M19.2899 30.425C19.8469 30.425 20.381 30.1998 20.7749 29.799C21.1687 29.3981 21.3899 28.8544 21.3899 28.2875C21.3899 27.7206 21.1687 27.1769 20.7749 26.7761C20.381 26.3752 19.8469 26.15 19.2899 26.15C18.733 26.15 18.1988 26.3752 17.805 26.7761C17.4112 27.1769 17.1899 27.7206 17.1899 28.2875C17.1899 28.8544 17.4112 29.3981 17.805 29.799C18.1988 30.1998 18.733 30.425 19.2899 30.425Z" fill="#5A72C8"/>
<path d="M18.5897 0.500001C15.4159 0.499247 12.297 1.3433 9.54266 2.9484C6.7883 4.55351 4.49421 6.86385 2.88804 9.65015C1.28188 12.4364 0.419481 15.6018 0.386443 18.8322C0.353405 22.0625 1.15087 25.2455 2.6997 28.0652L0.473703 33.9989C0.288425 34.4922 0.241426 35.0281 0.337952 35.547C0.434477 36.0658 0.67073 36.5472 1.02035 36.9373C1.36998 37.3275 1.81922 37.6111 2.31797 37.7565C2.81672 37.9019 3.34535 37.9035 3.8449 37.7609L10.8085 35.7745C13.2753 36.9608 15.9725 37.5675 18.7007 37.5496C21.4289 37.5318 24.1183 36.8898 26.5699 35.6713C29.0214 34.4527 31.1725 32.6888 32.8639 30.5099C34.5553 28.331 35.7439 25.7929 36.3416 23.0834C36.9392 20.3738 36.9308 17.5622 36.3169 14.8565C35.703 12.1507 34.4993 9.62004 32.7948 7.45168C31.0904 5.28333 28.9288 3.53275 26.4699 2.32945C24.0111 1.12616 21.318 0.500921 18.5897 0.500001ZM3.1897 19.025C3.19095 15.6091 4.28844 12.2871 6.31518 9.56441C8.34193 6.84176 11.187 4.86751 14.4175 3.94205C17.648 3.0166 21.087 3.19059 24.2114 4.43756C27.3358 5.68453 29.9745 7.93622 31.726 10.85C33.4775 13.7638 34.2459 17.1802 33.9144 20.5795C33.5828 23.9787 32.1694 27.1746 29.8892 29.681C27.609 32.1874 24.5869 33.867 21.2826 34.4643C17.9783 35.0616 14.5727 34.5439 11.5841 32.99L11.0969 32.7335L3.0889 35.0164L5.8021 27.7888L5.4437 27.1903C3.96571 24.7327 3.18552 21.9064 3.1897 19.025Z" fill="#5A72C8"/>
<path d="M26.8859 46.0999C24.2661 46.1029 21.6766 45.5288 19.2953 44.417C16.9139 43.3051 14.7972 41.682 13.0903 39.6589C14.6667 40.095 16.3187 40.3458 18.0183 40.3914C20.612 42.256 23.7105 43.2549 26.8859 43.2499C29.4115 43.2499 31.7915 42.6315 33.8915 41.5399L34.3787 41.2834L42.3867 43.5663L39.6735 36.3387L40.0319 35.7402C41.4599 33.3633 42.2859 30.5703 42.2859 27.5749C42.2903 24.4102 41.3489 21.3189 39.5867 18.7114C39.5638 17.016 39.3429 15.3293 38.9287 13.6869C40.866 15.4232 42.4173 17.5601 43.479 19.9549C44.5408 22.3498 45.0886 24.9475 45.0859 27.5749C45.0859 30.8553 44.2459 33.939 42.7731 36.6151L45.0019 42.5488C45.1869 43.0418 45.2338 43.5774 45.1374 44.0959C45.0409 44.6144 44.805 45.0955 44.4557 45.4855C44.1065 45.8755 43.6577 46.1592 43.1595 46.3049C42.6612 46.4507 42.1329 46.4527 41.6335 46.3108L34.6671 44.3244C32.3067 45.4644 29.6663 46.0999 26.8831 46.0999H26.8859Z" fill="#5A72C8"/>
</svg>
