<svg width="37" height="37" viewBox="0 0 37 37" fill="none" xmlns="http://www.w3.org/2000/svg">
<path d="M4.10175 11.3712H0.501953V32.9714C0.501953 34.9568 2.11646 36.5714 4.10175 36.5714H25.7005V32.9714H4.10175V11.3712Z" fill="#5A72C8"/>
<path d="M32.8998 0.571411H11.301C10.3462 0.571411 9.43062 0.950698 8.75553 1.62583C8.08044 2.30097 7.70117 3.21665 7.70117 4.17144V25.7716C7.70117 26.7264 8.08044 27.642 8.75553 28.3172C9.43062 28.9923 10.3462 29.3716 11.301 29.3716H32.8998C33.8545 29.3716 34.7701 28.9923 35.4452 28.3172C36.1203 27.642 36.4996 26.7264 36.4996 25.7716V4.17144C36.4996 3.21665 36.1203 2.30097 35.4452 1.62583C34.7701 0.950698 33.8545 0.571411 32.8998 0.571411ZM16.7007 22.1716V7.77146L29.3 14.9715L16.7007 22.1716Z" fill="#5A72C8"/>
</svg>
