<svg id="Layer_1" data-name="Layer 1" xmlns="http://www.w3.org/2000/svg" viewBox="0 0 74.76 34.94"><defs><style>.cls-1{opacity:0.2;}.cls-2{fill:#0b649d;}</style></defs><g class="cls-1"><path class="cls-2" d="M4.21,21.85a2.63,2.63,0,1,0,0,5.26,3.16,3.16,0,0,0,2.15-.93l.9,1a4.52,4.52,0,0,1-3.13,1.36,4,4,0,1,1,.06-8,4.41,4.41,0,0,1,3.05,1.27l-.88,1.11a3,3,0,0,0-2.15-1"/><path class="cls-2" d="M12,28.47v-.73a2.39,2.39,0,0,1-2,.8,1.9,1.9,0,0,1-2.11-1.88c0-1.12.82-1.81,2.29-1.82H12v-.16c0-.7-.47-1.12-1.37-1.12a3.55,3.55,0,0,0-1.8.56l-.53-1A4.84,4.84,0,0,1,11,22.36c1.58,0,2.48.8,2.49,2.15v4Zm0-2.1v-.55H10.47c-.78,0-1.14.22-1.14.75s.4.84,1.07.84a1.49,1.49,0,0,0,1.6-1"/><path class="cls-2" d="M18.64,22.36v1.43a1.74,1.74,0,0,0-2.06,1.76v2.92H15.11v-6h1.47v1.16a2.21,2.21,0,0,1,2.06-1.22"/><path class="cls-2" d="M25.1,26H20.62a1.7,1.7,0,0,0,1.74,1.38A2.28,2.28,0,0,0,24,26.66l.79.83a3.4,3.4,0,0,1-2.55,1,2.92,2.92,0,0,1-3.11-3.07,2.94,2.94,0,0,1,3.08-3.09c2.13,0,3,1.39,2.9,3.59m-1.34-1a1.44,1.44,0,0,0-1.55-1.46A1.59,1.59,0,0,0,20.59,25Z"/><path class="cls-2" d="M31.8,26H27.32a1.7,1.7,0,0,0,1.74,1.38,2.24,2.24,0,0,0,1.63-.68l.79.83a3.4,3.4,0,0,1-2.55,1,2.92,2.92,0,0,1-3.11-3.07,2.94,2.94,0,0,1,3.08-3.09c2.13,0,3,1.39,2.9,3.59m-1.34-1a1.44,1.44,0,0,0-1.55-1.46A1.59,1.59,0,0,0,27.29,25Z"/><path class="cls-2" d="M36.61,22.36v1.43a1.74,1.74,0,0,0-2.06,1.76v2.92H33.07v-6h1.48v1.16a2.21,2.21,0,0,1,2.06-1.22"/><path class="cls-2" d="M39.45,23.5c-.48,0-.82.16-.82.53,0,1,3.21.49,3.21,2.66,0,1.24-1.1,1.84-2.39,1.84a4,4,0,0,1-2.51-.85l.51-1a3.39,3.39,0,0,0,2,.75c.51,0,.9-.17.9-.57,0-1.12-3.16-.51-3.15-2.66,0-1.24,1.06-1.82,2.29-1.82a4.07,4.07,0,0,1,2.22.65l-.54,1.06a3.66,3.66,0,0,0-1.77-.55"/><path class="cls-2" d="M46.74,21.85a2.63,2.63,0,1,0,0,5.26,3.16,3.16,0,0,0,2.15-.93l.89,1a4.49,4.49,0,0,1-3.12,1.36,4,4,0,1,1,.06-8,4.37,4.37,0,0,1,3.05,1.27l-.88,1.1a3,3,0,0,0-2.15-1"/><rect class="cls-2" x="51.03" y="20.07" width="1.47" height="8.4"/><path class="cls-2" d="M60.22,25.44A3.2,3.2,0,1,1,57,22.37a3,3,0,0,1,3.18,3.07m-4.9,0a1.71,1.71,0,1,0,3.42,0,1.71,1.71,0,1,0-3.42,0"/><path class="cls-2" d="M67.09,22.42v6H65.61V27.35a2.2,2.2,0,0,1-2.11,1.18,2.1,2.1,0,0,1-2.2-2.32V22.42h1.49v3.36a1.22,1.22,0,0,0,1.3,1.36,1.57,1.57,0,0,0,1.52-1.74v-3Z"/><path class="cls-2" d="M74.76,20.07v8.4H73.29v-1a2.29,2.29,0,0,1-2,1,2.84,2.84,0,0,1-2.88-3.11,2.8,2.8,0,0,1,2.85-3.07,2.32,2.32,0,0,1,2.07,1.05V20.07Zm-1.47,5.39a1.72,1.72,0,1,0-3.44,0,1.72,1.72,0,1,0,3.44,0"/><path class="cls-2" d="M12.84,32.27a.18.18,0,0,1,.19-.19.21.21,0,0,1,.13.05.2.2,0,0,1,.06.14v2.28h1.32a.19.19,0,0,1,.19.19h0a.21.21,0,0,1-.19.19H13a.2.2,0,0,1-.14-.06.15.15,0,0,1,0-.06.17.17,0,0,1,0-.07Z"/><path class="cls-2" d="M18.64,34.55a.19.19,0,0,1,.14.32h0a.16.16,0,0,1-.13.06H17l-.07,0a.17.17,0,0,1-.1-.1.19.19,0,0,1,0-.07V32.27a.24.24,0,0,1,0-.08l0-.06a.09.09,0,0,1,.06,0h1.72a.19.19,0,0,1,.19.19.18.18,0,0,1-.06.13.13.13,0,0,1-.13.05H17.18v.87h1.05a.19.19,0,0,1,.2.17.18.18,0,0,1-.18.2H17.18v.86Z"/><path class="cls-2" d="M20.93,34.65l.95-2.45a.18.18,0,0,1,.18-.12.18.18,0,0,1,.18.12l1,2.46a.11.11,0,0,1,0,.08.13.13,0,0,1-.05.13.18.18,0,0,1-.13.06.2.2,0,0,1-.14-.06l0-.06L22.51,34H21.6l-.33.84,0,.06a.18.18,0,0,1-.13.06.2.2,0,0,1-.14-.06.19.19,0,0,1-.05-.13.29.29,0,0,1,0-.09m1.44-1.06-.31-.8-.31.8Z"/><path class="cls-2" d="M25.3,34.74V32.27a.22.22,0,0,1,0-.08l0-.06a.24.24,0,0,1,.14-.05h.69a.87.87,0,0,1,.87.87.85.85,0,0,1,0,.23.67.67,0,0,1-.09.21.85.85,0,0,1-.14.19l-.2.15.57.9a.23.23,0,0,1,0,.11.19.19,0,0,1,0,.07.17.17,0,0,1-.1.1.18.18,0,0,1-.23-.08l-.63-1h-.53v.91a.16.16,0,0,1-.06.13.19.19,0,0,1-.32-.13m.38-2.29v1h.5a.47.47,0,0,0,.35-.15.44.44,0,0,0,.1-.16.41.41,0,0,0,0-.19.43.43,0,0,0,0-.19.54.54,0,0,0-.1-.16.91.91,0,0,0-.16-.11.65.65,0,0,0-.19,0Z"/><path class="cls-2" d="M29.26,34.74V32.27a.22.22,0,0,1,0-.08l0-.06.06,0a.19.19,0,0,1,.22.06l1.59,2V32.27a.2.2,0,0,1,.06-.14.19.19,0,0,1,.26,0h0a.24.24,0,0,1,0,.14v2.47a.17.17,0,0,1,0,.07.15.15,0,0,1,0,.06l-.06,0-.08,0a.19.19,0,0,1-.14-.07l-1.59-2v1.92a.18.18,0,0,1-.18.2.19.19,0,0,1-.2-.17v0"/><path class="cls-2" d="M38.52,32.45h-.71v2.29a.19.19,0,0,1-.17.2.18.18,0,0,1-.2-.18V32.45h-.71a.13.13,0,0,1-.13-.05.18.18,0,0,1-.06-.13.19.19,0,0,1,.19-.19h1.79a.19.19,0,0,1,.19.19.18.18,0,0,1-.06.13.13.13,0,0,1-.13.05"/><path class="cls-2" d="M43.27,33.5a1.43,1.43,0,0,1-1.42,1.44,1.44,1.44,0,0,1-1.44-1.43,1.43,1.43,0,0,1,1.43-1.43,1.45,1.45,0,0,1,1,.42,1.34,1.34,0,0,1,.41,1m-1.42-1a1.15,1.15,0,0,0-.41.08,1.11,1.11,0,0,0-.56.57.92.92,0,0,0-.08.4,1,1,0,0,0,1.05,1,1.05,1.05,0,0,0,0-2.1"/><path class="cls-2" d="M48.27,32.27a.24.24,0,0,1,0-.14.2.2,0,0,1,.27,0,.2.2,0,0,1,.06.14v2.28H50a.19.19,0,0,1,.19.19.2.2,0,0,1-.19.19H48.46l-.08,0a.19.19,0,0,1-.1-.1.17.17,0,0,1,0-.07Z"/><path class="cls-2" d="M54.07,34.55a.19.19,0,0,1,.19.19.21.21,0,0,1-.19.19H52.42l-.08,0-.06,0a.09.09,0,0,1,0-.06.17.17,0,0,1,0-.07V32.27a.22.22,0,0,1,0-.08.21.21,0,0,1,0-.06l.06,0h1.72a.17.17,0,0,1,.19.19.18.18,0,0,1-.19.18H52.6v.87h1a.13.13,0,0,1,.13,0,.18.18,0,0,1,0,.27.19.19,0,0,1-.13,0h-1v.86Z"/><path class="cls-2" d="M56.36,34.65l.94-2.45a.2.2,0,0,1,.18-.12.17.17,0,0,1,.18.12l1,2.46a.22.22,0,0,1,0,.08.19.19,0,0,1-.19.19.18.18,0,0,1-.13-.06.21.21,0,0,1,0-.06L57.94,34H57l-.33.84-.05.06a.19.19,0,0,1-.32-.13.29.29,0,0,1,0-.09m1.44-1.06-.31-.8-.31.8Z"/><path class="cls-2" d="M61.46,32.08a1.33,1.33,0,0,1,1,.42,1.34,1.34,0,0,1,.42,1,1.43,1.43,0,0,1-1.43,1.43h-.54l-.08,0-.06,0a.21.21,0,0,1,0-.06.17.17,0,0,1,0-.07V32.27a.22.22,0,0,1,0-.08.21.21,0,0,1,0-.06l.06,0h.62Zm0,2.47a1,1,0,0,0,.74-.31.94.94,0,0,0,.23-.33,1,1,0,0,0,.08-.41,1.06,1.06,0,0,0-1-1H61.1v2.1Z"/><path class="cls-2" d="M44.48,12.51l-4.11,1.08a3.42,3.42,0,0,0-1.17-1.16,2.51,2.51,0,0,0,.17-3V8.11h.71l.77-1.18V8.22a.65.65,0,1,0,.24,1.27.65.65,0,0,0,0-1.28V6.62H34.87l-1,1.49h1.3V9.53a2.5,2.5,0,0,0,.25,2.9,3.63,3.63,0,0,0-1.18,1.16l-4.1-1.08L32.5,18l-1.07-4.19L37,15.12l.33,2.57.33-2.57,5.54-1.36L42.1,18Zm-6.95,0a1.88,1.88,0,0,1-1.9-1.89,2,2,0,0,1,.17-.8A4.15,4.15,0,0,0,39,9.7h.2a1.89,1.89,0,0,1-.79,2.56,1.86,1.86,0,0,1-.89.22"/><path class="cls-2" d="M47,4.94a6,6,0,0,0-4.24-1.86,5.3,5.3,0,0,0-1.05.07,5.28,5.28,0,0,0-10,1.22l-.23,0a5.28,5.28,0,0,0-2.89,9.78.81.81,0,0,0,.88-1.35l0,0a3.67,3.67,0,0,1,.14-6.34A3.77,3.77,0,0,1,31.43,6a4.28,4.28,0,0,1,.8.11.81.81,0,0,0,1-.59,1.23,1.23,0,0,0,0-.19V5.2a3.68,3.68,0,0,1,7.21-.91.8.8,0,0,0,1,.56h0a4.44,4.44,0,0,1,3.7,8,.8.8,0,0,0-.21,1.12.81.81,0,0,0,1.12.21,6,6,0,0,0,1.61-8.4A6.82,6.82,0,0,0,47,4.94"/></g></svg>